%TF.GenerationSoftware,KiCad,Pcbnew,7.0.7*%
%TF.CreationDate,2023-09-25T17:24:45-05:00*%
%TF.ProjectId,KiVM,4b69564d-2e6b-4696-9361-645f70636258,rev?*%
%TF.SameCoordinates,Original*%
%TF.FileFunction,Copper,L4,Bot*%
%TF.FilePolarity,Positive*%
%FSLAX46Y46*%
G04 Gerber Fmt 4.6, Leading zero omitted, Abs format (unit mm)*
G04 Created by KiCad (PCBNEW 7.0.7) date 2023-09-25 17:24:45*
%MOMM*%
%LPD*%
G01*
G04 APERTURE LIST*
%TA.AperFunction,ComponentPad*%
%ADD10O,2.100000X1.050000*%
%TD*%
%TA.AperFunction,ComponentPad*%
%ADD11O,1.800000X0.900000*%
%TD*%
%TA.AperFunction,ComponentPad*%
%ADD12R,1.700000X1.700000*%
%TD*%
%TA.AperFunction,ComponentPad*%
%ADD13O,1.700000X1.700000*%
%TD*%
%TA.AperFunction,ViaPad*%
%ADD14C,0.800000*%
%TD*%
%TA.AperFunction,Conductor*%
%ADD15C,0.228600*%
%TD*%
%TA.AperFunction,Conductor*%
%ADD16C,0.600000*%
%TD*%
%TA.AperFunction,Conductor*%
%ADD17C,0.508000*%
%TD*%
%TA.AperFunction,Conductor*%
%ADD18C,0.250000*%
%TD*%
G04 APERTURE END LIST*
D10*
%TO.P,P1,S1,SHIELD*%
%TO.N,GND*%
X125756000Y-102360000D03*
D11*
X121576000Y-102360000D03*
D10*
X125756000Y-111000000D03*
D11*
X121576000Y-111000000D03*
%TD*%
D10*
%TO.P,P3,S1,SHIELD*%
%TO.N,GND*%
X172096000Y-130558000D03*
D11*
X176276000Y-130558000D03*
D10*
X172096000Y-121918000D03*
D11*
X176276000Y-121918000D03*
%TD*%
D10*
%TO.P,P4,S1,SHIELD*%
%TO.N,GND*%
X172096000Y-111000000D03*
D11*
X176276000Y-111000000D03*
D10*
X172096000Y-102360000D03*
D11*
X176276000Y-102360000D03*
%TD*%
D10*
%TO.P,P2,S1,SHIELD*%
%TO.N,GND*%
X125632000Y-122014000D03*
D11*
X121452000Y-122014000D03*
D10*
X125632000Y-130654000D03*
D11*
X121452000Y-130654000D03*
%TD*%
D12*
%TO.P,SW1,1,A*%
%TO.N,+3V3*%
X147574000Y-113588800D03*
D13*
%TO.P,SW1,2,B*%
%TO.N,/KVM/SOURCE_SEL*%
X147574000Y-116128800D03*
%TO.P,SW1,3,C*%
%TO.N,GND*%
X147574000Y-118668800D03*
%TD*%
D12*
%TO.P,J1,1*%
%TO.N,+12V*%
X148457600Y-104826200D03*
D13*
%TO.P,J1,2*%
%TO.N,GND*%
X150997600Y-104826200D03*
%TD*%
D14*
%TO.N,/KVM/SOURCE_SEL*%
X131521200Y-112928400D03*
X133197600Y-130200400D03*
X143357600Y-115011200D03*
%TO.N,GND*%
X151434800Y-128422400D03*
X144576800Y-101244400D03*
X149758400Y-101650800D03*
X144780000Y-127914400D03*
X150520400Y-117652800D03*
X143713200Y-122123200D03*
X149148800Y-116332000D03*
X150418800Y-122072400D03*
X162433000Y-120523000D03*
X139852400Y-99822000D03*
X154228800Y-115112800D03*
X151130000Y-109220000D03*
X135128000Y-99415600D03*
X157530800Y-115417600D03*
X154432000Y-122072400D03*
X137972800Y-99263200D03*
X159308800Y-104444800D03*
X165658800Y-119532400D03*
X140512800Y-122174000D03*
X163830000Y-121158000D03*
X158242000Y-122783600D03*
X159054800Y-116941600D03*
X146100800Y-107746800D03*
X157378400Y-120700800D03*
X149656800Y-126136400D03*
X151180800Y-107188000D03*
X141122400Y-108356400D03*
X160934400Y-111861600D03*
X142849600Y-107899200D03*
X163017200Y-123545600D03*
X162433000Y-119126000D03*
X151028400Y-103124000D03*
X158343600Y-127254000D03*
X150215600Y-123291600D03*
X154101800Y-119862600D03*
X154990800Y-110185200D03*
X162204400Y-112522000D03*
X163372800Y-104394000D03*
X151485600Y-130251200D03*
X144830800Y-127050800D03*
X146510487Y-126238476D03*
X147370800Y-122123200D03*
X150520400Y-110947200D03*
X163779200Y-122732800D03*
X143103600Y-101142800D03*
X164007800Y-119151400D03*
X134924800Y-101041200D03*
%TO.N,+5V*%
X148285200Y-110134400D03*
X137795000Y-104013000D03*
X154228800Y-106578400D03*
X154813000Y-100838000D03*
X138176000Y-117729000D03*
X139319000Y-117729000D03*
X132969000Y-107188000D03*
X132969000Y-105029000D03*
X141173200Y-106730800D03*
X149707600Y-114808000D03*
X137795000Y-102870000D03*
X138303000Y-105029000D03*
X139801600Y-105003600D03*
X159410400Y-103124000D03*
X138303000Y-106045000D03*
X146405600Y-123799600D03*
X132969000Y-106045000D03*
X163322000Y-102693300D03*
X145135600Y-123139200D03*
X138303000Y-107188000D03*
X141986000Y-118364000D03*
%TO.N,+3V3*%
X160934400Y-117856000D03*
X134213600Y-126085600D03*
X137160000Y-127355600D03*
X147269200Y-131876800D03*
X138582400Y-128066800D03*
X142290800Y-127355600D03*
X134213600Y-127355600D03*
X140360400Y-128066800D03*
X135686800Y-127355600D03*
X155803600Y-118008400D03*
X148793200Y-113436400D03*
X137160000Y-126034800D03*
X135686800Y-126034800D03*
X125171200Y-113741200D03*
X159207200Y-111861600D03*
X142290800Y-126034800D03*
%TO.N,/KVM/Output Connectors/USP_PWR1*%
X162255200Y-105664000D03*
X166954000Y-126009400D03*
%TO.N,/KVM/Input Connectors A/VBUS*%
X127508000Y-104292400D03*
X127914400Y-108051600D03*
%TO.N,/KVM/Input Connectors B/VBUS*%
X127914400Y-123850400D03*
X127914400Y-128016000D03*
%TO.N,Net-(U2-RBIAS)*%
X160350200Y-122529600D03*
X160147039Y-118295262D03*
%TO.N,/Power/FB_5V*%
X146710400Y-106222800D03*
X137515600Y-101447600D03*
%TO.N,Net-(U2-~{OCS2})*%
X156484425Y-113739078D03*
X156870400Y-103276400D03*
%TO.N,Net-(U2-~{OCS1})*%
X160223200Y-113487200D03*
X158242000Y-104394000D03*
%TO.N,Net-(U2-PRTPWR1)*%
X161239200Y-114147600D03*
X158902400Y-105613200D03*
%TO.N,Net-(U2-PRTPWR2)*%
X157378400Y-113284000D03*
X157124400Y-101752400D03*
%TO.N,/Power/FB_3V3*%
X134315200Y-121920000D03*
X150266400Y-124612400D03*
%TD*%
D15*
%TO.N,/KVM/SOURCE_SEL*%
X143357600Y-115011200D02*
X133604000Y-115011200D01*
X131521200Y-112928400D02*
X131521200Y-128524000D01*
X131521200Y-128524000D02*
X133197600Y-130200400D01*
X133604000Y-115011200D02*
X131521200Y-112928400D01*
D16*
%TO.N,/KVM/Output Connectors/USP_PWR1*%
X164642800Y-105664000D02*
X166954000Y-107975200D01*
X166954000Y-107975200D02*
X166954000Y-126009400D01*
X162255200Y-105664000D02*
X164642800Y-105664000D01*
D17*
%TO.N,/KVM/Input Connectors A/VBUS*%
X127508000Y-104292400D02*
X127508000Y-107645200D01*
X127508000Y-107645200D02*
X127914400Y-108051600D01*
%TO.N,/KVM/Input Connectors B/VBUS*%
X127914400Y-123850400D02*
X127914400Y-128016000D01*
D15*
%TO.N,Net-(U2-RBIAS)*%
X160350200Y-122529600D02*
X160350200Y-118498423D01*
X160350200Y-118498423D02*
X160147039Y-118295262D01*
%TO.N,/Power/FB_5V*%
X146710400Y-105808985D02*
X146710400Y-106222800D01*
X142349015Y-101447600D02*
X146710400Y-105808985D01*
X137515600Y-101447600D02*
X142349015Y-101447600D01*
D18*
%TO.N,Net-(U2-~{OCS2})*%
X156159200Y-113413853D02*
X156484425Y-113739078D01*
X156870400Y-103276400D02*
X156159200Y-103987600D01*
X156159200Y-103987600D02*
X156159200Y-113413853D01*
%TO.N,Net-(U2-~{OCS1})*%
X158191200Y-104444800D02*
X158242000Y-104394000D01*
X160223200Y-108813600D02*
X158191200Y-106781600D01*
X160223200Y-113487200D02*
X160223200Y-108813600D01*
X158191200Y-106781600D02*
X158191200Y-104444800D01*
%TO.N,Net-(U2-PRTPWR1)*%
X161239200Y-114147600D02*
X161561000Y-113825800D01*
X161561000Y-113825800D02*
X161561000Y-108271800D01*
X161561000Y-108271800D02*
X158902400Y-105613200D01*
%TO.N,Net-(U2-PRTPWR2)*%
X157546200Y-102174200D02*
X157124400Y-101752400D01*
X157546200Y-113116200D02*
X157546200Y-102174200D01*
X157378400Y-113284000D02*
X157546200Y-113116200D01*
D15*
%TO.N,/Power/FB_3V3*%
X137010700Y-124615500D02*
X150263300Y-124615500D01*
X134315200Y-121920000D02*
X137010700Y-124615500D01*
X150263300Y-124615500D02*
X150266400Y-124612400D01*
%TD*%
%TA.AperFunction,Conductor*%
%TO.N,+5V*%
G36*
X178026017Y-97017986D02*
G01*
X178044877Y-97033185D01*
X178955915Y-97944222D01*
X178986511Y-98000253D01*
X178989100Y-98024337D01*
X178989100Y-134930060D01*
X178971114Y-134991315D01*
X178955915Y-135010175D01*
X178022577Y-135943513D01*
X177966546Y-135974109D01*
X177942462Y-135976698D01*
X120036737Y-135976698D01*
X119975482Y-135958712D01*
X119956622Y-135943513D01*
X119033185Y-135020075D01*
X119002589Y-134964044D01*
X119000000Y-134939960D01*
X119000000Y-131876800D01*
X146663518Y-131876800D01*
X146684156Y-132033562D01*
X146744664Y-132179641D01*
X146840918Y-132305082D01*
X146966359Y-132401336D01*
X147112438Y-132461844D01*
X147269200Y-132482482D01*
X147425962Y-132461844D01*
X147572041Y-132401336D01*
X147697482Y-132305082D01*
X147793736Y-132179641D01*
X147854244Y-132033562D01*
X147874882Y-131876800D01*
X147854244Y-131720038D01*
X147793736Y-131573959D01*
X147697482Y-131448518D01*
X147572041Y-131352264D01*
X147425962Y-131291756D01*
X147269200Y-131271118D01*
X147112438Y-131291756D01*
X146966358Y-131352264D01*
X146840918Y-131448518D01*
X146744664Y-131573958D01*
X146744664Y-131573959D01*
X146684156Y-131720038D01*
X146663518Y-131876800D01*
X119000000Y-131876800D01*
X119000000Y-130612830D01*
X120347624Y-130612830D01*
X120357943Y-130776856D01*
X120357943Y-130776859D01*
X120380835Y-130847312D01*
X120405498Y-130923219D01*
X120408733Y-130933173D01*
X120408734Y-130933176D01*
X120496793Y-131071934D01*
X120496800Y-131071942D01*
X120616604Y-131184446D01*
X120616606Y-131184447D01*
X120616607Y-131184448D01*
X120660355Y-131208499D01*
X120760629Y-131263626D01*
X120760631Y-131263626D01*
X120760632Y-131263627D01*
X120919823Y-131304500D01*
X120919825Y-131304500D01*
X121942920Y-131304500D01*
X121942925Y-131304500D01*
X122065058Y-131289071D01*
X122217871Y-131228568D01*
X122350837Y-131131963D01*
X122455600Y-131005326D01*
X122525579Y-130856613D01*
X122556128Y-130696469D01*
X124377796Y-130696469D01*
X124392673Y-130780839D01*
X124407247Y-130863492D01*
X124474421Y-131019219D01*
X124547625Y-131117549D01*
X124575698Y-131155258D01*
X124705614Y-131264271D01*
X124705615Y-131264271D01*
X124705617Y-131264273D01*
X124857175Y-131340388D01*
X124907284Y-131352264D01*
X125022200Y-131379500D01*
X125022201Y-131379500D01*
X126199253Y-131379500D01*
X126199256Y-131379500D01*
X126325451Y-131364750D01*
X126484820Y-131306744D01*
X126626517Y-131213549D01*
X126742902Y-131090188D01*
X126827701Y-130943312D01*
X126856442Y-130847311D01*
X126876341Y-130780843D01*
X126876343Y-130780831D01*
X126886203Y-130611529D01*
X126871328Y-130527168D01*
X126856753Y-130444508D01*
X126789579Y-130288781D01*
X126688302Y-130152742D01*
X126651441Y-130121812D01*
X126558385Y-130043728D01*
X126406823Y-129967611D01*
X126241800Y-129928500D01*
X126241799Y-129928500D01*
X125493010Y-129928500D01*
X125431755Y-129910514D01*
X125389949Y-129862267D01*
X125380863Y-129799076D01*
X125407384Y-129741004D01*
X125424032Y-129725316D01*
X125542451Y-129634451D01*
X125634698Y-129514233D01*
X125692687Y-129374236D01*
X125712466Y-129224000D01*
X125692687Y-129073764D01*
X125634698Y-128933767D01*
X125542451Y-128813549D01*
X125422233Y-128721302D01*
X125422232Y-128721301D01*
X125422230Y-128721300D01*
X125331731Y-128683814D01*
X125282236Y-128663313D01*
X125232826Y-128656808D01*
X125169722Y-128648500D01*
X125169720Y-128648500D01*
X125094280Y-128648500D01*
X125094277Y-128648500D01*
X124981764Y-128663313D01*
X124841769Y-128721300D01*
X124721549Y-128813549D01*
X124629300Y-128933769D01*
X124571313Y-129073764D01*
X124551534Y-129223999D01*
X124571313Y-129374235D01*
X124629300Y-129514230D01*
X124629301Y-129514232D01*
X124629302Y-129514233D01*
X124721549Y-129634451D01*
X124841767Y-129726698D01*
X124896138Y-129749219D01*
X124945847Y-129789277D01*
X124966009Y-129849850D01*
X124950221Y-129911708D01*
X124903497Y-129955210D01*
X124891533Y-129960362D01*
X124779178Y-130001256D01*
X124637485Y-130094448D01*
X124521098Y-130217812D01*
X124436299Y-130364688D01*
X124436296Y-130364694D01*
X124387658Y-130527156D01*
X124387656Y-130527168D01*
X124377796Y-130696469D01*
X122556128Y-130696469D01*
X122556376Y-130695170D01*
X122546056Y-130531140D01*
X122495268Y-130374829D01*
X122495265Y-130374825D01*
X122495265Y-130374823D01*
X122407206Y-130236065D01*
X122407199Y-130236057D01*
X122287395Y-130123553D01*
X122143370Y-130044373D01*
X122044269Y-130018929D01*
X121984177Y-130003500D01*
X120961075Y-130003500D01*
X120961074Y-130003500D01*
X120838940Y-130018929D01*
X120686128Y-130079432D01*
X120553162Y-130176037D01*
X120448401Y-130302671D01*
X120448400Y-130302673D01*
X120378421Y-130451385D01*
X120347624Y-130612825D01*
X120347624Y-130612830D01*
X119000000Y-130612830D01*
X119000000Y-128016000D01*
X127308718Y-128016000D01*
X127329356Y-128172762D01*
X127389864Y-128318841D01*
X127486118Y-128444282D01*
X127611559Y-128540536D01*
X127757638Y-128601044D01*
X127914400Y-128621682D01*
X128071162Y-128601044D01*
X128217241Y-128540536D01*
X128342682Y-128444282D01*
X128438936Y-128318841D01*
X128499444Y-128172762D01*
X128520082Y-128016000D01*
X128499444Y-127859238D01*
X128438936Y-127713159D01*
X128392312Y-127652398D01*
X128369292Y-127592852D01*
X128368899Y-127583425D01*
X128368899Y-124282973D01*
X128386885Y-124221718D01*
X128392305Y-124214010D01*
X128438936Y-124153241D01*
X128499444Y-124007162D01*
X128520082Y-123850400D01*
X128499444Y-123693638D01*
X128438936Y-123547559D01*
X128342682Y-123422118D01*
X128217241Y-123325864D01*
X128071162Y-123265356D01*
X127914400Y-123244718D01*
X127914399Y-123244718D01*
X127757638Y-123265356D01*
X127611558Y-123325864D01*
X127486118Y-123422118D01*
X127389864Y-123547558D01*
X127329356Y-123693638D01*
X127310066Y-123840164D01*
X127308718Y-123850400D01*
X127329356Y-124007162D01*
X127350748Y-124058807D01*
X127389862Y-124153238D01*
X127389863Y-124153240D01*
X127389864Y-124153241D01*
X127436487Y-124214001D01*
X127459507Y-124273546D01*
X127459900Y-124282973D01*
X127459900Y-127583425D01*
X127441914Y-127644680D01*
X127436487Y-127652397D01*
X127389865Y-127713156D01*
X127346968Y-127816718D01*
X127329356Y-127859238D01*
X127308718Y-128016000D01*
X119000000Y-128016000D01*
X119000000Y-121972830D01*
X120347624Y-121972830D01*
X120357943Y-122136856D01*
X120357943Y-122136859D01*
X120380835Y-122207312D01*
X120405498Y-122283219D01*
X120408733Y-122293173D01*
X120408734Y-122293176D01*
X120496793Y-122431934D01*
X120496800Y-122431942D01*
X120616604Y-122544446D01*
X120616606Y-122544447D01*
X120616607Y-122544448D01*
X120660355Y-122568499D01*
X120760629Y-122623626D01*
X120760631Y-122623626D01*
X120760632Y-122623627D01*
X120919823Y-122664500D01*
X120919825Y-122664500D01*
X121942920Y-122664500D01*
X121942925Y-122664500D01*
X122065058Y-122649071D01*
X122217871Y-122588568D01*
X122350837Y-122491963D01*
X122455600Y-122365326D01*
X122525579Y-122216613D01*
X122556128Y-122056469D01*
X124377796Y-122056469D01*
X124392673Y-122140839D01*
X124407247Y-122223492D01*
X124474421Y-122379219D01*
X124547098Y-122476841D01*
X124575698Y-122515258D01*
X124705614Y-122624271D01*
X124705615Y-122624271D01*
X124705617Y-122624273D01*
X124857175Y-122700388D01*
X124876327Y-122704927D01*
X124931783Y-122736553D01*
X124961337Y-122793141D01*
X124955606Y-122856724D01*
X124916409Y-122907115D01*
X124893559Y-122919848D01*
X124841771Y-122941299D01*
X124841767Y-122941301D01*
X124841767Y-122941302D01*
X124779920Y-122988759D01*
X124721549Y-123033549D01*
X124629300Y-123153769D01*
X124571313Y-123293764D01*
X124551534Y-123444000D01*
X124571313Y-123594235D01*
X124629300Y-123734230D01*
X124629301Y-123734232D01*
X124629302Y-123734233D01*
X124721549Y-123854451D01*
X124841767Y-123946698D01*
X124981764Y-124004687D01*
X125094280Y-124019500D01*
X125094286Y-124019500D01*
X125169714Y-124019500D01*
X125169720Y-124019500D01*
X125282236Y-124004687D01*
X125422233Y-123946698D01*
X125542451Y-123854451D01*
X125634698Y-123734233D01*
X125692687Y-123594236D01*
X125712466Y-123444000D01*
X125692687Y-123293764D01*
X125634698Y-123153767D01*
X125542451Y-123033549D01*
X125424035Y-122942685D01*
X125386390Y-122891128D01*
X125382594Y-122827400D01*
X125413854Y-122771737D01*
X125470246Y-122741810D01*
X125493010Y-122739500D01*
X126199253Y-122739500D01*
X126199256Y-122739500D01*
X126325451Y-122724750D01*
X126484820Y-122666744D01*
X126626517Y-122573549D01*
X126742902Y-122450188D01*
X126827701Y-122303312D01*
X126856442Y-122207311D01*
X126876341Y-122140843D01*
X126876343Y-122140831D01*
X126886203Y-121971529D01*
X126871328Y-121887168D01*
X126856753Y-121804508D01*
X126789579Y-121648781D01*
X126688302Y-121512742D01*
X126573894Y-121416742D01*
X126558385Y-121403728D01*
X126406823Y-121327611D01*
X126241800Y-121288500D01*
X126241799Y-121288500D01*
X125064744Y-121288500D01*
X125064735Y-121288500D01*
X124938549Y-121303249D01*
X124779179Y-121361256D01*
X124637485Y-121454448D01*
X124521098Y-121577812D01*
X124436299Y-121724688D01*
X124436296Y-121724694D01*
X124387658Y-121887156D01*
X124387656Y-121887168D01*
X124377796Y-122056469D01*
X122556128Y-122056469D01*
X122556376Y-122055170D01*
X122546056Y-121891140D01*
X122495268Y-121734829D01*
X122495265Y-121734825D01*
X122495265Y-121734823D01*
X122407206Y-121596065D01*
X122407199Y-121596057D01*
X122287395Y-121483553D01*
X122143370Y-121404373D01*
X122044269Y-121378929D01*
X121984177Y-121363500D01*
X120961075Y-121363500D01*
X120961074Y-121363500D01*
X120838940Y-121378929D01*
X120686128Y-121439432D01*
X120553162Y-121536037D01*
X120448401Y-121662671D01*
X120448400Y-121662673D01*
X120378421Y-121811385D01*
X120347624Y-121972825D01*
X120347624Y-121972830D01*
X119000000Y-121972830D01*
X119000000Y-113741200D01*
X124565518Y-113741200D01*
X124586156Y-113897962D01*
X124646664Y-114044041D01*
X124742918Y-114169482D01*
X124868359Y-114265736D01*
X125014438Y-114326244D01*
X125171200Y-114346882D01*
X125327962Y-114326244D01*
X125474041Y-114265736D01*
X125599482Y-114169482D01*
X125695736Y-114044041D01*
X125756244Y-113897962D01*
X125776882Y-113741200D01*
X125756244Y-113584438D01*
X125695736Y-113438359D01*
X125599482Y-113312918D01*
X125474041Y-113216664D01*
X125327962Y-113156156D01*
X125171200Y-113135518D01*
X125014438Y-113156156D01*
X124868358Y-113216664D01*
X124742918Y-113312918D01*
X124646664Y-113438358D01*
X124604774Y-113539490D01*
X124586156Y-113584438D01*
X124565518Y-113741200D01*
X119000000Y-113741200D01*
X119000000Y-112928400D01*
X130915518Y-112928400D01*
X130936156Y-113085162D01*
X130996664Y-113231241D01*
X131092918Y-113356682D01*
X131152111Y-113402102D01*
X131162072Y-113409745D01*
X131199719Y-113461304D01*
X131206399Y-113499632D01*
X131206399Y-128507783D01*
X131206183Y-128512722D01*
X131202759Y-128551857D01*
X131202760Y-128551861D01*
X131212930Y-128589820D01*
X131214000Y-128594645D01*
X131220820Y-128633323D01*
X131221696Y-128635730D01*
X131230428Y-128656808D01*
X131231493Y-128659092D01*
X131254023Y-128691269D01*
X131256679Y-128695438D01*
X131276327Y-128729469D01*
X131306424Y-128754723D01*
X131310059Y-128758053D01*
X131970236Y-129418230D01*
X132571079Y-130019073D01*
X132601675Y-130075104D01*
X132603295Y-130113975D01*
X132598192Y-130152741D01*
X132591918Y-130200400D01*
X132612556Y-130357162D01*
X132673064Y-130503241D01*
X132769318Y-130628682D01*
X132894759Y-130724936D01*
X133040838Y-130785444D01*
X133197600Y-130806082D01*
X133354362Y-130785444D01*
X133500441Y-130724936D01*
X133625882Y-130628682D01*
X133722136Y-130503241D01*
X133782644Y-130357162D01*
X133796594Y-130251200D01*
X150879918Y-130251200D01*
X150900556Y-130407962D01*
X150961064Y-130554041D01*
X151057318Y-130679482D01*
X151182759Y-130775736D01*
X151328838Y-130836244D01*
X151485600Y-130856882D01*
X151642362Y-130836244D01*
X151788441Y-130775736D01*
X151913882Y-130679482D01*
X151974511Y-130600469D01*
X170841796Y-130600469D01*
X170858495Y-130695170D01*
X170871247Y-130767492D01*
X170938421Y-130923219D01*
X171009890Y-131019219D01*
X171039698Y-131059258D01*
X171169614Y-131168271D01*
X171169615Y-131168271D01*
X171169617Y-131168273D01*
X171321175Y-131244388D01*
X171402346Y-131263626D01*
X171486200Y-131283500D01*
X171486201Y-131283500D01*
X172663253Y-131283500D01*
X172663256Y-131283500D01*
X172789451Y-131268750D01*
X172948820Y-131210744D01*
X173090517Y-131117549D01*
X173206902Y-130994188D01*
X173291701Y-130847312D01*
X173340342Y-130684839D01*
X173340342Y-130684835D01*
X173340343Y-130684831D01*
X173350127Y-130516830D01*
X175171624Y-130516830D01*
X175181943Y-130680856D01*
X175181943Y-130680859D01*
X175196265Y-130724936D01*
X175232430Y-130836243D01*
X175232733Y-130837173D01*
X175232734Y-130837176D01*
X175320793Y-130975934D01*
X175320800Y-130975942D01*
X175440604Y-131088446D01*
X175440606Y-131088447D01*
X175440607Y-131088448D01*
X175491117Y-131116216D01*
X175584629Y-131167626D01*
X175584631Y-131167626D01*
X175584632Y-131167627D01*
X175743823Y-131208500D01*
X175743825Y-131208500D01*
X176766920Y-131208500D01*
X176766925Y-131208500D01*
X176889058Y-131193071D01*
X177041871Y-131132568D01*
X177174837Y-131035963D01*
X177279600Y-130909326D01*
X177349579Y-130760613D01*
X177380376Y-130599170D01*
X177370056Y-130435140D01*
X177319268Y-130278829D01*
X177319265Y-130278825D01*
X177319265Y-130278823D01*
X177231206Y-130140065D01*
X177231199Y-130140057D01*
X177111395Y-130027553D01*
X176967370Y-129948373D01*
X176868269Y-129922929D01*
X176808177Y-129907500D01*
X175785075Y-129907500D01*
X175785074Y-129907500D01*
X175662940Y-129922929D01*
X175510128Y-129983432D01*
X175377162Y-130080037D01*
X175272401Y-130206671D01*
X175272400Y-130206673D01*
X175202421Y-130355385D01*
X175171624Y-130516825D01*
X175171624Y-130516830D01*
X173350127Y-130516830D01*
X173350203Y-130515529D01*
X173338893Y-130451387D01*
X173320753Y-130348508D01*
X173253579Y-130192781D01*
X173152302Y-130056742D01*
X173136793Y-130043728D01*
X173022385Y-129947728D01*
X173021058Y-129947061D01*
X172870825Y-129871612D01*
X172851668Y-129867071D01*
X172796213Y-129835443D01*
X172766661Y-129778855D01*
X172772394Y-129715272D01*
X172811593Y-129664882D01*
X172834437Y-129652152D01*
X172886233Y-129630698D01*
X173006451Y-129538451D01*
X173098698Y-129418233D01*
X173156687Y-129278236D01*
X173176466Y-129128000D01*
X173156687Y-128977764D01*
X173098698Y-128837767D01*
X173006451Y-128717549D01*
X172886233Y-128625302D01*
X172886232Y-128625301D01*
X172886230Y-128625300D01*
X172795731Y-128587814D01*
X172746236Y-128567313D01*
X172708730Y-128562375D01*
X172633722Y-128552500D01*
X172633720Y-128552500D01*
X172558280Y-128552500D01*
X172558277Y-128552500D01*
X172445764Y-128567313D01*
X172305769Y-128625300D01*
X172185549Y-128717549D01*
X172093300Y-128837769D01*
X172035313Y-128977764D01*
X172015534Y-129127999D01*
X172035313Y-129278235D01*
X172093300Y-129418230D01*
X172093301Y-129418232D01*
X172093302Y-129418233D01*
X172185549Y-129538451D01*
X172303964Y-129629314D01*
X172341610Y-129680872D01*
X172345406Y-129744600D01*
X172314146Y-129800263D01*
X172257754Y-129830190D01*
X172234990Y-129832500D01*
X171528735Y-129832500D01*
X171402549Y-129847249D01*
X171243179Y-129905256D01*
X171101485Y-129998448D01*
X170985098Y-130121812D01*
X170900299Y-130268688D01*
X170900296Y-130268694D01*
X170851658Y-130431156D01*
X170851656Y-130431168D01*
X170841796Y-130600469D01*
X151974511Y-130600469D01*
X152010136Y-130554041D01*
X152070644Y-130407962D01*
X152091282Y-130251200D01*
X152070644Y-130094438D01*
X152010136Y-129948359D01*
X151913882Y-129822918D01*
X151788441Y-129726664D01*
X151642362Y-129666156D01*
X151485600Y-129645518D01*
X151485599Y-129645518D01*
X151328838Y-129666156D01*
X151182758Y-129726664D01*
X151057318Y-129822918D01*
X150961064Y-129948358D01*
X150900556Y-130094438D01*
X150881911Y-130236065D01*
X150879918Y-130251200D01*
X133796594Y-130251200D01*
X133803282Y-130200400D01*
X133782644Y-130043638D01*
X133722136Y-129897559D01*
X133625882Y-129772118D01*
X133500441Y-129675864D01*
X133354362Y-129615356D01*
X133197600Y-129594718D01*
X133197598Y-129594718D01*
X133111175Y-129606095D01*
X133048097Y-129596257D01*
X133016273Y-129573879D01*
X131869185Y-128426791D01*
X131838589Y-128370760D01*
X131836000Y-128346676D01*
X131836000Y-128066800D01*
X137976718Y-128066800D01*
X137997356Y-128223562D01*
X138057864Y-128369641D01*
X138154118Y-128495082D01*
X138279559Y-128591336D01*
X138425638Y-128651844D01*
X138582400Y-128672482D01*
X138739162Y-128651844D01*
X138885241Y-128591336D01*
X139010682Y-128495082D01*
X139106936Y-128369641D01*
X139167444Y-128223562D01*
X139188082Y-128066800D01*
X139754718Y-128066800D01*
X139775356Y-128223562D01*
X139835864Y-128369641D01*
X139932118Y-128495082D01*
X140057559Y-128591336D01*
X140203638Y-128651844D01*
X140360400Y-128672482D01*
X140517162Y-128651844D01*
X140663241Y-128591336D01*
X140788682Y-128495082D01*
X140884936Y-128369641D01*
X140945444Y-128223562D01*
X140966082Y-128066800D01*
X140945444Y-127910038D01*
X140884936Y-127763959D01*
X140788682Y-127638518D01*
X140663241Y-127542264D01*
X140517162Y-127481756D01*
X140360400Y-127461118D01*
X140203638Y-127481756D01*
X140057558Y-127542264D01*
X139932118Y-127638518D01*
X139835864Y-127763958D01*
X139796214Y-127859682D01*
X139775356Y-127910038D01*
X139754718Y-128066800D01*
X139188082Y-128066800D01*
X139167444Y-127910038D01*
X139106936Y-127763959D01*
X139010682Y-127638518D01*
X138885241Y-127542264D01*
X138739162Y-127481756D01*
X138582400Y-127461118D01*
X138425638Y-127481756D01*
X138279558Y-127542264D01*
X138154118Y-127638518D01*
X138057864Y-127763958D01*
X138018214Y-127859682D01*
X137997356Y-127910038D01*
X137976718Y-128066800D01*
X131836000Y-128066800D01*
X131836000Y-127355600D01*
X133607918Y-127355600D01*
X133628556Y-127512362D01*
X133689064Y-127658441D01*
X133785318Y-127783882D01*
X133910759Y-127880136D01*
X134056838Y-127940644D01*
X134213600Y-127961282D01*
X134370362Y-127940644D01*
X134516441Y-127880136D01*
X134641882Y-127783882D01*
X134738136Y-127658441D01*
X134798644Y-127512362D01*
X134819282Y-127355600D01*
X135081118Y-127355600D01*
X135101756Y-127512362D01*
X135162264Y-127658441D01*
X135258518Y-127783882D01*
X135383959Y-127880136D01*
X135530038Y-127940644D01*
X135686800Y-127961282D01*
X135843562Y-127940644D01*
X135989641Y-127880136D01*
X136115082Y-127783882D01*
X136211336Y-127658441D01*
X136271844Y-127512362D01*
X136292482Y-127355600D01*
X136554318Y-127355600D01*
X136574956Y-127512362D01*
X136635464Y-127658441D01*
X136731718Y-127783882D01*
X136857159Y-127880136D01*
X137003238Y-127940644D01*
X137160000Y-127961282D01*
X137316762Y-127940644D01*
X137462841Y-127880136D01*
X137588282Y-127783882D01*
X137684536Y-127658441D01*
X137745044Y-127512362D01*
X137765682Y-127355600D01*
X141685118Y-127355600D01*
X141705756Y-127512362D01*
X141766264Y-127658441D01*
X141862518Y-127783882D01*
X141987959Y-127880136D01*
X142134038Y-127940644D01*
X142290800Y-127961282D01*
X142447562Y-127940644D01*
X142510921Y-127914400D01*
X144174318Y-127914400D01*
X144194956Y-128071162D01*
X144255464Y-128217241D01*
X144351718Y-128342682D01*
X144477159Y-128438936D01*
X144623238Y-128499444D01*
X144780000Y-128520082D01*
X144936762Y-128499444D01*
X145082841Y-128438936D01*
X145104391Y-128422400D01*
X150829118Y-128422400D01*
X150849756Y-128579162D01*
X150910264Y-128725241D01*
X151006518Y-128850682D01*
X151131959Y-128946936D01*
X151278038Y-129007444D01*
X151434800Y-129028082D01*
X151591562Y-129007444D01*
X151737641Y-128946936D01*
X151863082Y-128850682D01*
X151959336Y-128725241D01*
X152019844Y-128579162D01*
X152040482Y-128422400D01*
X152019844Y-128265638D01*
X151959336Y-128119559D01*
X151863082Y-127994118D01*
X151737641Y-127897864D01*
X151591562Y-127837356D01*
X151434800Y-127816718D01*
X151434799Y-127816718D01*
X151278038Y-127837356D01*
X151131958Y-127897864D01*
X151006518Y-127994118D01*
X150910264Y-128119558D01*
X150869803Y-128217241D01*
X150849756Y-128265638D01*
X150829118Y-128422400D01*
X145104391Y-128422400D01*
X145208282Y-128342682D01*
X145304536Y-128217241D01*
X145365044Y-128071162D01*
X145385682Y-127914400D01*
X145365044Y-127757638D01*
X145304536Y-127611559D01*
X145283906Y-127584674D01*
X145260887Y-127525129D01*
X145273714Y-127462590D01*
X145283907Y-127446729D01*
X145289016Y-127440071D01*
X145355336Y-127353641D01*
X145396609Y-127254000D01*
X157737918Y-127254000D01*
X157758556Y-127410762D01*
X157819064Y-127556841D01*
X157915318Y-127682282D01*
X158040759Y-127778536D01*
X158186838Y-127839044D01*
X158343600Y-127859682D01*
X158500362Y-127839044D01*
X158646441Y-127778536D01*
X158771882Y-127682282D01*
X158868136Y-127556841D01*
X158928644Y-127410762D01*
X158949282Y-127254000D01*
X158928644Y-127097238D01*
X158868136Y-126951159D01*
X158771882Y-126825718D01*
X158646441Y-126729464D01*
X158500362Y-126668956D01*
X158343600Y-126648318D01*
X158186838Y-126668956D01*
X158040758Y-126729464D01*
X157915318Y-126825718D01*
X157819064Y-126951158D01*
X157819064Y-126951159D01*
X157758556Y-127097238D01*
X157737918Y-127254000D01*
X145396609Y-127254000D01*
X145415844Y-127207562D01*
X145436482Y-127050800D01*
X145415844Y-126894038D01*
X145355336Y-126747959D01*
X145259082Y-126622518D01*
X145133641Y-126526264D01*
X144987562Y-126465756D01*
X144830800Y-126445118D01*
X144674038Y-126465756D01*
X144527958Y-126526264D01*
X144402518Y-126622518D01*
X144306264Y-126747958D01*
X144271841Y-126831063D01*
X144245756Y-126894038D01*
X144225118Y-127050800D01*
X144245756Y-127207562D01*
X144306263Y-127353640D01*
X144306264Y-127353641D01*
X144326893Y-127380525D01*
X144349913Y-127440071D01*
X144337086Y-127502610D01*
X144326893Y-127518471D01*
X144255464Y-127611558D01*
X144213381Y-127713156D01*
X144194956Y-127757638D01*
X144174318Y-127914400D01*
X142510921Y-127914400D01*
X142593641Y-127880136D01*
X142719082Y-127783882D01*
X142815336Y-127658441D01*
X142875844Y-127512362D01*
X142896482Y-127355600D01*
X142875844Y-127198838D01*
X142815336Y-127052759D01*
X142719082Y-126927318D01*
X142593641Y-126831064D01*
X142593636Y-126831062D01*
X142563719Y-126818669D01*
X142518345Y-126799875D01*
X142468636Y-126759818D01*
X142448475Y-126699245D01*
X142464263Y-126637387D01*
X142510987Y-126593885D01*
X142518339Y-126590526D01*
X142593641Y-126559336D01*
X142719082Y-126463082D01*
X142815336Y-126337641D01*
X142856412Y-126238476D01*
X145904805Y-126238476D01*
X145925443Y-126395238D01*
X145985951Y-126541317D01*
X146082205Y-126666758D01*
X146207646Y-126763012D01*
X146353725Y-126823520D01*
X146510487Y-126844158D01*
X146667249Y-126823520D01*
X146813328Y-126763012D01*
X146938769Y-126666758D01*
X147035023Y-126541317D01*
X147095531Y-126395238D01*
X147116169Y-126238476D01*
X147102731Y-126136400D01*
X149051118Y-126136400D01*
X149071756Y-126293162D01*
X149132264Y-126439241D01*
X149228518Y-126564682D01*
X149353959Y-126660936D01*
X149500038Y-126721444D01*
X149656800Y-126742082D01*
X149813562Y-126721444D01*
X149959641Y-126660936D01*
X150085082Y-126564682D01*
X150181336Y-126439241D01*
X150241844Y-126293162D01*
X150262482Y-126136400D01*
X150241844Y-125979638D01*
X150181336Y-125833559D01*
X150085082Y-125708118D01*
X149959641Y-125611864D01*
X149813562Y-125551356D01*
X149656800Y-125530718D01*
X149500038Y-125551356D01*
X149353958Y-125611864D01*
X149228518Y-125708118D01*
X149132264Y-125833558D01*
X149071756Y-125979638D01*
X149058318Y-126081714D01*
X149051118Y-126136400D01*
X147102731Y-126136400D01*
X147095531Y-126081714D01*
X147035023Y-125935635D01*
X146938769Y-125810194D01*
X146813328Y-125713940D01*
X146667249Y-125653432D01*
X146510487Y-125632794D01*
X146353725Y-125653432D01*
X146207645Y-125713940D01*
X146082205Y-125810194D01*
X145985951Y-125935634D01*
X145985951Y-125935635D01*
X145925443Y-126081714D01*
X145904805Y-126238476D01*
X142856412Y-126238476D01*
X142875844Y-126191562D01*
X142896482Y-126034800D01*
X142875844Y-125878038D01*
X142815336Y-125731959D01*
X142719082Y-125606518D01*
X142593641Y-125510264D01*
X142447562Y-125449756D01*
X142290800Y-125429118D01*
X142290799Y-125429118D01*
X142134038Y-125449756D01*
X141987958Y-125510264D01*
X141862518Y-125606518D01*
X141766264Y-125731958D01*
X141766264Y-125731959D01*
X141705756Y-125878038D01*
X141685118Y-126034800D01*
X141705756Y-126191562D01*
X141766264Y-126337641D01*
X141862518Y-126463082D01*
X141987959Y-126559336D01*
X142063254Y-126590524D01*
X142112963Y-126630582D01*
X142133124Y-126691156D01*
X142117336Y-126753013D01*
X142070611Y-126796516D01*
X142063260Y-126799873D01*
X142000865Y-126825718D01*
X141987959Y-126831064D01*
X141862518Y-126927318D01*
X141766264Y-127052758D01*
X141766264Y-127052759D01*
X141705756Y-127198838D01*
X141685118Y-127355600D01*
X137765682Y-127355600D01*
X137745044Y-127198838D01*
X137684536Y-127052759D01*
X137588282Y-126927318D01*
X137462841Y-126831064D01*
X137462836Y-126831062D01*
X137432919Y-126818669D01*
X137387545Y-126799875D01*
X137337836Y-126759818D01*
X137317675Y-126699245D01*
X137333463Y-126637387D01*
X137380187Y-126593885D01*
X137387539Y-126590526D01*
X137462841Y-126559336D01*
X137588282Y-126463082D01*
X137684536Y-126337641D01*
X137745044Y-126191562D01*
X137765682Y-126034800D01*
X137745044Y-125878038D01*
X137684536Y-125731959D01*
X137588282Y-125606518D01*
X137462841Y-125510264D01*
X137316762Y-125449756D01*
X137160000Y-125429118D01*
X137003238Y-125449756D01*
X136857158Y-125510264D01*
X136731718Y-125606518D01*
X136635464Y-125731958D01*
X136635464Y-125731959D01*
X136574956Y-125878038D01*
X136554318Y-126034800D01*
X136574956Y-126191562D01*
X136635464Y-126337641D01*
X136731718Y-126463082D01*
X136857159Y-126559336D01*
X136932454Y-126590524D01*
X136982163Y-126630582D01*
X137002324Y-126691156D01*
X136986536Y-126753013D01*
X136939811Y-126796516D01*
X136932460Y-126799873D01*
X136870065Y-126825718D01*
X136857159Y-126831064D01*
X136731718Y-126927318D01*
X136635464Y-127052758D01*
X136635464Y-127052759D01*
X136574956Y-127198838D01*
X136554318Y-127355600D01*
X136292482Y-127355600D01*
X136271844Y-127198838D01*
X136211336Y-127052759D01*
X136115082Y-126927318D01*
X135989641Y-126831064D01*
X135989636Y-126831062D01*
X135959719Y-126818669D01*
X135914345Y-126799875D01*
X135864636Y-126759818D01*
X135844475Y-126699245D01*
X135860263Y-126637387D01*
X135906987Y-126593885D01*
X135914339Y-126590526D01*
X135989641Y-126559336D01*
X136115082Y-126463082D01*
X136211336Y-126337641D01*
X136271844Y-126191562D01*
X136292482Y-126034800D01*
X136271844Y-125878038D01*
X136211336Y-125731959D01*
X136115082Y-125606518D01*
X135989641Y-125510264D01*
X135843562Y-125449756D01*
X135686800Y-125429118D01*
X135530038Y-125449756D01*
X135383958Y-125510264D01*
X135258518Y-125606518D01*
X135162264Y-125731958D01*
X135162264Y-125731959D01*
X135101756Y-125878038D01*
X135081118Y-126034800D01*
X135101756Y-126191562D01*
X135162264Y-126337641D01*
X135258518Y-126463082D01*
X135383959Y-126559336D01*
X135459254Y-126590524D01*
X135508963Y-126630582D01*
X135529124Y-126691156D01*
X135513336Y-126753013D01*
X135466611Y-126796516D01*
X135459260Y-126799873D01*
X135396865Y-126825718D01*
X135383959Y-126831064D01*
X135258518Y-126927318D01*
X135162264Y-127052758D01*
X135162264Y-127052759D01*
X135101756Y-127198838D01*
X135081118Y-127355600D01*
X134819282Y-127355600D01*
X134798644Y-127198838D01*
X134738136Y-127052759D01*
X134641882Y-126927318D01*
X134516441Y-126831064D01*
X134516439Y-126831063D01*
X134502468Y-126825276D01*
X134452758Y-126785218D01*
X134432597Y-126724645D01*
X134448385Y-126662787D01*
X134495109Y-126619285D01*
X134502468Y-126615924D01*
X134505014Y-126614869D01*
X134516441Y-126610136D01*
X134641882Y-126513882D01*
X134738136Y-126388441D01*
X134798644Y-126242362D01*
X134819282Y-126085600D01*
X134798644Y-125928838D01*
X134738136Y-125782759D01*
X134641882Y-125657318D01*
X134516441Y-125561064D01*
X134370362Y-125500556D01*
X134213600Y-125479918D01*
X134213599Y-125479918D01*
X134056838Y-125500556D01*
X133910758Y-125561064D01*
X133785318Y-125657318D01*
X133689064Y-125782758D01*
X133628556Y-125928838D01*
X133608430Y-126081714D01*
X133607918Y-126085600D01*
X133628556Y-126242362D01*
X133689064Y-126388441D01*
X133785318Y-126513882D01*
X133851521Y-126564681D01*
X133910760Y-126610137D01*
X133924733Y-126615925D01*
X133974442Y-126655983D01*
X133994602Y-126716557D01*
X133978813Y-126778415D01*
X133932088Y-126821916D01*
X133924733Y-126825275D01*
X133910760Y-126831062D01*
X133785318Y-126927318D01*
X133689064Y-127052758D01*
X133689064Y-127052759D01*
X133628556Y-127198838D01*
X133607918Y-127355600D01*
X131836000Y-127355600D01*
X131836000Y-121920000D01*
X133709518Y-121920000D01*
X133730156Y-122076762D01*
X133790664Y-122222841D01*
X133886918Y-122348282D01*
X134012359Y-122444536D01*
X134158438Y-122505044D01*
X134315200Y-122525682D01*
X134401624Y-122514303D01*
X134464698Y-122524140D01*
X134496525Y-122546519D01*
X136776629Y-124826623D01*
X136779969Y-124830268D01*
X136805229Y-124860371D01*
X136839249Y-124880012D01*
X136843419Y-124882669D01*
X136869433Y-124900883D01*
X136875608Y-124905207D01*
X136875610Y-124905207D01*
X136877919Y-124906285D01*
X136898951Y-124914997D01*
X136901367Y-124915876D01*
X136901371Y-124915878D01*
X136929835Y-124920897D01*
X136940065Y-124922701D01*
X136944874Y-124923767D01*
X136982840Y-124933940D01*
X137021981Y-124930516D01*
X137026921Y-124930300D01*
X149697546Y-124930300D01*
X149758801Y-124948286D01*
X149787430Y-124974624D01*
X149838118Y-125040682D01*
X149963559Y-125136936D01*
X150109638Y-125197444D01*
X150266400Y-125218082D01*
X150423162Y-125197444D01*
X150569241Y-125136936D01*
X150694682Y-125040682D01*
X150790936Y-124915241D01*
X150851444Y-124769162D01*
X150872082Y-124612400D01*
X150851444Y-124455638D01*
X150790936Y-124309559D01*
X150694682Y-124184118D01*
X150569241Y-124087864D01*
X150468543Y-124046153D01*
X150418836Y-124006097D01*
X150398675Y-123945523D01*
X150414463Y-123883666D01*
X150461188Y-123840164D01*
X150468540Y-123836805D01*
X150518441Y-123816136D01*
X150643882Y-123719882D01*
X150740136Y-123594441D01*
X150760367Y-123545600D01*
X162411518Y-123545600D01*
X162432156Y-123702362D01*
X162492664Y-123848441D01*
X162588918Y-123973882D01*
X162714359Y-124070136D01*
X162860438Y-124130644D01*
X163017200Y-124151282D01*
X163173962Y-124130644D01*
X163320041Y-124070136D01*
X163445482Y-123973882D01*
X163541736Y-123848441D01*
X163602244Y-123702362D01*
X163622882Y-123545600D01*
X163611648Y-123460274D01*
X163621485Y-123397200D01*
X163663862Y-123349453D01*
X163725326Y-123332197D01*
X163738765Y-123333158D01*
X163751709Y-123334862D01*
X163779197Y-123338482D01*
X163779198Y-123338481D01*
X163779200Y-123338482D01*
X163935962Y-123317844D01*
X164082041Y-123257336D01*
X164207482Y-123161082D01*
X164303736Y-123035641D01*
X164364244Y-122889562D01*
X164384882Y-122732800D01*
X164364244Y-122576038D01*
X164303736Y-122429959D01*
X164207482Y-122304518D01*
X164082041Y-122208264D01*
X163935962Y-122147756D01*
X163779200Y-122127118D01*
X163779199Y-122127118D01*
X163622438Y-122147756D01*
X163476358Y-122208264D01*
X163350918Y-122304518D01*
X163254664Y-122429958D01*
X163213942Y-122528271D01*
X163194156Y-122576038D01*
X163173518Y-122732800D01*
X163178800Y-122772924D01*
X163184751Y-122818121D01*
X163174914Y-122881200D01*
X163132536Y-122928946D01*
X163071072Y-122946202D01*
X163057632Y-122945241D01*
X163027712Y-122941302D01*
X163017200Y-122939918D01*
X162860438Y-122960556D01*
X162714358Y-123021064D01*
X162588918Y-123117318D01*
X162492664Y-123242758D01*
X162455219Y-123333159D01*
X162432156Y-123388838D01*
X162411518Y-123545600D01*
X150760367Y-123545600D01*
X150800644Y-123448362D01*
X150821282Y-123291600D01*
X150800644Y-123134838D01*
X150740136Y-122988759D01*
X150643882Y-122863318D01*
X150601376Y-122830702D01*
X150566984Y-122783600D01*
X157636318Y-122783600D01*
X157656956Y-122940362D01*
X157717464Y-123086441D01*
X157813718Y-123211882D01*
X157939159Y-123308136D01*
X158085238Y-123368644D01*
X158242000Y-123389282D01*
X158398762Y-123368644D01*
X158544841Y-123308136D01*
X158670282Y-123211882D01*
X158766536Y-123086441D01*
X158827044Y-122940362D01*
X158847682Y-122783600D01*
X158827044Y-122626838D01*
X158766536Y-122480759D01*
X158670282Y-122355318D01*
X158544841Y-122259064D01*
X158398762Y-122198556D01*
X158242000Y-122177918D01*
X158085238Y-122198556D01*
X157939158Y-122259064D01*
X157813718Y-122355318D01*
X157717464Y-122480758D01*
X157656956Y-122626838D01*
X157637724Y-122772924D01*
X157636318Y-122783600D01*
X150566984Y-122783600D01*
X150563730Y-122779144D01*
X150559934Y-122715416D01*
X150591194Y-122659753D01*
X150626990Y-122636141D01*
X150721641Y-122596936D01*
X150847082Y-122500682D01*
X150943336Y-122375241D01*
X151003844Y-122229162D01*
X151024482Y-122072400D01*
X153826318Y-122072400D01*
X153846956Y-122229162D01*
X153907464Y-122375241D01*
X154003718Y-122500682D01*
X154129159Y-122596936D01*
X154275238Y-122657444D01*
X154432000Y-122678082D01*
X154588762Y-122657444D01*
X154734841Y-122596936D01*
X154860282Y-122500682D01*
X154956536Y-122375241D01*
X155017044Y-122229162D01*
X155037682Y-122072400D01*
X155017044Y-121915638D01*
X154956536Y-121769559D01*
X154860282Y-121644118D01*
X154734841Y-121547864D01*
X154588762Y-121487356D01*
X154432000Y-121466718D01*
X154275238Y-121487356D01*
X154129158Y-121547864D01*
X154003718Y-121644118D01*
X153907464Y-121769558D01*
X153846956Y-121915638D01*
X153829887Y-122045294D01*
X153826318Y-122072400D01*
X151024482Y-122072400D01*
X151003844Y-121915638D01*
X150943336Y-121769559D01*
X150847082Y-121644118D01*
X150721641Y-121547864D01*
X150575562Y-121487356D01*
X150418800Y-121466718D01*
X150418799Y-121466718D01*
X150262038Y-121487356D01*
X150115958Y-121547864D01*
X149990518Y-121644118D01*
X149894264Y-121769558D01*
X149833756Y-121915638D01*
X149816687Y-122045294D01*
X149813118Y-122072400D01*
X149833756Y-122229162D01*
X149894264Y-122375241D01*
X149990518Y-122500682D01*
X150028205Y-122529600D01*
X150033022Y-122533296D01*
X150070669Y-122584855D01*
X150074465Y-122648583D01*
X150043205Y-122704246D01*
X150007408Y-122727858D01*
X149912760Y-122767062D01*
X149787318Y-122863318D01*
X149691064Y-122988758D01*
X149672511Y-123033549D01*
X149630556Y-123134838D01*
X149609918Y-123291600D01*
X149630556Y-123448362D01*
X149691064Y-123594441D01*
X149787318Y-123719882D01*
X149912759Y-123816136D01*
X150013455Y-123857845D01*
X150063162Y-123897902D01*
X150083324Y-123958475D01*
X150067536Y-124020333D01*
X150020812Y-124063835D01*
X150013455Y-124067195D01*
X149963561Y-124087862D01*
X149838116Y-124184119D01*
X149782676Y-124256372D01*
X149731118Y-124294020D01*
X149692789Y-124300700D01*
X137188024Y-124300700D01*
X137126769Y-124282714D01*
X137107909Y-124267515D01*
X135014394Y-122174000D01*
X139907118Y-122174000D01*
X139927756Y-122330762D01*
X139988264Y-122476841D01*
X140084518Y-122602282D01*
X140209959Y-122698536D01*
X140356038Y-122759044D01*
X140512800Y-122779682D01*
X140669562Y-122759044D01*
X140815641Y-122698536D01*
X140941082Y-122602282D01*
X141037336Y-122476841D01*
X141097844Y-122330762D01*
X141118482Y-122174000D01*
X141111794Y-122123200D01*
X143107518Y-122123200D01*
X143128156Y-122279962D01*
X143188664Y-122426041D01*
X143284918Y-122551482D01*
X143410359Y-122647736D01*
X143556438Y-122708244D01*
X143713200Y-122728882D01*
X143869962Y-122708244D01*
X144016041Y-122647736D01*
X144141482Y-122551482D01*
X144237736Y-122426041D01*
X144298244Y-122279962D01*
X144318882Y-122123200D01*
X146765118Y-122123200D01*
X146785756Y-122279962D01*
X146846264Y-122426041D01*
X146942518Y-122551482D01*
X147067959Y-122647736D01*
X147214038Y-122708244D01*
X147370800Y-122728882D01*
X147527562Y-122708244D01*
X147673641Y-122647736D01*
X147799082Y-122551482D01*
X147895336Y-122426041D01*
X147955844Y-122279962D01*
X147976482Y-122123200D01*
X147955844Y-121966438D01*
X147895336Y-121820359D01*
X147799082Y-121694918D01*
X147673641Y-121598664D01*
X147527562Y-121538156D01*
X147370800Y-121517518D01*
X147214038Y-121538156D01*
X147067958Y-121598664D01*
X146942518Y-121694918D01*
X146846264Y-121820358D01*
X146785756Y-121966438D01*
X146765459Y-122120613D01*
X146765118Y-122123200D01*
X144318882Y-122123200D01*
X144298244Y-121966438D01*
X144237736Y-121820359D01*
X144141482Y-121694918D01*
X144016041Y-121598664D01*
X143869962Y-121538156D01*
X143713200Y-121517518D01*
X143713199Y-121517518D01*
X143556438Y-121538156D01*
X143410358Y-121598664D01*
X143284918Y-121694918D01*
X143188664Y-121820358D01*
X143128156Y-121966438D01*
X143107859Y-122120613D01*
X143107518Y-122123200D01*
X141111794Y-122123200D01*
X141097844Y-122017238D01*
X141037336Y-121871159D01*
X140941082Y-121745718D01*
X140815641Y-121649464D01*
X140669562Y-121588956D01*
X140512800Y-121568318D01*
X140356038Y-121588956D01*
X140209958Y-121649464D01*
X140084518Y-121745718D01*
X139988264Y-121871158D01*
X139927756Y-122017238D01*
X139912008Y-122136860D01*
X139907118Y-122174000D01*
X135014394Y-122174000D01*
X134941719Y-122101325D01*
X134911123Y-122045294D01*
X134909503Y-122006427D01*
X134920882Y-121920000D01*
X134900244Y-121763238D01*
X134839736Y-121617159D01*
X134743482Y-121491718D01*
X134618041Y-121395464D01*
X134471962Y-121334956D01*
X134315200Y-121314318D01*
X134158438Y-121334956D01*
X134012358Y-121395464D01*
X133886918Y-121491718D01*
X133790664Y-121617158D01*
X133746124Y-121724688D01*
X133730156Y-121763238D01*
X133709518Y-121920000D01*
X131836000Y-121920000D01*
X131836000Y-121158000D01*
X131836000Y-120700800D01*
X156772718Y-120700800D01*
X156793356Y-120857562D01*
X156853864Y-121003641D01*
X156950118Y-121129082D01*
X157075559Y-121225336D01*
X157221638Y-121285844D01*
X157378400Y-121306482D01*
X157535162Y-121285844D01*
X157681241Y-121225336D01*
X157806682Y-121129082D01*
X157902936Y-121003641D01*
X157963444Y-120857562D01*
X157984082Y-120700800D01*
X157963444Y-120544038D01*
X157902936Y-120397959D01*
X157806682Y-120272518D01*
X157681241Y-120176264D01*
X157535162Y-120115756D01*
X157378400Y-120095118D01*
X157221638Y-120115756D01*
X157075558Y-120176264D01*
X156950118Y-120272518D01*
X156853864Y-120397958D01*
X156824735Y-120468282D01*
X156793356Y-120544038D01*
X156772718Y-120700800D01*
X131836000Y-120700800D01*
X131836000Y-119862600D01*
X153496118Y-119862600D01*
X153516756Y-120019362D01*
X153577264Y-120165441D01*
X153673518Y-120290882D01*
X153798959Y-120387136D01*
X153945038Y-120447644D01*
X154101800Y-120468282D01*
X154258562Y-120447644D01*
X154404641Y-120387136D01*
X154530082Y-120290882D01*
X154626336Y-120165441D01*
X154686844Y-120019362D01*
X154707482Y-119862600D01*
X154686844Y-119705838D01*
X154626336Y-119559759D01*
X154530082Y-119434318D01*
X154404641Y-119338064D01*
X154258562Y-119277556D01*
X154101800Y-119256918D01*
X154101799Y-119256918D01*
X153945038Y-119277556D01*
X153798958Y-119338064D01*
X153673518Y-119434318D01*
X153577264Y-119559758D01*
X153516756Y-119705838D01*
X153496762Y-119857712D01*
X153496118Y-119862600D01*
X131836000Y-119862600D01*
X131836000Y-118668804D01*
X146518417Y-118668804D01*
X146538699Y-118874732D01*
X146598765Y-119072747D01*
X146598767Y-119072752D01*
X146598768Y-119072754D01*
X146696315Y-119255250D01*
X146827590Y-119415210D01*
X146987550Y-119546485D01*
X147170046Y-119644032D01*
X147170050Y-119644033D01*
X147170052Y-119644034D01*
X147221160Y-119659537D01*
X147368066Y-119704100D01*
X147573995Y-119724383D01*
X147574000Y-119724383D01*
X147574005Y-119724383D01*
X147727686Y-119709246D01*
X147779934Y-119704100D01*
X147977954Y-119644032D01*
X148160450Y-119546485D01*
X148320410Y-119415210D01*
X148451685Y-119255250D01*
X148549232Y-119072754D01*
X148609300Y-118874734D01*
X148629583Y-118668800D01*
X148622132Y-118593154D01*
X148609300Y-118462867D01*
X148608940Y-118461681D01*
X148563306Y-118311241D01*
X148549234Y-118264852D01*
X148549232Y-118264847D01*
X148549232Y-118264846D01*
X148451685Y-118082350D01*
X148320410Y-117922390D01*
X148160450Y-117791115D01*
X147977954Y-117693568D01*
X147977953Y-117693567D01*
X147977952Y-117693567D01*
X147977947Y-117693565D01*
X147843560Y-117652800D01*
X149914718Y-117652800D01*
X149935356Y-117809562D01*
X149995864Y-117955641D01*
X150092118Y-118081082D01*
X150217559Y-118177336D01*
X150363638Y-118237844D01*
X150520400Y-118258482D01*
X150677162Y-118237844D01*
X150823241Y-118177336D01*
X150948682Y-118081082D01*
X151004453Y-118008400D01*
X155197918Y-118008400D01*
X155218556Y-118165162D01*
X155279064Y-118311241D01*
X155375318Y-118436682D01*
X155500759Y-118532936D01*
X155646838Y-118593444D01*
X155803600Y-118614082D01*
X155960362Y-118593444D01*
X156106441Y-118532936D01*
X156231882Y-118436682D01*
X156328136Y-118311241D01*
X156334755Y-118295262D01*
X159541357Y-118295262D01*
X159561995Y-118452024D01*
X159622503Y-118598103D01*
X159718757Y-118723544D01*
X159844198Y-118819798D01*
X159965459Y-118870026D01*
X160015167Y-118910083D01*
X160035328Y-118970657D01*
X160035400Y-118974701D01*
X160035400Y-121958366D01*
X160017414Y-122019621D01*
X159991074Y-122048252D01*
X159921918Y-122101317D01*
X159825664Y-122226758D01*
X159772881Y-122354188D01*
X159765156Y-122372838D01*
X159744518Y-122529600D01*
X159765156Y-122686362D01*
X159825664Y-122832441D01*
X159921918Y-122957882D01*
X160047359Y-123054136D01*
X160193438Y-123114644D01*
X160350200Y-123135282D01*
X160506962Y-123114644D01*
X160653041Y-123054136D01*
X160778482Y-122957882D01*
X160874736Y-122832441D01*
X160935244Y-122686362D01*
X160955882Y-122529600D01*
X160935244Y-122372838D01*
X160874736Y-122226759D01*
X160778482Y-122101318D01*
X160778481Y-122101317D01*
X160709326Y-122048252D01*
X160671680Y-121996693D01*
X160665000Y-121958366D01*
X160665000Y-121158000D01*
X163224318Y-121158000D01*
X163244956Y-121314762D01*
X163305464Y-121460841D01*
X163401718Y-121586282D01*
X163527159Y-121682536D01*
X163673238Y-121743044D01*
X163830000Y-121763682D01*
X163986762Y-121743044D01*
X164132841Y-121682536D01*
X164258282Y-121586282D01*
X164354536Y-121460841D01*
X164415044Y-121314762D01*
X164435682Y-121158000D01*
X164415044Y-121001238D01*
X164354536Y-120855159D01*
X164258282Y-120729718D01*
X164132841Y-120633464D01*
X163986762Y-120572956D01*
X163830000Y-120552318D01*
X163673238Y-120572956D01*
X163527158Y-120633464D01*
X163401718Y-120729718D01*
X163305464Y-120855158D01*
X163265649Y-120951281D01*
X163244956Y-121001238D01*
X163224318Y-121158000D01*
X160665000Y-121158000D01*
X160665000Y-120523000D01*
X161827318Y-120523000D01*
X161847956Y-120679762D01*
X161908464Y-120825841D01*
X162004718Y-120951282D01*
X162130159Y-121047536D01*
X162276238Y-121108044D01*
X162433000Y-121128682D01*
X162589762Y-121108044D01*
X162735841Y-121047536D01*
X162861282Y-120951282D01*
X162957536Y-120825841D01*
X163018044Y-120679762D01*
X163038682Y-120523000D01*
X163018044Y-120366238D01*
X162957536Y-120220159D01*
X162861282Y-120094718D01*
X162735841Y-119998464D01*
X162589762Y-119937956D01*
X162581208Y-119936829D01*
X162522828Y-119911003D01*
X162487677Y-119857712D01*
X162486917Y-119793875D01*
X162520791Y-119739762D01*
X162578542Y-119712553D01*
X162581149Y-119712177D01*
X162589762Y-119711044D01*
X162735841Y-119650536D01*
X162861282Y-119554282D01*
X162957536Y-119428841D01*
X163018044Y-119282762D01*
X163035338Y-119151400D01*
X163402118Y-119151400D01*
X163422756Y-119308162D01*
X163483264Y-119454241D01*
X163579518Y-119579682D01*
X163704959Y-119675936D01*
X163851038Y-119736444D01*
X164007800Y-119757082D01*
X164164562Y-119736444D01*
X164310641Y-119675936D01*
X164436082Y-119579682D01*
X164532336Y-119454241D01*
X164592844Y-119308162D01*
X164613482Y-119151400D01*
X164592844Y-118994638D01*
X164532336Y-118848559D01*
X164436082Y-118723118D01*
X164310641Y-118626864D01*
X164164562Y-118566356D01*
X164007800Y-118545718D01*
X163851038Y-118566356D01*
X163704958Y-118626864D01*
X163579518Y-118723118D01*
X163483264Y-118848558D01*
X163457780Y-118910083D01*
X163422756Y-118994638D01*
X163402118Y-119151400D01*
X163035338Y-119151400D01*
X163038682Y-119126000D01*
X163018044Y-118969238D01*
X162957536Y-118823159D01*
X162861282Y-118697718D01*
X162735841Y-118601464D01*
X162589762Y-118540956D01*
X162433000Y-118520318D01*
X162276238Y-118540956D01*
X162130158Y-118601464D01*
X162004718Y-118697718D01*
X161908464Y-118823158D01*
X161887101Y-118874734D01*
X161847956Y-118969238D01*
X161827318Y-119126000D01*
X161847956Y-119282762D01*
X161908464Y-119428841D01*
X162004718Y-119554282D01*
X162130159Y-119650536D01*
X162276238Y-119711044D01*
X162284791Y-119712170D01*
X162343171Y-119737997D01*
X162378322Y-119791289D01*
X162379081Y-119855125D01*
X162345208Y-119909238D01*
X162287456Y-119936447D01*
X162284850Y-119936822D01*
X162276238Y-119937956D01*
X162130158Y-119998464D01*
X162004718Y-120094718D01*
X161908464Y-120220158D01*
X161847955Y-120366237D01*
X161847956Y-120366238D01*
X161827318Y-120523000D01*
X160665000Y-120523000D01*
X160665000Y-118636512D01*
X160673623Y-118593158D01*
X160705483Y-118516241D01*
X160745539Y-118466535D01*
X160806113Y-118446374D01*
X160824931Y-118447270D01*
X160934400Y-118461682D01*
X161091162Y-118441044D01*
X161237241Y-118380536D01*
X161362682Y-118284282D01*
X161458936Y-118158841D01*
X161519444Y-118012762D01*
X161540082Y-117856000D01*
X161519444Y-117699238D01*
X161458936Y-117553159D01*
X161362682Y-117427718D01*
X161237241Y-117331464D01*
X161091162Y-117270956D01*
X160934400Y-117250318D01*
X160777638Y-117270956D01*
X160631558Y-117331464D01*
X160506118Y-117427718D01*
X160409861Y-117553161D01*
X160409861Y-117553162D01*
X160375956Y-117635017D01*
X160335898Y-117684726D01*
X160275325Y-117704887D01*
X160256495Y-117703990D01*
X160147039Y-117689580D01*
X159990277Y-117710218D01*
X159844197Y-117770726D01*
X159718757Y-117866980D01*
X159622503Y-117992420D01*
X159622503Y-117992421D01*
X159561995Y-118138500D01*
X159541357Y-118295262D01*
X156334755Y-118295262D01*
X156388644Y-118165162D01*
X156409282Y-118008400D01*
X156388644Y-117851638D01*
X156328136Y-117705559D01*
X156231882Y-117580118D01*
X156106441Y-117483864D01*
X155960362Y-117423356D01*
X155803600Y-117402718D01*
X155646838Y-117423356D01*
X155500758Y-117483864D01*
X155375318Y-117580118D01*
X155279064Y-117705558D01*
X155279064Y-117705559D01*
X155218556Y-117851638D01*
X155197918Y-118008400D01*
X151004453Y-118008400D01*
X151044936Y-117955641D01*
X151105444Y-117809562D01*
X151126082Y-117652800D01*
X151105444Y-117496038D01*
X151044936Y-117349959D01*
X150948682Y-117224518D01*
X150823241Y-117128264D01*
X150677162Y-117067756D01*
X150520400Y-117047118D01*
X150363638Y-117067756D01*
X150217558Y-117128264D01*
X150092118Y-117224518D01*
X149995864Y-117349958D01*
X149974010Y-117402718D01*
X149935356Y-117496038D01*
X149914718Y-117652800D01*
X147843560Y-117652800D01*
X147779932Y-117633499D01*
X147779933Y-117633499D01*
X147574005Y-117613217D01*
X147573995Y-117613217D01*
X147368067Y-117633499D01*
X147170052Y-117693565D01*
X147170047Y-117693567D01*
X146987551Y-117791114D01*
X146827590Y-117922390D01*
X146696314Y-118082351D01*
X146598767Y-118264847D01*
X146598765Y-118264852D01*
X146538699Y-118462867D01*
X146518417Y-118668795D01*
X146518417Y-118668804D01*
X131836000Y-118668804D01*
X131836000Y-116128804D01*
X146518417Y-116128804D01*
X146538699Y-116334732D01*
X146598765Y-116532747D01*
X146598767Y-116532752D01*
X146598768Y-116532754D01*
X146696315Y-116715250D01*
X146827590Y-116875210D01*
X146987550Y-117006485D01*
X147170046Y-117104032D01*
X147170050Y-117104033D01*
X147170052Y-117104034D01*
X147243778Y-117126398D01*
X147368066Y-117164100D01*
X147573995Y-117184383D01*
X147574000Y-117184383D01*
X147574005Y-117184383D01*
X147721095Y-117169895D01*
X147779934Y-117164100D01*
X147977954Y-117104032D01*
X148160450Y-117006485D01*
X148239513Y-116941600D01*
X158449118Y-116941600D01*
X158469756Y-117098362D01*
X158530264Y-117244441D01*
X158626518Y-117369882D01*
X158751959Y-117466136D01*
X158898038Y-117526644D01*
X159054800Y-117547282D01*
X159211562Y-117526644D01*
X159357641Y-117466136D01*
X159483082Y-117369882D01*
X159579336Y-117244441D01*
X159639844Y-117098362D01*
X159660482Y-116941600D01*
X159639844Y-116784838D01*
X159579336Y-116638759D01*
X159483082Y-116513318D01*
X159357641Y-116417064D01*
X159211562Y-116356556D01*
X159054800Y-116335918D01*
X158898038Y-116356556D01*
X158751958Y-116417064D01*
X158626518Y-116513318D01*
X158530264Y-116638758D01*
X158508930Y-116690264D01*
X158469756Y-116784838D01*
X158449118Y-116941600D01*
X148239513Y-116941600D01*
X148320410Y-116875210D01*
X148451685Y-116715250D01*
X148465040Y-116690263D01*
X148509777Y-116644721D01*
X148572035Y-116630594D01*
X148632047Y-116652369D01*
X148654848Y-116674699D01*
X148720518Y-116760282D01*
X148845959Y-116856536D01*
X148992038Y-116917044D01*
X149148800Y-116937682D01*
X149305562Y-116917044D01*
X149451641Y-116856536D01*
X149577082Y-116760282D01*
X149673336Y-116634841D01*
X149733844Y-116488762D01*
X149754482Y-116332000D01*
X149733844Y-116175238D01*
X149673336Y-116029159D01*
X149577082Y-115903718D01*
X149451641Y-115807464D01*
X149305562Y-115746956D01*
X149148800Y-115726318D01*
X148992038Y-115746956D01*
X148845956Y-115807465D01*
X148755461Y-115876904D01*
X148695915Y-115899924D01*
X148633377Y-115887097D01*
X148587701Y-115842495D01*
X148578069Y-115819912D01*
X148549232Y-115724846D01*
X148451685Y-115542350D01*
X148320410Y-115382390D01*
X148160450Y-115251115D01*
X147977954Y-115153568D01*
X147977953Y-115153567D01*
X147977952Y-115153567D01*
X147977947Y-115153565D01*
X147843560Y-115112800D01*
X153623118Y-115112800D01*
X153643756Y-115269562D01*
X153704264Y-115415641D01*
X153800518Y-115541082D01*
X153925959Y-115637336D01*
X154072038Y-115697844D01*
X154228800Y-115718482D01*
X154385562Y-115697844D01*
X154531641Y-115637336D01*
X154657082Y-115541082D01*
X154751833Y-115417600D01*
X156925118Y-115417600D01*
X156945756Y-115574362D01*
X157006264Y-115720441D01*
X157102518Y-115845882D01*
X157227959Y-115942136D01*
X157374038Y-116002644D01*
X157530800Y-116023282D01*
X157687562Y-116002644D01*
X157833641Y-115942136D01*
X157959082Y-115845882D01*
X158055336Y-115720441D01*
X158115844Y-115574362D01*
X158136482Y-115417600D01*
X158115844Y-115260838D01*
X158055336Y-115114759D01*
X157959082Y-114989318D01*
X157833641Y-114893064D01*
X157687562Y-114832556D01*
X157530800Y-114811918D01*
X157530799Y-114811918D01*
X157374038Y-114832556D01*
X157227958Y-114893064D01*
X157102518Y-114989318D01*
X157006264Y-115114758D01*
X156961709Y-115222323D01*
X156945756Y-115260838D01*
X156925118Y-115417600D01*
X154751833Y-115417600D01*
X154753336Y-115415641D01*
X154813844Y-115269562D01*
X154834482Y-115112800D01*
X154813844Y-114956038D01*
X154753336Y-114809959D01*
X154657082Y-114684518D01*
X154531641Y-114588264D01*
X154385562Y-114527756D01*
X154228800Y-114507118D01*
X154228799Y-114507118D01*
X154072038Y-114527756D01*
X153925958Y-114588264D01*
X153800518Y-114684518D01*
X153704264Y-114809958D01*
X153694904Y-114832556D01*
X153643756Y-114956038D01*
X153623118Y-115112800D01*
X147843560Y-115112800D01*
X147779932Y-115093499D01*
X147779933Y-115093499D01*
X147574005Y-115073217D01*
X147573995Y-115073217D01*
X147368067Y-115093499D01*
X147170052Y-115153565D01*
X147170047Y-115153567D01*
X146987551Y-115251114D01*
X146827590Y-115382390D01*
X146696314Y-115542351D01*
X146598767Y-115724847D01*
X146598765Y-115724852D01*
X146538699Y-115922867D01*
X146518417Y-116128795D01*
X146518417Y-116128804D01*
X131836000Y-116128804D01*
X131836000Y-113961919D01*
X131853985Y-113900668D01*
X131902232Y-113858862D01*
X131965423Y-113849776D01*
X132023495Y-113876297D01*
X132029414Y-113881808D01*
X133369929Y-115222323D01*
X133373269Y-115225968D01*
X133394370Y-115251115D01*
X133398529Y-115256071D01*
X133421896Y-115269562D01*
X133432549Y-115275712D01*
X133436719Y-115278369D01*
X133462733Y-115296583D01*
X133468908Y-115300907D01*
X133468910Y-115300907D01*
X133471219Y-115301985D01*
X133492251Y-115310697D01*
X133494667Y-115311576D01*
X133494671Y-115311578D01*
X133523135Y-115316597D01*
X133533365Y-115318401D01*
X133538174Y-115319467D01*
X133576140Y-115329640D01*
X133615281Y-115326216D01*
X133620221Y-115326000D01*
X142786367Y-115326000D01*
X142847622Y-115343986D01*
X142876251Y-115370325D01*
X142929318Y-115439482D01*
X143054759Y-115535736D01*
X143200838Y-115596244D01*
X143357600Y-115616882D01*
X143514362Y-115596244D01*
X143660441Y-115535736D01*
X143785882Y-115439482D01*
X143882136Y-115314041D01*
X143942644Y-115167962D01*
X143963282Y-115011200D01*
X143942644Y-114854438D01*
X143882136Y-114708359D01*
X143785882Y-114582918D01*
X143660441Y-114486664D01*
X143592570Y-114458551D01*
X146523500Y-114458551D01*
X146535133Y-114517031D01*
X146535133Y-114517032D01*
X146579446Y-114583351D01*
X146579448Y-114583353D01*
X146645767Y-114627666D01*
X146645769Y-114627667D01*
X146704252Y-114639300D01*
X146704255Y-114639300D01*
X148443745Y-114639300D01*
X148443748Y-114639300D01*
X148502231Y-114627667D01*
X148568552Y-114583352D01*
X148573544Y-114575882D01*
X148590709Y-114550191D01*
X148612867Y-114517031D01*
X148624500Y-114458548D01*
X148624500Y-114149065D01*
X148642486Y-114087811D01*
X148690733Y-114046005D01*
X148752587Y-114036735D01*
X148793200Y-114042082D01*
X148949962Y-114021444D01*
X149096041Y-113960936D01*
X149221482Y-113864682D01*
X149317736Y-113739241D01*
X149378244Y-113593162D01*
X149398058Y-113442660D01*
X155829936Y-113442660D01*
X155840475Y-113481995D01*
X155841545Y-113486822D01*
X155848612Y-113526899D01*
X155849000Y-113527966D01*
X155859170Y-113552518D01*
X155859646Y-113553538D01*
X155871008Y-113569764D01*
X155891410Y-113630257D01*
X155890530Y-113649538D01*
X155881344Y-113719318D01*
X155878743Y-113739078D01*
X155899381Y-113895840D01*
X155959889Y-114041919D01*
X156056143Y-114167360D01*
X156181584Y-114263614D01*
X156327663Y-114324122D01*
X156484425Y-114344760D01*
X156641187Y-114324122D01*
X156787266Y-114263614D01*
X156912707Y-114167360D01*
X157008961Y-114041919D01*
X157057870Y-113923840D01*
X157097925Y-113874135D01*
X157158499Y-113853973D01*
X157205898Y-113862524D01*
X157221638Y-113869044D01*
X157378400Y-113889682D01*
X157535162Y-113869044D01*
X157681241Y-113808536D01*
X157806682Y-113712282D01*
X157902936Y-113586841D01*
X157963444Y-113440762D01*
X157984082Y-113284000D01*
X157963444Y-113127238D01*
X157902936Y-112981159D01*
X157895112Y-112970963D01*
X157872093Y-112911418D01*
X157871700Y-112901991D01*
X157871700Y-107195955D01*
X157889686Y-107134700D01*
X157937933Y-107092894D01*
X158001124Y-107083808D01*
X158059196Y-107110329D01*
X158065101Y-107115827D01*
X158953829Y-108004554D01*
X159864515Y-108915240D01*
X159895111Y-108971271D01*
X159897700Y-108995355D01*
X159897700Y-111441276D01*
X159879714Y-111502531D01*
X159831467Y-111544337D01*
X159768276Y-111553423D01*
X159710204Y-111526902D01*
X159694513Y-111510249D01*
X159664960Y-111471735D01*
X159635482Y-111433318D01*
X159510041Y-111337064D01*
X159363962Y-111276556D01*
X159207200Y-111255918D01*
X159050438Y-111276556D01*
X158904358Y-111337064D01*
X158778918Y-111433318D01*
X158682664Y-111558758D01*
X158643734Y-111652743D01*
X158622156Y-111704838D01*
X158601518Y-111861600D01*
X158622156Y-112018362D01*
X158682664Y-112164441D01*
X158778918Y-112289882D01*
X158904359Y-112386136D01*
X159050438Y-112446644D01*
X159207200Y-112467282D01*
X159363962Y-112446644D01*
X159510041Y-112386136D01*
X159635482Y-112289882D01*
X159694513Y-112212950D01*
X159746071Y-112175303D01*
X159809799Y-112171507D01*
X159865463Y-112202767D01*
X159895389Y-112259158D01*
X159897700Y-112281923D01*
X159897700Y-112924176D01*
X159879714Y-112985431D01*
X159853374Y-113014062D01*
X159794919Y-113058917D01*
X159698664Y-113184358D01*
X159679245Y-113231241D01*
X159638156Y-113330438D01*
X159617518Y-113487200D01*
X159638156Y-113643962D01*
X159698664Y-113790041D01*
X159794918Y-113915482D01*
X159920359Y-114011736D01*
X160066438Y-114072244D01*
X160223200Y-114092882D01*
X160379962Y-114072244D01*
X160477335Y-114031910D01*
X160540807Y-114025087D01*
X160597895Y-114053663D01*
X160630471Y-114108567D01*
X160632355Y-114140174D01*
X160633518Y-114140174D01*
X160633518Y-114147597D01*
X160633518Y-114147600D01*
X160654156Y-114304362D01*
X160714664Y-114450441D01*
X160810918Y-114575882D01*
X160936359Y-114672136D01*
X161082438Y-114732644D01*
X161239200Y-114753282D01*
X161395962Y-114732644D01*
X161542041Y-114672136D01*
X161667482Y-114575882D01*
X161763736Y-114450441D01*
X161824244Y-114304362D01*
X161844882Y-114147600D01*
X161832931Y-114056825D01*
X161842768Y-113993750D01*
X161852453Y-113977052D01*
X161860554Y-113965484D01*
X161860554Y-113965481D01*
X161861039Y-113964442D01*
X161871190Y-113939937D01*
X161871584Y-113938851D01*
X161871588Y-113938845D01*
X161878655Y-113898759D01*
X161879720Y-113893953D01*
X161890264Y-113854607D01*
X161886714Y-113814035D01*
X161886500Y-113809132D01*
X161886500Y-113209863D01*
X161904486Y-113148608D01*
X161952734Y-113106802D01*
X162015924Y-113097716D01*
X162043156Y-113105187D01*
X162047638Y-113107044D01*
X162204400Y-113127682D01*
X162361162Y-113107044D01*
X162507241Y-113046536D01*
X162632682Y-112950282D01*
X162728936Y-112824841D01*
X162789444Y-112678762D01*
X162810082Y-112522000D01*
X162789444Y-112365238D01*
X162728936Y-112219159D01*
X162632682Y-112093718D01*
X162507241Y-111997464D01*
X162361162Y-111936956D01*
X162204400Y-111916318D01*
X162047638Y-111936956D01*
X162047636Y-111936956D01*
X162047633Y-111936957D01*
X162043153Y-111938813D01*
X161979678Y-111945635D01*
X161922592Y-111917056D01*
X161890018Y-111862151D01*
X161886500Y-111834136D01*
X161886500Y-108288481D01*
X161886716Y-108283541D01*
X161890263Y-108242993D01*
X161879727Y-108203674D01*
X161878656Y-108198845D01*
X161871588Y-108158755D01*
X161871585Y-108158749D01*
X161871202Y-108157697D01*
X161861029Y-108133135D01*
X161860554Y-108132116D01*
X161837206Y-108098772D01*
X161834549Y-108094601D01*
X161814194Y-108059345D01*
X161783013Y-108033181D01*
X161779378Y-108029851D01*
X159530679Y-105781153D01*
X159500084Y-105725123D01*
X159498464Y-105686250D01*
X159500091Y-105673893D01*
X159501394Y-105664000D01*
X161649518Y-105664000D01*
X161670156Y-105820762D01*
X161730664Y-105966841D01*
X161826918Y-106092282D01*
X161952359Y-106188536D01*
X162098438Y-106249044D01*
X162255200Y-106269682D01*
X162411962Y-106249044D01*
X162558041Y-106188536D01*
X162558147Y-106188454D01*
X162558857Y-106187911D01*
X162559663Y-106187599D01*
X162564470Y-106184824D01*
X162564902Y-106185573D01*
X162618403Y-106164893D01*
X162627826Y-106164500D01*
X164388556Y-106164500D01*
X164449811Y-106182486D01*
X164468671Y-106197685D01*
X166420315Y-108149328D01*
X166450911Y-108205359D01*
X166453500Y-108229443D01*
X166453500Y-119312195D01*
X166435514Y-119373450D01*
X166387267Y-119415256D01*
X166324076Y-119424342D01*
X166266004Y-119397821D01*
X166235525Y-119355554D01*
X166183336Y-119229559D01*
X166087082Y-119104118D01*
X165961641Y-119007864D01*
X165815562Y-118947356D01*
X165658800Y-118926718D01*
X165502038Y-118947356D01*
X165355958Y-119007864D01*
X165230518Y-119104118D01*
X165134264Y-119229558D01*
X165100035Y-119312195D01*
X165073756Y-119375638D01*
X165053118Y-119532400D01*
X165073756Y-119689162D01*
X165134264Y-119835241D01*
X165230518Y-119960682D01*
X165355959Y-120056936D01*
X165502038Y-120117444D01*
X165658800Y-120138082D01*
X165815562Y-120117444D01*
X165961641Y-120056936D01*
X166087082Y-119960682D01*
X166183336Y-119835241D01*
X166235525Y-119709243D01*
X166275582Y-119659537D01*
X166336156Y-119639376D01*
X166398013Y-119655164D01*
X166441515Y-119701888D01*
X166453500Y-119752604D01*
X166453500Y-125636774D01*
X166435514Y-125698029D01*
X166430093Y-125705739D01*
X166429464Y-125706558D01*
X166418943Y-125731958D01*
X166368956Y-125852638D01*
X166348318Y-126009400D01*
X166368956Y-126166162D01*
X166429464Y-126312241D01*
X166525718Y-126437682D01*
X166651159Y-126533936D01*
X166797238Y-126594444D01*
X166954000Y-126615082D01*
X167110762Y-126594444D01*
X167256841Y-126533936D01*
X167382282Y-126437682D01*
X167478536Y-126312241D01*
X167539044Y-126166162D01*
X167559682Y-126009400D01*
X167539044Y-125852638D01*
X167478536Y-125706559D01*
X167477907Y-125705739D01*
X167477591Y-125704922D01*
X167474826Y-125700133D01*
X167475573Y-125699701D01*
X167454892Y-125646191D01*
X167454500Y-125636774D01*
X167454500Y-121960469D01*
X170841796Y-121960469D01*
X170858495Y-122055170D01*
X170871247Y-122127492D01*
X170938421Y-122283219D01*
X171009890Y-122379219D01*
X171039698Y-122419258D01*
X171169614Y-122528271D01*
X171169615Y-122528271D01*
X171169617Y-122528273D01*
X171321175Y-122604388D01*
X171351761Y-122611637D01*
X171486200Y-122643500D01*
X172234990Y-122643500D01*
X172296245Y-122661486D01*
X172338051Y-122709733D01*
X172347137Y-122772924D01*
X172320616Y-122830996D01*
X172303967Y-122846683D01*
X172248088Y-122889561D01*
X172185549Y-122937549D01*
X172093300Y-123057769D01*
X172035313Y-123197764D01*
X172015534Y-123348000D01*
X172035313Y-123498235D01*
X172093300Y-123638230D01*
X172093301Y-123638232D01*
X172093302Y-123638233D01*
X172185549Y-123758451D01*
X172305767Y-123850698D01*
X172445764Y-123908687D01*
X172558280Y-123923500D01*
X172558286Y-123923500D01*
X172633714Y-123923500D01*
X172633720Y-123923500D01*
X172746236Y-123908687D01*
X172886233Y-123850698D01*
X173006451Y-123758451D01*
X173098698Y-123638233D01*
X173156687Y-123498236D01*
X173176466Y-123348000D01*
X173156687Y-123197764D01*
X173098698Y-123057767D01*
X173006451Y-122937549D01*
X172886233Y-122845302D01*
X172886232Y-122845301D01*
X172886230Y-122845300D01*
X172831860Y-122822780D01*
X172782151Y-122782721D01*
X172761990Y-122722148D01*
X172777778Y-122660290D01*
X172824503Y-122616788D01*
X172836460Y-122611639D01*
X172948820Y-122570744D01*
X173090517Y-122477549D01*
X173206902Y-122354188D01*
X173291701Y-122207312D01*
X173340342Y-122044839D01*
X173340342Y-122044835D01*
X173340343Y-122044831D01*
X173350127Y-121876830D01*
X175171624Y-121876830D01*
X175181943Y-122040856D01*
X175181943Y-122040859D01*
X175209971Y-122127118D01*
X175226476Y-122177918D01*
X175232733Y-122197173D01*
X175232734Y-122197176D01*
X175320793Y-122335934D01*
X175320800Y-122335942D01*
X175440604Y-122448446D01*
X175440606Y-122448447D01*
X175440607Y-122448448D01*
X175491117Y-122476216D01*
X175584629Y-122527626D01*
X175584631Y-122527626D01*
X175584632Y-122527627D01*
X175743823Y-122568500D01*
X175743825Y-122568500D01*
X176766920Y-122568500D01*
X176766925Y-122568500D01*
X176889058Y-122553071D01*
X177041871Y-122492568D01*
X177174837Y-122395963D01*
X177279600Y-122269326D01*
X177349579Y-122120613D01*
X177380376Y-121959170D01*
X177370056Y-121795140D01*
X177319268Y-121638829D01*
X177319265Y-121638825D01*
X177319265Y-121638823D01*
X177231206Y-121500065D01*
X177231199Y-121500057D01*
X177111395Y-121387553D01*
X176967370Y-121308373D01*
X176887772Y-121287936D01*
X176808177Y-121267500D01*
X175785075Y-121267500D01*
X175785074Y-121267500D01*
X175662940Y-121282929D01*
X175510128Y-121343432D01*
X175377162Y-121440037D01*
X175272401Y-121566671D01*
X175272400Y-121566673D01*
X175202421Y-121715385D01*
X175171624Y-121876825D01*
X175171624Y-121876830D01*
X173350127Y-121876830D01*
X173350203Y-121875529D01*
X173338893Y-121811387D01*
X173320753Y-121708508D01*
X173253579Y-121552781D01*
X173152302Y-121416742D01*
X173136793Y-121403728D01*
X173022385Y-121307728D01*
X172870823Y-121231611D01*
X172705800Y-121192500D01*
X172705799Y-121192500D01*
X171528744Y-121192500D01*
X171528735Y-121192500D01*
X171402549Y-121207249D01*
X171243179Y-121265256D01*
X171101485Y-121358448D01*
X170985098Y-121481812D01*
X170900299Y-121628688D01*
X170900296Y-121628694D01*
X170851658Y-121791156D01*
X170851656Y-121791168D01*
X170841796Y-121960469D01*
X167454500Y-121960469D01*
X167454500Y-111042469D01*
X170841796Y-111042469D01*
X170856673Y-111126839D01*
X170871247Y-111209492D01*
X170938421Y-111365219D01*
X171017719Y-111471735D01*
X171039698Y-111501258D01*
X171169614Y-111610271D01*
X171169615Y-111610271D01*
X171169617Y-111610273D01*
X171321175Y-111686388D01*
X171399021Y-111704838D01*
X171486200Y-111725500D01*
X171486201Y-111725500D01*
X172663253Y-111725500D01*
X172663256Y-111725500D01*
X172789451Y-111710750D01*
X172948820Y-111652744D01*
X173090517Y-111559549D01*
X173206902Y-111436188D01*
X173291701Y-111289312D01*
X173317895Y-111201819D01*
X173340341Y-111126843D01*
X173340343Y-111126831D01*
X173350127Y-110958830D01*
X175171624Y-110958830D01*
X175181943Y-111122856D01*
X175181943Y-111122859D01*
X175207599Y-111201819D01*
X175232032Y-111277018D01*
X175232733Y-111279173D01*
X175232734Y-111279176D01*
X175320793Y-111417934D01*
X175320800Y-111417942D01*
X175440604Y-111530446D01*
X175440606Y-111530447D01*
X175440607Y-111530448D01*
X175443874Y-111532244D01*
X175584629Y-111609626D01*
X175584631Y-111609626D01*
X175584632Y-111609627D01*
X175743823Y-111650500D01*
X175743825Y-111650500D01*
X176766920Y-111650500D01*
X176766925Y-111650500D01*
X176889058Y-111635071D01*
X177041871Y-111574568D01*
X177174837Y-111477963D01*
X177279600Y-111351326D01*
X177349579Y-111202613D01*
X177380376Y-111041170D01*
X177370056Y-110877140D01*
X177319268Y-110720829D01*
X177319265Y-110720825D01*
X177319265Y-110720823D01*
X177231206Y-110582065D01*
X177231199Y-110582057D01*
X177111395Y-110469553D01*
X176967370Y-110390373D01*
X176868269Y-110364929D01*
X176808177Y-110349500D01*
X175785075Y-110349500D01*
X175785074Y-110349500D01*
X175662940Y-110364929D01*
X175510128Y-110425432D01*
X175377162Y-110522037D01*
X175272401Y-110648671D01*
X175272400Y-110648673D01*
X175202421Y-110797385D01*
X175171624Y-110958825D01*
X175171624Y-110958830D01*
X173350127Y-110958830D01*
X173350203Y-110957529D01*
X173335328Y-110873168D01*
X173320753Y-110790508D01*
X173253579Y-110634781D01*
X173152302Y-110498742D01*
X173061636Y-110422664D01*
X173022385Y-110389728D01*
X172942284Y-110349500D01*
X172870825Y-110313612D01*
X172851668Y-110309071D01*
X172796213Y-110277443D01*
X172766661Y-110220855D01*
X172772394Y-110157272D01*
X172811593Y-110106882D01*
X172834437Y-110094152D01*
X172886233Y-110072698D01*
X173006451Y-109980451D01*
X173098698Y-109860233D01*
X173156687Y-109720236D01*
X173176466Y-109570000D01*
X173156687Y-109419764D01*
X173098698Y-109279767D01*
X173006451Y-109159549D01*
X172886233Y-109067302D01*
X172886232Y-109067301D01*
X172886230Y-109067300D01*
X172795731Y-109029814D01*
X172746236Y-109009313D01*
X172708730Y-109004375D01*
X172633722Y-108994500D01*
X172633720Y-108994500D01*
X172558280Y-108994500D01*
X172558277Y-108994500D01*
X172445764Y-109009313D01*
X172305769Y-109067300D01*
X172185549Y-109159549D01*
X172093300Y-109279769D01*
X172053125Y-109376762D01*
X172035313Y-109419764D01*
X172015534Y-109570000D01*
X172035313Y-109720236D01*
X172050507Y-109756918D01*
X172093300Y-109860230D01*
X172093301Y-109860232D01*
X172093302Y-109860233D01*
X172185549Y-109980451D01*
X172303964Y-110071314D01*
X172341610Y-110122872D01*
X172345406Y-110186600D01*
X172314146Y-110242263D01*
X172257754Y-110272190D01*
X172234990Y-110274500D01*
X171528735Y-110274500D01*
X171402549Y-110289249D01*
X171243179Y-110347256D01*
X171101485Y-110440448D01*
X170985098Y-110563812D01*
X170900299Y-110710688D01*
X170900296Y-110710694D01*
X170851658Y-110873156D01*
X170851656Y-110873168D01*
X170841796Y-111042469D01*
X167454500Y-111042469D01*
X167454500Y-108041189D01*
X167457089Y-108017108D01*
X167457398Y-108015685D01*
X167458358Y-108011273D01*
X167454643Y-107959332D01*
X167454500Y-107955309D01*
X167454500Y-107939406D01*
X167454499Y-107939396D01*
X167452236Y-107923658D01*
X167451803Y-107919634D01*
X167451696Y-107918140D01*
X167448091Y-107867717D01*
X167446005Y-107862125D01*
X167440014Y-107838655D01*
X167439165Y-107832743D01*
X167417527Y-107785363D01*
X167415995Y-107781665D01*
X167397795Y-107732869D01*
X167394217Y-107728089D01*
X167381854Y-107707251D01*
X167379377Y-107701827D01*
X167345271Y-107662467D01*
X167342749Y-107659336D01*
X167341321Y-107657429D01*
X167333220Y-107646606D01*
X167321979Y-107635365D01*
X167319222Y-107632404D01*
X167285126Y-107593055D01*
X167280101Y-107589826D01*
X167261242Y-107574628D01*
X165043370Y-105356756D01*
X165028171Y-105337895D01*
X165024942Y-105332871D01*
X164998961Y-105310359D01*
X164985580Y-105298764D01*
X164982632Y-105296018D01*
X164971397Y-105284782D01*
X164958666Y-105275252D01*
X164955533Y-105272729D01*
X164935736Y-105255574D01*
X164916172Y-105238621D01*
X164910738Y-105236140D01*
X164889916Y-105223786D01*
X164885131Y-105220204D01*
X164836343Y-105202007D01*
X164832611Y-105200461D01*
X164785257Y-105178835D01*
X164785254Y-105178834D01*
X164785253Y-105178834D01*
X164779341Y-105177984D01*
X164755883Y-105171997D01*
X164750283Y-105169908D01*
X164698356Y-105166194D01*
X164694338Y-105165762D01*
X164678612Y-105163501D01*
X164678601Y-105163500D01*
X164678599Y-105163500D01*
X164678595Y-105163500D01*
X164662698Y-105163500D01*
X164658676Y-105163356D01*
X164606727Y-105159641D01*
X164606726Y-105159641D01*
X164606725Y-105159641D01*
X164600888Y-105160911D01*
X164576806Y-105163500D01*
X163653843Y-105163500D01*
X163592588Y-105145514D01*
X163550782Y-105097267D01*
X163541696Y-105034076D01*
X163568217Y-104976004D01*
X163610483Y-104945525D01*
X163675641Y-104918536D01*
X163801082Y-104822282D01*
X163897336Y-104696841D01*
X163957844Y-104550762D01*
X163978482Y-104394000D01*
X163957844Y-104237238D01*
X163897336Y-104091159D01*
X163801082Y-103965718D01*
X163675641Y-103869464D01*
X163529562Y-103808956D01*
X163372800Y-103788318D01*
X163216038Y-103808956D01*
X163069958Y-103869464D01*
X162944518Y-103965718D01*
X162848264Y-104091158D01*
X162835313Y-104122425D01*
X162787756Y-104237238D01*
X162767118Y-104394000D01*
X162787756Y-104550762D01*
X162848264Y-104696841D01*
X162944518Y-104822282D01*
X163069959Y-104918536D01*
X163135116Y-104945525D01*
X163184824Y-104985582D01*
X163204985Y-105046155D01*
X163189197Y-105108013D01*
X163142473Y-105151515D01*
X163091757Y-105163500D01*
X162627826Y-105163500D01*
X162566571Y-105145514D01*
X162558857Y-105140089D01*
X162558046Y-105139467D01*
X162558042Y-105139464D01*
X162482112Y-105108013D01*
X162411962Y-105078956D01*
X162255200Y-105058318D01*
X162255199Y-105058318D01*
X162098438Y-105078956D01*
X161952358Y-105139464D01*
X161826918Y-105235718D01*
X161730664Y-105361158D01*
X161691198Y-105456438D01*
X161670156Y-105507238D01*
X161649518Y-105664000D01*
X159501394Y-105664000D01*
X159508082Y-105613200D01*
X159487444Y-105456438D01*
X159426936Y-105310359D01*
X159354445Y-105215886D01*
X159331426Y-105156343D01*
X159344253Y-105093805D01*
X159388854Y-105048128D01*
X159429541Y-105034586D01*
X159465562Y-105029844D01*
X159611641Y-104969336D01*
X159737082Y-104873082D01*
X159833336Y-104747641D01*
X159893844Y-104601562D01*
X159914482Y-104444800D01*
X159893844Y-104288038D01*
X159833336Y-104141959D01*
X159737082Y-104016518D01*
X159611641Y-103920264D01*
X159465562Y-103859756D01*
X159308800Y-103839118D01*
X159152038Y-103859756D01*
X159005958Y-103920264D01*
X158880515Y-104016520D01*
X158875267Y-104021769D01*
X158873045Y-104019547D01*
X158833151Y-104048639D01*
X158769421Y-104052395D01*
X158713777Y-104021100D01*
X158705003Y-104010968D01*
X158699879Y-104004290D01*
X158670282Y-103965718D01*
X158544841Y-103869464D01*
X158398762Y-103808956D01*
X158242000Y-103788318D01*
X158085236Y-103808956D01*
X158028357Y-103832517D01*
X157964883Y-103839341D01*
X157907795Y-103810764D01*
X157875219Y-103755860D01*
X157871700Y-103727841D01*
X157871700Y-102402469D01*
X170841796Y-102402469D01*
X170856673Y-102486839D01*
X170871247Y-102569492D01*
X170938421Y-102725219D01*
X171022355Y-102837962D01*
X171039698Y-102861258D01*
X171169614Y-102970271D01*
X171169615Y-102970271D01*
X171169617Y-102970273D01*
X171321175Y-103046388D01*
X171351761Y-103053637D01*
X171486200Y-103085500D01*
X172234990Y-103085500D01*
X172296245Y-103103486D01*
X172338051Y-103151733D01*
X172347137Y-103214924D01*
X172320616Y-103272996D01*
X172303967Y-103288683D01*
X172224775Y-103349450D01*
X172185549Y-103379549D01*
X172093300Y-103499769D01*
X172039085Y-103630657D01*
X172035313Y-103639764D01*
X172015534Y-103790000D01*
X172035313Y-103940236D01*
X172042030Y-103956452D01*
X172093300Y-104080230D01*
X172093301Y-104080232D01*
X172093302Y-104080233D01*
X172185549Y-104200451D01*
X172305767Y-104292698D01*
X172445764Y-104350687D01*
X172558280Y-104365500D01*
X172558286Y-104365500D01*
X172633714Y-104365500D01*
X172633720Y-104365500D01*
X172746236Y-104350687D01*
X172886233Y-104292698D01*
X173006451Y-104200451D01*
X173098698Y-104080233D01*
X173156687Y-103940236D01*
X173176466Y-103790000D01*
X173156687Y-103639764D01*
X173098698Y-103499767D01*
X173006451Y-103379549D01*
X172886233Y-103287302D01*
X172886232Y-103287301D01*
X172886230Y-103287300D01*
X172841711Y-103268860D01*
X172831859Y-103264779D01*
X172782151Y-103224721D01*
X172761990Y-103164148D01*
X172777778Y-103102290D01*
X172824503Y-103058788D01*
X172836460Y-103053639D01*
X172948820Y-103012744D01*
X173090517Y-102919549D01*
X173206902Y-102796188D01*
X173291701Y-102649312D01*
X173340342Y-102486839D01*
X173340342Y-102486835D01*
X173340343Y-102486831D01*
X173350127Y-102318830D01*
X175171624Y-102318830D01*
X175181943Y-102482856D01*
X175181943Y-102482859D01*
X175232733Y-102639173D01*
X175232734Y-102639176D01*
X175320793Y-102777934D01*
X175320800Y-102777942D01*
X175440604Y-102890446D01*
X175440606Y-102890447D01*
X175440607Y-102890448D01*
X175491116Y-102918216D01*
X175584629Y-102969626D01*
X175584631Y-102969626D01*
X175584632Y-102969627D01*
X175743823Y-103010500D01*
X175743825Y-103010500D01*
X176766920Y-103010500D01*
X176766925Y-103010500D01*
X176889058Y-102995071D01*
X177041871Y-102934568D01*
X177174837Y-102837963D01*
X177279600Y-102711326D01*
X177349579Y-102562613D01*
X177380376Y-102401170D01*
X177370056Y-102237140D01*
X177319268Y-102080829D01*
X177319265Y-102080825D01*
X177319265Y-102080823D01*
X177231206Y-101942065D01*
X177231199Y-101942057D01*
X177111395Y-101829553D01*
X176967370Y-101750373D01*
X176887772Y-101729936D01*
X176808177Y-101709500D01*
X175785075Y-101709500D01*
X175785074Y-101709500D01*
X175662940Y-101724929D01*
X175510128Y-101785432D01*
X175377162Y-101882037D01*
X175272401Y-102008671D01*
X175272400Y-102008673D01*
X175202421Y-102157385D01*
X175171624Y-102318825D01*
X175171624Y-102318830D01*
X173350127Y-102318830D01*
X173350203Y-102317529D01*
X173339439Y-102256482D01*
X173320753Y-102150508D01*
X173253579Y-101994781D01*
X173152302Y-101858742D01*
X173152301Y-101858741D01*
X173022385Y-101749728D01*
X172870823Y-101673611D01*
X172705800Y-101634500D01*
X172705799Y-101634500D01*
X171528744Y-101634500D01*
X171528735Y-101634500D01*
X171402549Y-101649249D01*
X171243179Y-101707256D01*
X171101485Y-101800448D01*
X170985098Y-101923812D01*
X170900299Y-102070688D01*
X170900296Y-102070694D01*
X170851658Y-102233156D01*
X170851656Y-102233168D01*
X170841796Y-102402469D01*
X157871700Y-102402469D01*
X157871700Y-102190881D01*
X157871916Y-102185941D01*
X157875463Y-102145393D01*
X157864927Y-102106074D01*
X157863856Y-102101245D01*
X157856788Y-102061155D01*
X157856785Y-102061149D01*
X157856402Y-102060097D01*
X157846229Y-102035535D01*
X157845754Y-102034516D01*
X157844443Y-102032644D01*
X157822401Y-102001165D01*
X157819749Y-101997001D01*
X157799394Y-101961745D01*
X157789736Y-101953641D01*
X157768210Y-101935578D01*
X157764578Y-101932251D01*
X157752680Y-101920353D01*
X157722084Y-101864322D01*
X157720464Y-101825451D01*
X157730082Y-101752400D01*
X157709444Y-101595638D01*
X157648936Y-101449559D01*
X157552682Y-101324118D01*
X157427241Y-101227864D01*
X157281162Y-101167356D01*
X157124400Y-101146718D01*
X156967638Y-101167356D01*
X156821558Y-101227864D01*
X156696118Y-101324118D01*
X156599864Y-101449558D01*
X156539356Y-101595638D01*
X156522335Y-101724929D01*
X156518718Y-101752400D01*
X156539356Y-101909162D01*
X156599864Y-102055241D01*
X156696118Y-102180682D01*
X156821559Y-102276936D01*
X156967638Y-102337444D01*
X157122190Y-102357791D01*
X157180571Y-102383618D01*
X157215723Y-102436909D01*
X157220700Y-102470121D01*
X157220700Y-102601956D01*
X157202714Y-102663211D01*
X157154467Y-102705017D01*
X157091276Y-102714103D01*
X157064044Y-102706632D01*
X157027164Y-102691357D01*
X157027162Y-102691356D01*
X156870400Y-102670718D01*
X156713638Y-102691356D01*
X156567558Y-102751864D01*
X156442118Y-102848118D01*
X156345864Y-102973558D01*
X156285356Y-103119638D01*
X156264718Y-103276400D01*
X156274335Y-103349450D01*
X156264498Y-103412528D01*
X156242119Y-103444353D01*
X155940839Y-103745633D01*
X155937195Y-103748973D01*
X155906006Y-103775144D01*
X155885649Y-103810402D01*
X155882994Y-103814570D01*
X155859646Y-103847914D01*
X155859185Y-103848902D01*
X155848989Y-103873517D01*
X155848611Y-103874556D01*
X155841545Y-103914630D01*
X155840476Y-103919454D01*
X155829936Y-103958791D01*
X155829936Y-103958794D01*
X155833484Y-103999349D01*
X155833700Y-104004290D01*
X155833700Y-113397162D01*
X155833484Y-113402102D01*
X155829936Y-113442658D01*
X155829936Y-113442660D01*
X149398058Y-113442660D01*
X149398882Y-113436400D01*
X149378244Y-113279638D01*
X149317736Y-113133559D01*
X149221482Y-113008118D01*
X149096041Y-112911864D01*
X148949962Y-112851356D01*
X148793200Y-112830718D01*
X148793199Y-112830718D01*
X148793198Y-112830718D01*
X148752587Y-112836064D01*
X148689509Y-112826226D01*
X148641763Y-112783847D01*
X148624500Y-112723733D01*
X148624500Y-112719054D01*
X148624499Y-112719048D01*
X148612867Y-112660569D01*
X148589474Y-112625559D01*
X148568553Y-112594248D01*
X148568551Y-112594246D01*
X148502232Y-112549933D01*
X148443751Y-112538300D01*
X148443748Y-112538300D01*
X146704252Y-112538300D01*
X146704248Y-112538300D01*
X146645768Y-112549933D01*
X146645767Y-112549933D01*
X146579448Y-112594246D01*
X146579446Y-112594248D01*
X146535133Y-112660567D01*
X146535133Y-112660568D01*
X146523500Y-112719048D01*
X146523500Y-114458551D01*
X143592570Y-114458551D01*
X143514362Y-114426156D01*
X143357600Y-114405518D01*
X143200838Y-114426156D01*
X143054758Y-114486664D01*
X142929317Y-114582918D01*
X142929318Y-114582918D01*
X142876252Y-114652074D01*
X142824695Y-114689720D01*
X142786367Y-114696400D01*
X133781324Y-114696400D01*
X133720069Y-114678414D01*
X133701209Y-114663215D01*
X132147719Y-113109725D01*
X132117123Y-113053694D01*
X132115503Y-113014827D01*
X132126882Y-112928400D01*
X132106244Y-112771638D01*
X132045736Y-112625559D01*
X131949482Y-112500118D01*
X131824041Y-112403864D01*
X131677962Y-112343356D01*
X131521200Y-112322718D01*
X131521199Y-112322718D01*
X131364438Y-112343356D01*
X131218358Y-112403864D01*
X131092918Y-112500118D01*
X130996664Y-112625558D01*
X130957938Y-112719052D01*
X130936156Y-112771638D01*
X130915518Y-112928400D01*
X119000000Y-112928400D01*
X119000000Y-110958830D01*
X120471624Y-110958830D01*
X120481943Y-111122856D01*
X120481943Y-111122859D01*
X120507599Y-111201819D01*
X120532032Y-111277018D01*
X120532733Y-111279173D01*
X120532734Y-111279176D01*
X120620793Y-111417934D01*
X120620800Y-111417942D01*
X120740604Y-111530446D01*
X120740606Y-111530447D01*
X120740607Y-111530448D01*
X120743874Y-111532244D01*
X120884629Y-111609626D01*
X120884631Y-111609626D01*
X120884632Y-111609627D01*
X121043823Y-111650500D01*
X121043825Y-111650500D01*
X122066920Y-111650500D01*
X122066925Y-111650500D01*
X122189058Y-111635071D01*
X122341871Y-111574568D01*
X122474837Y-111477963D01*
X122579600Y-111351326D01*
X122649579Y-111202613D01*
X122680128Y-111042469D01*
X124501796Y-111042469D01*
X124516673Y-111126839D01*
X124531247Y-111209492D01*
X124598421Y-111365219D01*
X124677719Y-111471735D01*
X124699698Y-111501258D01*
X124829614Y-111610271D01*
X124829615Y-111610271D01*
X124829617Y-111610273D01*
X124981175Y-111686388D01*
X125059021Y-111704838D01*
X125146200Y-111725500D01*
X125146201Y-111725500D01*
X126323253Y-111725500D01*
X126323256Y-111725500D01*
X126449451Y-111710750D01*
X126608820Y-111652744D01*
X126750517Y-111559549D01*
X126866902Y-111436188D01*
X126951701Y-111289312D01*
X126977895Y-111201819D01*
X127000341Y-111126843D01*
X127000343Y-111126831D01*
X127010203Y-110957529D01*
X127008382Y-110947200D01*
X149914718Y-110947200D01*
X149935356Y-111103962D01*
X149995864Y-111250041D01*
X150092118Y-111375482D01*
X150217559Y-111471736D01*
X150363638Y-111532244D01*
X150520400Y-111552882D01*
X150677162Y-111532244D01*
X150823241Y-111471736D01*
X150948682Y-111375482D01*
X151044936Y-111250041D01*
X151105444Y-111103962D01*
X151126082Y-110947200D01*
X151105444Y-110790438D01*
X151044936Y-110644359D01*
X150948682Y-110518918D01*
X150823241Y-110422664D01*
X150677162Y-110362156D01*
X150520400Y-110341518D01*
X150363638Y-110362156D01*
X150217558Y-110422664D01*
X150092118Y-110518918D01*
X149995864Y-110644358D01*
X149935356Y-110790438D01*
X149923942Y-110877140D01*
X149914718Y-110947200D01*
X127008382Y-110947200D01*
X126995328Y-110873168D01*
X126980753Y-110790508D01*
X126913579Y-110634781D01*
X126812302Y-110498742D01*
X126721636Y-110422664D01*
X126682385Y-110389728D01*
X126530823Y-110313611D01*
X126365800Y-110274500D01*
X126365799Y-110274500D01*
X125617010Y-110274500D01*
X125555755Y-110256514D01*
X125513949Y-110208267D01*
X125510632Y-110185200D01*
X154385118Y-110185200D01*
X154405756Y-110341962D01*
X154466264Y-110488041D01*
X154562518Y-110613482D01*
X154687959Y-110709736D01*
X154834038Y-110770244D01*
X154990800Y-110790882D01*
X155147562Y-110770244D01*
X155293641Y-110709736D01*
X155419082Y-110613482D01*
X155515336Y-110488041D01*
X155575844Y-110341962D01*
X155596482Y-110185200D01*
X155575844Y-110028438D01*
X155515336Y-109882359D01*
X155419082Y-109756918D01*
X155293641Y-109660664D01*
X155147562Y-109600156D01*
X154990800Y-109579518D01*
X154834038Y-109600156D01*
X154687958Y-109660664D01*
X154562518Y-109756918D01*
X154466264Y-109882358D01*
X154466264Y-109882359D01*
X154405756Y-110028438D01*
X154385118Y-110185200D01*
X125510632Y-110185200D01*
X125504863Y-110145076D01*
X125531384Y-110087004D01*
X125548032Y-110071316D01*
X125666451Y-109980451D01*
X125758698Y-109860233D01*
X125816687Y-109720236D01*
X125836466Y-109570000D01*
X125816687Y-109419764D01*
X125758698Y-109279767D01*
X125712837Y-109220000D01*
X150524318Y-109220000D01*
X150544956Y-109376762D01*
X150605464Y-109522841D01*
X150701718Y-109648282D01*
X150827159Y-109744536D01*
X150973238Y-109805044D01*
X151130000Y-109825682D01*
X151286762Y-109805044D01*
X151432841Y-109744536D01*
X151558282Y-109648282D01*
X151654536Y-109522841D01*
X151715044Y-109376762D01*
X151735682Y-109220000D01*
X151715044Y-109063238D01*
X151654536Y-108917159D01*
X151558282Y-108791718D01*
X151432841Y-108695464D01*
X151286762Y-108634956D01*
X151130000Y-108614318D01*
X151129999Y-108614318D01*
X150973238Y-108634956D01*
X150827158Y-108695464D01*
X150701718Y-108791718D01*
X150605464Y-108917158D01*
X150544955Y-109063238D01*
X150544956Y-109063238D01*
X150524318Y-109220000D01*
X125712837Y-109220000D01*
X125666451Y-109159549D01*
X125546233Y-109067302D01*
X125546232Y-109067301D01*
X125546230Y-109067300D01*
X125455731Y-109029814D01*
X125406236Y-109009313D01*
X125368730Y-109004375D01*
X125293722Y-108994500D01*
X125293720Y-108994500D01*
X125218280Y-108994500D01*
X125218277Y-108994500D01*
X125105764Y-109009313D01*
X124965769Y-109067300D01*
X124845549Y-109159549D01*
X124753300Y-109279769D01*
X124713125Y-109376762D01*
X124695313Y-109419764D01*
X124675534Y-109570000D01*
X124695313Y-109720236D01*
X124710507Y-109756918D01*
X124753300Y-109860230D01*
X124753301Y-109860232D01*
X124753302Y-109860233D01*
X124845549Y-109980451D01*
X124965767Y-110072698D01*
X125020138Y-110095219D01*
X125069847Y-110135277D01*
X125090009Y-110195850D01*
X125074221Y-110257708D01*
X125027497Y-110301210D01*
X125015533Y-110306362D01*
X124903178Y-110347256D01*
X124761485Y-110440448D01*
X124645098Y-110563812D01*
X124560299Y-110710688D01*
X124560296Y-110710694D01*
X124511658Y-110873156D01*
X124511656Y-110873168D01*
X124501796Y-111042469D01*
X122680128Y-111042469D01*
X122680376Y-111041170D01*
X122670056Y-110877140D01*
X122619268Y-110720829D01*
X122619265Y-110720825D01*
X122619265Y-110720823D01*
X122531206Y-110582065D01*
X122531199Y-110582057D01*
X122411395Y-110469553D01*
X122267370Y-110390373D01*
X122168269Y-110364929D01*
X122108177Y-110349500D01*
X121085075Y-110349500D01*
X121085074Y-110349500D01*
X120962940Y-110364929D01*
X120810128Y-110425432D01*
X120677162Y-110522037D01*
X120572401Y-110648671D01*
X120572400Y-110648673D01*
X120502421Y-110797385D01*
X120471624Y-110958825D01*
X120471624Y-110958830D01*
X119000000Y-110958830D01*
X119000000Y-102318830D01*
X120471624Y-102318830D01*
X120481943Y-102482856D01*
X120481943Y-102482859D01*
X120532733Y-102639173D01*
X120532734Y-102639176D01*
X120620793Y-102777934D01*
X120620800Y-102777942D01*
X120740604Y-102890446D01*
X120740606Y-102890447D01*
X120740607Y-102890448D01*
X120791116Y-102918216D01*
X120884629Y-102969626D01*
X120884631Y-102969626D01*
X120884632Y-102969627D01*
X121043823Y-103010500D01*
X121043825Y-103010500D01*
X122066920Y-103010500D01*
X122066925Y-103010500D01*
X122189058Y-102995071D01*
X122341871Y-102934568D01*
X122474837Y-102837963D01*
X122579600Y-102711326D01*
X122649579Y-102562613D01*
X122680128Y-102402469D01*
X124501796Y-102402469D01*
X124516673Y-102486839D01*
X124531247Y-102569492D01*
X124598421Y-102725219D01*
X124682355Y-102837962D01*
X124699698Y-102861258D01*
X124829614Y-102970271D01*
X124829615Y-102970271D01*
X124829617Y-102970273D01*
X124981175Y-103046388D01*
X125000327Y-103050927D01*
X125055783Y-103082553D01*
X125085337Y-103139141D01*
X125079606Y-103202724D01*
X125040409Y-103253115D01*
X125017559Y-103265848D01*
X124965771Y-103287299D01*
X124845549Y-103379549D01*
X124753300Y-103499769D01*
X124699085Y-103630657D01*
X124695313Y-103639764D01*
X124675534Y-103790000D01*
X124695313Y-103940236D01*
X124702030Y-103956452D01*
X124753300Y-104080230D01*
X124753301Y-104080232D01*
X124753302Y-104080233D01*
X124845549Y-104200451D01*
X124965767Y-104292698D01*
X125105764Y-104350687D01*
X125218280Y-104365500D01*
X125218286Y-104365500D01*
X125293714Y-104365500D01*
X125293720Y-104365500D01*
X125406236Y-104350687D01*
X125546233Y-104292698D01*
X125546621Y-104292400D01*
X126902318Y-104292400D01*
X126919413Y-104422246D01*
X126922956Y-104449161D01*
X126983462Y-104595238D01*
X126983463Y-104595240D01*
X126983464Y-104595241D01*
X127030087Y-104656001D01*
X127053107Y-104715546D01*
X127053500Y-104724973D01*
X127053500Y-107616481D01*
X127053144Y-107622828D01*
X127048687Y-107662385D01*
X127048687Y-107662388D01*
X127059843Y-107721348D01*
X127068785Y-107780677D01*
X127071289Y-107788794D01*
X127070666Y-107788986D01*
X127070739Y-107789209D01*
X127071355Y-107788994D01*
X127074157Y-107797002D01*
X127074158Y-107797005D01*
X127074159Y-107797007D01*
X127093045Y-107832741D01*
X127102197Y-107850058D01*
X127128233Y-107904121D01*
X127133017Y-107911138D01*
X127132473Y-107911508D01*
X127132607Y-107911697D01*
X127133137Y-107911307D01*
X127138180Y-107918140D01*
X127180609Y-107960569D01*
X127221423Y-108004556D01*
X127221424Y-108004557D01*
X127228062Y-108009850D01*
X127227651Y-108010364D01*
X127239478Y-108019438D01*
X127287143Y-108067103D01*
X127317739Y-108123134D01*
X127319358Y-108132425D01*
X127329356Y-108208362D01*
X127389864Y-108354441D01*
X127486118Y-108479882D01*
X127611559Y-108576136D01*
X127757638Y-108636644D01*
X127914400Y-108657282D01*
X128071162Y-108636644D01*
X128217241Y-108576136D01*
X128342682Y-108479882D01*
X128437433Y-108356400D01*
X140516718Y-108356400D01*
X140537356Y-108513162D01*
X140597864Y-108659241D01*
X140694118Y-108784682D01*
X140819559Y-108880936D01*
X140965638Y-108941444D01*
X141122400Y-108962082D01*
X141279162Y-108941444D01*
X141425241Y-108880936D01*
X141550682Y-108784682D01*
X141646936Y-108659241D01*
X141707444Y-108513162D01*
X141728082Y-108356400D01*
X141707444Y-108199638D01*
X141646936Y-108053559D01*
X141550682Y-107928118D01*
X141512995Y-107899200D01*
X142243918Y-107899200D01*
X142264556Y-108055962D01*
X142325064Y-108202041D01*
X142421318Y-108327482D01*
X142546759Y-108423736D01*
X142692838Y-108484244D01*
X142849600Y-108504882D01*
X143006362Y-108484244D01*
X143152441Y-108423736D01*
X143277882Y-108327482D01*
X143374136Y-108202041D01*
X143434644Y-108055962D01*
X143455282Y-107899200D01*
X143435218Y-107746800D01*
X145495118Y-107746800D01*
X145515756Y-107903562D01*
X145576264Y-108049641D01*
X145672518Y-108175082D01*
X145797959Y-108271336D01*
X145944038Y-108331844D01*
X146100800Y-108352482D01*
X146257562Y-108331844D01*
X146403641Y-108271336D01*
X146529082Y-108175082D01*
X146625336Y-108049641D01*
X146685844Y-107903562D01*
X146706482Y-107746800D01*
X146685844Y-107590038D01*
X146625336Y-107443959D01*
X146529082Y-107318518D01*
X146403641Y-107222264D01*
X146320921Y-107188000D01*
X150575118Y-107188000D01*
X150595756Y-107344762D01*
X150656264Y-107490841D01*
X150752518Y-107616282D01*
X150877959Y-107712536D01*
X151024038Y-107773044D01*
X151180800Y-107793682D01*
X151337562Y-107773044D01*
X151483641Y-107712536D01*
X151609082Y-107616282D01*
X151705336Y-107490841D01*
X151765844Y-107344762D01*
X151786482Y-107188000D01*
X151765844Y-107031238D01*
X151705336Y-106885159D01*
X151609082Y-106759718D01*
X151483641Y-106663464D01*
X151337562Y-106602956D01*
X151180800Y-106582318D01*
X151024038Y-106602956D01*
X150877958Y-106663464D01*
X150752518Y-106759718D01*
X150656264Y-106885158D01*
X150626650Y-106956654D01*
X150595756Y-107031238D01*
X150575118Y-107188000D01*
X146320921Y-107188000D01*
X146257562Y-107161756D01*
X146100800Y-107141118D01*
X145944038Y-107161756D01*
X145797958Y-107222264D01*
X145672518Y-107318518D01*
X145576264Y-107443958D01*
X145567457Y-107465220D01*
X145515756Y-107590038D01*
X145495118Y-107746800D01*
X143435218Y-107746800D01*
X143434644Y-107742438D01*
X143374136Y-107596359D01*
X143277882Y-107470918D01*
X143152441Y-107374664D01*
X143006362Y-107314156D01*
X142849600Y-107293518D01*
X142849599Y-107293518D01*
X142692838Y-107314156D01*
X142546758Y-107374664D01*
X142421318Y-107470918D01*
X142325064Y-107596358D01*
X142264556Y-107742438D01*
X142250302Y-107850712D01*
X142243918Y-107899200D01*
X141512995Y-107899200D01*
X141425241Y-107831864D01*
X141279162Y-107771356D01*
X141122400Y-107750718D01*
X140965638Y-107771356D01*
X140819558Y-107831864D01*
X140694118Y-107928118D01*
X140597864Y-108053558D01*
X140554290Y-108158755D01*
X140537356Y-108199638D01*
X140516718Y-108356400D01*
X128437433Y-108356400D01*
X128438936Y-108354441D01*
X128499444Y-108208362D01*
X128520082Y-108051600D01*
X128499444Y-107894838D01*
X128438936Y-107748759D01*
X128342682Y-107623318D01*
X128217241Y-107527064D01*
X128071162Y-107466556D01*
X128061006Y-107465218D01*
X128002626Y-107439391D01*
X127967476Y-107386099D01*
X127962500Y-107352895D01*
X127962500Y-104724972D01*
X127980486Y-104663718D01*
X127985906Y-104656009D01*
X128032536Y-104595241D01*
X128093044Y-104449162D01*
X128113682Y-104292400D01*
X128093044Y-104135638D01*
X128032536Y-103989559D01*
X127936282Y-103864118D01*
X127810841Y-103767864D01*
X127664762Y-103707356D01*
X127508000Y-103686718D01*
X127351238Y-103707356D01*
X127205158Y-103767864D01*
X127079718Y-103864118D01*
X126983464Y-103989558D01*
X126942175Y-104089240D01*
X126922956Y-104135638D01*
X126902318Y-104292400D01*
X125546621Y-104292400D01*
X125666451Y-104200451D01*
X125758698Y-104080233D01*
X125816687Y-103940236D01*
X125836466Y-103790000D01*
X125816687Y-103639764D01*
X125758698Y-103499767D01*
X125666451Y-103379549D01*
X125548035Y-103288685D01*
X125510390Y-103237128D01*
X125506594Y-103173400D01*
X125537854Y-103117737D01*
X125594246Y-103087810D01*
X125617010Y-103085500D01*
X126323253Y-103085500D01*
X126323256Y-103085500D01*
X126449451Y-103070750D01*
X126608820Y-103012744D01*
X126750517Y-102919549D01*
X126866902Y-102796188D01*
X126951701Y-102649312D01*
X127000342Y-102486839D01*
X127000342Y-102486835D01*
X127000343Y-102486831D01*
X127010203Y-102317529D01*
X126999439Y-102256482D01*
X126980753Y-102150508D01*
X126913579Y-101994781D01*
X126812302Y-101858742D01*
X126812301Y-101858741D01*
X126682385Y-101749728D01*
X126530823Y-101673611D01*
X126365800Y-101634500D01*
X126365799Y-101634500D01*
X125188744Y-101634500D01*
X125188735Y-101634500D01*
X125062549Y-101649249D01*
X124903179Y-101707256D01*
X124761485Y-101800448D01*
X124645098Y-101923812D01*
X124560299Y-102070688D01*
X124560296Y-102070694D01*
X124511658Y-102233156D01*
X124511656Y-102233168D01*
X124501796Y-102402469D01*
X122680128Y-102402469D01*
X122680376Y-102401170D01*
X122670056Y-102237140D01*
X122619268Y-102080829D01*
X122619265Y-102080825D01*
X122619265Y-102080823D01*
X122531206Y-101942065D01*
X122531199Y-101942057D01*
X122411395Y-101829553D01*
X122267370Y-101750373D01*
X122187772Y-101729936D01*
X122108177Y-101709500D01*
X121085075Y-101709500D01*
X121085074Y-101709500D01*
X120962940Y-101724929D01*
X120810128Y-101785432D01*
X120677162Y-101882037D01*
X120572401Y-102008671D01*
X120572400Y-102008673D01*
X120502421Y-102157385D01*
X120471624Y-102318825D01*
X120471624Y-102318830D01*
X119000000Y-102318830D01*
X119000000Y-101041200D01*
X134319118Y-101041200D01*
X134339756Y-101197962D01*
X134400264Y-101344041D01*
X134496518Y-101469482D01*
X134621959Y-101565736D01*
X134768038Y-101626244D01*
X134924800Y-101646882D01*
X135081562Y-101626244D01*
X135227641Y-101565736D01*
X135353082Y-101469482D01*
X135369873Y-101447600D01*
X136909918Y-101447600D01*
X136930556Y-101604362D01*
X136991064Y-101750441D01*
X137087318Y-101875882D01*
X137212759Y-101972136D01*
X137358838Y-102032644D01*
X137515600Y-102053282D01*
X137672362Y-102032644D01*
X137818441Y-101972136D01*
X137943882Y-101875882D01*
X137996947Y-101806725D01*
X138048505Y-101769080D01*
X138086833Y-101762400D01*
X142171691Y-101762400D01*
X142232946Y-101780386D01*
X142251806Y-101795585D01*
X146198234Y-105742013D01*
X146228830Y-105798044D01*
X146224275Y-105861722D01*
X146208008Y-105891098D01*
X146185864Y-105919957D01*
X146125356Y-106066038D01*
X146112342Y-106164893D01*
X146104718Y-106222800D01*
X146125356Y-106379562D01*
X146185864Y-106525641D01*
X146282118Y-106651082D01*
X146407559Y-106747336D01*
X146553638Y-106807844D01*
X146710400Y-106828482D01*
X146867162Y-106807844D01*
X147013241Y-106747336D01*
X147138682Y-106651082D01*
X147234936Y-106525641D01*
X147295444Y-106379562D01*
X147316082Y-106222800D01*
X147295444Y-106066038D01*
X147234936Y-105919959D01*
X147138682Y-105794518D01*
X147032479Y-105713025D01*
X147018775Y-105695951D01*
X147407100Y-105695951D01*
X147418733Y-105754431D01*
X147418733Y-105754432D01*
X147463046Y-105820751D01*
X147463048Y-105820753D01*
X147529367Y-105865066D01*
X147529369Y-105865067D01*
X147587852Y-105876700D01*
X147587855Y-105876700D01*
X149327345Y-105876700D01*
X149327348Y-105876700D01*
X149385831Y-105865067D01*
X149418991Y-105842909D01*
X149452151Y-105820753D01*
X149452153Y-105820751D01*
X149496466Y-105754432D01*
X149496467Y-105754431D01*
X149508100Y-105695948D01*
X149508100Y-104826204D01*
X149942017Y-104826204D01*
X149962299Y-105032132D01*
X150022365Y-105230147D01*
X150022367Y-105230152D01*
X150022368Y-105230154D01*
X150119915Y-105412650D01*
X150251190Y-105572610D01*
X150411150Y-105703885D01*
X150593646Y-105801432D01*
X150593650Y-105801433D01*
X150593652Y-105801434D01*
X150657366Y-105820761D01*
X150791666Y-105861500D01*
X150997595Y-105881783D01*
X150997600Y-105881783D01*
X150997605Y-105881783D01*
X151144695Y-105867295D01*
X151203534Y-105861500D01*
X151401554Y-105801432D01*
X151584050Y-105703885D01*
X151744010Y-105572610D01*
X151875285Y-105412650D01*
X151972832Y-105230154D01*
X152032900Y-105032134D01*
X152039660Y-104963489D01*
X152053183Y-104826204D01*
X152053183Y-104826195D01*
X152032900Y-104620267D01*
X151972834Y-104422252D01*
X151972832Y-104422247D01*
X151972832Y-104422246D01*
X151875285Y-104239750D01*
X151744010Y-104079790D01*
X151584050Y-103948515D01*
X151401554Y-103850968D01*
X151401551Y-103850967D01*
X151373169Y-103842357D01*
X151319774Y-103807363D01*
X151293774Y-103749057D01*
X151303423Y-103685950D01*
X151337087Y-103644050D01*
X151456682Y-103552282D01*
X151552936Y-103426841D01*
X151613444Y-103280762D01*
X151634082Y-103124000D01*
X151613444Y-102967238D01*
X151552936Y-102821159D01*
X151456682Y-102695718D01*
X151331241Y-102599464D01*
X151185162Y-102538956D01*
X151028400Y-102518318D01*
X151028399Y-102518318D01*
X150871638Y-102538956D01*
X150725558Y-102599464D01*
X150600118Y-102695718D01*
X150503864Y-102821158D01*
X150456889Y-102934567D01*
X150443356Y-102967238D01*
X150422718Y-103124000D01*
X150443356Y-103280762D01*
X150503864Y-103426841D01*
X150559823Y-103499769D01*
X150600119Y-103552283D01*
X150702259Y-103630657D01*
X150739907Y-103682215D01*
X150743703Y-103745943D01*
X150712443Y-103801607D01*
X150666177Y-103828965D01*
X150593650Y-103850966D01*
X150593647Y-103850967D01*
X150411151Y-103948514D01*
X150251190Y-104079790D01*
X150119914Y-104239751D01*
X150022367Y-104422247D01*
X150022365Y-104422252D01*
X149962299Y-104620267D01*
X149942017Y-104826195D01*
X149942017Y-104826204D01*
X149508100Y-104826204D01*
X149508100Y-103956452D01*
X149496467Y-103897969D01*
X149496466Y-103897967D01*
X149452153Y-103831648D01*
X149452151Y-103831646D01*
X149385832Y-103787333D01*
X149327351Y-103775700D01*
X149327348Y-103775700D01*
X147587852Y-103775700D01*
X147587848Y-103775700D01*
X147529368Y-103787333D01*
X147529367Y-103787333D01*
X147463048Y-103831646D01*
X147463046Y-103831648D01*
X147418733Y-103897967D01*
X147418733Y-103897968D01*
X147407100Y-103956448D01*
X147407100Y-105695951D01*
X147018775Y-105695951D01*
X147006941Y-105681207D01*
X147005792Y-105682012D01*
X146977569Y-105641704D01*
X146974912Y-105637534D01*
X146955271Y-105603514D01*
X146925168Y-105578254D01*
X146921523Y-105574914D01*
X143248805Y-101902196D01*
X143218209Y-101846165D01*
X143222764Y-101782487D01*
X143261022Y-101731380D01*
X143285556Y-101717407D01*
X143406441Y-101667336D01*
X143531882Y-101571082D01*
X143628136Y-101445641D01*
X143688644Y-101299562D01*
X143695906Y-101244400D01*
X143971118Y-101244400D01*
X143991756Y-101401162D01*
X144052264Y-101547241D01*
X144148518Y-101672682D01*
X144273959Y-101768936D01*
X144420038Y-101829444D01*
X144576800Y-101850082D01*
X144733562Y-101829444D01*
X144879641Y-101768936D01*
X145005082Y-101672682D01*
X145021873Y-101650800D01*
X149152718Y-101650800D01*
X149173356Y-101807562D01*
X149233864Y-101953641D01*
X149330118Y-102079082D01*
X149455559Y-102175336D01*
X149601638Y-102235844D01*
X149758400Y-102256482D01*
X149915162Y-102235844D01*
X150061241Y-102175336D01*
X150186682Y-102079082D01*
X150282936Y-101953641D01*
X150343444Y-101807562D01*
X150364082Y-101650800D01*
X150343444Y-101494038D01*
X150282936Y-101347959D01*
X150186682Y-101222518D01*
X150061241Y-101126264D01*
X149915162Y-101065756D01*
X149758400Y-101045118D01*
X149758399Y-101045118D01*
X149601638Y-101065756D01*
X149455558Y-101126264D01*
X149330118Y-101222518D01*
X149233864Y-101347958D01*
X149193403Y-101445641D01*
X149173356Y-101494038D01*
X149152718Y-101650800D01*
X145021873Y-101650800D01*
X145101336Y-101547241D01*
X145161844Y-101401162D01*
X145182482Y-101244400D01*
X145161844Y-101087638D01*
X145101336Y-100941559D01*
X145005082Y-100816118D01*
X144879641Y-100719864D01*
X144733562Y-100659356D01*
X144576800Y-100638718D01*
X144420038Y-100659356D01*
X144273958Y-100719864D01*
X144148518Y-100816118D01*
X144052264Y-100941558D01*
X144052264Y-100941559D01*
X143991756Y-101087638D01*
X143971118Y-101244400D01*
X143695906Y-101244400D01*
X143709282Y-101142800D01*
X143688644Y-100986038D01*
X143628136Y-100839959D01*
X143531882Y-100714518D01*
X143406441Y-100618264D01*
X143260362Y-100557756D01*
X143103600Y-100537118D01*
X142946838Y-100557756D01*
X142800758Y-100618264D01*
X142675318Y-100714518D01*
X142579064Y-100839958D01*
X142518555Y-100986041D01*
X142512390Y-101032866D01*
X142486562Y-101091249D01*
X142433270Y-101126400D01*
X142386991Y-101127225D01*
X142386747Y-101130024D01*
X142376876Y-101129160D01*
X142376875Y-101129160D01*
X142376873Y-101129160D01*
X142376872Y-101129160D01*
X142337734Y-101132584D01*
X142332794Y-101132800D01*
X138086833Y-101132800D01*
X138025578Y-101114814D01*
X137996948Y-101088474D01*
X137943882Y-101019318D01*
X137818441Y-100923064D01*
X137672362Y-100862556D01*
X137515600Y-100841918D01*
X137358838Y-100862556D01*
X137212758Y-100923064D01*
X137087318Y-101019318D01*
X136991064Y-101144758D01*
X136958855Y-101222518D01*
X136930556Y-101290838D01*
X136909918Y-101447600D01*
X135369873Y-101447600D01*
X135449336Y-101344041D01*
X135509844Y-101197962D01*
X135530482Y-101041200D01*
X135509844Y-100884438D01*
X135449336Y-100738359D01*
X135353082Y-100612918D01*
X135227641Y-100516664D01*
X135081562Y-100456156D01*
X134924800Y-100435518D01*
X134768038Y-100456156D01*
X134621958Y-100516664D01*
X134496518Y-100612918D01*
X134400264Y-100738358D01*
X134400264Y-100738359D01*
X134339756Y-100884438D01*
X134319118Y-101041200D01*
X119000000Y-101041200D01*
X119000000Y-99415600D01*
X134522318Y-99415600D01*
X134542956Y-99572362D01*
X134603464Y-99718441D01*
X134699718Y-99843882D01*
X134825159Y-99940136D01*
X134971238Y-100000644D01*
X135128000Y-100021282D01*
X135284762Y-100000644D01*
X135430841Y-99940136D01*
X135556282Y-99843882D01*
X135652536Y-99718441D01*
X135713044Y-99572362D01*
X135733682Y-99415600D01*
X135713618Y-99263200D01*
X137367118Y-99263200D01*
X137387756Y-99419962D01*
X137448264Y-99566041D01*
X137544518Y-99691482D01*
X137669959Y-99787736D01*
X137816038Y-99848244D01*
X137972800Y-99868882D01*
X138129562Y-99848244D01*
X138192921Y-99822000D01*
X139246718Y-99822000D01*
X139267356Y-99978762D01*
X139327864Y-100124841D01*
X139424118Y-100250282D01*
X139549559Y-100346536D01*
X139695638Y-100407044D01*
X139852400Y-100427682D01*
X140009162Y-100407044D01*
X140155241Y-100346536D01*
X140280682Y-100250282D01*
X140376936Y-100124841D01*
X140437444Y-99978762D01*
X140458082Y-99822000D01*
X140437444Y-99665238D01*
X140376936Y-99519159D01*
X140280682Y-99393718D01*
X140155241Y-99297464D01*
X140009162Y-99236956D01*
X139852400Y-99216318D01*
X139695638Y-99236956D01*
X139549558Y-99297464D01*
X139424118Y-99393718D01*
X139327864Y-99519158D01*
X139267355Y-99665238D01*
X139267356Y-99665238D01*
X139246718Y-99822000D01*
X138192921Y-99822000D01*
X138275641Y-99787736D01*
X138401082Y-99691482D01*
X138497336Y-99566041D01*
X138557844Y-99419962D01*
X138578482Y-99263200D01*
X138557844Y-99106438D01*
X138497336Y-98960359D01*
X138401082Y-98834918D01*
X138275641Y-98738664D01*
X138129562Y-98678156D01*
X137972800Y-98657518D01*
X137816038Y-98678156D01*
X137669958Y-98738664D01*
X137544518Y-98834918D01*
X137448264Y-98960358D01*
X137448264Y-98960359D01*
X137387756Y-99106438D01*
X137367118Y-99263200D01*
X135713618Y-99263200D01*
X135713044Y-99258838D01*
X135652536Y-99112759D01*
X135556282Y-98987318D01*
X135430841Y-98891064D01*
X135284762Y-98830556D01*
X135128000Y-98809918D01*
X135127999Y-98809918D01*
X134971238Y-98830556D01*
X134825158Y-98891064D01*
X134699718Y-98987318D01*
X134603464Y-99112758D01*
X134603464Y-99112759D01*
X134542956Y-99258838D01*
X134522318Y-99415600D01*
X119000000Y-99415600D01*
X119000000Y-98014436D01*
X119017986Y-97953181D01*
X119033180Y-97934326D01*
X119934323Y-97033183D01*
X119990352Y-97002589D01*
X120014436Y-97000000D01*
X177964762Y-97000000D01*
X178026017Y-97017986D01*
G37*
%TD.AperFunction*%
%TD*%
M02*
