%TF.GenerationSoftware,KiCad,Pcbnew,7.0.7*%
%TF.CreationDate,2023-09-25T17:24:45-05:00*%
%TF.ProjectId,KiVM,4b69564d-2e6b-4696-9361-645f70636258,rev?*%
%TF.SameCoordinates,Original*%
%TF.FileFunction,Copper,L2,Inr*%
%TF.FilePolarity,Positive*%
%FSLAX46Y46*%
G04 Gerber Fmt 4.6, Leading zero omitted, Abs format (unit mm)*
G04 Created by KiCad (PCBNEW 7.0.7) date 2023-09-25 17:24:45*
%MOMM*%
%LPD*%
G01*
G04 APERTURE LIST*
%TA.AperFunction,ComponentPad*%
%ADD10O,2.100000X1.050000*%
%TD*%
%TA.AperFunction,ComponentPad*%
%ADD11O,1.800000X0.900000*%
%TD*%
%TA.AperFunction,ComponentPad*%
%ADD12R,1.700000X1.700000*%
%TD*%
%TA.AperFunction,ComponentPad*%
%ADD13O,1.700000X1.700000*%
%TD*%
%TA.AperFunction,ViaPad*%
%ADD14C,0.800000*%
%TD*%
G04 APERTURE END LIST*
D10*
%TO.N,GND*%
%TO.C,P1*%
X125756000Y-102360000D03*
D11*
X121576000Y-102360000D03*
D10*
X125756000Y-111000000D03*
D11*
X121576000Y-111000000D03*
%TD*%
D10*
%TO.N,GND*%
%TO.C,P3*%
X172096000Y-130558000D03*
D11*
X176276000Y-130558000D03*
D10*
X172096000Y-121918000D03*
D11*
X176276000Y-121918000D03*
%TD*%
D10*
%TO.N,GND*%
%TO.C,P4*%
X172096000Y-111000000D03*
D11*
X176276000Y-111000000D03*
D10*
X172096000Y-102360000D03*
D11*
X176276000Y-102360000D03*
%TD*%
D10*
%TO.N,GND*%
%TO.C,P2*%
X125632000Y-122014000D03*
D11*
X121452000Y-122014000D03*
D10*
X125632000Y-130654000D03*
D11*
X121452000Y-130654000D03*
%TD*%
D12*
%TO.N,+3V3*%
%TO.C,SW1*%
X147574000Y-113588800D03*
D13*
%TO.N,/KVM/SOURCE_SEL*%
X147574000Y-116128800D03*
%TO.N,GND*%
X147574000Y-118668800D03*
%TD*%
D12*
%TO.N,+12V*%
%TO.C,J1*%
X148457600Y-104826200D03*
D13*
%TO.N,GND*%
X150997600Y-104826200D03*
%TD*%
D14*
%TO.N,/KVM/SOURCE_SEL*%
X131521200Y-112928400D03*
X133197600Y-130200400D03*
X143357600Y-115011200D03*
%TO.N,GND*%
X151434800Y-128422400D03*
X144576800Y-101244400D03*
X149758400Y-101650800D03*
X144780000Y-127914400D03*
X150520400Y-117652800D03*
X143713200Y-122123200D03*
X149148800Y-116332000D03*
X150418800Y-122072400D03*
X162433000Y-120523000D03*
X139852400Y-99822000D03*
X154228800Y-115112800D03*
X151130000Y-109220000D03*
X135128000Y-99415600D03*
X157530800Y-115417600D03*
X154432000Y-122072400D03*
X137972800Y-99263200D03*
X159308800Y-104444800D03*
X165658800Y-119532400D03*
X140512800Y-122174000D03*
X163830000Y-121158000D03*
X158242000Y-122783600D03*
X159054800Y-116941600D03*
X146100800Y-107746800D03*
X157378400Y-120700800D03*
X149656800Y-126136400D03*
X151180800Y-107188000D03*
X141122400Y-108356400D03*
X160934400Y-111861600D03*
X142849600Y-107899200D03*
X163017200Y-123545600D03*
X162433000Y-119126000D03*
X151028400Y-103124000D03*
X158343600Y-127254000D03*
X150215600Y-123291600D03*
X154101800Y-119862600D03*
X154990800Y-110185200D03*
X162204400Y-112522000D03*
X163372800Y-104394000D03*
X151485600Y-130251200D03*
X144830800Y-127050800D03*
X146510487Y-126238476D03*
X147370800Y-122123200D03*
X150520400Y-110947200D03*
X163779200Y-122732800D03*
X143103600Y-101142800D03*
X164007800Y-119151400D03*
X134924800Y-101041200D03*
%TO.N,+5V*%
X148285200Y-110134400D03*
X137795000Y-104013000D03*
X154228800Y-106578400D03*
X154813000Y-100838000D03*
X138176000Y-117729000D03*
X139319000Y-117729000D03*
X132969000Y-107188000D03*
X132969000Y-105029000D03*
X141173200Y-106730800D03*
X149707600Y-114808000D03*
X137795000Y-102870000D03*
X138303000Y-105029000D03*
X139801600Y-105003600D03*
X159410400Y-103124000D03*
X138303000Y-106045000D03*
X146405600Y-123799600D03*
X132969000Y-106045000D03*
X163322000Y-102693300D03*
X145135600Y-123139200D03*
X138303000Y-107188000D03*
X141986000Y-118364000D03*
%TO.N,+3V3*%
X160934400Y-117856000D03*
X134213600Y-126085600D03*
X137160000Y-127355600D03*
X147269200Y-131876800D03*
X138582400Y-128066800D03*
X142290800Y-127355600D03*
X134213600Y-127355600D03*
X140360400Y-128066800D03*
X135686800Y-127355600D03*
X155803600Y-118008400D03*
X148793200Y-113436400D03*
X137160000Y-126034800D03*
X135686800Y-126034800D03*
X125171200Y-113741200D03*
X159207200Y-111861600D03*
X142290800Y-126034800D03*
%TO.N,/KVM/Output Connectors/USP_PWR1*%
X162255200Y-105664000D03*
X166954000Y-126009400D03*
%TO.N,/KVM/Input Connectors A/VBUS*%
X127508000Y-104292400D03*
X127914400Y-108051600D03*
%TO.N,/KVM/Input Connectors B/VBUS*%
X127914400Y-123850400D03*
X127914400Y-128016000D03*
%TO.N,Net-(U2-RBIAS)*%
X160350200Y-122529600D03*
X160147039Y-118295262D03*
%TO.N,/Power/FB_5V*%
X146710400Y-106222800D03*
X137515600Y-101447600D03*
%TO.N,Net-(U2-~{OCS2})*%
X156484425Y-113739078D03*
X156870400Y-103276400D03*
%TO.N,Net-(U2-~{OCS1})*%
X160223200Y-113487200D03*
X158242000Y-104394000D03*
%TO.N,Net-(U2-PRTPWR1)*%
X161239200Y-114147600D03*
X158902400Y-105613200D03*
%TO.N,Net-(U2-PRTPWR2)*%
X157378400Y-113284000D03*
X157124400Y-101752400D03*
%TO.N,/Power/FB_3V3*%
X134315200Y-121920000D03*
X150266400Y-124612400D03*
%TD*%
%TA.AperFunction,Conductor*%
%TO.N,GND*%
G36*
X178026017Y-97017986D02*
G01*
X178044877Y-97033185D01*
X178955915Y-97944222D01*
X178986511Y-98000253D01*
X178989100Y-98024337D01*
X178989100Y-134930060D01*
X178971114Y-134991315D01*
X178955915Y-135010175D01*
X178022577Y-135943513D01*
X177966546Y-135974109D01*
X177942462Y-135976698D01*
X120036737Y-135976698D01*
X119975482Y-135958712D01*
X119956622Y-135943513D01*
X119033185Y-135020075D01*
X119002589Y-134964044D01*
X119000000Y-134939960D01*
X119000000Y-131876799D01*
X146761937Y-131876799D01*
X146782484Y-132019713D01*
X146842462Y-132151046D01*
X146842463Y-132151047D01*
X146937013Y-132260164D01*
X147058475Y-132338223D01*
X147197009Y-132378900D01*
X147341391Y-132378900D01*
X147479925Y-132338223D01*
X147601387Y-132260164D01*
X147695937Y-132151047D01*
X147755915Y-132019713D01*
X147776463Y-131876800D01*
X147755915Y-131733887D01*
X147724076Y-131664170D01*
X147695937Y-131602553D01*
X147601387Y-131493436D01*
X147479925Y-131415377D01*
X147341391Y-131374700D01*
X147197009Y-131374700D01*
X147058474Y-131415377D01*
X146937012Y-131493436D01*
X146842462Y-131602553D01*
X146782484Y-131733886D01*
X146761937Y-131876799D01*
X119000000Y-131876799D01*
X119000000Y-130904001D01*
X120081528Y-130904001D01*
X120144686Y-131074531D01*
X120144687Y-131074533D01*
X120246888Y-131238497D01*
X120380005Y-131378538D01*
X120538582Y-131488911D01*
X120538584Y-131488912D01*
X120716138Y-131565106D01*
X120716136Y-131565106D01*
X120905397Y-131604000D01*
X121202000Y-131604000D01*
X121202000Y-131067300D01*
X121219986Y-131006045D01*
X121268233Y-130964239D01*
X121315300Y-130954000D01*
X121588700Y-130954000D01*
X121649955Y-130971986D01*
X121691761Y-131020233D01*
X121702000Y-131067300D01*
X121702000Y-131604000D01*
X121950170Y-131604000D01*
X122094222Y-131589351D01*
X122278571Y-131531511D01*
X122447497Y-131437749D01*
X122447503Y-131437745D01*
X122594102Y-131311894D01*
X122712370Y-131159106D01*
X122712371Y-131159104D01*
X122797459Y-130985641D01*
X122818597Y-130904000D01*
X124111715Y-130904000D01*
X124155440Y-131048147D01*
X124250621Y-131226216D01*
X124378706Y-131382290D01*
X124378709Y-131382293D01*
X124534783Y-131510378D01*
X124712852Y-131605559D01*
X124712861Y-131605562D01*
X124906066Y-131664170D01*
X125056635Y-131679000D01*
X125382000Y-131679000D01*
X125382000Y-131067300D01*
X125399986Y-131006045D01*
X125448233Y-130964239D01*
X125495300Y-130954000D01*
X125768700Y-130954000D01*
X125829955Y-130971986D01*
X125871761Y-131020233D01*
X125882000Y-131067300D01*
X125882000Y-131679000D01*
X126207365Y-131679000D01*
X126357933Y-131664170D01*
X126551138Y-131605562D01*
X126551147Y-131605559D01*
X126729216Y-131510378D01*
X126885290Y-131382293D01*
X126885293Y-131382290D01*
X127013378Y-131226216D01*
X127108559Y-131048147D01*
X127152285Y-130904000D01*
X126572810Y-130904000D01*
X126511555Y-130886014D01*
X126469749Y-130837767D01*
X126465469Y-130808000D01*
X170575715Y-130808000D01*
X170619440Y-130952147D01*
X170714621Y-131130216D01*
X170842706Y-131286290D01*
X170842709Y-131286293D01*
X170998783Y-131414378D01*
X171176852Y-131509559D01*
X171176861Y-131509562D01*
X171370066Y-131568170D01*
X171520635Y-131583000D01*
X171846000Y-131583000D01*
X171846000Y-130971300D01*
X171863986Y-130910045D01*
X171912233Y-130868239D01*
X171959300Y-130858000D01*
X172232700Y-130858000D01*
X172293955Y-130875986D01*
X172335761Y-130924233D01*
X172346000Y-130971300D01*
X172346000Y-131583000D01*
X172671365Y-131583000D01*
X172821933Y-131568170D01*
X173015138Y-131509562D01*
X173015147Y-131509559D01*
X173193216Y-131414378D01*
X173349290Y-131286293D01*
X173349293Y-131286290D01*
X173477378Y-131130216D01*
X173572559Y-130952147D01*
X173616285Y-130808001D01*
X174905528Y-130808001D01*
X174968686Y-130978531D01*
X174968687Y-130978533D01*
X175070888Y-131142497D01*
X175204005Y-131282538D01*
X175362582Y-131392911D01*
X175362584Y-131392912D01*
X175540138Y-131469106D01*
X175540136Y-131469106D01*
X175729397Y-131508000D01*
X176026000Y-131508000D01*
X176026000Y-130971300D01*
X176043986Y-130910045D01*
X176092233Y-130868239D01*
X176139300Y-130858000D01*
X176412700Y-130858000D01*
X176473955Y-130875986D01*
X176515761Y-130924233D01*
X176526000Y-130971300D01*
X176526000Y-131508000D01*
X176774170Y-131508000D01*
X176918222Y-131493351D01*
X177102571Y-131435511D01*
X177271497Y-131341749D01*
X177271503Y-131341745D01*
X177418102Y-131215894D01*
X177536370Y-131063106D01*
X177536371Y-131063104D01*
X177621459Y-130889641D01*
X177642597Y-130808000D01*
X177066810Y-130808000D01*
X177005555Y-130790014D01*
X176963749Y-130741767D01*
X176954663Y-130678576D01*
X176957835Y-130663695D01*
X176979894Y-130586162D01*
X176979895Y-130586160D01*
X176969546Y-130474479D01*
X176968213Y-130471803D01*
X176967255Y-130466425D01*
X176966673Y-130464380D01*
X176966879Y-130464321D01*
X176957010Y-130408955D01*
X176981563Y-130350025D01*
X177034078Y-130313724D01*
X177069635Y-130308000D01*
X177646470Y-130308000D01*
X177646471Y-130307998D01*
X177583313Y-130137468D01*
X177583312Y-130137466D01*
X177481111Y-129973502D01*
X177347994Y-129833461D01*
X177189417Y-129723088D01*
X177189415Y-129723087D01*
X177011861Y-129646893D01*
X177011863Y-129646893D01*
X176822603Y-129608000D01*
X176526000Y-129608000D01*
X176526000Y-130144700D01*
X176508014Y-130205955D01*
X176459767Y-130247761D01*
X176412700Y-130258000D01*
X176139300Y-130258000D01*
X176078045Y-130240014D01*
X176036239Y-130191767D01*
X176026000Y-130144700D01*
X176026000Y-129608000D01*
X175777830Y-129608000D01*
X175633777Y-129622648D01*
X175449428Y-129680488D01*
X175280502Y-129774250D01*
X175280496Y-129774254D01*
X175133897Y-129900105D01*
X175015629Y-130052893D01*
X175015628Y-130052895D01*
X174930540Y-130226358D01*
X174909403Y-130307999D01*
X174909404Y-130308000D01*
X175485190Y-130308000D01*
X175546445Y-130325986D01*
X175588251Y-130374233D01*
X175597337Y-130437424D01*
X175594165Y-130452305D01*
X175572105Y-130529837D01*
X175582454Y-130641520D01*
X175583786Y-130644195D01*
X175584744Y-130649574D01*
X175585327Y-130651620D01*
X175585120Y-130651678D01*
X175594990Y-130707045D01*
X175570437Y-130765975D01*
X175517922Y-130802276D01*
X175482365Y-130808000D01*
X174905530Y-130808000D01*
X174905528Y-130808001D01*
X173616285Y-130808001D01*
X173616285Y-130808000D01*
X173036810Y-130808000D01*
X172975555Y-130790014D01*
X172933749Y-130741767D01*
X172924663Y-130678576D01*
X172927835Y-130663695D01*
X172949894Y-130586162D01*
X172949895Y-130586160D01*
X172939546Y-130474479D01*
X172938213Y-130471803D01*
X172937255Y-130466425D01*
X172936673Y-130464380D01*
X172936879Y-130464321D01*
X172927010Y-130408955D01*
X172951563Y-130350025D01*
X173004078Y-130313724D01*
X173039635Y-130308000D01*
X173616285Y-130308000D01*
X173572559Y-130163852D01*
X173477378Y-129985783D01*
X173349293Y-129829709D01*
X173349290Y-129829706D01*
X173193216Y-129701621D01*
X173193213Y-129701618D01*
X173089754Y-129646318D01*
X173044211Y-129601581D01*
X173030085Y-129539323D01*
X173051861Y-129479311D01*
X173053203Y-129477522D01*
X173098698Y-129418233D01*
X173156687Y-129278236D01*
X173176466Y-129128000D01*
X173156687Y-128977764D01*
X173098698Y-128837767D01*
X173006451Y-128717549D01*
X172886233Y-128625302D01*
X172886232Y-128625301D01*
X172886230Y-128625300D01*
X172795731Y-128587814D01*
X172746236Y-128567313D01*
X172708730Y-128562375D01*
X172633722Y-128552500D01*
X172633720Y-128552500D01*
X172558280Y-128552500D01*
X172558277Y-128552500D01*
X172445764Y-128567313D01*
X172305769Y-128625300D01*
X172185549Y-128717549D01*
X172093300Y-128837769D01*
X172035313Y-128977764D01*
X172015534Y-129127999D01*
X172035313Y-129278237D01*
X172075950Y-129376343D01*
X172082774Y-129439817D01*
X172054197Y-129496905D01*
X171999293Y-129529481D01*
X171971274Y-129533000D01*
X171520635Y-129533000D01*
X171370066Y-129547829D01*
X171176861Y-129606437D01*
X171176852Y-129606440D01*
X170998783Y-129701621D01*
X170842709Y-129829706D01*
X170842706Y-129829709D01*
X170714621Y-129985783D01*
X170619440Y-130163852D01*
X170575715Y-130308000D01*
X171155190Y-130308000D01*
X171216445Y-130325986D01*
X171258251Y-130374233D01*
X171267337Y-130437424D01*
X171264165Y-130452305D01*
X171242105Y-130529837D01*
X171252454Y-130641520D01*
X171253786Y-130644195D01*
X171254744Y-130649574D01*
X171255327Y-130651620D01*
X171255120Y-130651678D01*
X171264990Y-130707045D01*
X171240437Y-130765975D01*
X171187922Y-130802276D01*
X171152365Y-130808000D01*
X170575715Y-130808000D01*
X126465469Y-130808000D01*
X126460663Y-130774576D01*
X126463835Y-130759695D01*
X126485894Y-130682162D01*
X126485895Y-130682160D01*
X126475546Y-130570479D01*
X126474213Y-130567803D01*
X126473255Y-130562425D01*
X126472673Y-130560380D01*
X126472879Y-130560321D01*
X126463010Y-130504955D01*
X126487563Y-130446025D01*
X126540078Y-130409724D01*
X126575635Y-130404000D01*
X127152285Y-130404000D01*
X127108559Y-130259852D01*
X127076781Y-130200400D01*
X132690337Y-130200400D01*
X132710884Y-130343313D01*
X132770862Y-130474646D01*
X132853902Y-130570479D01*
X132865413Y-130583764D01*
X132986875Y-130661823D01*
X133125409Y-130702500D01*
X133269791Y-130702500D01*
X133408325Y-130661823D01*
X133529787Y-130583764D01*
X133624337Y-130474647D01*
X133684315Y-130343313D01*
X133704863Y-130200400D01*
X133684315Y-130057487D01*
X133645960Y-129973502D01*
X133624337Y-129926153D01*
X133529787Y-129817036D01*
X133408325Y-129738977D01*
X133269791Y-129698300D01*
X133125409Y-129698300D01*
X132986874Y-129738977D01*
X132865412Y-129817036D01*
X132770862Y-129926153D01*
X132710884Y-130057486D01*
X132690337Y-130200400D01*
X127076781Y-130200400D01*
X127013378Y-130081783D01*
X126885293Y-129925709D01*
X126885290Y-129925706D01*
X126729216Y-129797621D01*
X126551147Y-129702440D01*
X126551138Y-129702437D01*
X126357933Y-129643829D01*
X126207365Y-129629000D01*
X125756726Y-129629000D01*
X125695471Y-129611014D01*
X125653665Y-129562767D01*
X125644579Y-129499576D01*
X125652050Y-129472343D01*
X125691814Y-129376343D01*
X125692687Y-129374236D01*
X125712466Y-129224000D01*
X125692687Y-129073764D01*
X125634698Y-128933767D01*
X125542451Y-128813549D01*
X125422233Y-128721302D01*
X125422232Y-128721301D01*
X125422230Y-128721300D01*
X125331731Y-128683814D01*
X125282236Y-128663313D01*
X125244730Y-128658375D01*
X125169722Y-128648500D01*
X125169720Y-128648500D01*
X125094280Y-128648500D01*
X125094277Y-128648500D01*
X124981764Y-128663313D01*
X124841769Y-128721300D01*
X124721549Y-128813549D01*
X124629300Y-128933769D01*
X124571312Y-129073764D01*
X124571313Y-129073764D01*
X124551534Y-129224000D01*
X124571313Y-129374236D01*
X124572186Y-129376343D01*
X124629300Y-129514230D01*
X124629301Y-129514232D01*
X124629302Y-129514233D01*
X124674722Y-129573426D01*
X124697742Y-129632970D01*
X124684915Y-129695509D01*
X124640313Y-129741185D01*
X124638245Y-129742318D01*
X124534786Y-129797618D01*
X124534783Y-129797621D01*
X124378709Y-129925706D01*
X124378706Y-129925709D01*
X124250621Y-130081783D01*
X124155440Y-130259852D01*
X124111715Y-130404000D01*
X124691190Y-130404000D01*
X124752445Y-130421986D01*
X124794251Y-130470233D01*
X124803337Y-130533424D01*
X124800165Y-130548305D01*
X124778105Y-130625837D01*
X124778105Y-130625839D01*
X124778105Y-130625840D01*
X124781613Y-130663695D01*
X124788454Y-130737520D01*
X124789786Y-130740195D01*
X124790744Y-130745574D01*
X124791327Y-130747620D01*
X124791120Y-130747678D01*
X124800990Y-130803045D01*
X124776437Y-130861975D01*
X124723922Y-130898276D01*
X124688365Y-130904000D01*
X124111715Y-130904000D01*
X122818597Y-130904000D01*
X122242810Y-130904000D01*
X122181555Y-130886014D01*
X122139749Y-130837767D01*
X122130663Y-130774576D01*
X122133835Y-130759695D01*
X122155894Y-130682162D01*
X122155895Y-130682160D01*
X122145546Y-130570479D01*
X122144213Y-130567803D01*
X122143255Y-130562425D01*
X122142673Y-130560380D01*
X122142879Y-130560321D01*
X122133010Y-130504955D01*
X122157563Y-130446025D01*
X122210078Y-130409724D01*
X122245635Y-130404000D01*
X122822470Y-130404000D01*
X122822471Y-130403998D01*
X122759313Y-130233468D01*
X122759312Y-130233466D01*
X122657111Y-130069502D01*
X122523994Y-129929461D01*
X122365417Y-129819088D01*
X122365415Y-129819087D01*
X122187861Y-129742893D01*
X122187863Y-129742893D01*
X121998603Y-129704000D01*
X121702000Y-129704000D01*
X121702000Y-130240700D01*
X121684014Y-130301955D01*
X121635767Y-130343761D01*
X121588700Y-130354000D01*
X121315300Y-130354000D01*
X121254045Y-130336014D01*
X121212239Y-130287767D01*
X121202000Y-130240700D01*
X121202000Y-129704000D01*
X120953830Y-129704000D01*
X120809777Y-129718648D01*
X120625428Y-129776488D01*
X120456502Y-129870250D01*
X120456496Y-129870254D01*
X120309897Y-129996105D01*
X120191629Y-130148893D01*
X120191628Y-130148895D01*
X120106540Y-130322358D01*
X120085403Y-130403999D01*
X120085404Y-130404000D01*
X120661190Y-130404000D01*
X120722445Y-130421986D01*
X120764251Y-130470233D01*
X120773337Y-130533424D01*
X120770165Y-130548305D01*
X120748105Y-130625837D01*
X120748105Y-130625839D01*
X120748105Y-130625840D01*
X120751613Y-130663695D01*
X120758454Y-130737520D01*
X120759786Y-130740195D01*
X120760744Y-130745574D01*
X120761327Y-130747620D01*
X120761120Y-130747678D01*
X120770990Y-130803045D01*
X120746437Y-130861975D01*
X120693922Y-130898276D01*
X120658365Y-130904000D01*
X120081530Y-130904000D01*
X120081528Y-130904001D01*
X119000000Y-130904001D01*
X119000000Y-128016000D01*
X127407137Y-128016000D01*
X127427684Y-128158913D01*
X127487662Y-128290246D01*
X127487663Y-128290247D01*
X127582213Y-128399364D01*
X127703675Y-128477423D01*
X127842209Y-128518100D01*
X127986591Y-128518100D01*
X128125125Y-128477423D01*
X128246587Y-128399364D01*
X128341137Y-128290247D01*
X128401115Y-128158913D01*
X128414359Y-128066800D01*
X138075137Y-128066800D01*
X138095684Y-128209713D01*
X138155662Y-128341046D01*
X138155663Y-128341047D01*
X138250213Y-128450164D01*
X138371675Y-128528223D01*
X138510209Y-128568900D01*
X138654591Y-128568900D01*
X138793125Y-128528223D01*
X138914587Y-128450164D01*
X139009137Y-128341047D01*
X139069115Y-128209713D01*
X139089663Y-128066800D01*
X139853137Y-128066800D01*
X139873684Y-128209713D01*
X139933662Y-128341046D01*
X139933663Y-128341047D01*
X140028213Y-128450164D01*
X140149675Y-128528223D01*
X140288209Y-128568900D01*
X140432591Y-128568900D01*
X140571125Y-128528223D01*
X140692587Y-128450164D01*
X140787137Y-128341047D01*
X140847115Y-128209713D01*
X140867663Y-128066800D01*
X140847115Y-127923887D01*
X140787137Y-127792553D01*
X140692587Y-127683436D01*
X140571125Y-127605377D01*
X140432591Y-127564700D01*
X140288209Y-127564700D01*
X140149674Y-127605377D01*
X140028212Y-127683436D01*
X139933662Y-127792553D01*
X139873684Y-127923886D01*
X139853137Y-128066800D01*
X139089663Y-128066800D01*
X139069115Y-127923887D01*
X139009137Y-127792553D01*
X138914587Y-127683436D01*
X138793125Y-127605377D01*
X138654591Y-127564700D01*
X138510209Y-127564700D01*
X138371674Y-127605377D01*
X138250212Y-127683436D01*
X138155662Y-127792553D01*
X138095684Y-127923886D01*
X138075137Y-128066800D01*
X128414359Y-128066800D01*
X128421663Y-128016000D01*
X128401115Y-127873087D01*
X128364336Y-127792553D01*
X128341137Y-127741753D01*
X128246587Y-127632636D01*
X128125125Y-127554577D01*
X127986591Y-127513900D01*
X127842209Y-127513900D01*
X127703674Y-127554577D01*
X127582212Y-127632636D01*
X127487662Y-127741753D01*
X127427684Y-127873086D01*
X127407137Y-128016000D01*
X119000000Y-128016000D01*
X119000000Y-127355600D01*
X133706337Y-127355600D01*
X133726884Y-127498513D01*
X133786862Y-127629846D01*
X133786863Y-127629847D01*
X133881413Y-127738964D01*
X134002875Y-127817023D01*
X134141409Y-127857700D01*
X134285791Y-127857700D01*
X134424325Y-127817023D01*
X134545787Y-127738964D01*
X134640337Y-127629847D01*
X134700315Y-127498513D01*
X134720863Y-127355600D01*
X134720863Y-127355599D01*
X135179537Y-127355599D01*
X135200084Y-127498513D01*
X135260062Y-127629846D01*
X135260063Y-127629847D01*
X135354613Y-127738964D01*
X135476075Y-127817023D01*
X135614609Y-127857700D01*
X135758991Y-127857700D01*
X135897525Y-127817023D01*
X136018987Y-127738964D01*
X136113537Y-127629847D01*
X136173515Y-127498513D01*
X136194063Y-127355600D01*
X136652737Y-127355600D01*
X136673284Y-127498513D01*
X136733262Y-127629846D01*
X136733263Y-127629847D01*
X136827813Y-127738964D01*
X136949275Y-127817023D01*
X137087809Y-127857700D01*
X137232191Y-127857700D01*
X137370725Y-127817023D01*
X137492187Y-127738964D01*
X137586737Y-127629847D01*
X137646715Y-127498513D01*
X137667263Y-127355600D01*
X137667263Y-127355599D01*
X141783537Y-127355599D01*
X141804084Y-127498513D01*
X141864062Y-127629846D01*
X141864063Y-127629847D01*
X141958613Y-127738964D01*
X142080075Y-127817023D01*
X142218609Y-127857700D01*
X142362991Y-127857700D01*
X142501525Y-127817023D01*
X142622987Y-127738964D01*
X142717537Y-127629847D01*
X142777515Y-127498513D01*
X142798063Y-127355600D01*
X142777515Y-127212687D01*
X142717537Y-127081353D01*
X142622987Y-126972236D01*
X142501525Y-126894177D01*
X142362991Y-126853500D01*
X142218609Y-126853500D01*
X142080074Y-126894177D01*
X141958612Y-126972236D01*
X141864062Y-127081353D01*
X141804084Y-127212686D01*
X141783537Y-127355599D01*
X137667263Y-127355599D01*
X137646715Y-127212687D01*
X137586737Y-127081353D01*
X137492187Y-126972236D01*
X137370725Y-126894177D01*
X137232191Y-126853500D01*
X137087809Y-126853500D01*
X136949274Y-126894177D01*
X136827812Y-126972236D01*
X136733262Y-127081353D01*
X136673284Y-127212686D01*
X136652737Y-127355600D01*
X136194063Y-127355600D01*
X136173515Y-127212687D01*
X136113537Y-127081353D01*
X136018987Y-126972236D01*
X135897525Y-126894177D01*
X135758991Y-126853500D01*
X135614609Y-126853500D01*
X135476074Y-126894177D01*
X135354612Y-126972236D01*
X135260062Y-127081353D01*
X135200084Y-127212686D01*
X135179537Y-127355599D01*
X134720863Y-127355599D01*
X134700315Y-127212687D01*
X134640337Y-127081353D01*
X134545787Y-126972236D01*
X134424325Y-126894177D01*
X134285791Y-126853500D01*
X134141409Y-126853500D01*
X134002874Y-126894177D01*
X133881412Y-126972236D01*
X133786862Y-127081353D01*
X133726884Y-127212686D01*
X133706337Y-127355600D01*
X119000000Y-127355600D01*
X119000000Y-126085600D01*
X133706337Y-126085600D01*
X133726884Y-126228513D01*
X133786862Y-126359846D01*
X133786863Y-126359847D01*
X133881413Y-126468964D01*
X134002875Y-126547023D01*
X134141409Y-126587700D01*
X134285791Y-126587700D01*
X134424325Y-126547023D01*
X134545787Y-126468964D01*
X134640337Y-126359847D01*
X134700315Y-126228513D01*
X134720863Y-126085600D01*
X134713559Y-126034800D01*
X135179537Y-126034800D01*
X135200084Y-126177713D01*
X135260062Y-126309046D01*
X135262831Y-126312241D01*
X135354613Y-126418164D01*
X135476075Y-126496223D01*
X135614609Y-126536900D01*
X135758991Y-126536900D01*
X135897525Y-126496223D01*
X136018987Y-126418164D01*
X136113537Y-126309047D01*
X136173515Y-126177713D01*
X136194063Y-126034800D01*
X136652737Y-126034800D01*
X136673284Y-126177713D01*
X136733262Y-126309046D01*
X136736031Y-126312241D01*
X136827813Y-126418164D01*
X136949275Y-126496223D01*
X137087809Y-126536900D01*
X137232191Y-126536900D01*
X137370725Y-126496223D01*
X137492187Y-126418164D01*
X137586737Y-126309047D01*
X137646715Y-126177713D01*
X137667263Y-126034800D01*
X141783537Y-126034800D01*
X141804084Y-126177713D01*
X141864062Y-126309046D01*
X141866831Y-126312241D01*
X141958613Y-126418164D01*
X142080075Y-126496223D01*
X142218609Y-126536900D01*
X142362991Y-126536900D01*
X142501525Y-126496223D01*
X142622987Y-126418164D01*
X142717537Y-126309047D01*
X142777515Y-126177713D01*
X142798063Y-126034800D01*
X142794411Y-126009400D01*
X166348318Y-126009400D01*
X166368956Y-126166162D01*
X166429464Y-126312241D01*
X166525718Y-126437682D01*
X166651159Y-126533936D01*
X166797238Y-126594444D01*
X166954000Y-126615082D01*
X167110762Y-126594444D01*
X167256841Y-126533936D01*
X167382282Y-126437682D01*
X167478536Y-126312241D01*
X167539044Y-126166162D01*
X167559682Y-126009400D01*
X167539044Y-125852638D01*
X167478536Y-125706559D01*
X167382282Y-125581118D01*
X167256841Y-125484864D01*
X167110762Y-125424356D01*
X166954000Y-125403718D01*
X166953999Y-125403718D01*
X166797238Y-125424356D01*
X166651158Y-125484864D01*
X166525718Y-125581118D01*
X166429464Y-125706558D01*
X166429464Y-125706559D01*
X166368956Y-125852638D01*
X166348318Y-126009400D01*
X142794411Y-126009400D01*
X142777515Y-125891887D01*
X142740736Y-125811353D01*
X142717537Y-125760553D01*
X142622987Y-125651436D01*
X142501525Y-125573377D01*
X142362991Y-125532700D01*
X142218609Y-125532700D01*
X142080074Y-125573377D01*
X141958612Y-125651436D01*
X141864062Y-125760553D01*
X141804084Y-125891886D01*
X141783537Y-126034800D01*
X137667263Y-126034800D01*
X137646715Y-125891887D01*
X137609936Y-125811353D01*
X137586737Y-125760553D01*
X137492187Y-125651436D01*
X137370725Y-125573377D01*
X137232191Y-125532700D01*
X137087809Y-125532700D01*
X136949274Y-125573377D01*
X136827812Y-125651436D01*
X136733262Y-125760553D01*
X136673284Y-125891886D01*
X136652737Y-126034800D01*
X136194063Y-126034800D01*
X136173515Y-125891887D01*
X136136736Y-125811353D01*
X136113537Y-125760553D01*
X136018987Y-125651436D01*
X135897525Y-125573377D01*
X135758991Y-125532700D01*
X135614609Y-125532700D01*
X135476074Y-125573377D01*
X135354612Y-125651436D01*
X135260062Y-125760553D01*
X135200084Y-125891886D01*
X135179537Y-126034800D01*
X134713559Y-126034800D01*
X134700315Y-125942687D01*
X134640337Y-125811353D01*
X134545787Y-125702236D01*
X134424325Y-125624177D01*
X134285791Y-125583500D01*
X134141409Y-125583500D01*
X134002874Y-125624177D01*
X133881412Y-125702236D01*
X133786862Y-125811353D01*
X133726884Y-125942686D01*
X133706337Y-126085600D01*
X119000000Y-126085600D01*
X119000000Y-124612399D01*
X149759137Y-124612399D01*
X149779684Y-124755313D01*
X149839662Y-124886646D01*
X149839663Y-124886647D01*
X149934213Y-124995764D01*
X150055675Y-125073823D01*
X150194209Y-125114500D01*
X150338591Y-125114500D01*
X150477125Y-125073823D01*
X150598587Y-124995764D01*
X150693137Y-124886647D01*
X150753115Y-124755313D01*
X150773663Y-124612400D01*
X150753115Y-124469487D01*
X150693137Y-124338153D01*
X150598587Y-124229036D01*
X150477125Y-124150977D01*
X150338591Y-124110300D01*
X150194209Y-124110300D01*
X150055674Y-124150977D01*
X149934212Y-124229036D01*
X149839662Y-124338153D01*
X149779684Y-124469486D01*
X149759137Y-124612399D01*
X119000000Y-124612399D01*
X119000000Y-122264001D01*
X120081528Y-122264001D01*
X120144686Y-122434531D01*
X120144687Y-122434533D01*
X120246888Y-122598497D01*
X120380005Y-122738538D01*
X120538582Y-122848911D01*
X120538584Y-122848912D01*
X120716138Y-122925106D01*
X120716136Y-122925106D01*
X120905397Y-122964000D01*
X121202000Y-122964000D01*
X121202000Y-122427300D01*
X121219986Y-122366045D01*
X121268233Y-122324239D01*
X121315300Y-122314000D01*
X121588700Y-122314000D01*
X121649955Y-122331986D01*
X121691761Y-122380233D01*
X121702000Y-122427300D01*
X121702000Y-122964000D01*
X121950170Y-122964000D01*
X122094222Y-122949351D01*
X122278571Y-122891511D01*
X122447497Y-122797749D01*
X122447503Y-122797745D01*
X122594102Y-122671894D01*
X122712370Y-122519106D01*
X122712371Y-122519104D01*
X122797459Y-122345641D01*
X122818597Y-122264000D01*
X124111715Y-122264000D01*
X124155440Y-122408147D01*
X124250621Y-122586216D01*
X124378706Y-122742290D01*
X124378709Y-122742293D01*
X124534783Y-122870378D01*
X124638244Y-122925680D01*
X124683787Y-122970418D01*
X124697914Y-123032676D01*
X124676139Y-123092688D01*
X124674722Y-123094574D01*
X124629301Y-123153767D01*
X124604122Y-123214556D01*
X124571313Y-123293764D01*
X124551534Y-123444000D01*
X124562755Y-123529235D01*
X124571313Y-123594235D01*
X124629300Y-123734230D01*
X124629301Y-123734232D01*
X124629302Y-123734233D01*
X124721549Y-123854451D01*
X124841767Y-123946698D01*
X124981764Y-124004687D01*
X125094280Y-124019500D01*
X125094286Y-124019500D01*
X125169714Y-124019500D01*
X125169720Y-124019500D01*
X125282236Y-124004687D01*
X125422233Y-123946698D01*
X125542451Y-123854451D01*
X125545559Y-123850400D01*
X127407137Y-123850400D01*
X127409719Y-123868364D01*
X127427684Y-123993313D01*
X127487662Y-124124646D01*
X127487663Y-124124647D01*
X127582213Y-124233764D01*
X127703675Y-124311823D01*
X127842209Y-124352500D01*
X127986591Y-124352500D01*
X128125125Y-124311823D01*
X128246587Y-124233764D01*
X128341137Y-124124647D01*
X128401115Y-123993313D01*
X128421663Y-123850400D01*
X128414359Y-123799600D01*
X145799918Y-123799600D01*
X145820556Y-123956362D01*
X145881064Y-124102441D01*
X145977318Y-124227882D01*
X146102759Y-124324136D01*
X146248838Y-124384644D01*
X146405600Y-124405282D01*
X146562362Y-124384644D01*
X146708441Y-124324136D01*
X146833882Y-124227882D01*
X146930136Y-124102441D01*
X146990644Y-123956362D01*
X147011282Y-123799600D01*
X146990644Y-123642838D01*
X146930136Y-123496759D01*
X146833882Y-123371318D01*
X146708441Y-123275064D01*
X146562362Y-123214556D01*
X146405600Y-123193918D01*
X146248838Y-123214556D01*
X146102758Y-123275064D01*
X145977317Y-123371318D01*
X145977318Y-123371318D01*
X145923051Y-123442041D01*
X145876543Y-123502651D01*
X145874621Y-123501176D01*
X145865230Y-123510126D01*
X145866144Y-123529235D01*
X145860709Y-123545899D01*
X145820556Y-123642836D01*
X145820555Y-123642838D01*
X145820556Y-123642838D01*
X145799918Y-123799600D01*
X128414359Y-123799600D01*
X128401115Y-123707487D01*
X128381134Y-123663735D01*
X128341137Y-123576153D01*
X128246587Y-123467036D01*
X128125125Y-123388977D01*
X127986591Y-123348300D01*
X127842209Y-123348300D01*
X127703674Y-123388977D01*
X127582212Y-123467036D01*
X127487662Y-123576153D01*
X127427684Y-123707486D01*
X127420357Y-123758451D01*
X127407137Y-123850400D01*
X125545559Y-123850400D01*
X125634698Y-123734233D01*
X125692687Y-123594236D01*
X125712466Y-123444000D01*
X125692687Y-123293764D01*
X125659878Y-123214556D01*
X125652050Y-123195657D01*
X125645980Y-123139200D01*
X144529918Y-123139200D01*
X144550556Y-123295962D01*
X144611064Y-123442041D01*
X144707318Y-123567482D01*
X144832759Y-123663736D01*
X144978838Y-123724244D01*
X145135600Y-123744882D01*
X145292362Y-123724244D01*
X145438441Y-123663736D01*
X145563882Y-123567482D01*
X145660136Y-123442041D01*
X145660136Y-123442040D01*
X145664657Y-123436149D01*
X145666584Y-123437627D01*
X145675974Y-123428670D01*
X145675068Y-123409513D01*
X145680491Y-123392899D01*
X145689430Y-123371318D01*
X145720644Y-123295962D01*
X145741282Y-123139200D01*
X145720644Y-122982438D01*
X145660136Y-122836359D01*
X145563882Y-122710918D01*
X145438441Y-122614664D01*
X145292362Y-122554156D01*
X145135600Y-122533518D01*
X144978838Y-122554156D01*
X144832758Y-122614664D01*
X144707318Y-122710918D01*
X144611064Y-122836358D01*
X144550556Y-122982438D01*
X144538358Y-123075095D01*
X144529918Y-123139200D01*
X125645980Y-123139200D01*
X125645226Y-123132183D01*
X125673803Y-123075095D01*
X125728707Y-123042519D01*
X125756726Y-123039000D01*
X126207365Y-123039000D01*
X126357933Y-123024170D01*
X126551138Y-122965562D01*
X126551147Y-122965559D01*
X126729216Y-122870378D01*
X126885290Y-122742293D01*
X126885293Y-122742290D01*
X127013378Y-122586216D01*
X127043640Y-122529600D01*
X159842937Y-122529600D01*
X159863484Y-122672513D01*
X159923462Y-122803846D01*
X159980403Y-122869559D01*
X160018013Y-122912964D01*
X160139475Y-122991023D01*
X160278009Y-123031700D01*
X160422391Y-123031700D01*
X160560925Y-122991023D01*
X160682387Y-122912964D01*
X160776937Y-122803847D01*
X160836915Y-122672513D01*
X160857463Y-122529600D01*
X160836915Y-122386687D01*
X160827488Y-122366045D01*
X160776937Y-122255353D01*
X160701246Y-122168000D01*
X170575715Y-122168000D01*
X170619440Y-122312147D01*
X170714621Y-122490216D01*
X170842706Y-122646290D01*
X170842709Y-122646293D01*
X170998783Y-122774378D01*
X171176852Y-122869559D01*
X171176861Y-122869562D01*
X171370066Y-122928170D01*
X171520635Y-122943000D01*
X171971274Y-122943000D01*
X172032529Y-122960986D01*
X172074335Y-123009233D01*
X172083421Y-123072424D01*
X172075950Y-123099657D01*
X172035313Y-123197762D01*
X172022674Y-123293764D01*
X172015534Y-123348000D01*
X172035118Y-123496758D01*
X172035313Y-123498235D01*
X172093300Y-123638230D01*
X172093301Y-123638232D01*
X172093302Y-123638233D01*
X172185549Y-123758451D01*
X172305767Y-123850698D01*
X172445764Y-123908687D01*
X172558280Y-123923500D01*
X172558286Y-123923500D01*
X172633714Y-123923500D01*
X172633720Y-123923500D01*
X172746236Y-123908687D01*
X172886233Y-123850698D01*
X173006451Y-123758451D01*
X173098698Y-123638233D01*
X173156687Y-123498236D01*
X173176466Y-123348000D01*
X173156687Y-123197764D01*
X173098698Y-123057767D01*
X173053275Y-122998571D01*
X173030257Y-122939029D01*
X173043084Y-122876491D01*
X173087685Y-122830814D01*
X173089755Y-122829680D01*
X173193216Y-122774378D01*
X173349290Y-122646293D01*
X173349293Y-122646290D01*
X173477378Y-122490216D01*
X173572559Y-122312147D01*
X173616285Y-122168001D01*
X174905528Y-122168001D01*
X174968686Y-122338531D01*
X174968687Y-122338533D01*
X175070888Y-122502497D01*
X175204005Y-122642538D01*
X175362582Y-122752911D01*
X175362584Y-122752912D01*
X175540138Y-122829106D01*
X175540136Y-122829106D01*
X175729397Y-122868000D01*
X176026000Y-122868000D01*
X176026000Y-122331300D01*
X176043986Y-122270045D01*
X176092233Y-122228239D01*
X176139300Y-122218000D01*
X176412700Y-122218000D01*
X176473955Y-122235986D01*
X176515761Y-122284233D01*
X176526000Y-122331300D01*
X176526000Y-122868000D01*
X176774170Y-122868000D01*
X176918222Y-122853351D01*
X177102571Y-122795511D01*
X177271497Y-122701749D01*
X177271503Y-122701745D01*
X177418102Y-122575894D01*
X177536370Y-122423106D01*
X177536371Y-122423104D01*
X177621459Y-122249641D01*
X177642597Y-122168000D01*
X177066810Y-122168000D01*
X177005555Y-122150014D01*
X176963749Y-122101767D01*
X176954663Y-122038576D01*
X176957835Y-122023695D01*
X176979894Y-121946162D01*
X176979895Y-121946160D01*
X176969546Y-121834479D01*
X176968213Y-121831803D01*
X176967255Y-121826425D01*
X176966673Y-121824380D01*
X176966879Y-121824321D01*
X176957010Y-121768955D01*
X176981563Y-121710025D01*
X177034078Y-121673724D01*
X177069635Y-121668000D01*
X177646470Y-121668000D01*
X177646471Y-121667998D01*
X177583313Y-121497468D01*
X177583312Y-121497466D01*
X177481111Y-121333502D01*
X177347994Y-121193461D01*
X177189417Y-121083088D01*
X177189415Y-121083087D01*
X177011861Y-121006893D01*
X177011863Y-121006893D01*
X176822603Y-120968000D01*
X176526000Y-120968000D01*
X176526000Y-121504700D01*
X176508014Y-121565955D01*
X176459767Y-121607761D01*
X176412700Y-121618000D01*
X176139300Y-121618000D01*
X176078045Y-121600014D01*
X176036239Y-121551767D01*
X176026000Y-121504700D01*
X176026000Y-120968000D01*
X175777830Y-120968000D01*
X175633777Y-120982648D01*
X175449428Y-121040488D01*
X175280502Y-121134250D01*
X175280496Y-121134254D01*
X175133897Y-121260105D01*
X175015629Y-121412893D01*
X175015628Y-121412895D01*
X174930540Y-121586358D01*
X174909403Y-121667999D01*
X174909404Y-121668000D01*
X175485190Y-121668000D01*
X175546445Y-121685986D01*
X175588251Y-121734233D01*
X175597337Y-121797424D01*
X175594165Y-121812305D01*
X175572105Y-121889837D01*
X175582454Y-122001520D01*
X175583786Y-122004195D01*
X175584744Y-122009574D01*
X175585327Y-122011620D01*
X175585120Y-122011678D01*
X175594990Y-122067045D01*
X175570437Y-122125975D01*
X175517922Y-122162276D01*
X175482365Y-122168000D01*
X174905530Y-122168000D01*
X174905528Y-122168001D01*
X173616285Y-122168001D01*
X173616285Y-122168000D01*
X173036810Y-122168000D01*
X172975555Y-122150014D01*
X172933749Y-122101767D01*
X172924663Y-122038576D01*
X172927835Y-122023695D01*
X172949894Y-121946162D01*
X172949895Y-121946160D01*
X172939546Y-121834479D01*
X172938213Y-121831803D01*
X172937255Y-121826425D01*
X172936673Y-121824380D01*
X172936879Y-121824321D01*
X172927010Y-121768955D01*
X172951563Y-121710025D01*
X173004078Y-121673724D01*
X173039635Y-121668000D01*
X173616285Y-121668000D01*
X173572559Y-121523852D01*
X173477378Y-121345783D01*
X173349293Y-121189709D01*
X173349290Y-121189706D01*
X173193216Y-121061621D01*
X173015147Y-120966440D01*
X173015138Y-120966437D01*
X172821933Y-120907829D01*
X172671365Y-120893000D01*
X172346000Y-120893000D01*
X172346000Y-121504700D01*
X172328014Y-121565955D01*
X172279767Y-121607761D01*
X172232700Y-121618000D01*
X171959300Y-121618000D01*
X171898045Y-121600014D01*
X171856239Y-121551767D01*
X171846000Y-121504700D01*
X171846000Y-120893000D01*
X171520635Y-120893000D01*
X171370066Y-120907829D01*
X171176861Y-120966437D01*
X171176852Y-120966440D01*
X170998783Y-121061621D01*
X170842709Y-121189706D01*
X170842706Y-121189709D01*
X170714621Y-121345783D01*
X170619440Y-121523852D01*
X170575715Y-121668000D01*
X171155190Y-121668000D01*
X171216445Y-121685986D01*
X171258251Y-121734233D01*
X171267337Y-121797424D01*
X171264165Y-121812305D01*
X171242105Y-121889837D01*
X171252454Y-122001520D01*
X171253786Y-122004195D01*
X171254744Y-122009574D01*
X171255327Y-122011620D01*
X171255120Y-122011678D01*
X171264990Y-122067045D01*
X171240437Y-122125975D01*
X171187922Y-122162276D01*
X171152365Y-122168000D01*
X170575715Y-122168000D01*
X160701246Y-122168000D01*
X160682387Y-122146236D01*
X160560925Y-122068177D01*
X160422391Y-122027500D01*
X160278009Y-122027500D01*
X160139474Y-122068177D01*
X160018012Y-122146236D01*
X159923462Y-122255353D01*
X159863484Y-122386686D01*
X159842937Y-122529600D01*
X127043640Y-122529600D01*
X127108559Y-122408147D01*
X127152285Y-122264000D01*
X126572810Y-122264000D01*
X126511555Y-122246014D01*
X126469749Y-122197767D01*
X126460663Y-122134576D01*
X126463835Y-122119695D01*
X126477136Y-122072943D01*
X126485895Y-122042160D01*
X126475546Y-121930479D01*
X126474213Y-121927803D01*
X126473255Y-121922425D01*
X126472673Y-121920380D01*
X126472879Y-121920321D01*
X126472822Y-121920000D01*
X133807937Y-121920000D01*
X133828484Y-122062913D01*
X133888462Y-122194246D01*
X133978875Y-122298588D01*
X133983013Y-122303364D01*
X134104475Y-122381423D01*
X134243009Y-122422100D01*
X134387391Y-122422100D01*
X134525925Y-122381423D01*
X134647387Y-122303364D01*
X134741937Y-122194247D01*
X134801915Y-122062913D01*
X134822463Y-121920000D01*
X134801915Y-121777087D01*
X134798552Y-121769724D01*
X134741937Y-121645753D01*
X134647387Y-121536636D01*
X134525925Y-121458577D01*
X134387391Y-121417900D01*
X134243009Y-121417900D01*
X134104474Y-121458577D01*
X133983012Y-121536636D01*
X133888462Y-121645753D01*
X133828484Y-121777086D01*
X133807937Y-121920000D01*
X126472822Y-121920000D01*
X126463010Y-121864955D01*
X126487563Y-121806025D01*
X126540078Y-121769724D01*
X126575635Y-121764000D01*
X127152285Y-121764000D01*
X127108559Y-121619852D01*
X127013378Y-121441783D01*
X126885293Y-121285709D01*
X126885290Y-121285706D01*
X126729216Y-121157621D01*
X126551147Y-121062440D01*
X126551138Y-121062437D01*
X126357933Y-121003829D01*
X126207365Y-120989000D01*
X125882000Y-120989000D01*
X125882000Y-121600700D01*
X125864014Y-121661955D01*
X125815767Y-121703761D01*
X125768700Y-121714000D01*
X125495300Y-121714000D01*
X125434045Y-121696014D01*
X125392239Y-121647767D01*
X125382000Y-121600700D01*
X125382000Y-120989000D01*
X125056635Y-120989000D01*
X124906066Y-121003829D01*
X124712861Y-121062437D01*
X124712852Y-121062440D01*
X124534783Y-121157621D01*
X124378709Y-121285706D01*
X124378706Y-121285709D01*
X124250621Y-121441783D01*
X124155440Y-121619852D01*
X124111715Y-121764000D01*
X124691190Y-121764000D01*
X124752445Y-121781986D01*
X124794251Y-121830233D01*
X124803337Y-121893424D01*
X124800165Y-121908305D01*
X124778105Y-121985837D01*
X124778105Y-121985839D01*
X124778105Y-121985840D01*
X124782992Y-122038576D01*
X124788454Y-122097520D01*
X124789786Y-122100195D01*
X124790744Y-122105574D01*
X124791327Y-122107620D01*
X124791120Y-122107678D01*
X124800990Y-122163045D01*
X124776437Y-122221975D01*
X124723922Y-122258276D01*
X124688365Y-122264000D01*
X124111715Y-122264000D01*
X122818597Y-122264000D01*
X122242810Y-122264000D01*
X122181555Y-122246014D01*
X122139749Y-122197767D01*
X122130663Y-122134576D01*
X122133835Y-122119695D01*
X122147136Y-122072943D01*
X122155895Y-122042160D01*
X122145546Y-121930479D01*
X122144213Y-121927803D01*
X122143255Y-121922425D01*
X122142673Y-121920380D01*
X122142879Y-121920321D01*
X122133010Y-121864955D01*
X122157563Y-121806025D01*
X122210078Y-121769724D01*
X122245635Y-121764000D01*
X122822470Y-121764000D01*
X122822471Y-121763998D01*
X122759313Y-121593468D01*
X122759312Y-121593466D01*
X122657111Y-121429502D01*
X122523994Y-121289461D01*
X122365417Y-121179088D01*
X122365415Y-121179087D01*
X122187861Y-121102893D01*
X122187863Y-121102893D01*
X121998603Y-121064000D01*
X121702000Y-121064000D01*
X121702000Y-121600700D01*
X121684014Y-121661955D01*
X121635767Y-121703761D01*
X121588700Y-121714000D01*
X121315300Y-121714000D01*
X121254045Y-121696014D01*
X121212239Y-121647767D01*
X121202000Y-121600700D01*
X121202000Y-121064000D01*
X120953830Y-121064000D01*
X120809777Y-121078648D01*
X120625428Y-121136488D01*
X120456502Y-121230250D01*
X120456496Y-121230254D01*
X120309897Y-121356105D01*
X120191629Y-121508893D01*
X120191628Y-121508895D01*
X120106540Y-121682358D01*
X120085403Y-121763999D01*
X120085404Y-121764000D01*
X120661190Y-121764000D01*
X120722445Y-121781986D01*
X120764251Y-121830233D01*
X120773337Y-121893424D01*
X120770165Y-121908305D01*
X120748105Y-121985837D01*
X120748105Y-121985839D01*
X120748105Y-121985840D01*
X120752992Y-122038576D01*
X120758454Y-122097520D01*
X120759786Y-122100195D01*
X120760744Y-122105574D01*
X120761327Y-122107620D01*
X120761120Y-122107678D01*
X120770990Y-122163045D01*
X120746437Y-122221975D01*
X120693922Y-122258276D01*
X120658365Y-122264000D01*
X120081530Y-122264000D01*
X120081528Y-122264001D01*
X119000000Y-122264001D01*
X119000000Y-118364000D01*
X141380318Y-118364000D01*
X141400956Y-118520762D01*
X141461464Y-118666841D01*
X141557718Y-118792282D01*
X141683159Y-118888536D01*
X141829238Y-118949044D01*
X141986000Y-118969682D01*
X142142762Y-118949044D01*
X142215775Y-118918801D01*
X146243363Y-118918801D01*
X146300566Y-119132283D01*
X146400401Y-119346380D01*
X146535889Y-119539877D01*
X146702922Y-119706910D01*
X146896419Y-119842398D01*
X147110509Y-119942230D01*
X147324000Y-119999434D01*
X147324000Y-119268752D01*
X147341986Y-119207497D01*
X147390233Y-119165691D01*
X147453421Y-119156605D01*
X147538237Y-119168800D01*
X147538239Y-119168800D01*
X147609761Y-119168800D01*
X147609763Y-119168800D01*
X147694577Y-119156605D01*
X147757765Y-119165690D01*
X147806013Y-119207496D01*
X147824000Y-119268751D01*
X147824000Y-119999433D01*
X148037489Y-119942230D01*
X148037490Y-119942230D01*
X148251580Y-119842398D01*
X148445077Y-119706910D01*
X148612110Y-119539877D01*
X148747598Y-119346380D01*
X148847433Y-119132283D01*
X148904636Y-118918801D01*
X148904636Y-118918800D01*
X148173053Y-118918800D01*
X148111798Y-118900814D01*
X148069992Y-118852567D01*
X148060906Y-118789376D01*
X148064343Y-118773579D01*
X148074000Y-118740691D01*
X148074000Y-118596908D01*
X148064343Y-118564021D01*
X148064342Y-118500181D01*
X148098857Y-118446474D01*
X148156928Y-118419953D01*
X148173053Y-118418800D01*
X148904636Y-118418800D01*
X148904636Y-118418798D01*
X148847434Y-118205320D01*
X148847430Y-118205308D01*
X148755609Y-118008399D01*
X155296337Y-118008399D01*
X155316884Y-118151313D01*
X155376862Y-118282646D01*
X155447355Y-118363999D01*
X155471413Y-118391764D01*
X155592875Y-118469823D01*
X155731409Y-118510500D01*
X155875791Y-118510500D01*
X156014325Y-118469823D01*
X156135787Y-118391764D01*
X156219407Y-118295261D01*
X159639776Y-118295261D01*
X159660323Y-118438175D01*
X159720301Y-118569508D01*
X159720302Y-118569509D01*
X159814852Y-118678626D01*
X159936314Y-118756685D01*
X160074848Y-118797362D01*
X160219230Y-118797362D01*
X160357764Y-118756685D01*
X160479226Y-118678626D01*
X160573776Y-118569509D01*
X160633754Y-118438175D01*
X160635445Y-118426408D01*
X160661965Y-118368335D01*
X160715670Y-118333819D01*
X160779511Y-118333818D01*
X160779514Y-118333819D01*
X160862207Y-118358100D01*
X160862209Y-118358100D01*
X161006591Y-118358100D01*
X161145125Y-118317423D01*
X161266587Y-118239364D01*
X161361137Y-118130247D01*
X161421115Y-117998913D01*
X161441663Y-117856000D01*
X161421115Y-117713087D01*
X161361137Y-117581753D01*
X161266587Y-117472636D01*
X161145125Y-117394577D01*
X161006591Y-117353900D01*
X160862209Y-117353900D01*
X160723674Y-117394577D01*
X160602212Y-117472636D01*
X160507662Y-117581753D01*
X160447683Y-117713088D01*
X160445991Y-117724860D01*
X160419469Y-117782930D01*
X160365762Y-117817444D01*
X160301925Y-117817443D01*
X160219230Y-117793162D01*
X160074848Y-117793162D01*
X159936313Y-117833839D01*
X159814851Y-117911898D01*
X159720301Y-118021015D01*
X159660323Y-118152348D01*
X159639776Y-118295261D01*
X156219407Y-118295261D01*
X156230337Y-118282647D01*
X156290315Y-118151313D01*
X156310863Y-118008400D01*
X156290315Y-117865487D01*
X156285982Y-117856000D01*
X156230337Y-117734153D01*
X156135787Y-117625036D01*
X156014325Y-117546977D01*
X155875791Y-117506300D01*
X155731409Y-117506300D01*
X155592874Y-117546977D01*
X155471412Y-117625036D01*
X155376862Y-117734153D01*
X155316884Y-117865486D01*
X155296337Y-118008399D01*
X148755609Y-118008399D01*
X148747598Y-117991220D01*
X148612111Y-117797723D01*
X148445077Y-117630689D01*
X148251580Y-117495201D01*
X148037483Y-117395366D01*
X147824001Y-117338163D01*
X147824000Y-117338164D01*
X147824000Y-118068847D01*
X147806014Y-118130102D01*
X147757767Y-118171908D01*
X147694576Y-118180994D01*
X147609767Y-118168800D01*
X147609763Y-118168800D01*
X147538237Y-118168800D01*
X147538232Y-118168800D01*
X147453424Y-118180994D01*
X147390233Y-118171908D01*
X147341986Y-118130101D01*
X147324000Y-118068847D01*
X147324000Y-117338164D01*
X147323998Y-117338163D01*
X147110520Y-117395365D01*
X147110508Y-117395369D01*
X146896420Y-117495201D01*
X146702923Y-117630688D01*
X146535888Y-117797723D01*
X146400401Y-117991220D01*
X146300569Y-118205308D01*
X146300565Y-118205320D01*
X146243363Y-118418798D01*
X146243364Y-118418800D01*
X146974947Y-118418800D01*
X147036202Y-118436786D01*
X147078008Y-118485033D01*
X147087094Y-118548224D01*
X147083657Y-118564021D01*
X147074000Y-118596908D01*
X147074000Y-118740691D01*
X147083657Y-118773579D01*
X147083658Y-118837419D01*
X147049143Y-118891126D01*
X146991072Y-118917647D01*
X146974947Y-118918800D01*
X146243364Y-118918800D01*
X146243363Y-118918801D01*
X142215775Y-118918801D01*
X142288841Y-118888536D01*
X142414282Y-118792282D01*
X142510536Y-118666841D01*
X142571044Y-118520762D01*
X142591682Y-118364000D01*
X142571044Y-118207238D01*
X142510536Y-118061159D01*
X142414282Y-117935718D01*
X142288841Y-117839464D01*
X142142762Y-117778956D01*
X141986000Y-117758318D01*
X141829238Y-117778956D01*
X141683158Y-117839464D01*
X141557718Y-117935718D01*
X141461464Y-118061158D01*
X141400956Y-118207238D01*
X141384292Y-118333818D01*
X141380318Y-118364000D01*
X119000000Y-118364000D01*
X119000000Y-117729000D01*
X137570318Y-117729000D01*
X137590956Y-117885762D01*
X137651464Y-118031841D01*
X137747718Y-118157282D01*
X137873159Y-118253536D01*
X138019238Y-118314044D01*
X138176000Y-118334682D01*
X138332762Y-118314044D01*
X138478841Y-118253536D01*
X138604282Y-118157282D01*
X138657613Y-118087778D01*
X138709172Y-118050132D01*
X138772900Y-118046336D01*
X138828563Y-118077596D01*
X138837383Y-118087775D01*
X138890718Y-118157282D01*
X139016159Y-118253536D01*
X139162238Y-118314044D01*
X139319000Y-118334682D01*
X139475762Y-118314044D01*
X139621841Y-118253536D01*
X139747282Y-118157282D01*
X139843536Y-118031841D01*
X139904044Y-117885762D01*
X139924682Y-117729000D01*
X139904044Y-117572238D01*
X139843536Y-117426159D01*
X139747282Y-117300718D01*
X139621841Y-117204464D01*
X139475762Y-117143956D01*
X139319000Y-117123318D01*
X139318999Y-117123318D01*
X139162238Y-117143956D01*
X139016158Y-117204464D01*
X138890715Y-117300720D01*
X138837386Y-117370220D01*
X138785827Y-117407867D01*
X138722100Y-117411663D01*
X138666437Y-117380403D01*
X138657614Y-117370220D01*
X138604284Y-117300720D01*
X138604282Y-117300719D01*
X138604282Y-117300718D01*
X138478841Y-117204464D01*
X138332762Y-117143956D01*
X138176000Y-117123318D01*
X138019238Y-117143956D01*
X137873158Y-117204464D01*
X137747718Y-117300718D01*
X137651464Y-117426158D01*
X137622866Y-117495201D01*
X137590956Y-117572238D01*
X137570318Y-117729000D01*
X119000000Y-117729000D01*
X119000000Y-116128804D01*
X146617293Y-116128804D01*
X146635675Y-116315442D01*
X146690115Y-116494909D01*
X146690117Y-116494915D01*
X146690118Y-116494916D01*
X146778527Y-116660318D01*
X146897506Y-116805294D01*
X147042482Y-116924273D01*
X147207884Y-117012682D01*
X147207890Y-117012684D01*
X147274707Y-117032952D01*
X147387356Y-117067124D01*
X147573995Y-117085507D01*
X147574000Y-117085507D01*
X147574005Y-117085507D01*
X147707317Y-117072376D01*
X147760644Y-117067124D01*
X147940116Y-117012682D01*
X148105518Y-116924273D01*
X148250494Y-116805294D01*
X148369473Y-116660318D01*
X148457882Y-116494916D01*
X148512324Y-116315444D01*
X148530707Y-116128800D01*
X148512324Y-115942156D01*
X148457882Y-115762684D01*
X148369473Y-115597282D01*
X148250494Y-115452306D01*
X148105518Y-115333327D01*
X148015939Y-115285446D01*
X147940115Y-115244917D01*
X147940109Y-115244915D01*
X147760642Y-115190475D01*
X147760643Y-115190475D01*
X147574005Y-115172093D01*
X147573995Y-115172093D01*
X147387357Y-115190475D01*
X147207890Y-115244915D01*
X147207884Y-115244917D01*
X147042483Y-115333326D01*
X146897506Y-115452306D01*
X146778526Y-115597283D01*
X146690117Y-115762684D01*
X146690115Y-115762690D01*
X146635675Y-115942157D01*
X146617293Y-116128795D01*
X146617293Y-116128804D01*
X119000000Y-116128804D01*
X119000000Y-115011200D01*
X142850337Y-115011200D01*
X142870884Y-115154113D01*
X142930862Y-115285446D01*
X142930863Y-115285447D01*
X143025413Y-115394564D01*
X143146875Y-115472623D01*
X143285409Y-115513300D01*
X143429791Y-115513300D01*
X143568325Y-115472623D01*
X143689787Y-115394564D01*
X143784337Y-115285447D01*
X143844315Y-115154113D01*
X143864863Y-115011200D01*
X143844315Y-114868287D01*
X143816782Y-114808000D01*
X149101918Y-114808000D01*
X149122556Y-114964762D01*
X149183064Y-115110841D01*
X149279318Y-115236282D01*
X149404759Y-115332536D01*
X149550838Y-115393044D01*
X149707600Y-115413682D01*
X149864362Y-115393044D01*
X150010441Y-115332536D01*
X150135882Y-115236282D01*
X150232136Y-115110841D01*
X150292644Y-114964762D01*
X150313282Y-114808000D01*
X150292644Y-114651238D01*
X150232136Y-114505159D01*
X150135882Y-114379718D01*
X150010441Y-114283464D01*
X149864362Y-114222956D01*
X149707600Y-114202318D01*
X149550838Y-114222956D01*
X149404758Y-114283464D01*
X149279318Y-114379718D01*
X149183064Y-114505158D01*
X149140042Y-114609022D01*
X149122556Y-114651238D01*
X149101918Y-114808000D01*
X143816782Y-114808000D01*
X143816782Y-114807999D01*
X143784337Y-114736953D01*
X143689787Y-114627836D01*
X143568325Y-114549777D01*
X143429791Y-114509100D01*
X143285409Y-114509100D01*
X143146874Y-114549777D01*
X143025412Y-114627836D01*
X142930862Y-114736953D01*
X142870884Y-114868286D01*
X142850337Y-115011200D01*
X119000000Y-115011200D01*
X119000000Y-114448851D01*
X146621900Y-114448851D01*
X146625867Y-114468800D01*
X146627824Y-114478637D01*
X146650390Y-114512410D01*
X146684163Y-114534976D01*
X146713945Y-114540900D01*
X148434054Y-114540899D01*
X148463837Y-114534976D01*
X148497610Y-114512410D01*
X148520176Y-114478637D01*
X148526100Y-114448855D01*
X148526099Y-114032619D01*
X148544085Y-113971366D01*
X148592332Y-113929559D01*
X148655523Y-113920473D01*
X148671316Y-113923908D01*
X148690559Y-113929559D01*
X148721008Y-113938500D01*
X148721009Y-113938500D01*
X148865391Y-113938500D01*
X149003925Y-113897823D01*
X149125387Y-113819764D01*
X149195302Y-113739078D01*
X155977162Y-113739078D01*
X155997709Y-113881991D01*
X156057687Y-114013324D01*
X156057688Y-114013325D01*
X156152238Y-114122442D01*
X156273700Y-114200501D01*
X156412234Y-114241178D01*
X156556616Y-114241178D01*
X156695150Y-114200501D01*
X156816612Y-114122442D01*
X156911162Y-114013325D01*
X156971140Y-113881991D01*
X156980648Y-113815856D01*
X157007168Y-113757786D01*
X157060873Y-113723271D01*
X157124714Y-113723270D01*
X157154048Y-113736665D01*
X157167675Y-113745423D01*
X157306209Y-113786100D01*
X157450591Y-113786100D01*
X157589125Y-113745423D01*
X157710587Y-113667364D01*
X157805137Y-113558247D01*
X157837583Y-113487199D01*
X159715937Y-113487199D01*
X159736484Y-113630113D01*
X159796462Y-113761446D01*
X159830906Y-113801196D01*
X159891013Y-113870564D01*
X160012475Y-113948623D01*
X160151009Y-113989300D01*
X160295391Y-113989300D01*
X160433925Y-113948623D01*
X160555387Y-113870564D01*
X160585587Y-113835710D01*
X160639290Y-113801196D01*
X160703131Y-113801195D01*
X160756838Y-113835708D01*
X160783359Y-113893779D01*
X160774275Y-113956970D01*
X160774275Y-113956971D01*
X160752484Y-114004686D01*
X160731937Y-114147599D01*
X160752484Y-114290513D01*
X160812462Y-114421846D01*
X160861672Y-114478637D01*
X160907013Y-114530964D01*
X161028475Y-114609023D01*
X161167009Y-114649700D01*
X161311391Y-114649700D01*
X161449925Y-114609023D01*
X161571387Y-114530964D01*
X161665937Y-114421847D01*
X161725915Y-114290513D01*
X161746463Y-114147600D01*
X161725915Y-114004687D01*
X161704123Y-113956970D01*
X161665937Y-113873353D01*
X161571387Y-113764236D01*
X161449925Y-113686177D01*
X161311391Y-113645500D01*
X161167009Y-113645500D01*
X161028474Y-113686177D01*
X160907011Y-113764236D01*
X160876812Y-113799089D01*
X160823106Y-113833604D01*
X160759265Y-113833603D01*
X160705559Y-113799088D01*
X160679039Y-113741017D01*
X160688125Y-113677826D01*
X160692904Y-113667363D01*
X160709915Y-113630113D01*
X160730463Y-113487200D01*
X160709915Y-113344287D01*
X160695062Y-113311764D01*
X160649937Y-113212953D01*
X160555387Y-113103836D01*
X160433925Y-113025777D01*
X160295391Y-112985100D01*
X160151009Y-112985100D01*
X160012474Y-113025777D01*
X159891012Y-113103836D01*
X159796462Y-113212953D01*
X159736484Y-113344286D01*
X159715937Y-113487199D01*
X157837583Y-113487199D01*
X157865115Y-113426913D01*
X157885663Y-113284000D01*
X157865115Y-113141087D01*
X157833250Y-113071313D01*
X157805137Y-113009753D01*
X157710587Y-112900636D01*
X157589125Y-112822577D01*
X157450591Y-112781900D01*
X157306209Y-112781900D01*
X157167674Y-112822577D01*
X157046212Y-112900636D01*
X156951662Y-113009753D01*
X156891684Y-113141086D01*
X156882176Y-113207221D01*
X156855655Y-113265292D01*
X156801949Y-113299807D01*
X156738108Y-113299806D01*
X156708776Y-113286411D01*
X156695151Y-113277655D01*
X156695152Y-113277655D01*
X156556616Y-113236978D01*
X156412234Y-113236978D01*
X156273699Y-113277655D01*
X156152237Y-113355714D01*
X156057687Y-113464831D01*
X155997709Y-113596164D01*
X155977162Y-113739078D01*
X149195302Y-113739078D01*
X149219937Y-113710647D01*
X149279915Y-113579313D01*
X149300463Y-113436400D01*
X149279915Y-113293487D01*
X149275582Y-113284000D01*
X149219937Y-113162153D01*
X149125387Y-113053036D01*
X149003925Y-112974977D01*
X148865391Y-112934300D01*
X148721009Y-112934300D01*
X148671319Y-112948890D01*
X148607478Y-112948889D01*
X148553772Y-112914374D01*
X148527252Y-112856303D01*
X148526099Y-112840179D01*
X148526099Y-112728748D01*
X148526099Y-112728746D01*
X148520176Y-112698963D01*
X148497610Y-112665190D01*
X148463837Y-112642624D01*
X148463836Y-112642623D01*
X148434055Y-112636700D01*
X146713948Y-112636700D01*
X146684168Y-112642623D01*
X146684163Y-112642624D01*
X146650392Y-112665189D01*
X146650389Y-112665191D01*
X146627823Y-112698963D01*
X146621900Y-112728741D01*
X146621900Y-114448851D01*
X119000000Y-114448851D01*
X119000000Y-113741199D01*
X124663937Y-113741199D01*
X124684484Y-113884113D01*
X124744462Y-114015446D01*
X124744463Y-114015447D01*
X124839013Y-114124564D01*
X124960475Y-114202623D01*
X125099009Y-114243300D01*
X125243391Y-114243300D01*
X125381925Y-114202623D01*
X125503387Y-114124564D01*
X125597937Y-114015447D01*
X125657915Y-113884113D01*
X125678463Y-113741200D01*
X125657915Y-113598287D01*
X125656945Y-113596164D01*
X125597937Y-113466953D01*
X125503387Y-113357836D01*
X125381925Y-113279777D01*
X125243391Y-113239100D01*
X125099009Y-113239100D01*
X124960474Y-113279777D01*
X124839012Y-113357836D01*
X124744462Y-113466953D01*
X124684484Y-113598286D01*
X124663937Y-113741199D01*
X119000000Y-113741199D01*
X119000000Y-112928400D01*
X131013937Y-112928400D01*
X131034484Y-113071313D01*
X131094462Y-113202646D01*
X131167045Y-113286411D01*
X131189013Y-113311764D01*
X131310475Y-113389823D01*
X131449009Y-113430500D01*
X131593391Y-113430500D01*
X131731925Y-113389823D01*
X131853387Y-113311764D01*
X131947937Y-113202647D01*
X132007915Y-113071313D01*
X132028463Y-112928400D01*
X132007915Y-112785487D01*
X131982003Y-112728748D01*
X131947937Y-112654153D01*
X131853387Y-112545036D01*
X131731925Y-112466977D01*
X131593391Y-112426300D01*
X131449009Y-112426300D01*
X131310474Y-112466977D01*
X131189012Y-112545036D01*
X131094462Y-112654153D01*
X131034484Y-112785486D01*
X131013937Y-112928400D01*
X119000000Y-112928400D01*
X119000000Y-111250001D01*
X120205528Y-111250001D01*
X120268686Y-111420531D01*
X120268687Y-111420533D01*
X120370888Y-111584497D01*
X120504005Y-111724538D01*
X120662582Y-111834911D01*
X120662584Y-111834912D01*
X120840138Y-111911106D01*
X120840136Y-111911106D01*
X121029397Y-111950000D01*
X121326000Y-111950000D01*
X121326000Y-111413300D01*
X121343986Y-111352045D01*
X121392233Y-111310239D01*
X121439300Y-111300000D01*
X121712700Y-111300000D01*
X121773955Y-111317986D01*
X121815761Y-111366233D01*
X121826000Y-111413300D01*
X121826000Y-111950000D01*
X122074170Y-111950000D01*
X122218222Y-111935351D01*
X122402571Y-111877511D01*
X122571497Y-111783749D01*
X122571503Y-111783745D01*
X122718102Y-111657894D01*
X122836370Y-111505106D01*
X122836371Y-111505104D01*
X122921459Y-111331641D01*
X122942597Y-111250000D01*
X124235715Y-111250000D01*
X124279440Y-111394147D01*
X124374621Y-111572216D01*
X124502706Y-111728290D01*
X124502709Y-111728293D01*
X124658783Y-111856378D01*
X124836852Y-111951559D01*
X124836861Y-111951562D01*
X125030066Y-112010170D01*
X125180635Y-112025000D01*
X125505999Y-112025000D01*
X125506000Y-111413300D01*
X125523986Y-111352045D01*
X125572233Y-111310239D01*
X125619300Y-111300000D01*
X125892700Y-111300000D01*
X125953955Y-111317986D01*
X125995761Y-111366233D01*
X126006000Y-111413300D01*
X126006000Y-112025000D01*
X126331365Y-112025000D01*
X126481933Y-112010170D01*
X126675138Y-111951562D01*
X126675147Y-111951559D01*
X126843446Y-111861600D01*
X158699937Y-111861600D01*
X158720484Y-112004513D01*
X158780462Y-112135846D01*
X158780463Y-112135847D01*
X158875013Y-112244964D01*
X158996475Y-112323023D01*
X159135009Y-112363700D01*
X159279391Y-112363700D01*
X159417925Y-112323023D01*
X159539387Y-112244964D01*
X159633937Y-112135847D01*
X159693915Y-112004513D01*
X159714463Y-111861600D01*
X159693915Y-111718687D01*
X159633937Y-111587353D01*
X159539387Y-111478236D01*
X159417925Y-111400177D01*
X159279391Y-111359500D01*
X159135009Y-111359500D01*
X158996474Y-111400177D01*
X158875012Y-111478236D01*
X158780462Y-111587353D01*
X158720484Y-111718686D01*
X158699937Y-111861600D01*
X126843446Y-111861600D01*
X126853216Y-111856378D01*
X127009290Y-111728293D01*
X127009293Y-111728290D01*
X127137378Y-111572216D01*
X127232559Y-111394147D01*
X127276285Y-111250000D01*
X170575715Y-111250000D01*
X170619440Y-111394147D01*
X170714621Y-111572216D01*
X170842706Y-111728290D01*
X170842709Y-111728293D01*
X170998783Y-111856378D01*
X171176852Y-111951559D01*
X171176861Y-111951562D01*
X171370066Y-112010170D01*
X171520635Y-112025000D01*
X171846000Y-112025000D01*
X171846000Y-111413300D01*
X171863986Y-111352045D01*
X171912233Y-111310239D01*
X171959300Y-111300000D01*
X172232700Y-111300000D01*
X172293955Y-111317986D01*
X172335761Y-111366233D01*
X172346000Y-111413300D01*
X172346000Y-112025000D01*
X172671365Y-112025000D01*
X172821933Y-112010170D01*
X173015138Y-111951562D01*
X173015147Y-111951559D01*
X173193216Y-111856378D01*
X173349290Y-111728293D01*
X173349293Y-111728290D01*
X173477378Y-111572216D01*
X173572559Y-111394147D01*
X173616285Y-111250001D01*
X174905528Y-111250001D01*
X174968686Y-111420531D01*
X174968687Y-111420533D01*
X175070888Y-111584497D01*
X175204005Y-111724538D01*
X175362582Y-111834911D01*
X175362584Y-111834912D01*
X175540138Y-111911106D01*
X175540136Y-111911106D01*
X175729397Y-111950000D01*
X176026000Y-111950000D01*
X176026000Y-111413300D01*
X176043986Y-111352045D01*
X176092233Y-111310239D01*
X176139300Y-111300000D01*
X176412700Y-111300000D01*
X176473955Y-111317986D01*
X176515761Y-111366233D01*
X176526000Y-111413300D01*
X176526000Y-111950000D01*
X176774170Y-111950000D01*
X176918222Y-111935351D01*
X177102571Y-111877511D01*
X177271497Y-111783749D01*
X177271503Y-111783745D01*
X177418102Y-111657894D01*
X177536370Y-111505106D01*
X177536371Y-111505104D01*
X177621459Y-111331641D01*
X177642597Y-111250000D01*
X177066810Y-111250000D01*
X177005555Y-111232014D01*
X176963749Y-111183767D01*
X176954663Y-111120576D01*
X176957835Y-111105695D01*
X176979894Y-111028162D01*
X176979895Y-111028160D01*
X176969546Y-110916479D01*
X176968213Y-110913803D01*
X176967255Y-110908425D01*
X176966673Y-110906380D01*
X176966879Y-110906321D01*
X176957010Y-110850955D01*
X176981563Y-110792025D01*
X177034078Y-110755724D01*
X177069635Y-110750000D01*
X177646470Y-110750000D01*
X177646471Y-110749998D01*
X177583313Y-110579468D01*
X177583312Y-110579466D01*
X177481111Y-110415502D01*
X177347994Y-110275461D01*
X177189417Y-110165088D01*
X177189415Y-110165087D01*
X177011861Y-110088893D01*
X177011863Y-110088893D01*
X176822603Y-110050000D01*
X176526000Y-110050000D01*
X176526000Y-110586700D01*
X176508014Y-110647955D01*
X176459767Y-110689761D01*
X176412700Y-110700000D01*
X176139300Y-110700000D01*
X176078045Y-110682014D01*
X176036239Y-110633767D01*
X176026000Y-110586700D01*
X176026000Y-110050000D01*
X175777830Y-110050000D01*
X175633777Y-110064648D01*
X175449428Y-110122488D01*
X175280502Y-110216250D01*
X175280496Y-110216254D01*
X175133897Y-110342105D01*
X175015629Y-110494893D01*
X175015628Y-110494895D01*
X174930540Y-110668358D01*
X174909403Y-110749999D01*
X174909404Y-110750000D01*
X175485190Y-110750000D01*
X175546445Y-110767986D01*
X175588251Y-110816233D01*
X175597337Y-110879424D01*
X175594165Y-110894305D01*
X175572105Y-110971837D01*
X175582454Y-111083520D01*
X175583786Y-111086195D01*
X175584744Y-111091574D01*
X175585327Y-111093620D01*
X175585120Y-111093678D01*
X175594990Y-111149045D01*
X175570437Y-111207975D01*
X175517922Y-111244276D01*
X175482365Y-111250000D01*
X174905530Y-111250000D01*
X174905528Y-111250001D01*
X173616285Y-111250001D01*
X173616285Y-111250000D01*
X173036810Y-111250000D01*
X172975555Y-111232014D01*
X172933749Y-111183767D01*
X172924663Y-111120576D01*
X172927835Y-111105695D01*
X172949894Y-111028162D01*
X172949895Y-111028160D01*
X172939546Y-110916479D01*
X172938213Y-110913803D01*
X172937255Y-110908425D01*
X172936673Y-110906380D01*
X172936879Y-110906321D01*
X172927010Y-110850955D01*
X172951563Y-110792025D01*
X173004078Y-110755724D01*
X173039635Y-110750000D01*
X173616285Y-110750000D01*
X173572559Y-110605852D01*
X173477378Y-110427783D01*
X173349293Y-110271709D01*
X173349290Y-110271706D01*
X173193216Y-110143621D01*
X173193213Y-110143618D01*
X173089754Y-110088318D01*
X173044211Y-110043581D01*
X173030085Y-109981323D01*
X173051861Y-109921311D01*
X173053203Y-109919522D01*
X173098698Y-109860233D01*
X173156687Y-109720236D01*
X173176466Y-109570000D01*
X173156687Y-109419764D01*
X173098698Y-109279767D01*
X173006451Y-109159549D01*
X172886233Y-109067302D01*
X172886232Y-109067301D01*
X172886230Y-109067300D01*
X172795731Y-109029814D01*
X172746236Y-109009313D01*
X172708730Y-109004375D01*
X172633722Y-108994500D01*
X172633720Y-108994500D01*
X172558280Y-108994500D01*
X172558277Y-108994500D01*
X172445764Y-109009313D01*
X172305769Y-109067300D01*
X172185549Y-109159549D01*
X172093300Y-109279769D01*
X172035313Y-109419764D01*
X172015534Y-109570000D01*
X172035313Y-109720237D01*
X172075950Y-109818343D01*
X172082774Y-109881817D01*
X172054197Y-109938905D01*
X171999293Y-109971481D01*
X171971274Y-109975000D01*
X171520635Y-109975000D01*
X171370066Y-109989829D01*
X171176861Y-110048437D01*
X171176852Y-110048440D01*
X170998783Y-110143621D01*
X170842709Y-110271706D01*
X170842706Y-110271709D01*
X170714621Y-110427783D01*
X170619440Y-110605852D01*
X170575715Y-110750000D01*
X171155190Y-110750000D01*
X171216445Y-110767986D01*
X171258251Y-110816233D01*
X171267337Y-110879424D01*
X171264165Y-110894305D01*
X171242105Y-110971837D01*
X171252454Y-111083520D01*
X171253786Y-111086195D01*
X171254744Y-111091574D01*
X171255327Y-111093620D01*
X171255120Y-111093678D01*
X171264990Y-111149045D01*
X171240437Y-111207975D01*
X171187922Y-111244276D01*
X171152365Y-111250000D01*
X170575715Y-111250000D01*
X127276285Y-111250000D01*
X126696810Y-111250000D01*
X126635555Y-111232014D01*
X126593749Y-111183767D01*
X126584663Y-111120576D01*
X126587835Y-111105695D01*
X126609894Y-111028162D01*
X126609895Y-111028160D01*
X126599546Y-110916479D01*
X126598213Y-110913803D01*
X126597255Y-110908425D01*
X126596673Y-110906380D01*
X126596879Y-110906321D01*
X126587010Y-110850955D01*
X126611563Y-110792025D01*
X126664078Y-110755724D01*
X126699635Y-110750000D01*
X127276285Y-110750000D01*
X127232559Y-110605852D01*
X127137378Y-110427783D01*
X127009293Y-110271709D01*
X127009290Y-110271706D01*
X126853216Y-110143621D01*
X126835965Y-110134400D01*
X147679518Y-110134400D01*
X147700156Y-110291162D01*
X147760664Y-110437241D01*
X147856918Y-110562682D01*
X147982359Y-110658936D01*
X148128438Y-110719444D01*
X148285200Y-110740082D01*
X148441962Y-110719444D01*
X148588041Y-110658936D01*
X148713482Y-110562682D01*
X148809736Y-110437241D01*
X148870244Y-110291162D01*
X148890882Y-110134400D01*
X148870244Y-109977638D01*
X148809736Y-109831559D01*
X148713482Y-109706118D01*
X148588041Y-109609864D01*
X148441962Y-109549356D01*
X148285200Y-109528718D01*
X148128438Y-109549356D01*
X147982358Y-109609864D01*
X147856918Y-109706118D01*
X147760664Y-109831558D01*
X147739846Y-109881817D01*
X147700156Y-109977638D01*
X147679518Y-110134400D01*
X126835965Y-110134400D01*
X126675147Y-110048440D01*
X126675138Y-110048437D01*
X126481933Y-109989829D01*
X126331365Y-109975000D01*
X125880726Y-109975000D01*
X125819471Y-109957014D01*
X125777665Y-109908767D01*
X125768579Y-109845576D01*
X125776050Y-109818343D01*
X125794578Y-109773609D01*
X125816687Y-109720236D01*
X125836466Y-109570000D01*
X125816687Y-109419764D01*
X125758698Y-109279767D01*
X125666451Y-109159549D01*
X125546233Y-109067302D01*
X125546232Y-109067301D01*
X125546230Y-109067300D01*
X125455731Y-109029814D01*
X125406236Y-109009313D01*
X125368730Y-109004375D01*
X125293722Y-108994500D01*
X125293720Y-108994500D01*
X125218280Y-108994500D01*
X125218277Y-108994500D01*
X125105764Y-109009313D01*
X124965769Y-109067300D01*
X124845549Y-109159549D01*
X124753300Y-109279769D01*
X124695313Y-109419764D01*
X124675534Y-109570000D01*
X124695313Y-109720236D01*
X124715814Y-109769731D01*
X124753300Y-109860230D01*
X124753301Y-109860232D01*
X124753302Y-109860233D01*
X124798722Y-109919426D01*
X124821742Y-109978970D01*
X124808915Y-110041509D01*
X124764313Y-110087185D01*
X124762245Y-110088318D01*
X124658786Y-110143618D01*
X124658783Y-110143621D01*
X124502709Y-110271706D01*
X124502706Y-110271709D01*
X124374621Y-110427783D01*
X124279440Y-110605852D01*
X124235715Y-110750000D01*
X124815190Y-110750000D01*
X124876445Y-110767986D01*
X124918251Y-110816233D01*
X124927337Y-110879424D01*
X124924165Y-110894305D01*
X124902105Y-110971837D01*
X124912454Y-111083520D01*
X124913786Y-111086195D01*
X124914744Y-111091574D01*
X124915327Y-111093620D01*
X124915120Y-111093678D01*
X124924990Y-111149045D01*
X124900437Y-111207975D01*
X124847922Y-111244276D01*
X124812365Y-111250000D01*
X124235715Y-111250000D01*
X122942597Y-111250000D01*
X122366810Y-111250000D01*
X122305555Y-111232014D01*
X122263749Y-111183767D01*
X122254663Y-111120576D01*
X122257835Y-111105695D01*
X122279894Y-111028162D01*
X122279895Y-111028160D01*
X122269546Y-110916479D01*
X122268213Y-110913803D01*
X122267255Y-110908425D01*
X122266673Y-110906380D01*
X122266879Y-110906321D01*
X122257010Y-110850955D01*
X122281563Y-110792025D01*
X122334078Y-110755724D01*
X122369635Y-110750000D01*
X122946470Y-110750000D01*
X122946471Y-110749998D01*
X122883313Y-110579468D01*
X122883312Y-110579466D01*
X122781111Y-110415502D01*
X122647994Y-110275461D01*
X122489417Y-110165088D01*
X122489415Y-110165087D01*
X122311861Y-110088893D01*
X122311863Y-110088893D01*
X122122603Y-110050000D01*
X121826000Y-110050000D01*
X121826000Y-110586700D01*
X121808014Y-110647955D01*
X121759767Y-110689761D01*
X121712700Y-110700000D01*
X121439300Y-110700000D01*
X121378045Y-110682014D01*
X121336239Y-110633767D01*
X121326000Y-110586700D01*
X121326000Y-110050000D01*
X121077830Y-110050000D01*
X120933777Y-110064648D01*
X120749428Y-110122488D01*
X120580502Y-110216250D01*
X120580496Y-110216254D01*
X120433897Y-110342105D01*
X120315629Y-110494893D01*
X120315628Y-110494895D01*
X120230540Y-110668358D01*
X120209403Y-110749999D01*
X120209404Y-110750000D01*
X120785190Y-110750000D01*
X120846445Y-110767986D01*
X120888251Y-110816233D01*
X120897337Y-110879424D01*
X120894165Y-110894305D01*
X120872105Y-110971837D01*
X120882454Y-111083520D01*
X120883786Y-111086195D01*
X120884744Y-111091574D01*
X120885327Y-111093620D01*
X120885120Y-111093678D01*
X120894990Y-111149045D01*
X120870437Y-111207975D01*
X120817922Y-111244276D01*
X120782365Y-111250000D01*
X120205530Y-111250000D01*
X120205528Y-111250001D01*
X119000000Y-111250001D01*
X119000000Y-108051599D01*
X127407137Y-108051599D01*
X127427684Y-108194513D01*
X127487662Y-108325846D01*
X127487663Y-108325847D01*
X127582213Y-108434964D01*
X127703675Y-108513023D01*
X127842209Y-108553700D01*
X127986591Y-108553700D01*
X128125125Y-108513023D01*
X128246587Y-108434964D01*
X128341137Y-108325847D01*
X128401115Y-108194513D01*
X128421663Y-108051600D01*
X128401115Y-107908687D01*
X128341137Y-107777353D01*
X128246587Y-107668236D01*
X128125125Y-107590177D01*
X127986591Y-107549500D01*
X127842209Y-107549500D01*
X127703674Y-107590177D01*
X127582212Y-107668236D01*
X127487662Y-107777353D01*
X127427684Y-107908686D01*
X127407137Y-108051599D01*
X119000000Y-108051599D01*
X119000000Y-107188000D01*
X132363318Y-107188000D01*
X132383956Y-107344762D01*
X132444464Y-107490841D01*
X132540718Y-107616282D01*
X132666159Y-107712536D01*
X132812238Y-107773044D01*
X132969000Y-107793682D01*
X133125762Y-107773044D01*
X133271841Y-107712536D01*
X133397282Y-107616282D01*
X133493536Y-107490841D01*
X133554044Y-107344762D01*
X133574682Y-107188000D01*
X133554044Y-107031238D01*
X133493536Y-106885159D01*
X133397282Y-106759718D01*
X133327778Y-106706386D01*
X133290132Y-106654828D01*
X133286336Y-106591100D01*
X133317596Y-106535437D01*
X133327779Y-106526613D01*
X133397282Y-106473282D01*
X133493536Y-106347841D01*
X133554044Y-106201762D01*
X133574682Y-106045000D01*
X133554044Y-105888238D01*
X133493536Y-105742159D01*
X133397282Y-105616718D01*
X133397280Y-105616716D01*
X133392761Y-105610827D01*
X133393807Y-105610024D01*
X133367083Y-105561084D01*
X133371638Y-105497406D01*
X133393348Y-105463623D01*
X133392761Y-105463173D01*
X133397280Y-105457283D01*
X133397282Y-105457282D01*
X133493536Y-105331841D01*
X133554044Y-105185762D01*
X133574682Y-105029000D01*
X133554044Y-104872238D01*
X133493536Y-104726159D01*
X133397282Y-104600718D01*
X133271841Y-104504464D01*
X133125762Y-104443956D01*
X132969000Y-104423318D01*
X132968999Y-104423318D01*
X132812238Y-104443956D01*
X132666158Y-104504464D01*
X132540718Y-104600718D01*
X132444464Y-104726158D01*
X132423254Y-104777364D01*
X132383956Y-104872238D01*
X132363318Y-105029000D01*
X132383956Y-105185762D01*
X132444464Y-105331841D01*
X132540718Y-105457282D01*
X132540719Y-105457283D01*
X132545239Y-105463173D01*
X132544192Y-105463975D01*
X132570917Y-105512916D01*
X132566362Y-105576594D01*
X132544651Y-105610376D01*
X132545239Y-105610827D01*
X132540719Y-105616716D01*
X132540718Y-105616718D01*
X132504438Y-105663999D01*
X132444464Y-105742158D01*
X132404170Y-105839436D01*
X132383956Y-105888238D01*
X132363318Y-106045000D01*
X132383956Y-106201762D01*
X132444464Y-106347841D01*
X132540717Y-106473281D01*
X132540720Y-106473284D01*
X132610220Y-106526614D01*
X132647867Y-106578173D01*
X132651663Y-106641900D01*
X132620403Y-106697563D01*
X132610220Y-106706386D01*
X132540720Y-106759715D01*
X132444464Y-106885158D01*
X132394128Y-107006681D01*
X132383956Y-107031238D01*
X132363318Y-107188000D01*
X119000000Y-107188000D01*
X119000000Y-102610001D01*
X120205528Y-102610001D01*
X120268686Y-102780531D01*
X120268687Y-102780533D01*
X120370888Y-102944497D01*
X120504005Y-103084538D01*
X120662582Y-103194911D01*
X120662584Y-103194912D01*
X120840138Y-103271106D01*
X120840136Y-103271106D01*
X121029397Y-103310000D01*
X121326000Y-103310000D01*
X121326000Y-102773300D01*
X121343986Y-102712045D01*
X121392233Y-102670239D01*
X121439300Y-102660000D01*
X121712700Y-102660000D01*
X121773955Y-102677986D01*
X121815761Y-102726233D01*
X121826000Y-102773300D01*
X121826000Y-103310000D01*
X122074170Y-103310000D01*
X122218222Y-103295351D01*
X122402571Y-103237511D01*
X122571497Y-103143749D01*
X122571503Y-103143745D01*
X122718102Y-103017894D01*
X122836370Y-102865106D01*
X122836371Y-102865104D01*
X122921459Y-102691641D01*
X122942597Y-102610000D01*
X124235715Y-102610000D01*
X124279440Y-102754147D01*
X124374621Y-102932216D01*
X124502706Y-103088290D01*
X124502709Y-103088293D01*
X124658783Y-103216378D01*
X124762244Y-103271680D01*
X124807787Y-103316418D01*
X124821914Y-103378676D01*
X124800139Y-103438688D01*
X124798722Y-103440574D01*
X124753301Y-103499767D01*
X124695313Y-103639764D01*
X124675786Y-103788089D01*
X124675534Y-103790000D01*
X124695313Y-103940236D01*
X124706046Y-103966148D01*
X124753300Y-104080230D01*
X124753301Y-104080232D01*
X124753302Y-104080233D01*
X124845549Y-104200451D01*
X124965767Y-104292698D01*
X125105764Y-104350687D01*
X125218280Y-104365500D01*
X125218286Y-104365500D01*
X125293714Y-104365500D01*
X125293720Y-104365500D01*
X125406236Y-104350687D01*
X125546233Y-104292698D01*
X125546623Y-104292399D01*
X127000737Y-104292399D01*
X127021284Y-104435313D01*
X127081262Y-104566646D01*
X127169300Y-104668247D01*
X127175813Y-104675764D01*
X127297275Y-104753823D01*
X127435809Y-104794500D01*
X127580191Y-104794500D01*
X127718725Y-104753823D01*
X127840187Y-104675764D01*
X127934737Y-104566647D01*
X127994715Y-104435313D01*
X128015263Y-104292400D01*
X127994715Y-104149487D01*
X127994319Y-104148620D01*
X127934737Y-104018153D01*
X127930272Y-104013000D01*
X137189318Y-104013000D01*
X137209956Y-104169762D01*
X137270464Y-104315841D01*
X137366718Y-104441282D01*
X137492159Y-104537536D01*
X137638238Y-104598044D01*
X137675144Y-104602902D01*
X137733526Y-104628730D01*
X137768677Y-104682022D01*
X137769437Y-104745858D01*
X137765030Y-104758590D01*
X137717956Y-104872236D01*
X137708143Y-104946776D01*
X137697318Y-105029000D01*
X137717956Y-105185762D01*
X137778464Y-105331841D01*
X137874718Y-105457282D01*
X137874719Y-105457283D01*
X137879239Y-105463173D01*
X137878192Y-105463975D01*
X137904917Y-105512916D01*
X137900362Y-105576594D01*
X137878651Y-105610376D01*
X137879239Y-105610827D01*
X137874719Y-105616716D01*
X137874718Y-105616718D01*
X137838438Y-105663999D01*
X137778464Y-105742158D01*
X137738170Y-105839436D01*
X137717956Y-105888238D01*
X137697318Y-106045000D01*
X137717956Y-106201762D01*
X137778464Y-106347841D01*
X137874717Y-106473281D01*
X137874720Y-106473284D01*
X137944220Y-106526614D01*
X137981867Y-106578173D01*
X137985663Y-106641900D01*
X137954403Y-106697563D01*
X137944220Y-106706386D01*
X137874720Y-106759715D01*
X137778464Y-106885158D01*
X137728128Y-107006681D01*
X137717956Y-107031238D01*
X137697318Y-107188000D01*
X137717956Y-107344762D01*
X137778464Y-107490841D01*
X137874718Y-107616282D01*
X138000159Y-107712536D01*
X138146238Y-107773044D01*
X138303000Y-107793682D01*
X138459762Y-107773044D01*
X138605841Y-107712536D01*
X138731282Y-107616282D01*
X138827536Y-107490841D01*
X138888044Y-107344762D01*
X138908682Y-107188000D01*
X138888044Y-107031238D01*
X138827536Y-106885159D01*
X138731282Y-106759718D01*
X138693595Y-106730800D01*
X140567518Y-106730800D01*
X140588156Y-106887562D01*
X140648664Y-107033641D01*
X140744918Y-107159082D01*
X140870359Y-107255336D01*
X141016438Y-107315844D01*
X141173200Y-107336482D01*
X141329962Y-107315844D01*
X141476041Y-107255336D01*
X141601482Y-107159082D01*
X141697736Y-107033641D01*
X141758244Y-106887562D01*
X141778882Y-106730800D01*
X141758244Y-106574038D01*
X141697736Y-106427959D01*
X141601482Y-106302518D01*
X141497591Y-106222800D01*
X146203137Y-106222800D01*
X146223684Y-106365713D01*
X146283662Y-106497046D01*
X146283663Y-106497047D01*
X146378213Y-106606164D01*
X146499675Y-106684223D01*
X146638209Y-106724900D01*
X146782591Y-106724900D01*
X146921125Y-106684223D01*
X147042587Y-106606164D01*
X147066645Y-106578400D01*
X153623118Y-106578400D01*
X153643756Y-106735162D01*
X153704264Y-106881241D01*
X153800518Y-107006682D01*
X153925959Y-107102936D01*
X154072038Y-107163444D01*
X154228800Y-107184082D01*
X154385562Y-107163444D01*
X154531641Y-107102936D01*
X154657082Y-107006682D01*
X154753336Y-106881241D01*
X154813844Y-106735162D01*
X154834482Y-106578400D01*
X154813844Y-106421638D01*
X154753336Y-106275559D01*
X154657082Y-106150118D01*
X154531641Y-106053864D01*
X154385562Y-105993356D01*
X154228800Y-105972718D01*
X154072038Y-105993356D01*
X153925958Y-106053864D01*
X153800518Y-106150118D01*
X153704264Y-106275558D01*
X153704264Y-106275559D01*
X153643756Y-106421638D01*
X153623118Y-106578400D01*
X147066645Y-106578400D01*
X147137137Y-106497047D01*
X147197115Y-106365713D01*
X147217663Y-106222800D01*
X147197115Y-106079887D01*
X147181182Y-106044999D01*
X147137137Y-105948553D01*
X147042587Y-105839436D01*
X146921125Y-105761377D01*
X146782591Y-105720700D01*
X146638209Y-105720700D01*
X146499674Y-105761377D01*
X146378212Y-105839436D01*
X146283662Y-105948553D01*
X146223684Y-106079886D01*
X146203137Y-106222800D01*
X141497591Y-106222800D01*
X141476041Y-106206264D01*
X141329962Y-106145756D01*
X141173200Y-106125118D01*
X141016438Y-106145756D01*
X140870358Y-106206264D01*
X140744918Y-106302518D01*
X140648664Y-106427958D01*
X140620047Y-106497046D01*
X140588156Y-106574038D01*
X140567518Y-106730800D01*
X138693595Y-106730800D01*
X138661778Y-106706386D01*
X138624132Y-106654828D01*
X138620336Y-106591100D01*
X138651596Y-106535437D01*
X138661779Y-106526613D01*
X138731282Y-106473282D01*
X138827536Y-106347841D01*
X138888044Y-106201762D01*
X138908682Y-106045000D01*
X138888044Y-105888238D01*
X138827536Y-105742159D01*
X138784636Y-105686251D01*
X147505500Y-105686251D01*
X147507693Y-105697277D01*
X147511424Y-105716037D01*
X147533990Y-105749810D01*
X147567763Y-105772376D01*
X147597545Y-105778300D01*
X149317654Y-105778299D01*
X149347437Y-105772376D01*
X149381210Y-105749810D01*
X149403776Y-105716037D01*
X149409700Y-105686255D01*
X149409700Y-105076201D01*
X149666963Y-105076201D01*
X149724166Y-105289683D01*
X149824001Y-105503780D01*
X149959489Y-105697277D01*
X150126522Y-105864310D01*
X150320019Y-105999798D01*
X150534109Y-106099630D01*
X150747600Y-106156834D01*
X150747600Y-105426152D01*
X150765586Y-105364897D01*
X150813833Y-105323091D01*
X150877021Y-105314005D01*
X150961837Y-105326200D01*
X150961839Y-105326200D01*
X151033361Y-105326200D01*
X151033363Y-105326200D01*
X151118177Y-105314005D01*
X151181365Y-105323090D01*
X151229613Y-105364896D01*
X151247600Y-105426151D01*
X151247600Y-106156833D01*
X151461089Y-106099630D01*
X151461090Y-106099630D01*
X151675180Y-105999798D01*
X151868677Y-105864310D01*
X152035710Y-105697277D01*
X152094582Y-105613199D01*
X158395137Y-105613199D01*
X158415684Y-105756113D01*
X158475662Y-105887446D01*
X158475663Y-105887447D01*
X158570213Y-105996564D01*
X158691675Y-106074623D01*
X158830209Y-106115300D01*
X158974591Y-106115300D01*
X159113125Y-106074623D01*
X159234587Y-105996564D01*
X159329137Y-105887447D01*
X159389115Y-105756113D01*
X159402359Y-105664000D01*
X161649518Y-105664000D01*
X161670156Y-105820762D01*
X161730664Y-105966841D01*
X161826918Y-106092282D01*
X161952359Y-106188536D01*
X162098438Y-106249044D01*
X162255200Y-106269682D01*
X162411962Y-106249044D01*
X162558041Y-106188536D01*
X162683482Y-106092282D01*
X162779736Y-105966841D01*
X162840244Y-105820762D01*
X162860882Y-105664000D01*
X162840244Y-105507238D01*
X162779736Y-105361159D01*
X162683482Y-105235718D01*
X162558041Y-105139464D01*
X162411962Y-105078956D01*
X162255200Y-105058318D01*
X162255199Y-105058318D01*
X162098438Y-105078956D01*
X161952358Y-105139464D01*
X161826918Y-105235718D01*
X161730664Y-105361158D01*
X161690848Y-105457282D01*
X161670156Y-105507238D01*
X161649518Y-105664000D01*
X159402359Y-105664000D01*
X159409663Y-105613200D01*
X159389115Y-105470287D01*
X159386232Y-105463975D01*
X159329137Y-105338953D01*
X159234587Y-105229836D01*
X159113125Y-105151777D01*
X158974591Y-105111100D01*
X158830209Y-105111100D01*
X158691674Y-105151777D01*
X158570212Y-105229836D01*
X158475662Y-105338953D01*
X158415684Y-105470286D01*
X158395137Y-105613199D01*
X152094582Y-105613199D01*
X152171198Y-105503780D01*
X152271033Y-105289683D01*
X152328236Y-105076201D01*
X152328236Y-105076200D01*
X151596653Y-105076200D01*
X151535398Y-105058214D01*
X151493592Y-105009967D01*
X151484506Y-104946776D01*
X151487943Y-104930979D01*
X151497600Y-104898091D01*
X151497600Y-104754308D01*
X151487943Y-104721421D01*
X151487942Y-104657581D01*
X151522457Y-104603874D01*
X151580528Y-104577353D01*
X151596653Y-104576200D01*
X152328236Y-104576200D01*
X152328236Y-104576198D01*
X152279415Y-104393999D01*
X157734737Y-104393999D01*
X157755284Y-104536913D01*
X157815262Y-104668246D01*
X157889838Y-104754311D01*
X157909813Y-104777364D01*
X158031275Y-104855423D01*
X158169809Y-104896100D01*
X158314191Y-104896100D01*
X158452725Y-104855423D01*
X158574187Y-104777364D01*
X158668737Y-104668247D01*
X158728715Y-104536913D01*
X158749263Y-104394000D01*
X158728715Y-104251087D01*
X158705590Y-104200451D01*
X158668737Y-104119753D01*
X158574187Y-104010636D01*
X158452725Y-103932577D01*
X158314191Y-103891900D01*
X158169809Y-103891900D01*
X158031274Y-103932577D01*
X157909812Y-104010636D01*
X157815262Y-104119753D01*
X157755284Y-104251086D01*
X157734737Y-104393999D01*
X152279415Y-104393999D01*
X152271034Y-104362720D01*
X152271030Y-104362708D01*
X152171198Y-104148620D01*
X152035711Y-103955123D01*
X151868677Y-103788089D01*
X151675180Y-103652601D01*
X151461083Y-103552766D01*
X151247601Y-103495563D01*
X151247600Y-103495564D01*
X151247600Y-104226247D01*
X151229614Y-104287502D01*
X151181367Y-104329308D01*
X151118176Y-104338394D01*
X151033367Y-104326200D01*
X151033363Y-104326200D01*
X150961837Y-104326200D01*
X150961832Y-104326200D01*
X150877024Y-104338394D01*
X150813833Y-104329308D01*
X150765586Y-104287501D01*
X150747600Y-104226247D01*
X150747600Y-103495564D01*
X150747598Y-103495563D01*
X150534120Y-103552765D01*
X150534108Y-103552769D01*
X150320020Y-103652601D01*
X150126523Y-103788088D01*
X149959488Y-103955123D01*
X149824001Y-104148620D01*
X149724169Y-104362708D01*
X149724165Y-104362720D01*
X149666963Y-104576198D01*
X149666964Y-104576200D01*
X150398547Y-104576200D01*
X150459802Y-104594186D01*
X150501608Y-104642433D01*
X150510694Y-104705624D01*
X150507257Y-104721421D01*
X150497600Y-104754308D01*
X150497600Y-104898091D01*
X150507257Y-104930979D01*
X150507258Y-104994819D01*
X150472743Y-105048526D01*
X150414672Y-105075047D01*
X150398547Y-105076200D01*
X149666964Y-105076200D01*
X149666963Y-105076201D01*
X149409700Y-105076201D01*
X149409699Y-103966146D01*
X149403776Y-103936363D01*
X149381210Y-103902590D01*
X149347437Y-103880024D01*
X149347436Y-103880023D01*
X149317655Y-103874100D01*
X147597548Y-103874100D01*
X147567768Y-103880023D01*
X147567763Y-103880024D01*
X147533992Y-103902589D01*
X147533989Y-103902591D01*
X147511423Y-103936363D01*
X147505500Y-103966141D01*
X147505500Y-105686251D01*
X138784636Y-105686251D01*
X138731282Y-105616718D01*
X138731280Y-105616716D01*
X138726761Y-105610827D01*
X138727807Y-105610024D01*
X138701083Y-105561084D01*
X138705638Y-105497406D01*
X138727348Y-105463623D01*
X138726761Y-105463173D01*
X138731280Y-105457283D01*
X138731282Y-105457282D01*
X138827536Y-105331841D01*
X138888044Y-105185762D01*
X138908682Y-105029000D01*
X138905338Y-105003600D01*
X139195918Y-105003600D01*
X139216556Y-105160362D01*
X139277064Y-105306441D01*
X139373318Y-105431882D01*
X139498759Y-105528136D01*
X139644838Y-105588644D01*
X139801600Y-105609282D01*
X139958362Y-105588644D01*
X140104441Y-105528136D01*
X140229882Y-105431882D01*
X140326136Y-105306441D01*
X140386644Y-105160362D01*
X140407282Y-105003600D01*
X140386644Y-104846838D01*
X140326136Y-104700759D01*
X140229882Y-104575318D01*
X140104441Y-104479064D01*
X139958362Y-104418556D01*
X139801600Y-104397918D01*
X139644838Y-104418556D01*
X139498758Y-104479064D01*
X139373318Y-104575318D01*
X139277064Y-104700758D01*
X139245333Y-104777364D01*
X139216556Y-104846838D01*
X139195918Y-105003600D01*
X138905338Y-105003600D01*
X138888044Y-104872238D01*
X138827536Y-104726159D01*
X138731282Y-104600718D01*
X138605841Y-104504464D01*
X138459762Y-104443956D01*
X138459759Y-104443955D01*
X138459758Y-104443955D01*
X138422854Y-104439096D01*
X138364472Y-104413268D01*
X138329321Y-104359975D01*
X138328563Y-104296139D01*
X138332970Y-104283408D01*
X138346358Y-104251086D01*
X138380044Y-104169762D01*
X138400682Y-104013000D01*
X138380044Y-103856238D01*
X138319536Y-103710159D01*
X138223282Y-103584718D01*
X138153778Y-103531386D01*
X138116132Y-103479828D01*
X138112336Y-103416100D01*
X138143596Y-103360437D01*
X138153779Y-103351613D01*
X138223282Y-103298282D01*
X138240073Y-103276400D01*
X156363137Y-103276400D01*
X156365719Y-103294364D01*
X156383684Y-103419313D01*
X156443662Y-103550646D01*
X156473186Y-103584718D01*
X156538213Y-103659764D01*
X156659675Y-103737823D01*
X156798209Y-103778500D01*
X156942591Y-103778500D01*
X157081125Y-103737823D01*
X157202587Y-103659764D01*
X157297137Y-103550647D01*
X157357115Y-103419313D01*
X157377663Y-103276400D01*
X157360069Y-103154034D01*
X157357115Y-103133486D01*
X157352783Y-103124000D01*
X158804718Y-103124000D01*
X158825356Y-103280762D01*
X158885864Y-103426841D01*
X158982118Y-103552282D01*
X159107559Y-103648536D01*
X159253638Y-103709044D01*
X159410400Y-103729682D01*
X159567162Y-103709044D01*
X159713241Y-103648536D01*
X159838682Y-103552282D01*
X159934936Y-103426841D01*
X159995444Y-103280762D01*
X160016082Y-103124000D01*
X159995444Y-102967238D01*
X159934936Y-102821159D01*
X159838682Y-102695718D01*
X159835531Y-102693300D01*
X162716318Y-102693300D01*
X162736956Y-102850062D01*
X162797464Y-102996141D01*
X162893718Y-103121582D01*
X163019159Y-103217836D01*
X163165238Y-103278344D01*
X163322000Y-103298982D01*
X163478762Y-103278344D01*
X163624841Y-103217836D01*
X163750282Y-103121582D01*
X163846536Y-102996141D01*
X163907044Y-102850062D01*
X163927682Y-102693300D01*
X163916715Y-102610000D01*
X170575715Y-102610000D01*
X170619440Y-102754147D01*
X170714621Y-102932216D01*
X170842706Y-103088290D01*
X170842709Y-103088293D01*
X170998783Y-103216378D01*
X171176852Y-103311559D01*
X171176861Y-103311562D01*
X171370066Y-103370170D01*
X171520635Y-103385000D01*
X171971274Y-103385000D01*
X172032529Y-103402986D01*
X172074335Y-103451233D01*
X172083421Y-103514424D01*
X172075950Y-103541657D01*
X172035313Y-103639762D01*
X172015534Y-103789999D01*
X172015534Y-103790000D01*
X172035313Y-103940236D01*
X172046046Y-103966148D01*
X172093300Y-104080230D01*
X172093301Y-104080232D01*
X172093302Y-104080233D01*
X172185549Y-104200451D01*
X172305767Y-104292698D01*
X172445764Y-104350687D01*
X172558280Y-104365500D01*
X172558286Y-104365500D01*
X172633714Y-104365500D01*
X172633720Y-104365500D01*
X172746236Y-104350687D01*
X172886233Y-104292698D01*
X173006451Y-104200451D01*
X173098698Y-104080233D01*
X173156687Y-103940236D01*
X173176466Y-103790000D01*
X173156687Y-103639764D01*
X173098698Y-103499767D01*
X173053275Y-103440571D01*
X173030257Y-103381029D01*
X173043084Y-103318491D01*
X173087685Y-103272814D01*
X173089755Y-103271680D01*
X173193216Y-103216378D01*
X173349290Y-103088293D01*
X173349293Y-103088290D01*
X173477378Y-102932216D01*
X173572559Y-102754147D01*
X173616285Y-102610001D01*
X174905528Y-102610001D01*
X174968686Y-102780531D01*
X174968687Y-102780533D01*
X175070888Y-102944497D01*
X175204005Y-103084538D01*
X175362582Y-103194911D01*
X175362584Y-103194912D01*
X175540138Y-103271106D01*
X175540136Y-103271106D01*
X175729397Y-103310000D01*
X176026000Y-103310000D01*
X176026000Y-102773300D01*
X176043986Y-102712045D01*
X176092233Y-102670239D01*
X176139300Y-102660000D01*
X176412700Y-102660000D01*
X176473955Y-102677986D01*
X176515761Y-102726233D01*
X176526000Y-102773300D01*
X176526000Y-103310000D01*
X176774170Y-103310000D01*
X176918222Y-103295351D01*
X177102571Y-103237511D01*
X177271497Y-103143749D01*
X177271503Y-103143745D01*
X177418102Y-103017894D01*
X177536370Y-102865106D01*
X177536371Y-102865104D01*
X177621459Y-102691641D01*
X177642597Y-102610000D01*
X177066810Y-102610000D01*
X177005555Y-102592014D01*
X176963749Y-102543767D01*
X176954663Y-102480576D01*
X176957835Y-102465695D01*
X176971136Y-102418943D01*
X176979895Y-102388160D01*
X176969546Y-102276479D01*
X176968213Y-102273803D01*
X176967255Y-102268425D01*
X176966673Y-102266380D01*
X176966879Y-102266321D01*
X176957010Y-102210955D01*
X176981563Y-102152025D01*
X177034078Y-102115724D01*
X177069635Y-102110000D01*
X177646470Y-102110000D01*
X177646471Y-102109998D01*
X177583313Y-101939468D01*
X177583312Y-101939466D01*
X177481111Y-101775502D01*
X177347994Y-101635461D01*
X177189417Y-101525088D01*
X177189415Y-101525087D01*
X177011861Y-101448893D01*
X177011863Y-101448893D01*
X176822603Y-101410000D01*
X176526000Y-101410000D01*
X176526000Y-101946700D01*
X176508014Y-102007955D01*
X176459767Y-102049761D01*
X176412700Y-102060000D01*
X176139300Y-102060000D01*
X176078045Y-102042014D01*
X176036239Y-101993767D01*
X176026000Y-101946700D01*
X176026000Y-101410000D01*
X175777830Y-101410000D01*
X175633777Y-101424648D01*
X175449428Y-101482488D01*
X175280502Y-101576250D01*
X175280496Y-101576254D01*
X175133897Y-101702105D01*
X175015629Y-101854893D01*
X175015628Y-101854895D01*
X174930540Y-102028358D01*
X174909403Y-102109999D01*
X174909404Y-102110000D01*
X175485190Y-102110000D01*
X175546445Y-102127986D01*
X175588251Y-102176233D01*
X175597337Y-102239424D01*
X175594165Y-102254305D01*
X175572105Y-102331837D01*
X175572105Y-102331839D01*
X175572105Y-102331840D01*
X175577324Y-102388160D01*
X175582454Y-102443520D01*
X175583786Y-102446195D01*
X175584744Y-102451574D01*
X175585327Y-102453620D01*
X175585120Y-102453678D01*
X175594990Y-102509045D01*
X175570437Y-102567975D01*
X175517922Y-102604276D01*
X175482365Y-102610000D01*
X174905530Y-102610000D01*
X174905528Y-102610001D01*
X173616285Y-102610001D01*
X173616285Y-102610000D01*
X173036810Y-102610000D01*
X172975555Y-102592014D01*
X172933749Y-102543767D01*
X172924663Y-102480576D01*
X172927835Y-102465695D01*
X172941136Y-102418943D01*
X172949895Y-102388160D01*
X172939546Y-102276479D01*
X172938213Y-102273803D01*
X172937255Y-102268425D01*
X172936673Y-102266380D01*
X172936879Y-102266321D01*
X172927010Y-102210955D01*
X172951563Y-102152025D01*
X173004078Y-102115724D01*
X173039635Y-102110000D01*
X173616285Y-102110000D01*
X173572559Y-101965852D01*
X173477378Y-101787783D01*
X173349293Y-101631709D01*
X173349290Y-101631706D01*
X173193216Y-101503621D01*
X173015147Y-101408440D01*
X173015138Y-101408437D01*
X172821933Y-101349829D01*
X172671365Y-101335000D01*
X172346000Y-101335000D01*
X172346000Y-101946700D01*
X172328014Y-102007955D01*
X172279767Y-102049761D01*
X172232700Y-102060000D01*
X171959300Y-102060000D01*
X171898045Y-102042014D01*
X171856239Y-101993767D01*
X171846000Y-101946700D01*
X171846000Y-101335000D01*
X171520635Y-101335000D01*
X171370066Y-101349829D01*
X171176861Y-101408437D01*
X171176852Y-101408440D01*
X170998783Y-101503621D01*
X170842709Y-101631706D01*
X170842706Y-101631709D01*
X170714621Y-101787783D01*
X170619440Y-101965852D01*
X170575715Y-102110000D01*
X171155190Y-102110000D01*
X171216445Y-102127986D01*
X171258251Y-102176233D01*
X171267337Y-102239424D01*
X171264165Y-102254305D01*
X171242105Y-102331837D01*
X171242105Y-102331839D01*
X171242105Y-102331840D01*
X171247324Y-102388160D01*
X171252454Y-102443520D01*
X171253786Y-102446195D01*
X171254744Y-102451574D01*
X171255327Y-102453620D01*
X171255120Y-102453678D01*
X171264990Y-102509045D01*
X171240437Y-102567975D01*
X171187922Y-102604276D01*
X171152365Y-102610000D01*
X170575715Y-102610000D01*
X163916715Y-102610000D01*
X163907044Y-102536538D01*
X163846536Y-102390459D01*
X163750282Y-102265018D01*
X163624841Y-102168764D01*
X163478762Y-102108256D01*
X163322000Y-102087618D01*
X163321999Y-102087618D01*
X163165238Y-102108256D01*
X163019158Y-102168764D01*
X162893718Y-102265018D01*
X162797464Y-102390458D01*
X162797464Y-102390459D01*
X162736956Y-102536538D01*
X162716318Y-102693300D01*
X159835531Y-102693300D01*
X159713241Y-102599464D01*
X159567162Y-102538956D01*
X159410400Y-102518318D01*
X159253638Y-102538956D01*
X159107558Y-102599464D01*
X158982118Y-102695718D01*
X158885864Y-102821158D01*
X158839863Y-102932216D01*
X158825356Y-102967238D01*
X158804718Y-103124000D01*
X157352783Y-103124000D01*
X157297137Y-103002153D01*
X157202587Y-102893036D01*
X157081125Y-102814977D01*
X156942591Y-102774300D01*
X156798209Y-102774300D01*
X156659674Y-102814977D01*
X156538212Y-102893036D01*
X156443662Y-103002153D01*
X156383684Y-103133486D01*
X156363137Y-103276399D01*
X156363137Y-103276400D01*
X138240073Y-103276400D01*
X138319536Y-103172841D01*
X138380044Y-103026762D01*
X138400682Y-102870000D01*
X138380044Y-102713238D01*
X138319536Y-102567159D01*
X138223282Y-102441718D01*
X138097841Y-102345464D01*
X137951762Y-102284956D01*
X137795000Y-102264318D01*
X137638238Y-102284956D01*
X137492158Y-102345464D01*
X137366718Y-102441718D01*
X137270464Y-102567158D01*
X137252718Y-102610001D01*
X137209956Y-102713238D01*
X137189318Y-102870000D01*
X137209956Y-103026762D01*
X137270464Y-103172841D01*
X137366717Y-103298281D01*
X137366720Y-103298284D01*
X137436220Y-103351614D01*
X137473867Y-103403173D01*
X137477663Y-103466900D01*
X137446403Y-103522563D01*
X137436220Y-103531386D01*
X137366720Y-103584715D01*
X137270464Y-103710158D01*
X137259005Y-103737823D01*
X137209956Y-103856238D01*
X137189318Y-104013000D01*
X127930272Y-104013000D01*
X127840187Y-103909036D01*
X127718725Y-103830977D01*
X127580191Y-103790300D01*
X127435809Y-103790300D01*
X127297274Y-103830977D01*
X127175812Y-103909036D01*
X127081262Y-104018153D01*
X127021284Y-104149486D01*
X127000737Y-104292399D01*
X125546623Y-104292399D01*
X125666451Y-104200451D01*
X125758698Y-104080233D01*
X125816687Y-103940236D01*
X125836466Y-103790000D01*
X125816687Y-103639764D01*
X125793885Y-103584715D01*
X125776050Y-103541657D01*
X125769226Y-103478183D01*
X125797803Y-103421095D01*
X125852707Y-103388519D01*
X125880726Y-103385000D01*
X126331365Y-103385000D01*
X126481933Y-103370170D01*
X126675138Y-103311562D01*
X126675147Y-103311559D01*
X126853216Y-103216378D01*
X127009290Y-103088293D01*
X127009293Y-103088290D01*
X127137378Y-102932216D01*
X127232559Y-102754147D01*
X127276285Y-102610000D01*
X126696810Y-102610000D01*
X126635555Y-102592014D01*
X126593749Y-102543767D01*
X126584663Y-102480576D01*
X126587835Y-102465695D01*
X126601136Y-102418943D01*
X126609895Y-102388160D01*
X126599546Y-102276479D01*
X126598213Y-102273803D01*
X126597255Y-102268425D01*
X126596673Y-102266380D01*
X126596879Y-102266321D01*
X126587010Y-102210955D01*
X126611563Y-102152025D01*
X126664078Y-102115724D01*
X126699635Y-102110000D01*
X127276285Y-102110000D01*
X127232559Y-101965852D01*
X127137378Y-101787783D01*
X127009293Y-101631709D01*
X127009290Y-101631706D01*
X126853216Y-101503621D01*
X126748407Y-101447599D01*
X137008337Y-101447599D01*
X137028884Y-101590513D01*
X137088862Y-101721846D01*
X137145997Y-101787783D01*
X137183413Y-101830964D01*
X137304875Y-101909023D01*
X137443409Y-101949700D01*
X137587791Y-101949700D01*
X137726325Y-101909023D01*
X137847787Y-101830964D01*
X137915863Y-101752400D01*
X156617137Y-101752400D01*
X156637684Y-101895313D01*
X156697662Y-102026646D01*
X156769888Y-102109999D01*
X156792213Y-102135764D01*
X156913675Y-102213823D01*
X157052209Y-102254500D01*
X157196591Y-102254500D01*
X157335125Y-102213823D01*
X157456587Y-102135764D01*
X157551137Y-102026647D01*
X157611115Y-101895313D01*
X157631663Y-101752400D01*
X157611115Y-101609487D01*
X157595936Y-101576250D01*
X157551137Y-101478153D01*
X157456587Y-101369036D01*
X157335125Y-101290977D01*
X157196591Y-101250300D01*
X157052209Y-101250300D01*
X156913674Y-101290977D01*
X156792212Y-101369036D01*
X156697662Y-101478153D01*
X156637684Y-101609486D01*
X156617137Y-101752400D01*
X137915863Y-101752400D01*
X137942337Y-101721847D01*
X138002315Y-101590513D01*
X138022863Y-101447600D01*
X138002315Y-101304687D01*
X137977477Y-101250300D01*
X137942337Y-101173353D01*
X137847787Y-101064236D01*
X137726325Y-100986177D01*
X137587791Y-100945500D01*
X137443409Y-100945500D01*
X137304874Y-100986177D01*
X137183412Y-101064236D01*
X137088862Y-101173353D01*
X137028884Y-101304686D01*
X137008337Y-101447599D01*
X126748407Y-101447599D01*
X126675147Y-101408440D01*
X126675138Y-101408437D01*
X126481933Y-101349829D01*
X126331365Y-101335000D01*
X126006000Y-101335000D01*
X126006000Y-101946700D01*
X125988014Y-102007955D01*
X125939767Y-102049761D01*
X125892700Y-102060000D01*
X125619300Y-102060000D01*
X125558045Y-102042014D01*
X125516239Y-101993767D01*
X125506000Y-101946700D01*
X125506000Y-101335000D01*
X125180635Y-101335000D01*
X125030066Y-101349829D01*
X124836861Y-101408437D01*
X124836852Y-101408440D01*
X124658783Y-101503621D01*
X124502709Y-101631706D01*
X124502706Y-101631709D01*
X124374621Y-101787783D01*
X124279440Y-101965852D01*
X124235715Y-102110000D01*
X124815190Y-102110000D01*
X124876445Y-102127986D01*
X124918251Y-102176233D01*
X124927337Y-102239424D01*
X124924165Y-102254305D01*
X124902105Y-102331837D01*
X124902105Y-102331839D01*
X124902105Y-102331840D01*
X124907324Y-102388160D01*
X124912454Y-102443520D01*
X124913786Y-102446195D01*
X124914744Y-102451574D01*
X124915327Y-102453620D01*
X124915120Y-102453678D01*
X124924990Y-102509045D01*
X124900437Y-102567975D01*
X124847922Y-102604276D01*
X124812365Y-102610000D01*
X124235715Y-102610000D01*
X122942597Y-102610000D01*
X122366810Y-102610000D01*
X122305555Y-102592014D01*
X122263749Y-102543767D01*
X122254663Y-102480576D01*
X122257835Y-102465695D01*
X122271136Y-102418943D01*
X122279895Y-102388160D01*
X122269546Y-102276479D01*
X122268213Y-102273803D01*
X122267255Y-102268425D01*
X122266673Y-102266380D01*
X122266879Y-102266321D01*
X122257010Y-102210955D01*
X122281563Y-102152025D01*
X122334078Y-102115724D01*
X122369635Y-102110000D01*
X122946470Y-102110000D01*
X122946471Y-102109998D01*
X122883313Y-101939468D01*
X122883312Y-101939466D01*
X122781111Y-101775502D01*
X122647994Y-101635461D01*
X122489417Y-101525088D01*
X122489415Y-101525087D01*
X122311861Y-101448893D01*
X122311863Y-101448893D01*
X122122603Y-101410000D01*
X121826000Y-101410000D01*
X121826000Y-101946700D01*
X121808014Y-102007955D01*
X121759767Y-102049761D01*
X121712700Y-102060000D01*
X121439300Y-102060000D01*
X121378045Y-102042014D01*
X121336239Y-101993767D01*
X121326000Y-101946700D01*
X121326000Y-101410000D01*
X121077830Y-101410000D01*
X120933777Y-101424648D01*
X120749428Y-101482488D01*
X120580502Y-101576250D01*
X120580496Y-101576254D01*
X120433897Y-101702105D01*
X120315629Y-101854893D01*
X120315628Y-101854895D01*
X120230540Y-102028358D01*
X120209403Y-102109999D01*
X120209404Y-102110000D01*
X120785190Y-102110000D01*
X120846445Y-102127986D01*
X120888251Y-102176233D01*
X120897337Y-102239424D01*
X120894165Y-102254305D01*
X120872105Y-102331837D01*
X120872105Y-102331839D01*
X120872105Y-102331840D01*
X120877324Y-102388160D01*
X120882454Y-102443520D01*
X120883786Y-102446195D01*
X120884744Y-102451574D01*
X120885327Y-102453620D01*
X120885120Y-102453678D01*
X120894990Y-102509045D01*
X120870437Y-102567975D01*
X120817922Y-102604276D01*
X120782365Y-102610000D01*
X120205530Y-102610000D01*
X120205528Y-102610001D01*
X119000000Y-102610001D01*
X119000000Y-100838000D01*
X154207318Y-100838000D01*
X154227956Y-100994762D01*
X154288464Y-101140841D01*
X154384718Y-101266282D01*
X154510159Y-101362536D01*
X154656238Y-101423044D01*
X154813000Y-101443682D01*
X154969762Y-101423044D01*
X155115841Y-101362536D01*
X155241282Y-101266282D01*
X155337536Y-101140841D01*
X155398044Y-100994762D01*
X155418682Y-100838000D01*
X155398044Y-100681238D01*
X155337536Y-100535159D01*
X155241282Y-100409718D01*
X155115841Y-100313464D01*
X154969762Y-100252956D01*
X154813000Y-100232318D01*
X154656238Y-100252956D01*
X154510158Y-100313464D01*
X154384718Y-100409718D01*
X154288464Y-100535158D01*
X154288464Y-100535159D01*
X154227956Y-100681238D01*
X154207318Y-100838000D01*
X119000000Y-100838000D01*
X119000000Y-98014436D01*
X119017986Y-97953181D01*
X119033180Y-97934326D01*
X119934323Y-97033183D01*
X119990352Y-97002589D01*
X120014436Y-97000000D01*
X177964762Y-97000000D01*
X178026017Y-97017986D01*
G37*
%TD.AperFunction*%
%TD*%
M02*
