M48
; DRILL file {KiCad 7.0.7} date Mon 25 Sep 2023 05:24:37 PM CDT
; FORMAT={-:-/ absolute / inch / decimal}
; #@! TF.CreationDate,2023-09-25T17:24:37-05:00
; #@! TF.GenerationSoftware,Kicad,Pcbnew,7.0.7
; #@! TF.FileFunction,Plated,1,4,PTH
FMAT,2
INCH
; #@! TA.AperFunction,Plated,PTH,ViaDrill
T1C0.0157
; #@! TA.AperFunction,Plated,PTH,ComponentDrill
T2C0.0236
; #@! TA.AperFunction,Plated,PTH,ComponentDrill
T3C0.0394
%
G90
G05
T1
X4.928Y-4.478
X5.02Y-4.106
X5.036Y-4.254
X5.036Y-4.876
X5.036Y-5.04
X5.178Y-4.446
X5.235Y-4.135
X5.235Y-4.175
X5.235Y-4.22
X5.244Y-5.126
X5.284Y-4.964
X5.284Y-5.014
X5.288Y-4.8
X5.312Y-3.978
X5.32Y-3.914
X5.342Y-4.962
X5.342Y-5.014
X5.4Y-4.962
X5.4Y-5.014
X5.414Y-3.994
X5.425Y-4.05
X5.425Y-4.095
X5.432Y-3.908
X5.44Y-4.635
X5.445Y-4.135
X5.445Y-4.175
X5.445Y-4.22
X5.456Y-5.042
X5.485Y-4.635
X5.504Y-4.134
X5.506Y-3.93
X5.526Y-5.042
X5.532Y-4.81
X5.556Y-4.266
X5.558Y-4.202
X5.59Y-4.66
X5.602Y-4.962
X5.602Y-5.014
X5.624Y-4.248
X5.634Y-3.982
X5.644Y-4.528
X5.658Y-4.808
X5.692Y-3.986
X5.7Y-5.036
X5.702Y-5.002
X5.714Y-4.848
X5.752Y-4.242
X5.764Y-4.874
X5.7681Y-4.97
X5.776Y-4.182
X5.798Y-5.192
X5.802Y-4.808
X5.838Y-4.336
X5.858Y-4.466
X5.872Y-4.58
X5.892Y-4.966
X5.894Y-4.52
X5.896Y-4.002
X5.914Y-4.854
X5.916Y-4.906
X5.922Y-4.806
X5.926Y-4.368
X5.926Y-4.632
X5.946Y-4.06
X5.95Y-4.3
X5.952Y-4.22
X5.962Y-5.056
X5.964Y-5.128
X6.067Y-4.719
X6.072Y-4.196
X6.072Y-4.532
X6.08Y-4.806
X6.095Y-3.97
X6.102Y-4.338
X6.134Y-4.646
X6.1608Y-4.4779
X6.176Y-4.066
X6.186Y-4.006
X6.196Y-4.46
X6.196Y-4.752
X6.202Y-4.544
X6.23Y-4.11
X6.23Y-4.834
X6.234Y-5.01
X6.256Y-4.158
X6.262Y-4.604
X6.268Y-4.404
X6.272Y-4.112
X6.276Y-4.06
X6.305Y-4.6573
X6.308Y-4.468
X6.313Y-4.824
X6.336Y-4.404
X6.336Y-4.64
X6.348Y-4.494
X6.386Y-4.43
X6.388Y-4.16
X6.395Y-4.69
X6.395Y-4.745
X6.418Y-4.864
X6.43Y-4.043
X6.432Y-4.11
X6.448Y-4.832
X6.45Y-4.77
X6.457Y-4.691
X6.522Y-4.706
X6.573Y-4.961
T3
X5.81Y-4.472
X5.81Y-4.572
X5.81Y-4.672
X5.8448Y-4.127
X5.9448Y-4.127
T2
G00X4.7973Y-4.8037
M15
G01X4.7658Y-4.8037
M16
G05
G00X4.7973Y-5.1439
M15
G01X4.7658Y-5.1439
M16
G05
G00X4.8022Y-4.0299
M15
G01X4.7707Y-4.0299
M16
G05
G00X4.8022Y-4.3701
M15
G01X4.7707Y-4.3701
M16
G05
G00X4.9678Y-4.8037
M15
G01X4.9245Y-4.8037
M16
G05
G00X4.9678Y-5.1439
M15
G01X4.9245Y-5.1439
M16
G05
G00X4.9727Y-4.0299
M15
G01X4.9294Y-4.0299
M16
G05
G00X4.9727Y-4.3701
M15
G01X4.9294Y-4.3701
M16
G05
G00X6.7538Y-4.0299
M15
G01X6.7971Y-4.0299
M16
G05
G00X6.7538Y-4.3701
M15
G01X6.7971Y-4.3701
M16
G05
G00X6.7538Y-4.7999
M15
G01X6.7971Y-4.7999
M16
G05
G00X6.7538Y-5.1401
M15
G01X6.7971Y-5.1401
M16
G05
G00X6.9243Y-4.0299
M15
G01X6.9557Y-4.0299
M16
G05
G00X6.9243Y-4.3701
M15
G01X6.9557Y-4.3701
M16
G05
G00X6.9243Y-4.7999
M15
G01X6.9557Y-4.7999
M16
G05
G00X6.9243Y-5.1401
M15
G01X6.9557Y-5.1401
M16
G05
T0
M30
