%TF.GenerationSoftware,KiCad,Pcbnew,7.0.7*%
%TF.CreationDate,2023-09-25T17:24:45-05:00*%
%TF.ProjectId,KiVM,4b69564d-2e6b-4696-9361-645f70636258,rev?*%
%TF.SameCoordinates,Original*%
%TF.FileFunction,Soldermask,Top*%
%TF.FilePolarity,Negative*%
%FSLAX46Y46*%
G04 Gerber Fmt 4.6, Leading zero omitted, Abs format (unit mm)*
G04 Created by KiCad (PCBNEW 7.0.7) date 2023-09-25 17:24:45*
%MOMM*%
%LPD*%
G01*
G04 APERTURE LIST*
G04 Aperture macros list*
%AMRoundRect*
0 Rectangle with rounded corners*
0 $1 Rounding radius*
0 $2 $3 $4 $5 $6 $7 $8 $9 X,Y pos of 4 corners*
0 Add a 4 corners polygon primitive as box body*
4,1,4,$2,$3,$4,$5,$6,$7,$8,$9,$2,$3,0*
0 Add four circle primitives for the rounded corners*
1,1,$1+$1,$2,$3*
1,1,$1+$1,$4,$5*
1,1,$1+$1,$6,$7*
1,1,$1+$1,$8,$9*
0 Add four rect primitives between the rounded corners*
20,1,$1+$1,$2,$3,$4,$5,0*
20,1,$1+$1,$4,$5,$6,$7,0*
20,1,$1+$1,$6,$7,$8,$9,0*
20,1,$1+$1,$8,$9,$2,$3,0*%
%AMRotRect*
0 Rectangle, with rotation*
0 The origin of the aperture is its center*
0 $1 length*
0 $2 width*
0 $3 Rotation angle, in degrees counterclockwise*
0 Add horizontal line*
21,1,$1,$2,0,0,$3*%
G04 Aperture macros list end*
%ADD10RoundRect,0.237500X-0.237500X0.300000X-0.237500X-0.300000X0.237500X-0.300000X0.237500X0.300000X0*%
%ADD11RoundRect,0.150000X-0.625000X-0.150000X0.625000X-0.150000X0.625000X0.150000X-0.625000X0.150000X0*%
%ADD12RoundRect,0.150000X0.625000X0.150000X-0.625000X0.150000X-0.625000X-0.150000X0.625000X-0.150000X0*%
%ADD13RoundRect,0.237500X-0.250000X-0.237500X0.250000X-0.237500X0.250000X0.237500X-0.250000X0.237500X0*%
%ADD14RoundRect,0.237500X-0.237500X0.250000X-0.237500X-0.250000X0.237500X-0.250000X0.237500X0.250000X0*%
%ADD15C,0.650000*%
%ADD16R,1.140000X0.600000*%
%ADD17R,1.140000X0.300000*%
%ADD18O,2.100000X1.050000*%
%ADD19O,1.800000X0.900000*%
%ADD20RoundRect,0.237500X0.237500X-0.300000X0.237500X0.300000X-0.237500X0.300000X-0.237500X-0.300000X0*%
%ADD21RoundRect,0.250000X-0.412500X-0.650000X0.412500X-0.650000X0.412500X0.650000X-0.412500X0.650000X0*%
%ADD22RoundRect,0.250000X-0.325000X-0.450000X0.325000X-0.450000X0.325000X0.450000X-0.325000X0.450000X0*%
%ADD23RoundRect,0.237500X-0.300000X-0.237500X0.300000X-0.237500X0.300000X0.237500X-0.300000X0.237500X0*%
%ADD24RoundRect,0.250000X0.650000X-0.412500X0.650000X0.412500X-0.650000X0.412500X-0.650000X-0.412500X0*%
%ADD25RotRect,1.150000X1.000000X135.000000*%
%ADD26RoundRect,0.237500X0.237500X-0.250000X0.237500X0.250000X-0.237500X0.250000X-0.237500X-0.250000X0*%
%ADD27RoundRect,0.237500X0.300000X0.237500X-0.300000X0.237500X-0.300000X-0.237500X0.300000X-0.237500X0*%
%ADD28RoundRect,0.237500X-0.380070X0.044194X0.044194X-0.380070X0.380070X-0.044194X-0.044194X0.380070X0*%
%ADD29RoundRect,0.237500X0.250000X0.237500X-0.250000X0.237500X-0.250000X-0.237500X0.250000X-0.237500X0*%
%ADD30R,1.700000X1.700000*%
%ADD31O,1.700000X1.700000*%
%ADD32RoundRect,0.235000X1.465000X-0.940000X1.465000X0.940000X-1.465000X0.940000X-1.465000X-0.940000X0*%
%ADD33R,0.254000X0.914400*%
%ADD34R,2.590800X1.397000*%
%ADD35R,1.400000X0.300000*%
%ADD36RoundRect,0.250000X0.325000X0.450000X-0.325000X0.450000X-0.325000X-0.450000X0.325000X-0.450000X0*%
%ADD37R,0.812800X0.254000*%
%ADD38R,0.254000X0.812800*%
%ADD39R,2.489200X2.489200*%
%ADD40RoundRect,0.237500X0.044194X0.380070X-0.380070X-0.044194X-0.044194X-0.380070X0.380070X0.044194X0*%
G04 APERTURE END LIST*
D10*
%TO.C,C5*%
X154889200Y-117857100D03*
X154889200Y-119582100D03*
%TD*%
D11*
%TO.C,U3*%
X155394100Y-101879400D03*
X155394100Y-103149400D03*
X155394100Y-104419400D03*
X155394100Y-105689400D03*
X160794100Y-105689400D03*
X160794100Y-104419400D03*
D12*
X160794100Y-103149400D03*
D11*
X160794100Y-101879400D03*
%TD*%
D13*
%TO.C,R4*%
X127916300Y-125069600D03*
X129741300Y-125069600D03*
%TD*%
D14*
%TO.C,R1*%
X144881600Y-116283100D03*
X144881600Y-118108100D03*
%TD*%
D15*
%TO.C,P1*%
X125256000Y-103790000D03*
X125256000Y-109570000D03*
D16*
X126326000Y-103480000D03*
X126326000Y-104280000D03*
D17*
X126326000Y-105430000D03*
X126326000Y-106430000D03*
X126326000Y-106930000D03*
X126326000Y-107930000D03*
D16*
X126326000Y-109080000D03*
X126326000Y-109880000D03*
X126326000Y-109880000D03*
X126326000Y-109080000D03*
D17*
X126326000Y-108430000D03*
X126326000Y-107430000D03*
X126326000Y-105930000D03*
X126326000Y-104930000D03*
D16*
X126326000Y-104280000D03*
X126326000Y-103480000D03*
D18*
X125756000Y-102360000D03*
D19*
X121576000Y-102360000D03*
D18*
X125756000Y-111000000D03*
D19*
X121576000Y-111000000D03*
%TD*%
D10*
%TO.C,C40*%
X144018000Y-125832700D03*
X144018000Y-127557700D03*
%TD*%
%TO.C,C16*%
X164782500Y-117857100D03*
X164782500Y-119582100D03*
%TD*%
D13*
%TO.C,R6*%
X150524200Y-114858800D03*
X152349200Y-114858800D03*
%TD*%
D10*
%TO.C,C9*%
X161671000Y-117857100D03*
X161671000Y-119582100D03*
%TD*%
D13*
%TO.C,R20*%
X167946500Y-126796800D03*
X169771500Y-126796800D03*
%TD*%
D15*
%TO.C,P3*%
X172596000Y-129128000D03*
X172596000Y-123348000D03*
D16*
X171526000Y-129438000D03*
X171526000Y-128638000D03*
D17*
X171526000Y-127488000D03*
X171526000Y-126488000D03*
X171526000Y-125988000D03*
X171526000Y-124988000D03*
D16*
X171526000Y-123838000D03*
X171526000Y-123038000D03*
X171526000Y-123038000D03*
X171526000Y-123838000D03*
D17*
X171526000Y-124488000D03*
X171526000Y-125488000D03*
X171526000Y-126988000D03*
X171526000Y-127988000D03*
D16*
X171526000Y-128638000D03*
X171526000Y-129438000D03*
D18*
X172096000Y-130558000D03*
D19*
X176276000Y-130558000D03*
D18*
X172096000Y-121918000D03*
D19*
X176276000Y-121918000D03*
%TD*%
D20*
%TO.C,C37*%
X141833600Y-117296100D03*
X141833600Y-115571100D03*
%TD*%
D21*
%TO.C,C20*%
X148957900Y-108204000D03*
X152082900Y-108204000D03*
%TD*%
D13*
%TO.C,R18*%
X167946500Y-125222000D03*
X169771500Y-125222000D03*
%TD*%
D22*
%TO.C,D1*%
X128057800Y-110896400D03*
X130107800Y-110896400D03*
%TD*%
D14*
%TO.C,R22*%
X153568400Y-101041200D03*
X153568400Y-102866200D03*
%TD*%
D23*
%TO.C,C27*%
X147524300Y-123291600D03*
X149249300Y-123291600D03*
%TD*%
D24*
%TO.C,C13*%
X134010400Y-103314900D03*
X134010400Y-100189900D03*
%TD*%
D13*
%TO.C,R21*%
X168059900Y-107899200D03*
X169884900Y-107899200D03*
%TD*%
D20*
%TO.C,C2*%
X145846800Y-103174800D03*
X145846800Y-101449800D03*
%TD*%
D10*
%TO.C,C17*%
X164104800Y-102693300D03*
X164104800Y-104418300D03*
%TD*%
D15*
%TO.C,P4*%
X172596000Y-109570000D03*
X172596000Y-103790000D03*
D16*
X171526000Y-109880000D03*
X171526000Y-109080000D03*
D17*
X171526000Y-107930000D03*
X171526000Y-106930000D03*
X171526000Y-106430000D03*
X171526000Y-105430000D03*
D16*
X171526000Y-104280000D03*
X171526000Y-103480000D03*
X171526000Y-103480000D03*
X171526000Y-104280000D03*
D17*
X171526000Y-104930000D03*
X171526000Y-105930000D03*
X171526000Y-107430000D03*
X171526000Y-108430000D03*
D16*
X171526000Y-109080000D03*
X171526000Y-109880000D03*
D18*
X172096000Y-111000000D03*
D19*
X176276000Y-111000000D03*
D18*
X172096000Y-102360000D03*
D19*
X176276000Y-102360000D03*
%TD*%
D10*
%TO.C,C32*%
X169875200Y-109475100D03*
X169875200Y-111200100D03*
%TD*%
D25*
%TO.C,Y1*%
X159406493Y-125091744D03*
X158169056Y-123854307D03*
X157179107Y-124844256D03*
X158416544Y-126081693D03*
%TD*%
D24*
%TO.C,C22*%
X143916400Y-103060900D03*
X143916400Y-99935900D03*
%TD*%
D13*
%TO.C,R8*%
X150524200Y-113334800D03*
X152349200Y-113334800D03*
%TD*%
D22*
%TO.C,D4*%
X128007000Y-132689600D03*
X130057000Y-132689600D03*
%TD*%
D26*
%TO.C,R27*%
X134315200Y-121105300D03*
X134315200Y-119280300D03*
%TD*%
D27*
%TO.C,C38*%
X147928500Y-129336800D03*
X146203500Y-129336800D03*
%TD*%
D28*
%TO.C,C10*%
X156035176Y-126038427D03*
X157254936Y-127258187D03*
%TD*%
D23*
%TO.C,C7*%
X159297200Y-112674400D03*
X161022200Y-112674400D03*
%TD*%
D10*
%TO.C,C6*%
X159550100Y-119685900D03*
X159550100Y-121410900D03*
%TD*%
D23*
%TO.C,C35*%
X138532700Y-118872000D03*
X140257700Y-118872000D03*
%TD*%
D10*
%TO.C,C18*%
X162585400Y-102693300D03*
X162585400Y-104418300D03*
%TD*%
D27*
%TO.C,C24*%
X144372500Y-110947200D03*
X142647500Y-110947200D03*
%TD*%
D29*
%TO.C,R14*%
X147824200Y-110896400D03*
X145999200Y-110896400D03*
%TD*%
D15*
%TO.C,P2*%
X125132000Y-123444000D03*
X125132000Y-129224000D03*
D16*
X126202000Y-123134000D03*
X126202000Y-123934000D03*
D17*
X126202000Y-125084000D03*
X126202000Y-126084000D03*
X126202000Y-126584000D03*
X126202000Y-127584000D03*
D16*
X126202000Y-128734000D03*
X126202000Y-129534000D03*
X126202000Y-129534000D03*
X126202000Y-128734000D03*
D17*
X126202000Y-128084000D03*
X126202000Y-127084000D03*
X126202000Y-125584000D03*
X126202000Y-124584000D03*
D16*
X126202000Y-123934000D03*
X126202000Y-123134000D03*
D18*
X125632000Y-122014000D03*
D19*
X121452000Y-122014000D03*
D18*
X125632000Y-130654000D03*
D19*
X121452000Y-130654000D03*
%TD*%
D13*
%TO.C,R28*%
X147220300Y-130962400D03*
X149045300Y-130962400D03*
%TD*%
D21*
%TO.C,C21*%
X147586300Y-101854000D03*
X150711300Y-101854000D03*
%TD*%
D10*
%TO.C,C33*%
X169900400Y-128804500D03*
X169900400Y-130529500D03*
%TD*%
D26*
%TO.C,R26*%
X134315200Y-124508900D03*
X134315200Y-122683900D03*
%TD*%
D24*
%TO.C,C28*%
X139903200Y-103873700D03*
X139903200Y-100748700D03*
%TD*%
D13*
%TO.C,R19*%
X168059900Y-106324400D03*
X169884900Y-106324400D03*
%TD*%
D20*
%TO.C,C34*%
X169886800Y-104088100D03*
X169886800Y-102363100D03*
%TD*%
D13*
%TO.C,R2*%
X127967100Y-105562400D03*
X129792100Y-105562400D03*
%TD*%
D10*
%TO.C,C1*%
X143357600Y-116333100D03*
X143357600Y-118058100D03*
%TD*%
%TO.C,C41*%
X145542000Y-125832700D03*
X145542000Y-127557700D03*
%TD*%
D22*
%TO.C,D2*%
X128007000Y-130606800D03*
X130057000Y-130606800D03*
%TD*%
D27*
%TO.C,C15*%
X157580500Y-112115600D03*
X155855500Y-112115600D03*
%TD*%
D30*
%TO.C,SW1*%
X147574000Y-113588800D03*
D31*
X147574000Y-116128800D03*
X147574000Y-118668800D03*
%TD*%
D32*
%TO.C,L1*%
X135839200Y-111838600D03*
X135839200Y-105788600D03*
%TD*%
D24*
%TO.C,C42*%
X136347200Y-124295300D03*
X136347200Y-121170300D03*
%TD*%
D26*
%TO.C,R15*%
X147218400Y-109285000D03*
X147218400Y-107460000D03*
%TD*%
D27*
%TO.C,C26*%
X145439300Y-124206000D03*
X143714300Y-124206000D03*
%TD*%
D33*
%TO.C,U4*%
X143256000Y-109270800D03*
X143756126Y-109270800D03*
X144256252Y-109270800D03*
X144756378Y-109270800D03*
X145256504Y-109270800D03*
X145756630Y-109270800D03*
X145756630Y-106273600D03*
X145256504Y-106273600D03*
X144756378Y-106273600D03*
X144256252Y-106273600D03*
X143756126Y-106273600D03*
X143256000Y-106273600D03*
D34*
X144506315Y-107772200D03*
%TD*%
D29*
%TO.C,R5*%
X129741300Y-128828800D03*
X127916300Y-128828800D03*
%TD*%
D30*
%TO.C,J1*%
X148457600Y-104826200D03*
D31*
X150997600Y-104826200D03*
%TD*%
D26*
%TO.C,R23*%
X153568400Y-106271700D03*
X153568400Y-104446700D03*
%TD*%
D23*
%TO.C,C3*%
X143561900Y-104749600D03*
X145286900Y-104749600D03*
%TD*%
D20*
%TO.C,C31*%
X169925800Y-123646100D03*
X169925800Y-121921100D03*
%TD*%
D26*
%TO.C,R16*%
X136296400Y-103477700D03*
X136296400Y-101652700D03*
%TD*%
D29*
%TO.C,R10*%
X152349200Y-116382800D03*
X150524200Y-116382800D03*
%TD*%
D13*
%TO.C,R13*%
X149607900Y-129336800D03*
X151432900Y-129336800D03*
%TD*%
D23*
%TO.C,C39*%
X138786700Y-123850400D03*
X140511700Y-123850400D03*
%TD*%
D29*
%TO.C,R9*%
X163002600Y-122707400D03*
X161177600Y-122707400D03*
%TD*%
D10*
%TO.C,C14*%
X153327100Y-117907900D03*
X153327100Y-119632900D03*
%TD*%
%TO.C,C11*%
X163258500Y-117857100D03*
X163258500Y-119582100D03*
%TD*%
D33*
%TO.C,U5*%
X146800570Y-127660400D03*
X147300696Y-127660400D03*
X147800822Y-127660400D03*
X148300948Y-127660400D03*
X148801074Y-127660400D03*
X149301200Y-127660400D03*
X149301200Y-124663200D03*
X148801074Y-124663200D03*
X148300948Y-124663200D03*
X147800822Y-124663200D03*
X147300696Y-124663200D03*
X146800570Y-124663200D03*
D34*
X148050885Y-126161800D03*
%TD*%
D35*
%TO.C,U6*%
X138562800Y-116890800D03*
X138562800Y-116390800D03*
X138562800Y-115890800D03*
X138562800Y-115390800D03*
X138562800Y-114890800D03*
X134162800Y-114890800D03*
X134162800Y-115390800D03*
X134162800Y-115890800D03*
X134162800Y-116390800D03*
X134162800Y-116890800D03*
%TD*%
D29*
%TO.C,R12*%
X152349200Y-111810800D03*
X150524200Y-111810800D03*
%TD*%
D13*
%TO.C,R17*%
X136145900Y-100076000D03*
X137970900Y-100076000D03*
%TD*%
D36*
%TO.C,D5*%
X130209400Y-112979200D03*
X128159400Y-112979200D03*
%TD*%
D37*
%TO.C,U2*%
X160235900Y-117449600D03*
X160235900Y-116941600D03*
X160235900Y-116433600D03*
X160235900Y-115925600D03*
X160235900Y-115417600D03*
X160235900Y-114909600D03*
D38*
X159562800Y-114236500D03*
X159054800Y-114236500D03*
X158546800Y-114236500D03*
X158038800Y-114236500D03*
X157530800Y-114236500D03*
X157022800Y-114236500D03*
D37*
X156349700Y-114909600D03*
X156349700Y-115417600D03*
X156349700Y-115925600D03*
X156349700Y-116433600D03*
X156349700Y-116941600D03*
X156349700Y-117449600D03*
D38*
X157022800Y-118122700D03*
X157530800Y-118122700D03*
X158038800Y-118122700D03*
X158546800Y-118122700D03*
X159054800Y-118122700D03*
X159562800Y-118122700D03*
D39*
X158292800Y-116179600D03*
%TD*%
D26*
%TO.C,R24*%
X131673600Y-132687700D03*
X131673600Y-130862700D03*
%TD*%
%TO.C,R7*%
X153873200Y-116177700D03*
X153873200Y-114352700D03*
%TD*%
D29*
%TO.C,R25*%
X126591700Y-112623600D03*
X124766700Y-112623600D03*
%TD*%
D32*
%TO.C,L2*%
X139496800Y-132158600D03*
X139496800Y-126108600D03*
%TD*%
D20*
%TO.C,C36*%
X140309600Y-117296100D03*
X140309600Y-115571100D03*
%TD*%
D10*
%TO.C,C4*%
X140385800Y-106198500D03*
X140385800Y-107923500D03*
%TD*%
D29*
%TO.C,R3*%
X129792100Y-109118400D03*
X127967100Y-109118400D03*
%TD*%
D23*
%TO.C,C8*%
X161227600Y-121158000D03*
X162952600Y-121158000D03*
%TD*%
D20*
%TO.C,C23*%
X141833600Y-104510600D03*
X141833600Y-102785600D03*
%TD*%
D10*
%TO.C,C19*%
X141960600Y-106223900D03*
X141960600Y-107948900D03*
%TD*%
D27*
%TO.C,C12*%
X157580500Y-110591600D03*
X155855500Y-110591600D03*
%TD*%
D26*
%TO.C,R11*%
X154228800Y-111910500D03*
X154228800Y-110085500D03*
%TD*%
D40*
%TO.C,C25*%
X160556936Y-126292427D03*
X159337176Y-127512187D03*
%TD*%
M02*
