%TF.GenerationSoftware,KiCad,Pcbnew,7.0.7*%
%TF.CreationDate,2023-09-25T17:24:45-05:00*%
%TF.ProjectId,KiVM,4b69564d-2e6b-4696-9361-645f70636258,rev?*%
%TF.SameCoordinates,Original*%
%TF.FileFunction,Legend,Top*%
%TF.FilePolarity,Positive*%
%FSLAX46Y46*%
G04 Gerber Fmt 4.6, Leading zero omitted, Abs format (unit mm)*
G04 Created by KiCad (PCBNEW 7.0.7) date 2023-09-25 17:24:45*
%MOMM*%
%LPD*%
G01*
G04 APERTURE LIST*
%ADD10C,0.150000*%
%ADD11C,0.100000*%
%ADD12C,0.076200*%
%ADD13C,0.098900*%
%ADD14C,0.075000*%
%ADD15C,0.120000*%
%ADD16C,0.229605*%
%ADD17C,0.127000*%
%ADD18C,0.152400*%
%ADD19C,0.177800*%
G04 APERTURE END LIST*
D10*
X158394400Y-111607600D02*
X158851600Y-111201200D01*
X155350380Y-121552166D02*
X155398000Y-121599785D01*
X155398000Y-121599785D02*
X155445619Y-121742642D01*
X155445619Y-121742642D02*
X155445619Y-121837880D01*
X155445619Y-121837880D02*
X155398000Y-121980737D01*
X155398000Y-121980737D02*
X155302761Y-122075975D01*
X155302761Y-122075975D02*
X155207523Y-122123594D01*
X155207523Y-122123594D02*
X155017047Y-122171213D01*
X155017047Y-122171213D02*
X154874190Y-122171213D01*
X154874190Y-122171213D02*
X154683714Y-122123594D01*
X154683714Y-122123594D02*
X154588476Y-122075975D01*
X154588476Y-122075975D02*
X154493238Y-121980737D01*
X154493238Y-121980737D02*
X154445619Y-121837880D01*
X154445619Y-121837880D02*
X154445619Y-121742642D01*
X154445619Y-121742642D02*
X154493238Y-121599785D01*
X154493238Y-121599785D02*
X154540857Y-121552166D01*
X154445619Y-120647404D02*
X154445619Y-121123594D01*
X154445619Y-121123594D02*
X154921809Y-121171213D01*
X154921809Y-121171213D02*
X154874190Y-121123594D01*
X154874190Y-121123594D02*
X154826571Y-121028356D01*
X154826571Y-121028356D02*
X154826571Y-120790261D01*
X154826571Y-120790261D02*
X154874190Y-120695023D01*
X154874190Y-120695023D02*
X154921809Y-120647404D01*
X154921809Y-120647404D02*
X155017047Y-120599785D01*
X155017047Y-120599785D02*
X155255142Y-120599785D01*
X155255142Y-120599785D02*
X155350380Y-120647404D01*
X155350380Y-120647404D02*
X155398000Y-120695023D01*
X155398000Y-120695023D02*
X155445619Y-120790261D01*
X155445619Y-120790261D02*
X155445619Y-121028356D01*
X155445619Y-121028356D02*
X155398000Y-121123594D01*
X155398000Y-121123594D02*
X155350380Y-121171213D01*
D11*
X157734095Y-99939819D02*
X157734095Y-100749342D01*
X157734095Y-100749342D02*
X157781714Y-100844580D01*
X157781714Y-100844580D02*
X157829333Y-100892200D01*
X157829333Y-100892200D02*
X157924571Y-100939819D01*
X157924571Y-100939819D02*
X158115047Y-100939819D01*
X158115047Y-100939819D02*
X158210285Y-100892200D01*
X158210285Y-100892200D02*
X158257904Y-100844580D01*
X158257904Y-100844580D02*
X158305523Y-100749342D01*
X158305523Y-100749342D02*
X158305523Y-99939819D01*
X158686476Y-99939819D02*
X159305523Y-99939819D01*
X159305523Y-99939819D02*
X158972190Y-100320771D01*
X158972190Y-100320771D02*
X159115047Y-100320771D01*
X159115047Y-100320771D02*
X159210285Y-100368390D01*
X159210285Y-100368390D02*
X159257904Y-100416009D01*
X159257904Y-100416009D02*
X159305523Y-100511247D01*
X159305523Y-100511247D02*
X159305523Y-100749342D01*
X159305523Y-100749342D02*
X159257904Y-100844580D01*
X159257904Y-100844580D02*
X159210285Y-100892200D01*
X159210285Y-100892200D02*
X159115047Y-100939819D01*
X159115047Y-100939819D02*
X158829333Y-100939819D01*
X158829333Y-100939819D02*
X158734095Y-100892200D01*
X158734095Y-100892200D02*
X158686476Y-100844580D01*
D10*
X129373333Y-124102019D02*
X129040000Y-123625828D01*
X128801905Y-124102019D02*
X128801905Y-123102019D01*
X128801905Y-123102019D02*
X129182857Y-123102019D01*
X129182857Y-123102019D02*
X129278095Y-123149638D01*
X129278095Y-123149638D02*
X129325714Y-123197257D01*
X129325714Y-123197257D02*
X129373333Y-123292495D01*
X129373333Y-123292495D02*
X129373333Y-123435352D01*
X129373333Y-123435352D02*
X129325714Y-123530590D01*
X129325714Y-123530590D02*
X129278095Y-123578209D01*
X129278095Y-123578209D02*
X129182857Y-123625828D01*
X129182857Y-123625828D02*
X128801905Y-123625828D01*
X130230476Y-123435352D02*
X130230476Y-124102019D01*
X129992381Y-123054400D02*
X129754286Y-123768685D01*
X129754286Y-123768685D02*
X130373333Y-123768685D01*
X145336419Y-119851466D02*
X144860228Y-120184799D01*
X145336419Y-120422894D02*
X144336419Y-120422894D01*
X144336419Y-120422894D02*
X144336419Y-120041942D01*
X144336419Y-120041942D02*
X144384038Y-119946704D01*
X144384038Y-119946704D02*
X144431657Y-119899085D01*
X144431657Y-119899085D02*
X144526895Y-119851466D01*
X144526895Y-119851466D02*
X144669752Y-119851466D01*
X144669752Y-119851466D02*
X144764990Y-119899085D01*
X144764990Y-119899085D02*
X144812609Y-119946704D01*
X144812609Y-119946704D02*
X144860228Y-120041942D01*
X144860228Y-120041942D02*
X144860228Y-120422894D01*
X145336419Y-118899085D02*
X145336419Y-119470513D01*
X145336419Y-119184799D02*
X144336419Y-119184799D01*
X144336419Y-119184799D02*
X144479276Y-119280037D01*
X144479276Y-119280037D02*
X144574514Y-119375275D01*
X144574514Y-119375275D02*
X144622133Y-119470513D01*
X122197905Y-101445219D02*
X122197905Y-100445219D01*
X122197905Y-100445219D02*
X122578857Y-100445219D01*
X122578857Y-100445219D02*
X122674095Y-100492838D01*
X122674095Y-100492838D02*
X122721714Y-100540457D01*
X122721714Y-100540457D02*
X122769333Y-100635695D01*
X122769333Y-100635695D02*
X122769333Y-100778552D01*
X122769333Y-100778552D02*
X122721714Y-100873790D01*
X122721714Y-100873790D02*
X122674095Y-100921409D01*
X122674095Y-100921409D02*
X122578857Y-100969028D01*
X122578857Y-100969028D02*
X122197905Y-100969028D01*
X123721714Y-101445219D02*
X123150286Y-101445219D01*
X123436000Y-101445219D02*
X123436000Y-100445219D01*
X123436000Y-100445219D02*
X123340762Y-100588076D01*
X123340762Y-100588076D02*
X123245524Y-100683314D01*
X123245524Y-100683314D02*
X123150286Y-100730933D01*
X144021980Y-130487657D02*
X144069600Y-130535276D01*
X144069600Y-130535276D02*
X144117219Y-130678133D01*
X144117219Y-130678133D02*
X144117219Y-130773371D01*
X144117219Y-130773371D02*
X144069600Y-130916228D01*
X144069600Y-130916228D02*
X143974361Y-131011466D01*
X143974361Y-131011466D02*
X143879123Y-131059085D01*
X143879123Y-131059085D02*
X143688647Y-131106704D01*
X143688647Y-131106704D02*
X143545790Y-131106704D01*
X143545790Y-131106704D02*
X143355314Y-131059085D01*
X143355314Y-131059085D02*
X143260076Y-131011466D01*
X143260076Y-131011466D02*
X143164838Y-130916228D01*
X143164838Y-130916228D02*
X143117219Y-130773371D01*
X143117219Y-130773371D02*
X143117219Y-130678133D01*
X143117219Y-130678133D02*
X143164838Y-130535276D01*
X143164838Y-130535276D02*
X143212457Y-130487657D01*
X143450552Y-129630514D02*
X144117219Y-129630514D01*
X143069600Y-129868609D02*
X143783885Y-130106704D01*
X143783885Y-130106704D02*
X143783885Y-129487657D01*
X143117219Y-128916228D02*
X143117219Y-128820990D01*
X143117219Y-128820990D02*
X143164838Y-128725752D01*
X143164838Y-128725752D02*
X143212457Y-128678133D01*
X143212457Y-128678133D02*
X143307695Y-128630514D01*
X143307695Y-128630514D02*
X143498171Y-128582895D01*
X143498171Y-128582895D02*
X143736266Y-128582895D01*
X143736266Y-128582895D02*
X143926742Y-128630514D01*
X143926742Y-128630514D02*
X144021980Y-128678133D01*
X144021980Y-128678133D02*
X144069600Y-128725752D01*
X144069600Y-128725752D02*
X144117219Y-128820990D01*
X144117219Y-128820990D02*
X144117219Y-128916228D01*
X144117219Y-128916228D02*
X144069600Y-129011466D01*
X144069600Y-129011466D02*
X144021980Y-129059085D01*
X144021980Y-129059085D02*
X143926742Y-129106704D01*
X143926742Y-129106704D02*
X143736266Y-129154323D01*
X143736266Y-129154323D02*
X143498171Y-129154323D01*
X143498171Y-129154323D02*
X143307695Y-129106704D01*
X143307695Y-129106704D02*
X143212457Y-129059085D01*
X143212457Y-129059085D02*
X143164838Y-129011466D01*
X143164838Y-129011466D02*
X143117219Y-128916228D01*
X169421980Y-119311657D02*
X169469600Y-119359276D01*
X169469600Y-119359276D02*
X169517219Y-119502133D01*
X169517219Y-119502133D02*
X169517219Y-119597371D01*
X169517219Y-119597371D02*
X169469600Y-119740228D01*
X169469600Y-119740228D02*
X169374361Y-119835466D01*
X169374361Y-119835466D02*
X169279123Y-119883085D01*
X169279123Y-119883085D02*
X169088647Y-119930704D01*
X169088647Y-119930704D02*
X168945790Y-119930704D01*
X168945790Y-119930704D02*
X168755314Y-119883085D01*
X168755314Y-119883085D02*
X168660076Y-119835466D01*
X168660076Y-119835466D02*
X168564838Y-119740228D01*
X168564838Y-119740228D02*
X168517219Y-119597371D01*
X168517219Y-119597371D02*
X168517219Y-119502133D01*
X168517219Y-119502133D02*
X168564838Y-119359276D01*
X168564838Y-119359276D02*
X168612457Y-119311657D01*
X169517219Y-118359276D02*
X169517219Y-118930704D01*
X169517219Y-118644990D02*
X168517219Y-118644990D01*
X168517219Y-118644990D02*
X168660076Y-118740228D01*
X168660076Y-118740228D02*
X168755314Y-118835466D01*
X168755314Y-118835466D02*
X168802933Y-118930704D01*
X168517219Y-117502133D02*
X168517219Y-117692609D01*
X168517219Y-117692609D02*
X168564838Y-117787847D01*
X168564838Y-117787847D02*
X168612457Y-117835466D01*
X168612457Y-117835466D02*
X168755314Y-117930704D01*
X168755314Y-117930704D02*
X168945790Y-117978323D01*
X168945790Y-117978323D02*
X169326742Y-117978323D01*
X169326742Y-117978323D02*
X169421980Y-117930704D01*
X169421980Y-117930704D02*
X169469600Y-117883085D01*
X169469600Y-117883085D02*
X169517219Y-117787847D01*
X169517219Y-117787847D02*
X169517219Y-117597371D01*
X169517219Y-117597371D02*
X169469600Y-117502133D01*
X169469600Y-117502133D02*
X169421980Y-117454514D01*
X169421980Y-117454514D02*
X169326742Y-117406895D01*
X169326742Y-117406895D02*
X169088647Y-117406895D01*
X169088647Y-117406895D02*
X168993409Y-117454514D01*
X168993409Y-117454514D02*
X168945790Y-117502133D01*
X168945790Y-117502133D02*
X168898171Y-117597371D01*
X168898171Y-117597371D02*
X168898171Y-117787847D01*
X168898171Y-117787847D02*
X168945790Y-117883085D01*
X168945790Y-117883085D02*
X168993409Y-117930704D01*
X168993409Y-117930704D02*
X169088647Y-117978323D01*
D12*
X149684647Y-114841866D02*
X149442742Y-115011200D01*
X149684647Y-115132152D02*
X149176647Y-115132152D01*
X149176647Y-115132152D02*
X149176647Y-114938628D01*
X149176647Y-114938628D02*
X149200837Y-114890247D01*
X149200837Y-114890247D02*
X149225028Y-114866057D01*
X149225028Y-114866057D02*
X149273409Y-114841866D01*
X149273409Y-114841866D02*
X149345980Y-114841866D01*
X149345980Y-114841866D02*
X149394361Y-114866057D01*
X149394361Y-114866057D02*
X149418552Y-114890247D01*
X149418552Y-114890247D02*
X149442742Y-114938628D01*
X149442742Y-114938628D02*
X149442742Y-115132152D01*
X149176647Y-114406438D02*
X149176647Y-114503200D01*
X149176647Y-114503200D02*
X149200837Y-114551581D01*
X149200837Y-114551581D02*
X149225028Y-114575771D01*
X149225028Y-114575771D02*
X149297599Y-114624152D01*
X149297599Y-114624152D02*
X149394361Y-114648343D01*
X149394361Y-114648343D02*
X149587885Y-114648343D01*
X149587885Y-114648343D02*
X149636266Y-114624152D01*
X149636266Y-114624152D02*
X149660457Y-114599962D01*
X149660457Y-114599962D02*
X149684647Y-114551581D01*
X149684647Y-114551581D02*
X149684647Y-114454819D01*
X149684647Y-114454819D02*
X149660457Y-114406438D01*
X149660457Y-114406438D02*
X149636266Y-114382247D01*
X149636266Y-114382247D02*
X149587885Y-114358057D01*
X149587885Y-114358057D02*
X149466933Y-114358057D01*
X149466933Y-114358057D02*
X149418552Y-114382247D01*
X149418552Y-114382247D02*
X149394361Y-114406438D01*
X149394361Y-114406438D02*
X149370171Y-114454819D01*
X149370171Y-114454819D02*
X149370171Y-114551581D01*
X149370171Y-114551581D02*
X149394361Y-114599962D01*
X149394361Y-114599962D02*
X149418552Y-114624152D01*
X149418552Y-114624152D02*
X149466933Y-114648343D01*
D10*
X166564480Y-119038666D02*
X166612100Y-119086285D01*
X166612100Y-119086285D02*
X166659719Y-119229142D01*
X166659719Y-119229142D02*
X166659719Y-119324380D01*
X166659719Y-119324380D02*
X166612100Y-119467237D01*
X166612100Y-119467237D02*
X166516861Y-119562475D01*
X166516861Y-119562475D02*
X166421623Y-119610094D01*
X166421623Y-119610094D02*
X166231147Y-119657713D01*
X166231147Y-119657713D02*
X166088290Y-119657713D01*
X166088290Y-119657713D02*
X165897814Y-119610094D01*
X165897814Y-119610094D02*
X165802576Y-119562475D01*
X165802576Y-119562475D02*
X165707338Y-119467237D01*
X165707338Y-119467237D02*
X165659719Y-119324380D01*
X165659719Y-119324380D02*
X165659719Y-119229142D01*
X165659719Y-119229142D02*
X165707338Y-119086285D01*
X165707338Y-119086285D02*
X165754957Y-119038666D01*
X166659719Y-118562475D02*
X166659719Y-118371999D01*
X166659719Y-118371999D02*
X166612100Y-118276761D01*
X166612100Y-118276761D02*
X166564480Y-118229142D01*
X166564480Y-118229142D02*
X166421623Y-118133904D01*
X166421623Y-118133904D02*
X166231147Y-118086285D01*
X166231147Y-118086285D02*
X165850195Y-118086285D01*
X165850195Y-118086285D02*
X165754957Y-118133904D01*
X165754957Y-118133904D02*
X165707338Y-118181523D01*
X165707338Y-118181523D02*
X165659719Y-118276761D01*
X165659719Y-118276761D02*
X165659719Y-118467237D01*
X165659719Y-118467237D02*
X165707338Y-118562475D01*
X165707338Y-118562475D02*
X165754957Y-118610094D01*
X165754957Y-118610094D02*
X165850195Y-118657713D01*
X165850195Y-118657713D02*
X166088290Y-118657713D01*
X166088290Y-118657713D02*
X166183528Y-118610094D01*
X166183528Y-118610094D02*
X166231147Y-118562475D01*
X166231147Y-118562475D02*
X166278766Y-118467237D01*
X166278766Y-118467237D02*
X166278766Y-118276761D01*
X166278766Y-118276761D02*
X166231147Y-118181523D01*
X166231147Y-118181523D02*
X166183528Y-118133904D01*
X166183528Y-118133904D02*
X166088290Y-118086285D01*
X165015942Y-127505619D02*
X164682609Y-127029428D01*
X164444514Y-127505619D02*
X164444514Y-126505619D01*
X164444514Y-126505619D02*
X164825466Y-126505619D01*
X164825466Y-126505619D02*
X164920704Y-126553238D01*
X164920704Y-126553238D02*
X164968323Y-126600857D01*
X164968323Y-126600857D02*
X165015942Y-126696095D01*
X165015942Y-126696095D02*
X165015942Y-126838952D01*
X165015942Y-126838952D02*
X164968323Y-126934190D01*
X164968323Y-126934190D02*
X164920704Y-126981809D01*
X164920704Y-126981809D02*
X164825466Y-127029428D01*
X164825466Y-127029428D02*
X164444514Y-127029428D01*
X165396895Y-126600857D02*
X165444514Y-126553238D01*
X165444514Y-126553238D02*
X165539752Y-126505619D01*
X165539752Y-126505619D02*
X165777847Y-126505619D01*
X165777847Y-126505619D02*
X165873085Y-126553238D01*
X165873085Y-126553238D02*
X165920704Y-126600857D01*
X165920704Y-126600857D02*
X165968323Y-126696095D01*
X165968323Y-126696095D02*
X165968323Y-126791333D01*
X165968323Y-126791333D02*
X165920704Y-126934190D01*
X165920704Y-126934190D02*
X165349276Y-127505619D01*
X165349276Y-127505619D02*
X165968323Y-127505619D01*
X166587371Y-126505619D02*
X166682609Y-126505619D01*
X166682609Y-126505619D02*
X166777847Y-126553238D01*
X166777847Y-126553238D02*
X166825466Y-126600857D01*
X166825466Y-126600857D02*
X166873085Y-126696095D01*
X166873085Y-126696095D02*
X166920704Y-126886571D01*
X166920704Y-126886571D02*
X166920704Y-127124666D01*
X166920704Y-127124666D02*
X166873085Y-127315142D01*
X166873085Y-127315142D02*
X166825466Y-127410380D01*
X166825466Y-127410380D02*
X166777847Y-127458000D01*
X166777847Y-127458000D02*
X166682609Y-127505619D01*
X166682609Y-127505619D02*
X166587371Y-127505619D01*
X166587371Y-127505619D02*
X166492133Y-127458000D01*
X166492133Y-127458000D02*
X166444514Y-127410380D01*
X166444514Y-127410380D02*
X166396895Y-127315142D01*
X166396895Y-127315142D02*
X166349276Y-127124666D01*
X166349276Y-127124666D02*
X166349276Y-126886571D01*
X166349276Y-126886571D02*
X166396895Y-126696095D01*
X166396895Y-126696095D02*
X166444514Y-126600857D01*
X166444514Y-126600857D02*
X166492133Y-126553238D01*
X166492133Y-126553238D02*
X166587371Y-126505619D01*
X173810705Y-132433219D02*
X173810705Y-131433219D01*
X173810705Y-131433219D02*
X174191657Y-131433219D01*
X174191657Y-131433219D02*
X174286895Y-131480838D01*
X174286895Y-131480838D02*
X174334514Y-131528457D01*
X174334514Y-131528457D02*
X174382133Y-131623695D01*
X174382133Y-131623695D02*
X174382133Y-131766552D01*
X174382133Y-131766552D02*
X174334514Y-131861790D01*
X174334514Y-131861790D02*
X174286895Y-131909409D01*
X174286895Y-131909409D02*
X174191657Y-131957028D01*
X174191657Y-131957028D02*
X173810705Y-131957028D01*
X174715467Y-131433219D02*
X175334514Y-131433219D01*
X175334514Y-131433219D02*
X175001181Y-131814171D01*
X175001181Y-131814171D02*
X175144038Y-131814171D01*
X175144038Y-131814171D02*
X175239276Y-131861790D01*
X175239276Y-131861790D02*
X175286895Y-131909409D01*
X175286895Y-131909409D02*
X175334514Y-132004647D01*
X175334514Y-132004647D02*
X175334514Y-132242742D01*
X175334514Y-132242742D02*
X175286895Y-132337980D01*
X175286895Y-132337980D02*
X175239276Y-132385600D01*
X175239276Y-132385600D02*
X175144038Y-132433219D01*
X175144038Y-132433219D02*
X174858324Y-132433219D01*
X174858324Y-132433219D02*
X174763086Y-132385600D01*
X174763086Y-132385600D02*
X174715467Y-132337980D01*
X142193180Y-113977657D02*
X142240800Y-114025276D01*
X142240800Y-114025276D02*
X142288419Y-114168133D01*
X142288419Y-114168133D02*
X142288419Y-114263371D01*
X142288419Y-114263371D02*
X142240800Y-114406228D01*
X142240800Y-114406228D02*
X142145561Y-114501466D01*
X142145561Y-114501466D02*
X142050323Y-114549085D01*
X142050323Y-114549085D02*
X141859847Y-114596704D01*
X141859847Y-114596704D02*
X141716990Y-114596704D01*
X141716990Y-114596704D02*
X141526514Y-114549085D01*
X141526514Y-114549085D02*
X141431276Y-114501466D01*
X141431276Y-114501466D02*
X141336038Y-114406228D01*
X141336038Y-114406228D02*
X141288419Y-114263371D01*
X141288419Y-114263371D02*
X141288419Y-114168133D01*
X141288419Y-114168133D02*
X141336038Y-114025276D01*
X141336038Y-114025276D02*
X141383657Y-113977657D01*
X141288419Y-113644323D02*
X141288419Y-113025276D01*
X141288419Y-113025276D02*
X141669371Y-113358609D01*
X141669371Y-113358609D02*
X141669371Y-113215752D01*
X141669371Y-113215752D02*
X141716990Y-113120514D01*
X141716990Y-113120514D02*
X141764609Y-113072895D01*
X141764609Y-113072895D02*
X141859847Y-113025276D01*
X141859847Y-113025276D02*
X142097942Y-113025276D01*
X142097942Y-113025276D02*
X142193180Y-113072895D01*
X142193180Y-113072895D02*
X142240800Y-113120514D01*
X142240800Y-113120514D02*
X142288419Y-113215752D01*
X142288419Y-113215752D02*
X142288419Y-113501466D01*
X142288419Y-113501466D02*
X142240800Y-113596704D01*
X142240800Y-113596704D02*
X142193180Y-113644323D01*
X141288419Y-112691942D02*
X141288419Y-112025276D01*
X141288419Y-112025276D02*
X142288419Y-112453847D01*
X151299942Y-110493980D02*
X151252323Y-110541600D01*
X151252323Y-110541600D02*
X151109466Y-110589219D01*
X151109466Y-110589219D02*
X151014228Y-110589219D01*
X151014228Y-110589219D02*
X150871371Y-110541600D01*
X150871371Y-110541600D02*
X150776133Y-110446361D01*
X150776133Y-110446361D02*
X150728514Y-110351123D01*
X150728514Y-110351123D02*
X150680895Y-110160647D01*
X150680895Y-110160647D02*
X150680895Y-110017790D01*
X150680895Y-110017790D02*
X150728514Y-109827314D01*
X150728514Y-109827314D02*
X150776133Y-109732076D01*
X150776133Y-109732076D02*
X150871371Y-109636838D01*
X150871371Y-109636838D02*
X151014228Y-109589219D01*
X151014228Y-109589219D02*
X151109466Y-109589219D01*
X151109466Y-109589219D02*
X151252323Y-109636838D01*
X151252323Y-109636838D02*
X151299942Y-109684457D01*
X151680895Y-109684457D02*
X151728514Y-109636838D01*
X151728514Y-109636838D02*
X151823752Y-109589219D01*
X151823752Y-109589219D02*
X152061847Y-109589219D01*
X152061847Y-109589219D02*
X152157085Y-109636838D01*
X152157085Y-109636838D02*
X152204704Y-109684457D01*
X152204704Y-109684457D02*
X152252323Y-109779695D01*
X152252323Y-109779695D02*
X152252323Y-109874933D01*
X152252323Y-109874933D02*
X152204704Y-110017790D01*
X152204704Y-110017790D02*
X151633276Y-110589219D01*
X151633276Y-110589219D02*
X152252323Y-110589219D01*
X152871371Y-109589219D02*
X152966609Y-109589219D01*
X152966609Y-109589219D02*
X153061847Y-109636838D01*
X153061847Y-109636838D02*
X153109466Y-109684457D01*
X153109466Y-109684457D02*
X153157085Y-109779695D01*
X153157085Y-109779695D02*
X153204704Y-109970171D01*
X153204704Y-109970171D02*
X153204704Y-110208266D01*
X153204704Y-110208266D02*
X153157085Y-110398742D01*
X153157085Y-110398742D02*
X153109466Y-110493980D01*
X153109466Y-110493980D02*
X153061847Y-110541600D01*
X153061847Y-110541600D02*
X152966609Y-110589219D01*
X152966609Y-110589219D02*
X152871371Y-110589219D01*
X152871371Y-110589219D02*
X152776133Y-110541600D01*
X152776133Y-110541600D02*
X152728514Y-110493980D01*
X152728514Y-110493980D02*
X152680895Y-110398742D01*
X152680895Y-110398742D02*
X152633276Y-110208266D01*
X152633276Y-110208266D02*
X152633276Y-109970171D01*
X152633276Y-109970171D02*
X152680895Y-109779695D01*
X152680895Y-109779695D02*
X152728514Y-109684457D01*
X152728514Y-109684457D02*
X152776133Y-109636838D01*
X152776133Y-109636838D02*
X152871371Y-109589219D01*
X164914342Y-125727619D02*
X164581009Y-125251428D01*
X164342914Y-125727619D02*
X164342914Y-124727619D01*
X164342914Y-124727619D02*
X164723866Y-124727619D01*
X164723866Y-124727619D02*
X164819104Y-124775238D01*
X164819104Y-124775238D02*
X164866723Y-124822857D01*
X164866723Y-124822857D02*
X164914342Y-124918095D01*
X164914342Y-124918095D02*
X164914342Y-125060952D01*
X164914342Y-125060952D02*
X164866723Y-125156190D01*
X164866723Y-125156190D02*
X164819104Y-125203809D01*
X164819104Y-125203809D02*
X164723866Y-125251428D01*
X164723866Y-125251428D02*
X164342914Y-125251428D01*
X165866723Y-125727619D02*
X165295295Y-125727619D01*
X165581009Y-125727619D02*
X165581009Y-124727619D01*
X165581009Y-124727619D02*
X165485771Y-124870476D01*
X165485771Y-124870476D02*
X165390533Y-124965714D01*
X165390533Y-124965714D02*
X165295295Y-125013333D01*
X166438152Y-125156190D02*
X166342914Y-125108571D01*
X166342914Y-125108571D02*
X166295295Y-125060952D01*
X166295295Y-125060952D02*
X166247676Y-124965714D01*
X166247676Y-124965714D02*
X166247676Y-124918095D01*
X166247676Y-124918095D02*
X166295295Y-124822857D01*
X166295295Y-124822857D02*
X166342914Y-124775238D01*
X166342914Y-124775238D02*
X166438152Y-124727619D01*
X166438152Y-124727619D02*
X166628628Y-124727619D01*
X166628628Y-124727619D02*
X166723866Y-124775238D01*
X166723866Y-124775238D02*
X166771485Y-124822857D01*
X166771485Y-124822857D02*
X166819104Y-124918095D01*
X166819104Y-124918095D02*
X166819104Y-124965714D01*
X166819104Y-124965714D02*
X166771485Y-125060952D01*
X166771485Y-125060952D02*
X166723866Y-125108571D01*
X166723866Y-125108571D02*
X166628628Y-125156190D01*
X166628628Y-125156190D02*
X166438152Y-125156190D01*
X166438152Y-125156190D02*
X166342914Y-125203809D01*
X166342914Y-125203809D02*
X166295295Y-125251428D01*
X166295295Y-125251428D02*
X166247676Y-125346666D01*
X166247676Y-125346666D02*
X166247676Y-125537142D01*
X166247676Y-125537142D02*
X166295295Y-125632380D01*
X166295295Y-125632380D02*
X166342914Y-125680000D01*
X166342914Y-125680000D02*
X166438152Y-125727619D01*
X166438152Y-125727619D02*
X166628628Y-125727619D01*
X166628628Y-125727619D02*
X166723866Y-125680000D01*
X166723866Y-125680000D02*
X166771485Y-125632380D01*
X166771485Y-125632380D02*
X166819104Y-125537142D01*
X166819104Y-125537142D02*
X166819104Y-125346666D01*
X166819104Y-125346666D02*
X166771485Y-125251428D01*
X166771485Y-125251428D02*
X166723866Y-125203809D01*
X166723866Y-125203809D02*
X166628628Y-125156190D01*
X131823619Y-109500894D02*
X130823619Y-109500894D01*
X130823619Y-109500894D02*
X130823619Y-109262799D01*
X130823619Y-109262799D02*
X130871238Y-109119942D01*
X130871238Y-109119942D02*
X130966476Y-109024704D01*
X130966476Y-109024704D02*
X131061714Y-108977085D01*
X131061714Y-108977085D02*
X131252190Y-108929466D01*
X131252190Y-108929466D02*
X131395047Y-108929466D01*
X131395047Y-108929466D02*
X131585523Y-108977085D01*
X131585523Y-108977085D02*
X131680761Y-109024704D01*
X131680761Y-109024704D02*
X131776000Y-109119942D01*
X131776000Y-109119942D02*
X131823619Y-109262799D01*
X131823619Y-109262799D02*
X131823619Y-109500894D01*
X131823619Y-107977085D02*
X131823619Y-108548513D01*
X131823619Y-108262799D02*
X130823619Y-108262799D01*
X130823619Y-108262799D02*
X130966476Y-108358037D01*
X130966476Y-108358037D02*
X131061714Y-108453275D01*
X131061714Y-108453275D02*
X131109333Y-108548513D01*
X154449542Y-100175219D02*
X154116209Y-99699028D01*
X153878114Y-100175219D02*
X153878114Y-99175219D01*
X153878114Y-99175219D02*
X154259066Y-99175219D01*
X154259066Y-99175219D02*
X154354304Y-99222838D01*
X154354304Y-99222838D02*
X154401923Y-99270457D01*
X154401923Y-99270457D02*
X154449542Y-99365695D01*
X154449542Y-99365695D02*
X154449542Y-99508552D01*
X154449542Y-99508552D02*
X154401923Y-99603790D01*
X154401923Y-99603790D02*
X154354304Y-99651409D01*
X154354304Y-99651409D02*
X154259066Y-99699028D01*
X154259066Y-99699028D02*
X153878114Y-99699028D01*
X154830495Y-99270457D02*
X154878114Y-99222838D01*
X154878114Y-99222838D02*
X154973352Y-99175219D01*
X154973352Y-99175219D02*
X155211447Y-99175219D01*
X155211447Y-99175219D02*
X155306685Y-99222838D01*
X155306685Y-99222838D02*
X155354304Y-99270457D01*
X155354304Y-99270457D02*
X155401923Y-99365695D01*
X155401923Y-99365695D02*
X155401923Y-99460933D01*
X155401923Y-99460933D02*
X155354304Y-99603790D01*
X155354304Y-99603790D02*
X154782876Y-100175219D01*
X154782876Y-100175219D02*
X155401923Y-100175219D01*
X155782876Y-99270457D02*
X155830495Y-99222838D01*
X155830495Y-99222838D02*
X155925733Y-99175219D01*
X155925733Y-99175219D02*
X156163828Y-99175219D01*
X156163828Y-99175219D02*
X156259066Y-99222838D01*
X156259066Y-99222838D02*
X156306685Y-99270457D01*
X156306685Y-99270457D02*
X156354304Y-99365695D01*
X156354304Y-99365695D02*
X156354304Y-99460933D01*
X156354304Y-99460933D02*
X156306685Y-99603790D01*
X156306685Y-99603790D02*
X155735257Y-100175219D01*
X155735257Y-100175219D02*
X156354304Y-100175219D01*
X147743942Y-122221180D02*
X147696323Y-122268800D01*
X147696323Y-122268800D02*
X147553466Y-122316419D01*
X147553466Y-122316419D02*
X147458228Y-122316419D01*
X147458228Y-122316419D02*
X147315371Y-122268800D01*
X147315371Y-122268800D02*
X147220133Y-122173561D01*
X147220133Y-122173561D02*
X147172514Y-122078323D01*
X147172514Y-122078323D02*
X147124895Y-121887847D01*
X147124895Y-121887847D02*
X147124895Y-121744990D01*
X147124895Y-121744990D02*
X147172514Y-121554514D01*
X147172514Y-121554514D02*
X147220133Y-121459276D01*
X147220133Y-121459276D02*
X147315371Y-121364038D01*
X147315371Y-121364038D02*
X147458228Y-121316419D01*
X147458228Y-121316419D02*
X147553466Y-121316419D01*
X147553466Y-121316419D02*
X147696323Y-121364038D01*
X147696323Y-121364038D02*
X147743942Y-121411657D01*
X148124895Y-121411657D02*
X148172514Y-121364038D01*
X148172514Y-121364038D02*
X148267752Y-121316419D01*
X148267752Y-121316419D02*
X148505847Y-121316419D01*
X148505847Y-121316419D02*
X148601085Y-121364038D01*
X148601085Y-121364038D02*
X148648704Y-121411657D01*
X148648704Y-121411657D02*
X148696323Y-121506895D01*
X148696323Y-121506895D02*
X148696323Y-121602133D01*
X148696323Y-121602133D02*
X148648704Y-121744990D01*
X148648704Y-121744990D02*
X148077276Y-122316419D01*
X148077276Y-122316419D02*
X148696323Y-122316419D01*
X149029657Y-121316419D02*
X149696323Y-121316419D01*
X149696323Y-121316419D02*
X149267752Y-122316419D01*
X132519980Y-102395257D02*
X132567600Y-102442876D01*
X132567600Y-102442876D02*
X132615219Y-102585733D01*
X132615219Y-102585733D02*
X132615219Y-102680971D01*
X132615219Y-102680971D02*
X132567600Y-102823828D01*
X132567600Y-102823828D02*
X132472361Y-102919066D01*
X132472361Y-102919066D02*
X132377123Y-102966685D01*
X132377123Y-102966685D02*
X132186647Y-103014304D01*
X132186647Y-103014304D02*
X132043790Y-103014304D01*
X132043790Y-103014304D02*
X131853314Y-102966685D01*
X131853314Y-102966685D02*
X131758076Y-102919066D01*
X131758076Y-102919066D02*
X131662838Y-102823828D01*
X131662838Y-102823828D02*
X131615219Y-102680971D01*
X131615219Y-102680971D02*
X131615219Y-102585733D01*
X131615219Y-102585733D02*
X131662838Y-102442876D01*
X131662838Y-102442876D02*
X131710457Y-102395257D01*
X132615219Y-101442876D02*
X132615219Y-102014304D01*
X132615219Y-101728590D02*
X131615219Y-101728590D01*
X131615219Y-101728590D02*
X131758076Y-101823828D01*
X131758076Y-101823828D02*
X131853314Y-101919066D01*
X131853314Y-101919066D02*
X131900933Y-102014304D01*
X131615219Y-101109542D02*
X131615219Y-100490495D01*
X131615219Y-100490495D02*
X131996171Y-100823828D01*
X131996171Y-100823828D02*
X131996171Y-100680971D01*
X131996171Y-100680971D02*
X132043790Y-100585733D01*
X132043790Y-100585733D02*
X132091409Y-100538114D01*
X132091409Y-100538114D02*
X132186647Y-100490495D01*
X132186647Y-100490495D02*
X132424742Y-100490495D01*
X132424742Y-100490495D02*
X132519980Y-100538114D01*
X132519980Y-100538114D02*
X132567600Y-100585733D01*
X132567600Y-100585733D02*
X132615219Y-100680971D01*
X132615219Y-100680971D02*
X132615219Y-100966685D01*
X132615219Y-100966685D02*
X132567600Y-101061923D01*
X132567600Y-101061923D02*
X132519980Y-101109542D01*
X165269942Y-108354019D02*
X164936609Y-107877828D01*
X164698514Y-108354019D02*
X164698514Y-107354019D01*
X164698514Y-107354019D02*
X165079466Y-107354019D01*
X165079466Y-107354019D02*
X165174704Y-107401638D01*
X165174704Y-107401638D02*
X165222323Y-107449257D01*
X165222323Y-107449257D02*
X165269942Y-107544495D01*
X165269942Y-107544495D02*
X165269942Y-107687352D01*
X165269942Y-107687352D02*
X165222323Y-107782590D01*
X165222323Y-107782590D02*
X165174704Y-107830209D01*
X165174704Y-107830209D02*
X165079466Y-107877828D01*
X165079466Y-107877828D02*
X164698514Y-107877828D01*
X165650895Y-107449257D02*
X165698514Y-107401638D01*
X165698514Y-107401638D02*
X165793752Y-107354019D01*
X165793752Y-107354019D02*
X166031847Y-107354019D01*
X166031847Y-107354019D02*
X166127085Y-107401638D01*
X166127085Y-107401638D02*
X166174704Y-107449257D01*
X166174704Y-107449257D02*
X166222323Y-107544495D01*
X166222323Y-107544495D02*
X166222323Y-107639733D01*
X166222323Y-107639733D02*
X166174704Y-107782590D01*
X166174704Y-107782590D02*
X165603276Y-108354019D01*
X165603276Y-108354019D02*
X166222323Y-108354019D01*
X167174704Y-108354019D02*
X166603276Y-108354019D01*
X166888990Y-108354019D02*
X166888990Y-107354019D01*
X166888990Y-107354019D02*
X166793752Y-107496876D01*
X166793752Y-107496876D02*
X166698514Y-107592114D01*
X166698514Y-107592114D02*
X166603276Y-107639733D01*
X146409580Y-99607666D02*
X146457200Y-99655285D01*
X146457200Y-99655285D02*
X146504819Y-99798142D01*
X146504819Y-99798142D02*
X146504819Y-99893380D01*
X146504819Y-99893380D02*
X146457200Y-100036237D01*
X146457200Y-100036237D02*
X146361961Y-100131475D01*
X146361961Y-100131475D02*
X146266723Y-100179094D01*
X146266723Y-100179094D02*
X146076247Y-100226713D01*
X146076247Y-100226713D02*
X145933390Y-100226713D01*
X145933390Y-100226713D02*
X145742914Y-100179094D01*
X145742914Y-100179094D02*
X145647676Y-100131475D01*
X145647676Y-100131475D02*
X145552438Y-100036237D01*
X145552438Y-100036237D02*
X145504819Y-99893380D01*
X145504819Y-99893380D02*
X145504819Y-99798142D01*
X145504819Y-99798142D02*
X145552438Y-99655285D01*
X145552438Y-99655285D02*
X145600057Y-99607666D01*
X145600057Y-99226713D02*
X145552438Y-99179094D01*
X145552438Y-99179094D02*
X145504819Y-99083856D01*
X145504819Y-99083856D02*
X145504819Y-98845761D01*
X145504819Y-98845761D02*
X145552438Y-98750523D01*
X145552438Y-98750523D02*
X145600057Y-98702904D01*
X145600057Y-98702904D02*
X145695295Y-98655285D01*
X145695295Y-98655285D02*
X145790533Y-98655285D01*
X145790533Y-98655285D02*
X145933390Y-98702904D01*
X145933390Y-98702904D02*
X146504819Y-99274332D01*
X146504819Y-99274332D02*
X146504819Y-98655285D01*
X164494380Y-101125257D02*
X164542000Y-101172876D01*
X164542000Y-101172876D02*
X164589619Y-101315733D01*
X164589619Y-101315733D02*
X164589619Y-101410971D01*
X164589619Y-101410971D02*
X164542000Y-101553828D01*
X164542000Y-101553828D02*
X164446761Y-101649066D01*
X164446761Y-101649066D02*
X164351523Y-101696685D01*
X164351523Y-101696685D02*
X164161047Y-101744304D01*
X164161047Y-101744304D02*
X164018190Y-101744304D01*
X164018190Y-101744304D02*
X163827714Y-101696685D01*
X163827714Y-101696685D02*
X163732476Y-101649066D01*
X163732476Y-101649066D02*
X163637238Y-101553828D01*
X163637238Y-101553828D02*
X163589619Y-101410971D01*
X163589619Y-101410971D02*
X163589619Y-101315733D01*
X163589619Y-101315733D02*
X163637238Y-101172876D01*
X163637238Y-101172876D02*
X163684857Y-101125257D01*
X164589619Y-100172876D02*
X164589619Y-100744304D01*
X164589619Y-100458590D02*
X163589619Y-100458590D01*
X163589619Y-100458590D02*
X163732476Y-100553828D01*
X163732476Y-100553828D02*
X163827714Y-100649066D01*
X163827714Y-100649066D02*
X163875333Y-100744304D01*
X163589619Y-99839542D02*
X163589619Y-99172876D01*
X163589619Y-99172876D02*
X164589619Y-99601447D01*
X171423105Y-113027619D02*
X171423105Y-112027619D01*
X171423105Y-112027619D02*
X171804057Y-112027619D01*
X171804057Y-112027619D02*
X171899295Y-112075238D01*
X171899295Y-112075238D02*
X171946914Y-112122857D01*
X171946914Y-112122857D02*
X171994533Y-112218095D01*
X171994533Y-112218095D02*
X171994533Y-112360952D01*
X171994533Y-112360952D02*
X171946914Y-112456190D01*
X171946914Y-112456190D02*
X171899295Y-112503809D01*
X171899295Y-112503809D02*
X171804057Y-112551428D01*
X171804057Y-112551428D02*
X171423105Y-112551428D01*
X172851676Y-112360952D02*
X172851676Y-113027619D01*
X172613581Y-111980000D02*
X172375486Y-112694285D01*
X172375486Y-112694285D02*
X172994533Y-112694285D01*
X168775380Y-111209057D02*
X168823000Y-111256676D01*
X168823000Y-111256676D02*
X168870619Y-111399533D01*
X168870619Y-111399533D02*
X168870619Y-111494771D01*
X168870619Y-111494771D02*
X168823000Y-111637628D01*
X168823000Y-111637628D02*
X168727761Y-111732866D01*
X168727761Y-111732866D02*
X168632523Y-111780485D01*
X168632523Y-111780485D02*
X168442047Y-111828104D01*
X168442047Y-111828104D02*
X168299190Y-111828104D01*
X168299190Y-111828104D02*
X168108714Y-111780485D01*
X168108714Y-111780485D02*
X168013476Y-111732866D01*
X168013476Y-111732866D02*
X167918238Y-111637628D01*
X167918238Y-111637628D02*
X167870619Y-111494771D01*
X167870619Y-111494771D02*
X167870619Y-111399533D01*
X167870619Y-111399533D02*
X167918238Y-111256676D01*
X167918238Y-111256676D02*
X167965857Y-111209057D01*
X167870619Y-110875723D02*
X167870619Y-110256676D01*
X167870619Y-110256676D02*
X168251571Y-110590009D01*
X168251571Y-110590009D02*
X168251571Y-110447152D01*
X168251571Y-110447152D02*
X168299190Y-110351914D01*
X168299190Y-110351914D02*
X168346809Y-110304295D01*
X168346809Y-110304295D02*
X168442047Y-110256676D01*
X168442047Y-110256676D02*
X168680142Y-110256676D01*
X168680142Y-110256676D02*
X168775380Y-110304295D01*
X168775380Y-110304295D02*
X168823000Y-110351914D01*
X168823000Y-110351914D02*
X168870619Y-110447152D01*
X168870619Y-110447152D02*
X168870619Y-110732866D01*
X168870619Y-110732866D02*
X168823000Y-110828104D01*
X168823000Y-110828104D02*
X168775380Y-110875723D01*
X167965857Y-109875723D02*
X167918238Y-109828104D01*
X167918238Y-109828104D02*
X167870619Y-109732866D01*
X167870619Y-109732866D02*
X167870619Y-109494771D01*
X167870619Y-109494771D02*
X167918238Y-109399533D01*
X167918238Y-109399533D02*
X167965857Y-109351914D01*
X167965857Y-109351914D02*
X168061095Y-109304295D01*
X168061095Y-109304295D02*
X168156333Y-109304295D01*
X168156333Y-109304295D02*
X168299190Y-109351914D01*
X168299190Y-109351914D02*
X168870619Y-109923342D01*
X168870619Y-109923342D02*
X168870619Y-109304295D01*
X155756570Y-123968804D02*
X156093288Y-124305522D01*
X155150479Y-123834117D02*
X155756570Y-123968804D01*
X155756570Y-123968804D02*
X155621883Y-123362713D01*
X156935081Y-123463728D02*
X156531020Y-123867789D01*
X156733051Y-123665758D02*
X156025944Y-122958652D01*
X156025944Y-122958652D02*
X156059616Y-123127010D01*
X156059616Y-123127010D02*
X156059616Y-123261697D01*
X156059616Y-123261697D02*
X156025944Y-123362713D01*
X143375142Y-98759180D02*
X143327523Y-98806800D01*
X143327523Y-98806800D02*
X143184666Y-98854419D01*
X143184666Y-98854419D02*
X143089428Y-98854419D01*
X143089428Y-98854419D02*
X142946571Y-98806800D01*
X142946571Y-98806800D02*
X142851333Y-98711561D01*
X142851333Y-98711561D02*
X142803714Y-98616323D01*
X142803714Y-98616323D02*
X142756095Y-98425847D01*
X142756095Y-98425847D02*
X142756095Y-98282990D01*
X142756095Y-98282990D02*
X142803714Y-98092514D01*
X142803714Y-98092514D02*
X142851333Y-97997276D01*
X142851333Y-97997276D02*
X142946571Y-97902038D01*
X142946571Y-97902038D02*
X143089428Y-97854419D01*
X143089428Y-97854419D02*
X143184666Y-97854419D01*
X143184666Y-97854419D02*
X143327523Y-97902038D01*
X143327523Y-97902038D02*
X143375142Y-97949657D01*
X143756095Y-97949657D02*
X143803714Y-97902038D01*
X143803714Y-97902038D02*
X143898952Y-97854419D01*
X143898952Y-97854419D02*
X144137047Y-97854419D01*
X144137047Y-97854419D02*
X144232285Y-97902038D01*
X144232285Y-97902038D02*
X144279904Y-97949657D01*
X144279904Y-97949657D02*
X144327523Y-98044895D01*
X144327523Y-98044895D02*
X144327523Y-98140133D01*
X144327523Y-98140133D02*
X144279904Y-98282990D01*
X144279904Y-98282990D02*
X143708476Y-98854419D01*
X143708476Y-98854419D02*
X144327523Y-98854419D01*
X144708476Y-97949657D02*
X144756095Y-97902038D01*
X144756095Y-97902038D02*
X144851333Y-97854419D01*
X144851333Y-97854419D02*
X145089428Y-97854419D01*
X145089428Y-97854419D02*
X145184666Y-97902038D01*
X145184666Y-97902038D02*
X145232285Y-97949657D01*
X145232285Y-97949657D02*
X145279904Y-98044895D01*
X145279904Y-98044895D02*
X145279904Y-98140133D01*
X145279904Y-98140133D02*
X145232285Y-98282990D01*
X145232285Y-98282990D02*
X144660857Y-98854419D01*
X144660857Y-98854419D02*
X145279904Y-98854419D01*
D12*
X149684647Y-113419466D02*
X149442742Y-113588800D01*
X149684647Y-113709752D02*
X149176647Y-113709752D01*
X149176647Y-113709752D02*
X149176647Y-113516228D01*
X149176647Y-113516228D02*
X149200837Y-113467847D01*
X149200837Y-113467847D02*
X149225028Y-113443657D01*
X149225028Y-113443657D02*
X149273409Y-113419466D01*
X149273409Y-113419466D02*
X149345980Y-113419466D01*
X149345980Y-113419466D02*
X149394361Y-113443657D01*
X149394361Y-113443657D02*
X149418552Y-113467847D01*
X149418552Y-113467847D02*
X149442742Y-113516228D01*
X149442742Y-113516228D02*
X149442742Y-113709752D01*
X149394361Y-113129181D02*
X149370171Y-113177562D01*
X149370171Y-113177562D02*
X149345980Y-113201752D01*
X149345980Y-113201752D02*
X149297599Y-113225943D01*
X149297599Y-113225943D02*
X149273409Y-113225943D01*
X149273409Y-113225943D02*
X149225028Y-113201752D01*
X149225028Y-113201752D02*
X149200837Y-113177562D01*
X149200837Y-113177562D02*
X149176647Y-113129181D01*
X149176647Y-113129181D02*
X149176647Y-113032419D01*
X149176647Y-113032419D02*
X149200837Y-112984038D01*
X149200837Y-112984038D02*
X149225028Y-112959847D01*
X149225028Y-112959847D02*
X149273409Y-112935657D01*
X149273409Y-112935657D02*
X149297599Y-112935657D01*
X149297599Y-112935657D02*
X149345980Y-112959847D01*
X149345980Y-112959847D02*
X149370171Y-112984038D01*
X149370171Y-112984038D02*
X149394361Y-113032419D01*
X149394361Y-113032419D02*
X149394361Y-113129181D01*
X149394361Y-113129181D02*
X149418552Y-113177562D01*
X149418552Y-113177562D02*
X149442742Y-113201752D01*
X149442742Y-113201752D02*
X149491123Y-113225943D01*
X149491123Y-113225943D02*
X149587885Y-113225943D01*
X149587885Y-113225943D02*
X149636266Y-113201752D01*
X149636266Y-113201752D02*
X149660457Y-113177562D01*
X149660457Y-113177562D02*
X149684647Y-113129181D01*
X149684647Y-113129181D02*
X149684647Y-113032419D01*
X149684647Y-113032419D02*
X149660457Y-112984038D01*
X149660457Y-112984038D02*
X149636266Y-112959847D01*
X149636266Y-112959847D02*
X149587885Y-112935657D01*
X149587885Y-112935657D02*
X149491123Y-112935657D01*
X149491123Y-112935657D02*
X149442742Y-112959847D01*
X149442742Y-112959847D02*
X149418552Y-112984038D01*
X149418552Y-112984038D02*
X149394361Y-113032419D01*
D10*
X125296705Y-133195219D02*
X125296705Y-132195219D01*
X125296705Y-132195219D02*
X125534800Y-132195219D01*
X125534800Y-132195219D02*
X125677657Y-132242838D01*
X125677657Y-132242838D02*
X125772895Y-132338076D01*
X125772895Y-132338076D02*
X125820514Y-132433314D01*
X125820514Y-132433314D02*
X125868133Y-132623790D01*
X125868133Y-132623790D02*
X125868133Y-132766647D01*
X125868133Y-132766647D02*
X125820514Y-132957123D01*
X125820514Y-132957123D02*
X125772895Y-133052361D01*
X125772895Y-133052361D02*
X125677657Y-133147600D01*
X125677657Y-133147600D02*
X125534800Y-133195219D01*
X125534800Y-133195219D02*
X125296705Y-133195219D01*
X126725276Y-132528552D02*
X126725276Y-133195219D01*
X126487181Y-132147600D02*
X126249086Y-132861885D01*
X126249086Y-132861885D02*
X126868133Y-132861885D01*
X133340019Y-120835657D02*
X132863828Y-121168990D01*
X133340019Y-121407085D02*
X132340019Y-121407085D01*
X132340019Y-121407085D02*
X132340019Y-121026133D01*
X132340019Y-121026133D02*
X132387638Y-120930895D01*
X132387638Y-120930895D02*
X132435257Y-120883276D01*
X132435257Y-120883276D02*
X132530495Y-120835657D01*
X132530495Y-120835657D02*
X132673352Y-120835657D01*
X132673352Y-120835657D02*
X132768590Y-120883276D01*
X132768590Y-120883276D02*
X132816209Y-120930895D01*
X132816209Y-120930895D02*
X132863828Y-121026133D01*
X132863828Y-121026133D02*
X132863828Y-121407085D01*
X132435257Y-120454704D02*
X132387638Y-120407085D01*
X132387638Y-120407085D02*
X132340019Y-120311847D01*
X132340019Y-120311847D02*
X132340019Y-120073752D01*
X132340019Y-120073752D02*
X132387638Y-119978514D01*
X132387638Y-119978514D02*
X132435257Y-119930895D01*
X132435257Y-119930895D02*
X132530495Y-119883276D01*
X132530495Y-119883276D02*
X132625733Y-119883276D01*
X132625733Y-119883276D02*
X132768590Y-119930895D01*
X132768590Y-119930895D02*
X133340019Y-120502323D01*
X133340019Y-120502323D02*
X133340019Y-119883276D01*
X132340019Y-119549942D02*
X132340019Y-118883276D01*
X132340019Y-118883276D02*
X133340019Y-119311847D01*
X146409580Y-132113257D02*
X146457200Y-132160876D01*
X146457200Y-132160876D02*
X146504819Y-132303733D01*
X146504819Y-132303733D02*
X146504819Y-132398971D01*
X146504819Y-132398971D02*
X146457200Y-132541828D01*
X146457200Y-132541828D02*
X146361961Y-132637066D01*
X146361961Y-132637066D02*
X146266723Y-132684685D01*
X146266723Y-132684685D02*
X146076247Y-132732304D01*
X146076247Y-132732304D02*
X145933390Y-132732304D01*
X145933390Y-132732304D02*
X145742914Y-132684685D01*
X145742914Y-132684685D02*
X145647676Y-132637066D01*
X145647676Y-132637066D02*
X145552438Y-132541828D01*
X145552438Y-132541828D02*
X145504819Y-132398971D01*
X145504819Y-132398971D02*
X145504819Y-132303733D01*
X145504819Y-132303733D02*
X145552438Y-132160876D01*
X145552438Y-132160876D02*
X145600057Y-132113257D01*
X145504819Y-131779923D02*
X145504819Y-131160876D01*
X145504819Y-131160876D02*
X145885771Y-131494209D01*
X145885771Y-131494209D02*
X145885771Y-131351352D01*
X145885771Y-131351352D02*
X145933390Y-131256114D01*
X145933390Y-131256114D02*
X145981009Y-131208495D01*
X145981009Y-131208495D02*
X146076247Y-131160876D01*
X146076247Y-131160876D02*
X146314342Y-131160876D01*
X146314342Y-131160876D02*
X146409580Y-131208495D01*
X146409580Y-131208495D02*
X146457200Y-131256114D01*
X146457200Y-131256114D02*
X146504819Y-131351352D01*
X146504819Y-131351352D02*
X146504819Y-131637066D01*
X146504819Y-131637066D02*
X146457200Y-131732304D01*
X146457200Y-131732304D02*
X146409580Y-131779923D01*
X145933390Y-130589447D02*
X145885771Y-130684685D01*
X145885771Y-130684685D02*
X145838152Y-130732304D01*
X145838152Y-130732304D02*
X145742914Y-130779923D01*
X145742914Y-130779923D02*
X145695295Y-130779923D01*
X145695295Y-130779923D02*
X145600057Y-130732304D01*
X145600057Y-130732304D02*
X145552438Y-130684685D01*
X145552438Y-130684685D02*
X145504819Y-130589447D01*
X145504819Y-130589447D02*
X145504819Y-130398971D01*
X145504819Y-130398971D02*
X145552438Y-130303733D01*
X145552438Y-130303733D02*
X145600057Y-130256114D01*
X145600057Y-130256114D02*
X145695295Y-130208495D01*
X145695295Y-130208495D02*
X145742914Y-130208495D01*
X145742914Y-130208495D02*
X145838152Y-130256114D01*
X145838152Y-130256114D02*
X145885771Y-130303733D01*
X145885771Y-130303733D02*
X145933390Y-130398971D01*
X145933390Y-130398971D02*
X145933390Y-130589447D01*
X145933390Y-130589447D02*
X145981009Y-130684685D01*
X145981009Y-130684685D02*
X146028628Y-130732304D01*
X146028628Y-130732304D02*
X146123866Y-130779923D01*
X146123866Y-130779923D02*
X146314342Y-130779923D01*
X146314342Y-130779923D02*
X146409580Y-130732304D01*
X146409580Y-130732304D02*
X146457200Y-130684685D01*
X146457200Y-130684685D02*
X146504819Y-130589447D01*
X146504819Y-130589447D02*
X146504819Y-130398971D01*
X146504819Y-130398971D02*
X146457200Y-130303733D01*
X146457200Y-130303733D02*
X146409580Y-130256114D01*
X146409580Y-130256114D02*
X146314342Y-130208495D01*
X146314342Y-130208495D02*
X146123866Y-130208495D01*
X146123866Y-130208495D02*
X146028628Y-130256114D01*
X146028628Y-130256114D02*
X145981009Y-130303733D01*
X145981009Y-130303733D02*
X145933390Y-130398971D01*
X154739169Y-127460093D02*
X154671825Y-127460093D01*
X154671825Y-127460093D02*
X154537138Y-127392749D01*
X154537138Y-127392749D02*
X154469795Y-127325406D01*
X154469795Y-127325406D02*
X154402451Y-127190719D01*
X154402451Y-127190719D02*
X154402451Y-127056032D01*
X154402451Y-127056032D02*
X154436123Y-126955017D01*
X154436123Y-126955017D02*
X154537138Y-126786658D01*
X154537138Y-126786658D02*
X154638153Y-126685643D01*
X154638153Y-126685643D02*
X154806512Y-126584627D01*
X154806512Y-126584627D02*
X154907527Y-126550956D01*
X154907527Y-126550956D02*
X155042214Y-126550956D01*
X155042214Y-126550956D02*
X155176901Y-126618299D01*
X155176901Y-126618299D02*
X155244245Y-126685643D01*
X155244245Y-126685643D02*
X155311588Y-126820330D01*
X155311588Y-126820330D02*
X155311588Y-126887673D01*
X155345260Y-128200871D02*
X154941199Y-127796810D01*
X155143230Y-127998841D02*
X155850336Y-127291734D01*
X155850336Y-127291734D02*
X155681978Y-127325406D01*
X155681978Y-127325406D02*
X155547291Y-127325406D01*
X155547291Y-127325406D02*
X155446275Y-127291734D01*
X156490100Y-127931498D02*
X156557443Y-127998841D01*
X156557443Y-127998841D02*
X156591115Y-128099856D01*
X156591115Y-128099856D02*
X156591115Y-128167200D01*
X156591115Y-128167200D02*
X156557443Y-128268215D01*
X156557443Y-128268215D02*
X156456428Y-128436574D01*
X156456428Y-128436574D02*
X156288069Y-128604933D01*
X156288069Y-128604933D02*
X156119711Y-128705948D01*
X156119711Y-128705948D02*
X156018695Y-128739620D01*
X156018695Y-128739620D02*
X155951352Y-128739620D01*
X155951352Y-128739620D02*
X155850337Y-128705948D01*
X155850337Y-128705948D02*
X155782993Y-128638604D01*
X155782993Y-128638604D02*
X155749321Y-128537589D01*
X155749321Y-128537589D02*
X155749321Y-128470246D01*
X155749321Y-128470246D02*
X155782993Y-128369230D01*
X155782993Y-128369230D02*
X155884008Y-128200872D01*
X155884008Y-128200872D02*
X156052367Y-128032513D01*
X156052367Y-128032513D02*
X156220726Y-127931498D01*
X156220726Y-127931498D02*
X156321741Y-127897826D01*
X156321741Y-127897826D02*
X156389085Y-127897826D01*
X156389085Y-127897826D02*
X156490100Y-127931498D01*
X162647333Y-113033980D02*
X162599714Y-113081600D01*
X162599714Y-113081600D02*
X162456857Y-113129219D01*
X162456857Y-113129219D02*
X162361619Y-113129219D01*
X162361619Y-113129219D02*
X162218762Y-113081600D01*
X162218762Y-113081600D02*
X162123524Y-112986361D01*
X162123524Y-112986361D02*
X162075905Y-112891123D01*
X162075905Y-112891123D02*
X162028286Y-112700647D01*
X162028286Y-112700647D02*
X162028286Y-112557790D01*
X162028286Y-112557790D02*
X162075905Y-112367314D01*
X162075905Y-112367314D02*
X162123524Y-112272076D01*
X162123524Y-112272076D02*
X162218762Y-112176838D01*
X162218762Y-112176838D02*
X162361619Y-112129219D01*
X162361619Y-112129219D02*
X162456857Y-112129219D01*
X162456857Y-112129219D02*
X162599714Y-112176838D01*
X162599714Y-112176838D02*
X162647333Y-112224457D01*
X162980667Y-112129219D02*
X163647333Y-112129219D01*
X163647333Y-112129219D02*
X163218762Y-113129219D01*
X158449180Y-121731066D02*
X158496800Y-121778685D01*
X158496800Y-121778685D02*
X158544419Y-121921542D01*
X158544419Y-121921542D02*
X158544419Y-122016780D01*
X158544419Y-122016780D02*
X158496800Y-122159637D01*
X158496800Y-122159637D02*
X158401561Y-122254875D01*
X158401561Y-122254875D02*
X158306323Y-122302494D01*
X158306323Y-122302494D02*
X158115847Y-122350113D01*
X158115847Y-122350113D02*
X157972990Y-122350113D01*
X157972990Y-122350113D02*
X157782514Y-122302494D01*
X157782514Y-122302494D02*
X157687276Y-122254875D01*
X157687276Y-122254875D02*
X157592038Y-122159637D01*
X157592038Y-122159637D02*
X157544419Y-122016780D01*
X157544419Y-122016780D02*
X157544419Y-121921542D01*
X157544419Y-121921542D02*
X157592038Y-121778685D01*
X157592038Y-121778685D02*
X157639657Y-121731066D01*
X157544419Y-120873923D02*
X157544419Y-121064399D01*
X157544419Y-121064399D02*
X157592038Y-121159637D01*
X157592038Y-121159637D02*
X157639657Y-121207256D01*
X157639657Y-121207256D02*
X157782514Y-121302494D01*
X157782514Y-121302494D02*
X157972990Y-121350113D01*
X157972990Y-121350113D02*
X158353942Y-121350113D01*
X158353942Y-121350113D02*
X158449180Y-121302494D01*
X158449180Y-121302494D02*
X158496800Y-121254875D01*
X158496800Y-121254875D02*
X158544419Y-121159637D01*
X158544419Y-121159637D02*
X158544419Y-120969161D01*
X158544419Y-120969161D02*
X158496800Y-120873923D01*
X158496800Y-120873923D02*
X158449180Y-120826304D01*
X158449180Y-120826304D02*
X158353942Y-120778685D01*
X158353942Y-120778685D02*
X158115847Y-120778685D01*
X158115847Y-120778685D02*
X158020609Y-120826304D01*
X158020609Y-120826304D02*
X157972990Y-120873923D01*
X157972990Y-120873923D02*
X157925371Y-120969161D01*
X157925371Y-120969161D02*
X157925371Y-121159637D01*
X157925371Y-121159637D02*
X157972990Y-121254875D01*
X157972990Y-121254875D02*
X158020609Y-121302494D01*
X158020609Y-121302494D02*
X158115847Y-121350113D01*
X140428742Y-120603180D02*
X140381123Y-120650800D01*
X140381123Y-120650800D02*
X140238266Y-120698419D01*
X140238266Y-120698419D02*
X140143028Y-120698419D01*
X140143028Y-120698419D02*
X140000171Y-120650800D01*
X140000171Y-120650800D02*
X139904933Y-120555561D01*
X139904933Y-120555561D02*
X139857314Y-120460323D01*
X139857314Y-120460323D02*
X139809695Y-120269847D01*
X139809695Y-120269847D02*
X139809695Y-120126990D01*
X139809695Y-120126990D02*
X139857314Y-119936514D01*
X139857314Y-119936514D02*
X139904933Y-119841276D01*
X139904933Y-119841276D02*
X140000171Y-119746038D01*
X140000171Y-119746038D02*
X140143028Y-119698419D01*
X140143028Y-119698419D02*
X140238266Y-119698419D01*
X140238266Y-119698419D02*
X140381123Y-119746038D01*
X140381123Y-119746038D02*
X140428742Y-119793657D01*
X140762076Y-119698419D02*
X141381123Y-119698419D01*
X141381123Y-119698419D02*
X141047790Y-120079371D01*
X141047790Y-120079371D02*
X141190647Y-120079371D01*
X141190647Y-120079371D02*
X141285885Y-120126990D01*
X141285885Y-120126990D02*
X141333504Y-120174609D01*
X141333504Y-120174609D02*
X141381123Y-120269847D01*
X141381123Y-120269847D02*
X141381123Y-120507942D01*
X141381123Y-120507942D02*
X141333504Y-120603180D01*
X141333504Y-120603180D02*
X141285885Y-120650800D01*
X141285885Y-120650800D02*
X141190647Y-120698419D01*
X141190647Y-120698419D02*
X140904933Y-120698419D01*
X140904933Y-120698419D02*
X140809695Y-120650800D01*
X140809695Y-120650800D02*
X140762076Y-120603180D01*
X142285885Y-119698419D02*
X141809695Y-119698419D01*
X141809695Y-119698419D02*
X141762076Y-120174609D01*
X141762076Y-120174609D02*
X141809695Y-120126990D01*
X141809695Y-120126990D02*
X141904933Y-120079371D01*
X141904933Y-120079371D02*
X142143028Y-120079371D01*
X142143028Y-120079371D02*
X142238266Y-120126990D01*
X142238266Y-120126990D02*
X142285885Y-120174609D01*
X142285885Y-120174609D02*
X142333504Y-120269847D01*
X142333504Y-120269847D02*
X142333504Y-120507942D01*
X142333504Y-120507942D02*
X142285885Y-120603180D01*
X142285885Y-120603180D02*
X142238266Y-120650800D01*
X142238266Y-120650800D02*
X142143028Y-120698419D01*
X142143028Y-120698419D02*
X141904933Y-120698419D01*
X141904933Y-120698419D02*
X141809695Y-120650800D01*
X141809695Y-120650800D02*
X141762076Y-120603180D01*
X162919580Y-101125257D02*
X162967200Y-101172876D01*
X162967200Y-101172876D02*
X163014819Y-101315733D01*
X163014819Y-101315733D02*
X163014819Y-101410971D01*
X163014819Y-101410971D02*
X162967200Y-101553828D01*
X162967200Y-101553828D02*
X162871961Y-101649066D01*
X162871961Y-101649066D02*
X162776723Y-101696685D01*
X162776723Y-101696685D02*
X162586247Y-101744304D01*
X162586247Y-101744304D02*
X162443390Y-101744304D01*
X162443390Y-101744304D02*
X162252914Y-101696685D01*
X162252914Y-101696685D02*
X162157676Y-101649066D01*
X162157676Y-101649066D02*
X162062438Y-101553828D01*
X162062438Y-101553828D02*
X162014819Y-101410971D01*
X162014819Y-101410971D02*
X162014819Y-101315733D01*
X162014819Y-101315733D02*
X162062438Y-101172876D01*
X162062438Y-101172876D02*
X162110057Y-101125257D01*
X163014819Y-100172876D02*
X163014819Y-100744304D01*
X163014819Y-100458590D02*
X162014819Y-100458590D01*
X162014819Y-100458590D02*
X162157676Y-100553828D01*
X162157676Y-100553828D02*
X162252914Y-100649066D01*
X162252914Y-100649066D02*
X162300533Y-100744304D01*
X162443390Y-99601447D02*
X162395771Y-99696685D01*
X162395771Y-99696685D02*
X162348152Y-99744304D01*
X162348152Y-99744304D02*
X162252914Y-99791923D01*
X162252914Y-99791923D02*
X162205295Y-99791923D01*
X162205295Y-99791923D02*
X162110057Y-99744304D01*
X162110057Y-99744304D02*
X162062438Y-99696685D01*
X162062438Y-99696685D02*
X162014819Y-99601447D01*
X162014819Y-99601447D02*
X162014819Y-99410971D01*
X162014819Y-99410971D02*
X162062438Y-99315733D01*
X162062438Y-99315733D02*
X162110057Y-99268114D01*
X162110057Y-99268114D02*
X162205295Y-99220495D01*
X162205295Y-99220495D02*
X162252914Y-99220495D01*
X162252914Y-99220495D02*
X162348152Y-99268114D01*
X162348152Y-99268114D02*
X162395771Y-99315733D01*
X162395771Y-99315733D02*
X162443390Y-99410971D01*
X162443390Y-99410971D02*
X162443390Y-99601447D01*
X162443390Y-99601447D02*
X162491009Y-99696685D01*
X162491009Y-99696685D02*
X162538628Y-99744304D01*
X162538628Y-99744304D02*
X162633866Y-99791923D01*
X162633866Y-99791923D02*
X162824342Y-99791923D01*
X162824342Y-99791923D02*
X162919580Y-99744304D01*
X162919580Y-99744304D02*
X162967200Y-99696685D01*
X162967200Y-99696685D02*
X163014819Y-99601447D01*
X163014819Y-99601447D02*
X163014819Y-99410971D01*
X163014819Y-99410971D02*
X162967200Y-99315733D01*
X162967200Y-99315733D02*
X162919580Y-99268114D01*
X162919580Y-99268114D02*
X162824342Y-99220495D01*
X162824342Y-99220495D02*
X162633866Y-99220495D01*
X162633866Y-99220495D02*
X162538628Y-99268114D01*
X162538628Y-99268114D02*
X162491009Y-99315733D01*
X162491009Y-99315733D02*
X162443390Y-99410971D01*
X143273542Y-112830780D02*
X143225923Y-112878400D01*
X143225923Y-112878400D02*
X143083066Y-112926019D01*
X143083066Y-112926019D02*
X142987828Y-112926019D01*
X142987828Y-112926019D02*
X142844971Y-112878400D01*
X142844971Y-112878400D02*
X142749733Y-112783161D01*
X142749733Y-112783161D02*
X142702114Y-112687923D01*
X142702114Y-112687923D02*
X142654495Y-112497447D01*
X142654495Y-112497447D02*
X142654495Y-112354590D01*
X142654495Y-112354590D02*
X142702114Y-112164114D01*
X142702114Y-112164114D02*
X142749733Y-112068876D01*
X142749733Y-112068876D02*
X142844971Y-111973638D01*
X142844971Y-111973638D02*
X142987828Y-111926019D01*
X142987828Y-111926019D02*
X143083066Y-111926019D01*
X143083066Y-111926019D02*
X143225923Y-111973638D01*
X143225923Y-111973638D02*
X143273542Y-112021257D01*
X143654495Y-112021257D02*
X143702114Y-111973638D01*
X143702114Y-111973638D02*
X143797352Y-111926019D01*
X143797352Y-111926019D02*
X144035447Y-111926019D01*
X144035447Y-111926019D02*
X144130685Y-111973638D01*
X144130685Y-111973638D02*
X144178304Y-112021257D01*
X144178304Y-112021257D02*
X144225923Y-112116495D01*
X144225923Y-112116495D02*
X144225923Y-112211733D01*
X144225923Y-112211733D02*
X144178304Y-112354590D01*
X144178304Y-112354590D02*
X143606876Y-112926019D01*
X143606876Y-112926019D02*
X144225923Y-112926019D01*
X145083066Y-112259352D02*
X145083066Y-112926019D01*
X144844971Y-111878400D02*
X144606876Y-112592685D01*
X144606876Y-112592685D02*
X145225923Y-112592685D01*
D12*
X149023528Y-110857347D02*
X148854194Y-110615442D01*
X148733242Y-110857347D02*
X148733242Y-110349347D01*
X148733242Y-110349347D02*
X148926766Y-110349347D01*
X148926766Y-110349347D02*
X148975147Y-110373537D01*
X148975147Y-110373537D02*
X148999337Y-110397728D01*
X148999337Y-110397728D02*
X149023528Y-110446109D01*
X149023528Y-110446109D02*
X149023528Y-110518680D01*
X149023528Y-110518680D02*
X148999337Y-110567061D01*
X148999337Y-110567061D02*
X148975147Y-110591252D01*
X148975147Y-110591252D02*
X148926766Y-110615442D01*
X148926766Y-110615442D02*
X148733242Y-110615442D01*
X149507337Y-110857347D02*
X149217051Y-110857347D01*
X149362194Y-110857347D02*
X149362194Y-110349347D01*
X149362194Y-110349347D02*
X149313813Y-110421918D01*
X149313813Y-110421918D02*
X149265432Y-110470299D01*
X149265432Y-110470299D02*
X149217051Y-110494490D01*
X149942766Y-110518680D02*
X149942766Y-110857347D01*
X149821814Y-110325157D02*
X149700861Y-110688014D01*
X149700861Y-110688014D02*
X150015338Y-110688014D01*
D10*
X124636305Y-121003219D02*
X124636305Y-120003219D01*
X124636305Y-120003219D02*
X125017257Y-120003219D01*
X125017257Y-120003219D02*
X125112495Y-120050838D01*
X125112495Y-120050838D02*
X125160114Y-120098457D01*
X125160114Y-120098457D02*
X125207733Y-120193695D01*
X125207733Y-120193695D02*
X125207733Y-120336552D01*
X125207733Y-120336552D02*
X125160114Y-120431790D01*
X125160114Y-120431790D02*
X125112495Y-120479409D01*
X125112495Y-120479409D02*
X125017257Y-120527028D01*
X125017257Y-120527028D02*
X124636305Y-120527028D01*
X125588686Y-120098457D02*
X125636305Y-120050838D01*
X125636305Y-120050838D02*
X125731543Y-120003219D01*
X125731543Y-120003219D02*
X125969638Y-120003219D01*
X125969638Y-120003219D02*
X126064876Y-120050838D01*
X126064876Y-120050838D02*
X126112495Y-120098457D01*
X126112495Y-120098457D02*
X126160114Y-120193695D01*
X126160114Y-120193695D02*
X126160114Y-120288933D01*
X126160114Y-120288933D02*
X126112495Y-120431790D01*
X126112495Y-120431790D02*
X125541067Y-121003219D01*
X125541067Y-121003219D02*
X126160114Y-121003219D01*
X150639542Y-131620419D02*
X150306209Y-131144228D01*
X150068114Y-131620419D02*
X150068114Y-130620419D01*
X150068114Y-130620419D02*
X150449066Y-130620419D01*
X150449066Y-130620419D02*
X150544304Y-130668038D01*
X150544304Y-130668038D02*
X150591923Y-130715657D01*
X150591923Y-130715657D02*
X150639542Y-130810895D01*
X150639542Y-130810895D02*
X150639542Y-130953752D01*
X150639542Y-130953752D02*
X150591923Y-131048990D01*
X150591923Y-131048990D02*
X150544304Y-131096609D01*
X150544304Y-131096609D02*
X150449066Y-131144228D01*
X150449066Y-131144228D02*
X150068114Y-131144228D01*
X151020495Y-130715657D02*
X151068114Y-130668038D01*
X151068114Y-130668038D02*
X151163352Y-130620419D01*
X151163352Y-130620419D02*
X151401447Y-130620419D01*
X151401447Y-130620419D02*
X151496685Y-130668038D01*
X151496685Y-130668038D02*
X151544304Y-130715657D01*
X151544304Y-130715657D02*
X151591923Y-130810895D01*
X151591923Y-130810895D02*
X151591923Y-130906133D01*
X151591923Y-130906133D02*
X151544304Y-131048990D01*
X151544304Y-131048990D02*
X150972876Y-131620419D01*
X150972876Y-131620419D02*
X151591923Y-131620419D01*
X152163352Y-131048990D02*
X152068114Y-131001371D01*
X152068114Y-131001371D02*
X152020495Y-130953752D01*
X152020495Y-130953752D02*
X151972876Y-130858514D01*
X151972876Y-130858514D02*
X151972876Y-130810895D01*
X151972876Y-130810895D02*
X152020495Y-130715657D01*
X152020495Y-130715657D02*
X152068114Y-130668038D01*
X152068114Y-130668038D02*
X152163352Y-130620419D01*
X152163352Y-130620419D02*
X152353828Y-130620419D01*
X152353828Y-130620419D02*
X152449066Y-130668038D01*
X152449066Y-130668038D02*
X152496685Y-130715657D01*
X152496685Y-130715657D02*
X152544304Y-130810895D01*
X152544304Y-130810895D02*
X152544304Y-130858514D01*
X152544304Y-130858514D02*
X152496685Y-130953752D01*
X152496685Y-130953752D02*
X152449066Y-131001371D01*
X152449066Y-131001371D02*
X152353828Y-131048990D01*
X152353828Y-131048990D02*
X152163352Y-131048990D01*
X152163352Y-131048990D02*
X152068114Y-131096609D01*
X152068114Y-131096609D02*
X152020495Y-131144228D01*
X152020495Y-131144228D02*
X151972876Y-131239466D01*
X151972876Y-131239466D02*
X151972876Y-131429942D01*
X151972876Y-131429942D02*
X152020495Y-131525180D01*
X152020495Y-131525180D02*
X152068114Y-131572800D01*
X152068114Y-131572800D02*
X152163352Y-131620419D01*
X152163352Y-131620419D02*
X152353828Y-131620419D01*
X152353828Y-131620419D02*
X152449066Y-131572800D01*
X152449066Y-131572800D02*
X152496685Y-131525180D01*
X152496685Y-131525180D02*
X152544304Y-131429942D01*
X152544304Y-131429942D02*
X152544304Y-131239466D01*
X152544304Y-131239466D02*
X152496685Y-131144228D01*
X152496685Y-131144228D02*
X152449066Y-131096609D01*
X152449066Y-131096609D02*
X152353828Y-131048990D01*
X147896342Y-100333980D02*
X147848723Y-100381600D01*
X147848723Y-100381600D02*
X147705866Y-100429219D01*
X147705866Y-100429219D02*
X147610628Y-100429219D01*
X147610628Y-100429219D02*
X147467771Y-100381600D01*
X147467771Y-100381600D02*
X147372533Y-100286361D01*
X147372533Y-100286361D02*
X147324914Y-100191123D01*
X147324914Y-100191123D02*
X147277295Y-100000647D01*
X147277295Y-100000647D02*
X147277295Y-99857790D01*
X147277295Y-99857790D02*
X147324914Y-99667314D01*
X147324914Y-99667314D02*
X147372533Y-99572076D01*
X147372533Y-99572076D02*
X147467771Y-99476838D01*
X147467771Y-99476838D02*
X147610628Y-99429219D01*
X147610628Y-99429219D02*
X147705866Y-99429219D01*
X147705866Y-99429219D02*
X147848723Y-99476838D01*
X147848723Y-99476838D02*
X147896342Y-99524457D01*
X148277295Y-99524457D02*
X148324914Y-99476838D01*
X148324914Y-99476838D02*
X148420152Y-99429219D01*
X148420152Y-99429219D02*
X148658247Y-99429219D01*
X148658247Y-99429219D02*
X148753485Y-99476838D01*
X148753485Y-99476838D02*
X148801104Y-99524457D01*
X148801104Y-99524457D02*
X148848723Y-99619695D01*
X148848723Y-99619695D02*
X148848723Y-99714933D01*
X148848723Y-99714933D02*
X148801104Y-99857790D01*
X148801104Y-99857790D02*
X148229676Y-100429219D01*
X148229676Y-100429219D02*
X148848723Y-100429219D01*
X149801104Y-100429219D02*
X149229676Y-100429219D01*
X149515390Y-100429219D02*
X149515390Y-99429219D01*
X149515390Y-99429219D02*
X149420152Y-99572076D01*
X149420152Y-99572076D02*
X149324914Y-99667314D01*
X149324914Y-99667314D02*
X149229676Y-99714933D01*
X168710780Y-130436857D02*
X168758400Y-130484476D01*
X168758400Y-130484476D02*
X168806019Y-130627333D01*
X168806019Y-130627333D02*
X168806019Y-130722571D01*
X168806019Y-130722571D02*
X168758400Y-130865428D01*
X168758400Y-130865428D02*
X168663161Y-130960666D01*
X168663161Y-130960666D02*
X168567923Y-131008285D01*
X168567923Y-131008285D02*
X168377447Y-131055904D01*
X168377447Y-131055904D02*
X168234590Y-131055904D01*
X168234590Y-131055904D02*
X168044114Y-131008285D01*
X168044114Y-131008285D02*
X167948876Y-130960666D01*
X167948876Y-130960666D02*
X167853638Y-130865428D01*
X167853638Y-130865428D02*
X167806019Y-130722571D01*
X167806019Y-130722571D02*
X167806019Y-130627333D01*
X167806019Y-130627333D02*
X167853638Y-130484476D01*
X167853638Y-130484476D02*
X167901257Y-130436857D01*
X167806019Y-130103523D02*
X167806019Y-129484476D01*
X167806019Y-129484476D02*
X168186971Y-129817809D01*
X168186971Y-129817809D02*
X168186971Y-129674952D01*
X168186971Y-129674952D02*
X168234590Y-129579714D01*
X168234590Y-129579714D02*
X168282209Y-129532095D01*
X168282209Y-129532095D02*
X168377447Y-129484476D01*
X168377447Y-129484476D02*
X168615542Y-129484476D01*
X168615542Y-129484476D02*
X168710780Y-129532095D01*
X168710780Y-129532095D02*
X168758400Y-129579714D01*
X168758400Y-129579714D02*
X168806019Y-129674952D01*
X168806019Y-129674952D02*
X168806019Y-129960666D01*
X168806019Y-129960666D02*
X168758400Y-130055904D01*
X168758400Y-130055904D02*
X168710780Y-130103523D01*
X167806019Y-129151142D02*
X167806019Y-128532095D01*
X167806019Y-128532095D02*
X168186971Y-128865428D01*
X168186971Y-128865428D02*
X168186971Y-128722571D01*
X168186971Y-128722571D02*
X168234590Y-128627333D01*
X168234590Y-128627333D02*
X168282209Y-128579714D01*
X168282209Y-128579714D02*
X168377447Y-128532095D01*
X168377447Y-128532095D02*
X168615542Y-128532095D01*
X168615542Y-128532095D02*
X168710780Y-128579714D01*
X168710780Y-128579714D02*
X168758400Y-128627333D01*
X168758400Y-128627333D02*
X168806019Y-128722571D01*
X168806019Y-128722571D02*
X168806019Y-129008285D01*
X168806019Y-129008285D02*
X168758400Y-129103523D01*
X168758400Y-129103523D02*
X168710780Y-129151142D01*
X133340019Y-124239257D02*
X132863828Y-124572590D01*
X133340019Y-124810685D02*
X132340019Y-124810685D01*
X132340019Y-124810685D02*
X132340019Y-124429733D01*
X132340019Y-124429733D02*
X132387638Y-124334495D01*
X132387638Y-124334495D02*
X132435257Y-124286876D01*
X132435257Y-124286876D02*
X132530495Y-124239257D01*
X132530495Y-124239257D02*
X132673352Y-124239257D01*
X132673352Y-124239257D02*
X132768590Y-124286876D01*
X132768590Y-124286876D02*
X132816209Y-124334495D01*
X132816209Y-124334495D02*
X132863828Y-124429733D01*
X132863828Y-124429733D02*
X132863828Y-124810685D01*
X132435257Y-123858304D02*
X132387638Y-123810685D01*
X132387638Y-123810685D02*
X132340019Y-123715447D01*
X132340019Y-123715447D02*
X132340019Y-123477352D01*
X132340019Y-123477352D02*
X132387638Y-123382114D01*
X132387638Y-123382114D02*
X132435257Y-123334495D01*
X132435257Y-123334495D02*
X132530495Y-123286876D01*
X132530495Y-123286876D02*
X132625733Y-123286876D01*
X132625733Y-123286876D02*
X132768590Y-123334495D01*
X132768590Y-123334495D02*
X133340019Y-123905923D01*
X133340019Y-123905923D02*
X133340019Y-123286876D01*
X132340019Y-122429733D02*
X132340019Y-122620209D01*
X132340019Y-122620209D02*
X132387638Y-122715447D01*
X132387638Y-122715447D02*
X132435257Y-122763066D01*
X132435257Y-122763066D02*
X132578114Y-122858304D01*
X132578114Y-122858304D02*
X132768590Y-122905923D01*
X132768590Y-122905923D02*
X133149542Y-122905923D01*
X133149542Y-122905923D02*
X133244780Y-122858304D01*
X133244780Y-122858304D02*
X133292400Y-122810685D01*
X133292400Y-122810685D02*
X133340019Y-122715447D01*
X133340019Y-122715447D02*
X133340019Y-122524971D01*
X133340019Y-122524971D02*
X133292400Y-122429733D01*
X133292400Y-122429733D02*
X133244780Y-122382114D01*
X133244780Y-122382114D02*
X133149542Y-122334495D01*
X133149542Y-122334495D02*
X132911447Y-122334495D01*
X132911447Y-122334495D02*
X132816209Y-122382114D01*
X132816209Y-122382114D02*
X132768590Y-122429733D01*
X132768590Y-122429733D02*
X132720971Y-122524971D01*
X132720971Y-122524971D02*
X132720971Y-122715447D01*
X132720971Y-122715447D02*
X132768590Y-122810685D01*
X132768590Y-122810685D02*
X132816209Y-122858304D01*
X132816209Y-122858304D02*
X132911447Y-122905923D01*
X139361942Y-99317980D02*
X139314323Y-99365600D01*
X139314323Y-99365600D02*
X139171466Y-99413219D01*
X139171466Y-99413219D02*
X139076228Y-99413219D01*
X139076228Y-99413219D02*
X138933371Y-99365600D01*
X138933371Y-99365600D02*
X138838133Y-99270361D01*
X138838133Y-99270361D02*
X138790514Y-99175123D01*
X138790514Y-99175123D02*
X138742895Y-98984647D01*
X138742895Y-98984647D02*
X138742895Y-98841790D01*
X138742895Y-98841790D02*
X138790514Y-98651314D01*
X138790514Y-98651314D02*
X138838133Y-98556076D01*
X138838133Y-98556076D02*
X138933371Y-98460838D01*
X138933371Y-98460838D02*
X139076228Y-98413219D01*
X139076228Y-98413219D02*
X139171466Y-98413219D01*
X139171466Y-98413219D02*
X139314323Y-98460838D01*
X139314323Y-98460838D02*
X139361942Y-98508457D01*
X139742895Y-98508457D02*
X139790514Y-98460838D01*
X139790514Y-98460838D02*
X139885752Y-98413219D01*
X139885752Y-98413219D02*
X140123847Y-98413219D01*
X140123847Y-98413219D02*
X140219085Y-98460838D01*
X140219085Y-98460838D02*
X140266704Y-98508457D01*
X140266704Y-98508457D02*
X140314323Y-98603695D01*
X140314323Y-98603695D02*
X140314323Y-98698933D01*
X140314323Y-98698933D02*
X140266704Y-98841790D01*
X140266704Y-98841790D02*
X139695276Y-99413219D01*
X139695276Y-99413219D02*
X140314323Y-99413219D01*
X140885752Y-98841790D02*
X140790514Y-98794171D01*
X140790514Y-98794171D02*
X140742895Y-98746552D01*
X140742895Y-98746552D02*
X140695276Y-98651314D01*
X140695276Y-98651314D02*
X140695276Y-98603695D01*
X140695276Y-98603695D02*
X140742895Y-98508457D01*
X140742895Y-98508457D02*
X140790514Y-98460838D01*
X140790514Y-98460838D02*
X140885752Y-98413219D01*
X140885752Y-98413219D02*
X141076228Y-98413219D01*
X141076228Y-98413219D02*
X141171466Y-98460838D01*
X141171466Y-98460838D02*
X141219085Y-98508457D01*
X141219085Y-98508457D02*
X141266704Y-98603695D01*
X141266704Y-98603695D02*
X141266704Y-98651314D01*
X141266704Y-98651314D02*
X141219085Y-98746552D01*
X141219085Y-98746552D02*
X141171466Y-98794171D01*
X141171466Y-98794171D02*
X141076228Y-98841790D01*
X141076228Y-98841790D02*
X140885752Y-98841790D01*
X140885752Y-98841790D02*
X140790514Y-98889409D01*
X140790514Y-98889409D02*
X140742895Y-98937028D01*
X140742895Y-98937028D02*
X140695276Y-99032266D01*
X140695276Y-99032266D02*
X140695276Y-99222742D01*
X140695276Y-99222742D02*
X140742895Y-99317980D01*
X140742895Y-99317980D02*
X140790514Y-99365600D01*
X140790514Y-99365600D02*
X140885752Y-99413219D01*
X140885752Y-99413219D02*
X141076228Y-99413219D01*
X141076228Y-99413219D02*
X141171466Y-99365600D01*
X141171466Y-99365600D02*
X141219085Y-99317980D01*
X141219085Y-99317980D02*
X141266704Y-99222742D01*
X141266704Y-99222742D02*
X141266704Y-99032266D01*
X141266704Y-99032266D02*
X141219085Y-98937028D01*
X141219085Y-98937028D02*
X141171466Y-98889409D01*
X141171466Y-98889409D02*
X141076228Y-98841790D01*
X165168342Y-106728419D02*
X164835009Y-106252228D01*
X164596914Y-106728419D02*
X164596914Y-105728419D01*
X164596914Y-105728419D02*
X164977866Y-105728419D01*
X164977866Y-105728419D02*
X165073104Y-105776038D01*
X165073104Y-105776038D02*
X165120723Y-105823657D01*
X165120723Y-105823657D02*
X165168342Y-105918895D01*
X165168342Y-105918895D02*
X165168342Y-106061752D01*
X165168342Y-106061752D02*
X165120723Y-106156990D01*
X165120723Y-106156990D02*
X165073104Y-106204609D01*
X165073104Y-106204609D02*
X164977866Y-106252228D01*
X164977866Y-106252228D02*
X164596914Y-106252228D01*
X166120723Y-106728419D02*
X165549295Y-106728419D01*
X165835009Y-106728419D02*
X165835009Y-105728419D01*
X165835009Y-105728419D02*
X165739771Y-105871276D01*
X165739771Y-105871276D02*
X165644533Y-105966514D01*
X165644533Y-105966514D02*
X165549295Y-106014133D01*
X166596914Y-106728419D02*
X166787390Y-106728419D01*
X166787390Y-106728419D02*
X166882628Y-106680800D01*
X166882628Y-106680800D02*
X166930247Y-106633180D01*
X166930247Y-106633180D02*
X167025485Y-106490323D01*
X167025485Y-106490323D02*
X167073104Y-106299847D01*
X167073104Y-106299847D02*
X167073104Y-105918895D01*
X167073104Y-105918895D02*
X167025485Y-105823657D01*
X167025485Y-105823657D02*
X166977866Y-105776038D01*
X166977866Y-105776038D02*
X166882628Y-105728419D01*
X166882628Y-105728419D02*
X166692152Y-105728419D01*
X166692152Y-105728419D02*
X166596914Y-105776038D01*
X166596914Y-105776038D02*
X166549295Y-105823657D01*
X166549295Y-105823657D02*
X166501676Y-105918895D01*
X166501676Y-105918895D02*
X166501676Y-106156990D01*
X166501676Y-106156990D02*
X166549295Y-106252228D01*
X166549295Y-106252228D02*
X166596914Y-106299847D01*
X166596914Y-106299847D02*
X166692152Y-106347466D01*
X166692152Y-106347466D02*
X166882628Y-106347466D01*
X166882628Y-106347466D02*
X166977866Y-106299847D01*
X166977866Y-106299847D02*
X167025485Y-106252228D01*
X167025485Y-106252228D02*
X167073104Y-106156990D01*
X168816380Y-103868457D02*
X168864000Y-103916076D01*
X168864000Y-103916076D02*
X168911619Y-104058933D01*
X168911619Y-104058933D02*
X168911619Y-104154171D01*
X168911619Y-104154171D02*
X168864000Y-104297028D01*
X168864000Y-104297028D02*
X168768761Y-104392266D01*
X168768761Y-104392266D02*
X168673523Y-104439885D01*
X168673523Y-104439885D02*
X168483047Y-104487504D01*
X168483047Y-104487504D02*
X168340190Y-104487504D01*
X168340190Y-104487504D02*
X168149714Y-104439885D01*
X168149714Y-104439885D02*
X168054476Y-104392266D01*
X168054476Y-104392266D02*
X167959238Y-104297028D01*
X167959238Y-104297028D02*
X167911619Y-104154171D01*
X167911619Y-104154171D02*
X167911619Y-104058933D01*
X167911619Y-104058933D02*
X167959238Y-103916076D01*
X167959238Y-103916076D02*
X168006857Y-103868457D01*
X167911619Y-103535123D02*
X167911619Y-102916076D01*
X167911619Y-102916076D02*
X168292571Y-103249409D01*
X168292571Y-103249409D02*
X168292571Y-103106552D01*
X168292571Y-103106552D02*
X168340190Y-103011314D01*
X168340190Y-103011314D02*
X168387809Y-102963695D01*
X168387809Y-102963695D02*
X168483047Y-102916076D01*
X168483047Y-102916076D02*
X168721142Y-102916076D01*
X168721142Y-102916076D02*
X168816380Y-102963695D01*
X168816380Y-102963695D02*
X168864000Y-103011314D01*
X168864000Y-103011314D02*
X168911619Y-103106552D01*
X168911619Y-103106552D02*
X168911619Y-103392266D01*
X168911619Y-103392266D02*
X168864000Y-103487504D01*
X168864000Y-103487504D02*
X168816380Y-103535123D01*
X168244952Y-102058933D02*
X168911619Y-102058933D01*
X167864000Y-102297028D02*
X168578285Y-102535123D01*
X168578285Y-102535123D02*
X168578285Y-101916076D01*
X128712933Y-104587219D02*
X128379600Y-104111028D01*
X128141505Y-104587219D02*
X128141505Y-103587219D01*
X128141505Y-103587219D02*
X128522457Y-103587219D01*
X128522457Y-103587219D02*
X128617695Y-103634838D01*
X128617695Y-103634838D02*
X128665314Y-103682457D01*
X128665314Y-103682457D02*
X128712933Y-103777695D01*
X128712933Y-103777695D02*
X128712933Y-103920552D01*
X128712933Y-103920552D02*
X128665314Y-104015790D01*
X128665314Y-104015790D02*
X128617695Y-104063409D01*
X128617695Y-104063409D02*
X128522457Y-104111028D01*
X128522457Y-104111028D02*
X128141505Y-104111028D01*
X129093886Y-103682457D02*
X129141505Y-103634838D01*
X129141505Y-103634838D02*
X129236743Y-103587219D01*
X129236743Y-103587219D02*
X129474838Y-103587219D01*
X129474838Y-103587219D02*
X129570076Y-103634838D01*
X129570076Y-103634838D02*
X129617695Y-103682457D01*
X129617695Y-103682457D02*
X129665314Y-103777695D01*
X129665314Y-103777695D02*
X129665314Y-103872933D01*
X129665314Y-103872933D02*
X129617695Y-104015790D01*
X129617695Y-104015790D02*
X129046267Y-104587219D01*
X129046267Y-104587219D02*
X129665314Y-104587219D01*
X143717180Y-119851466D02*
X143764800Y-119899085D01*
X143764800Y-119899085D02*
X143812419Y-120041942D01*
X143812419Y-120041942D02*
X143812419Y-120137180D01*
X143812419Y-120137180D02*
X143764800Y-120280037D01*
X143764800Y-120280037D02*
X143669561Y-120375275D01*
X143669561Y-120375275D02*
X143574323Y-120422894D01*
X143574323Y-120422894D02*
X143383847Y-120470513D01*
X143383847Y-120470513D02*
X143240990Y-120470513D01*
X143240990Y-120470513D02*
X143050514Y-120422894D01*
X143050514Y-120422894D02*
X142955276Y-120375275D01*
X142955276Y-120375275D02*
X142860038Y-120280037D01*
X142860038Y-120280037D02*
X142812419Y-120137180D01*
X142812419Y-120137180D02*
X142812419Y-120041942D01*
X142812419Y-120041942D02*
X142860038Y-119899085D01*
X142860038Y-119899085D02*
X142907657Y-119851466D01*
X143812419Y-118899085D02*
X143812419Y-119470513D01*
X143812419Y-119184799D02*
X142812419Y-119184799D01*
X142812419Y-119184799D02*
X142955276Y-119280037D01*
X142955276Y-119280037D02*
X143050514Y-119375275D01*
X143050514Y-119375275D02*
X143098133Y-119470513D01*
X145190380Y-130436857D02*
X145238000Y-130484476D01*
X145238000Y-130484476D02*
X145285619Y-130627333D01*
X145285619Y-130627333D02*
X145285619Y-130722571D01*
X145285619Y-130722571D02*
X145238000Y-130865428D01*
X145238000Y-130865428D02*
X145142761Y-130960666D01*
X145142761Y-130960666D02*
X145047523Y-131008285D01*
X145047523Y-131008285D02*
X144857047Y-131055904D01*
X144857047Y-131055904D02*
X144714190Y-131055904D01*
X144714190Y-131055904D02*
X144523714Y-131008285D01*
X144523714Y-131008285D02*
X144428476Y-130960666D01*
X144428476Y-130960666D02*
X144333238Y-130865428D01*
X144333238Y-130865428D02*
X144285619Y-130722571D01*
X144285619Y-130722571D02*
X144285619Y-130627333D01*
X144285619Y-130627333D02*
X144333238Y-130484476D01*
X144333238Y-130484476D02*
X144380857Y-130436857D01*
X144618952Y-129579714D02*
X145285619Y-129579714D01*
X144238000Y-129817809D02*
X144952285Y-130055904D01*
X144952285Y-130055904D02*
X144952285Y-129436857D01*
X145285619Y-128532095D02*
X145285619Y-129103523D01*
X145285619Y-128817809D02*
X144285619Y-128817809D01*
X144285619Y-128817809D02*
X144428476Y-128913047D01*
X144428476Y-128913047D02*
X144523714Y-129008285D01*
X144523714Y-129008285D02*
X144571333Y-129103523D01*
X130986305Y-129537619D02*
X130986305Y-128537619D01*
X130986305Y-128537619D02*
X131224400Y-128537619D01*
X131224400Y-128537619D02*
X131367257Y-128585238D01*
X131367257Y-128585238D02*
X131462495Y-128680476D01*
X131462495Y-128680476D02*
X131510114Y-128775714D01*
X131510114Y-128775714D02*
X131557733Y-128966190D01*
X131557733Y-128966190D02*
X131557733Y-129109047D01*
X131557733Y-129109047D02*
X131510114Y-129299523D01*
X131510114Y-129299523D02*
X131462495Y-129394761D01*
X131462495Y-129394761D02*
X131367257Y-129490000D01*
X131367257Y-129490000D02*
X131224400Y-129537619D01*
X131224400Y-129537619D02*
X130986305Y-129537619D01*
X131938686Y-128632857D02*
X131986305Y-128585238D01*
X131986305Y-128585238D02*
X132081543Y-128537619D01*
X132081543Y-128537619D02*
X132319638Y-128537619D01*
X132319638Y-128537619D02*
X132414876Y-128585238D01*
X132414876Y-128585238D02*
X132462495Y-128632857D01*
X132462495Y-128632857D02*
X132510114Y-128728095D01*
X132510114Y-128728095D02*
X132510114Y-128823333D01*
X132510114Y-128823333D02*
X132462495Y-128966190D01*
X132462495Y-128966190D02*
X131891067Y-129537619D01*
X131891067Y-129537619D02*
X132510114Y-129537619D01*
X159631142Y-111154380D02*
X159583523Y-111202000D01*
X159583523Y-111202000D02*
X159440666Y-111249619D01*
X159440666Y-111249619D02*
X159345428Y-111249619D01*
X159345428Y-111249619D02*
X159202571Y-111202000D01*
X159202571Y-111202000D02*
X159107333Y-111106761D01*
X159107333Y-111106761D02*
X159059714Y-111011523D01*
X159059714Y-111011523D02*
X159012095Y-110821047D01*
X159012095Y-110821047D02*
X159012095Y-110678190D01*
X159012095Y-110678190D02*
X159059714Y-110487714D01*
X159059714Y-110487714D02*
X159107333Y-110392476D01*
X159107333Y-110392476D02*
X159202571Y-110297238D01*
X159202571Y-110297238D02*
X159345428Y-110249619D01*
X159345428Y-110249619D02*
X159440666Y-110249619D01*
X159440666Y-110249619D02*
X159583523Y-110297238D01*
X159583523Y-110297238D02*
X159631142Y-110344857D01*
X160583523Y-111249619D02*
X160012095Y-111249619D01*
X160297809Y-111249619D02*
X160297809Y-110249619D01*
X160297809Y-110249619D02*
X160202571Y-110392476D01*
X160202571Y-110392476D02*
X160107333Y-110487714D01*
X160107333Y-110487714D02*
X160012095Y-110535333D01*
X161488285Y-110249619D02*
X161012095Y-110249619D01*
X161012095Y-110249619D02*
X160964476Y-110725809D01*
X160964476Y-110725809D02*
X161012095Y-110678190D01*
X161012095Y-110678190D02*
X161107333Y-110630571D01*
X161107333Y-110630571D02*
X161345428Y-110630571D01*
X161345428Y-110630571D02*
X161440666Y-110678190D01*
X161440666Y-110678190D02*
X161488285Y-110725809D01*
X161488285Y-110725809D02*
X161535904Y-110821047D01*
X161535904Y-110821047D02*
X161535904Y-111059142D01*
X161535904Y-111059142D02*
X161488285Y-111154380D01*
X161488285Y-111154380D02*
X161440666Y-111202000D01*
X161440666Y-111202000D02*
X161345428Y-111249619D01*
X161345428Y-111249619D02*
X161107333Y-111249619D01*
X161107333Y-111249619D02*
X161012095Y-111202000D01*
X161012095Y-111202000D02*
X160964476Y-111154380D01*
X142938667Y-114097600D02*
X143081524Y-114145219D01*
X143081524Y-114145219D02*
X143319619Y-114145219D01*
X143319619Y-114145219D02*
X143414857Y-114097600D01*
X143414857Y-114097600D02*
X143462476Y-114049980D01*
X143462476Y-114049980D02*
X143510095Y-113954742D01*
X143510095Y-113954742D02*
X143510095Y-113859504D01*
X143510095Y-113859504D02*
X143462476Y-113764266D01*
X143462476Y-113764266D02*
X143414857Y-113716647D01*
X143414857Y-113716647D02*
X143319619Y-113669028D01*
X143319619Y-113669028D02*
X143129143Y-113621409D01*
X143129143Y-113621409D02*
X143033905Y-113573790D01*
X143033905Y-113573790D02*
X142986286Y-113526171D01*
X142986286Y-113526171D02*
X142938667Y-113430933D01*
X142938667Y-113430933D02*
X142938667Y-113335695D01*
X142938667Y-113335695D02*
X142986286Y-113240457D01*
X142986286Y-113240457D02*
X143033905Y-113192838D01*
X143033905Y-113192838D02*
X143129143Y-113145219D01*
X143129143Y-113145219D02*
X143367238Y-113145219D01*
X143367238Y-113145219D02*
X143510095Y-113192838D01*
X143843429Y-113145219D02*
X144081524Y-114145219D01*
X144081524Y-114145219D02*
X144272000Y-113430933D01*
X144272000Y-113430933D02*
X144462476Y-114145219D01*
X144462476Y-114145219D02*
X144700572Y-113145219D01*
X145605333Y-114145219D02*
X145033905Y-114145219D01*
X145319619Y-114145219D02*
X145319619Y-113145219D01*
X145319619Y-113145219D02*
X145224381Y-113288076D01*
X145224381Y-113288076D02*
X145129143Y-113383314D01*
X145129143Y-113383314D02*
X145033905Y-113430933D01*
X140794019Y-110455266D02*
X140794019Y-110931456D01*
X140794019Y-110931456D02*
X139794019Y-110931456D01*
X140794019Y-109598123D02*
X140794019Y-110169551D01*
X140794019Y-109883837D02*
X139794019Y-109883837D01*
X139794019Y-109883837D02*
X139936876Y-109979075D01*
X139936876Y-109979075D02*
X140032114Y-110074313D01*
X140032114Y-110074313D02*
X140079733Y-110169551D01*
X138637180Y-122054857D02*
X138684800Y-122102476D01*
X138684800Y-122102476D02*
X138732419Y-122245333D01*
X138732419Y-122245333D02*
X138732419Y-122340571D01*
X138732419Y-122340571D02*
X138684800Y-122483428D01*
X138684800Y-122483428D02*
X138589561Y-122578666D01*
X138589561Y-122578666D02*
X138494323Y-122626285D01*
X138494323Y-122626285D02*
X138303847Y-122673904D01*
X138303847Y-122673904D02*
X138160990Y-122673904D01*
X138160990Y-122673904D02*
X137970514Y-122626285D01*
X137970514Y-122626285D02*
X137875276Y-122578666D01*
X137875276Y-122578666D02*
X137780038Y-122483428D01*
X137780038Y-122483428D02*
X137732419Y-122340571D01*
X137732419Y-122340571D02*
X137732419Y-122245333D01*
X137732419Y-122245333D02*
X137780038Y-122102476D01*
X137780038Y-122102476D02*
X137827657Y-122054857D01*
X138065752Y-121197714D02*
X138732419Y-121197714D01*
X137684800Y-121435809D02*
X138399085Y-121673904D01*
X138399085Y-121673904D02*
X138399085Y-121054857D01*
X137827657Y-120721523D02*
X137780038Y-120673904D01*
X137780038Y-120673904D02*
X137732419Y-120578666D01*
X137732419Y-120578666D02*
X137732419Y-120340571D01*
X137732419Y-120340571D02*
X137780038Y-120245333D01*
X137780038Y-120245333D02*
X137827657Y-120197714D01*
X137827657Y-120197714D02*
X137922895Y-120150095D01*
X137922895Y-120150095D02*
X138018133Y-120150095D01*
X138018133Y-120150095D02*
X138160990Y-120197714D01*
X138160990Y-120197714D02*
X138732419Y-120769142D01*
X138732419Y-120769142D02*
X138732419Y-120150095D01*
D12*
X148466628Y-109959047D02*
X148297294Y-109717142D01*
X148176342Y-109959047D02*
X148176342Y-109451047D01*
X148176342Y-109451047D02*
X148369866Y-109451047D01*
X148369866Y-109451047D02*
X148418247Y-109475237D01*
X148418247Y-109475237D02*
X148442437Y-109499428D01*
X148442437Y-109499428D02*
X148466628Y-109547809D01*
X148466628Y-109547809D02*
X148466628Y-109620380D01*
X148466628Y-109620380D02*
X148442437Y-109668761D01*
X148442437Y-109668761D02*
X148418247Y-109692952D01*
X148418247Y-109692952D02*
X148369866Y-109717142D01*
X148369866Y-109717142D02*
X148176342Y-109717142D01*
X148950437Y-109959047D02*
X148660151Y-109959047D01*
X148805294Y-109959047D02*
X148805294Y-109451047D01*
X148805294Y-109451047D02*
X148756913Y-109523618D01*
X148756913Y-109523618D02*
X148708532Y-109571999D01*
X148708532Y-109571999D02*
X148660151Y-109596190D01*
X149410057Y-109451047D02*
X149168152Y-109451047D01*
X149168152Y-109451047D02*
X149143961Y-109692952D01*
X149143961Y-109692952D02*
X149168152Y-109668761D01*
X149168152Y-109668761D02*
X149216533Y-109644571D01*
X149216533Y-109644571D02*
X149337485Y-109644571D01*
X149337485Y-109644571D02*
X149385866Y-109668761D01*
X149385866Y-109668761D02*
X149410057Y-109692952D01*
X149410057Y-109692952D02*
X149434247Y-109741333D01*
X149434247Y-109741333D02*
X149434247Y-109862285D01*
X149434247Y-109862285D02*
X149410057Y-109910666D01*
X149410057Y-109910666D02*
X149385866Y-109934857D01*
X149385866Y-109934857D02*
X149337485Y-109959047D01*
X149337485Y-109959047D02*
X149216533Y-109959047D01*
X149216533Y-109959047D02*
X149168152Y-109934857D01*
X149168152Y-109934857D02*
X149143961Y-109910666D01*
D10*
X143984742Y-123143180D02*
X143937123Y-123190800D01*
X143937123Y-123190800D02*
X143794266Y-123238419D01*
X143794266Y-123238419D02*
X143699028Y-123238419D01*
X143699028Y-123238419D02*
X143556171Y-123190800D01*
X143556171Y-123190800D02*
X143460933Y-123095561D01*
X143460933Y-123095561D02*
X143413314Y-123000323D01*
X143413314Y-123000323D02*
X143365695Y-122809847D01*
X143365695Y-122809847D02*
X143365695Y-122666990D01*
X143365695Y-122666990D02*
X143413314Y-122476514D01*
X143413314Y-122476514D02*
X143460933Y-122381276D01*
X143460933Y-122381276D02*
X143556171Y-122286038D01*
X143556171Y-122286038D02*
X143699028Y-122238419D01*
X143699028Y-122238419D02*
X143794266Y-122238419D01*
X143794266Y-122238419D02*
X143937123Y-122286038D01*
X143937123Y-122286038D02*
X143984742Y-122333657D01*
X144365695Y-122333657D02*
X144413314Y-122286038D01*
X144413314Y-122286038D02*
X144508552Y-122238419D01*
X144508552Y-122238419D02*
X144746647Y-122238419D01*
X144746647Y-122238419D02*
X144841885Y-122286038D01*
X144841885Y-122286038D02*
X144889504Y-122333657D01*
X144889504Y-122333657D02*
X144937123Y-122428895D01*
X144937123Y-122428895D02*
X144937123Y-122524133D01*
X144937123Y-122524133D02*
X144889504Y-122666990D01*
X144889504Y-122666990D02*
X144318076Y-123238419D01*
X144318076Y-123238419D02*
X144937123Y-123238419D01*
X145794266Y-122238419D02*
X145603790Y-122238419D01*
X145603790Y-122238419D02*
X145508552Y-122286038D01*
X145508552Y-122286038D02*
X145460933Y-122333657D01*
X145460933Y-122333657D02*
X145365695Y-122476514D01*
X145365695Y-122476514D02*
X145318076Y-122666990D01*
X145318076Y-122666990D02*
X145318076Y-123047942D01*
X145318076Y-123047942D02*
X145365695Y-123143180D01*
X145365695Y-123143180D02*
X145413314Y-123190800D01*
X145413314Y-123190800D02*
X145508552Y-123238419D01*
X145508552Y-123238419D02*
X145699028Y-123238419D01*
X145699028Y-123238419D02*
X145794266Y-123190800D01*
X145794266Y-123190800D02*
X145841885Y-123143180D01*
X145841885Y-123143180D02*
X145889504Y-123047942D01*
X145889504Y-123047942D02*
X145889504Y-122809847D01*
X145889504Y-122809847D02*
X145841885Y-122714609D01*
X145841885Y-122714609D02*
X145794266Y-122666990D01*
X145794266Y-122666990D02*
X145699028Y-122619371D01*
X145699028Y-122619371D02*
X145508552Y-122619371D01*
X145508552Y-122619371D02*
X145413314Y-122666990D01*
X145413314Y-122666990D02*
X145365695Y-122714609D01*
X145365695Y-122714609D02*
X145318076Y-122809847D01*
D12*
X141294152Y-109552647D02*
X141294152Y-109963885D01*
X141294152Y-109963885D02*
X141318342Y-110012266D01*
X141318342Y-110012266D02*
X141342533Y-110036457D01*
X141342533Y-110036457D02*
X141390914Y-110060647D01*
X141390914Y-110060647D02*
X141487676Y-110060647D01*
X141487676Y-110060647D02*
X141536057Y-110036457D01*
X141536057Y-110036457D02*
X141560247Y-110012266D01*
X141560247Y-110012266D02*
X141584438Y-109963885D01*
X141584438Y-109963885D02*
X141584438Y-109552647D01*
X142044056Y-109721980D02*
X142044056Y-110060647D01*
X141923104Y-109528457D02*
X141802151Y-109891314D01*
X141802151Y-109891314D02*
X142116628Y-109891314D01*
D10*
X128560533Y-127912019D02*
X128227200Y-127435828D01*
X127989105Y-127912019D02*
X127989105Y-126912019D01*
X127989105Y-126912019D02*
X128370057Y-126912019D01*
X128370057Y-126912019D02*
X128465295Y-126959638D01*
X128465295Y-126959638D02*
X128512914Y-127007257D01*
X128512914Y-127007257D02*
X128560533Y-127102495D01*
X128560533Y-127102495D02*
X128560533Y-127245352D01*
X128560533Y-127245352D02*
X128512914Y-127340590D01*
X128512914Y-127340590D02*
X128465295Y-127388209D01*
X128465295Y-127388209D02*
X128370057Y-127435828D01*
X128370057Y-127435828D02*
X127989105Y-127435828D01*
X129465295Y-126912019D02*
X128989105Y-126912019D01*
X128989105Y-126912019D02*
X128941486Y-127388209D01*
X128941486Y-127388209D02*
X128989105Y-127340590D01*
X128989105Y-127340590D02*
X129084343Y-127292971D01*
X129084343Y-127292971D02*
X129322438Y-127292971D01*
X129322438Y-127292971D02*
X129417676Y-127340590D01*
X129417676Y-127340590D02*
X129465295Y-127388209D01*
X129465295Y-127388209D02*
X129512914Y-127483447D01*
X129512914Y-127483447D02*
X129512914Y-127721542D01*
X129512914Y-127721542D02*
X129465295Y-127816780D01*
X129465295Y-127816780D02*
X129417676Y-127864400D01*
X129417676Y-127864400D02*
X129322438Y-127912019D01*
X129322438Y-127912019D02*
X129084343Y-127912019D01*
X129084343Y-127912019D02*
X128989105Y-127864400D01*
X128989105Y-127864400D02*
X128941486Y-127816780D01*
D12*
X148979466Y-105996647D02*
X148979466Y-106359504D01*
X148979466Y-106359504D02*
X148955275Y-106432076D01*
X148955275Y-106432076D02*
X148906894Y-106480457D01*
X148906894Y-106480457D02*
X148834323Y-106504647D01*
X148834323Y-106504647D02*
X148785942Y-106504647D01*
X149487466Y-106504647D02*
X149197180Y-106504647D01*
X149342323Y-106504647D02*
X149342323Y-105996647D01*
X149342323Y-105996647D02*
X149293942Y-106069218D01*
X149293942Y-106069218D02*
X149245561Y-106117599D01*
X149245561Y-106117599D02*
X149197180Y-106141790D01*
D13*
X154060220Y-108409014D02*
X153757839Y-108620681D01*
X154060220Y-108771871D02*
X153425220Y-108771871D01*
X153425220Y-108771871D02*
X153425220Y-108529966D01*
X153425220Y-108529966D02*
X153455458Y-108469490D01*
X153455458Y-108469490D02*
X153485696Y-108439252D01*
X153485696Y-108439252D02*
X153546172Y-108409014D01*
X153546172Y-108409014D02*
X153636886Y-108409014D01*
X153636886Y-108409014D02*
X153697362Y-108439252D01*
X153697362Y-108439252D02*
X153727601Y-108469490D01*
X153727601Y-108469490D02*
X153757839Y-108529966D01*
X153757839Y-108529966D02*
X153757839Y-108771871D01*
X153485696Y-108167109D02*
X153455458Y-108136871D01*
X153455458Y-108136871D02*
X153425220Y-108076395D01*
X153425220Y-108076395D02*
X153425220Y-107925204D01*
X153425220Y-107925204D02*
X153455458Y-107864728D01*
X153455458Y-107864728D02*
X153485696Y-107834490D01*
X153485696Y-107834490D02*
X153546172Y-107804252D01*
X153546172Y-107804252D02*
X153606648Y-107804252D01*
X153606648Y-107804252D02*
X153697362Y-107834490D01*
X153697362Y-107834490D02*
X154060220Y-108197347D01*
X154060220Y-108197347D02*
X154060220Y-107804252D01*
X153425220Y-107592585D02*
X153425220Y-107199490D01*
X153425220Y-107199490D02*
X153667124Y-107411157D01*
X153667124Y-107411157D02*
X153667124Y-107320442D01*
X153667124Y-107320442D02*
X153697362Y-107259966D01*
X153697362Y-107259966D02*
X153727601Y-107229728D01*
X153727601Y-107229728D02*
X153788077Y-107199490D01*
X153788077Y-107199490D02*
X153939267Y-107199490D01*
X153939267Y-107199490D02*
X153999743Y-107229728D01*
X153999743Y-107229728D02*
X154029982Y-107259966D01*
X154029982Y-107259966D02*
X154060220Y-107320442D01*
X154060220Y-107320442D02*
X154060220Y-107501871D01*
X154060220Y-107501871D02*
X154029982Y-107562347D01*
X154029982Y-107562347D02*
X153999743Y-107592585D01*
D10*
X168855380Y-123426457D02*
X168903000Y-123474076D01*
X168903000Y-123474076D02*
X168950619Y-123616933D01*
X168950619Y-123616933D02*
X168950619Y-123712171D01*
X168950619Y-123712171D02*
X168903000Y-123855028D01*
X168903000Y-123855028D02*
X168807761Y-123950266D01*
X168807761Y-123950266D02*
X168712523Y-123997885D01*
X168712523Y-123997885D02*
X168522047Y-124045504D01*
X168522047Y-124045504D02*
X168379190Y-124045504D01*
X168379190Y-124045504D02*
X168188714Y-123997885D01*
X168188714Y-123997885D02*
X168093476Y-123950266D01*
X168093476Y-123950266D02*
X167998238Y-123855028D01*
X167998238Y-123855028D02*
X167950619Y-123712171D01*
X167950619Y-123712171D02*
X167950619Y-123616933D01*
X167950619Y-123616933D02*
X167998238Y-123474076D01*
X167998238Y-123474076D02*
X168045857Y-123426457D01*
X167950619Y-123093123D02*
X167950619Y-122474076D01*
X167950619Y-122474076D02*
X168331571Y-122807409D01*
X168331571Y-122807409D02*
X168331571Y-122664552D01*
X168331571Y-122664552D02*
X168379190Y-122569314D01*
X168379190Y-122569314D02*
X168426809Y-122521695D01*
X168426809Y-122521695D02*
X168522047Y-122474076D01*
X168522047Y-122474076D02*
X168760142Y-122474076D01*
X168760142Y-122474076D02*
X168855380Y-122521695D01*
X168855380Y-122521695D02*
X168903000Y-122569314D01*
X168903000Y-122569314D02*
X168950619Y-122664552D01*
X168950619Y-122664552D02*
X168950619Y-122950266D01*
X168950619Y-122950266D02*
X168903000Y-123045504D01*
X168903000Y-123045504D02*
X168855380Y-123093123D01*
X168950619Y-121521695D02*
X168950619Y-122093123D01*
X168950619Y-121807409D02*
X167950619Y-121807409D01*
X167950619Y-121807409D02*
X168093476Y-121902647D01*
X168093476Y-121902647D02*
X168188714Y-121997885D01*
X168188714Y-121997885D02*
X168236333Y-122093123D01*
X138376819Y-103868457D02*
X137900628Y-104201790D01*
X138376819Y-104439885D02*
X137376819Y-104439885D01*
X137376819Y-104439885D02*
X137376819Y-104058933D01*
X137376819Y-104058933D02*
X137424438Y-103963695D01*
X137424438Y-103963695D02*
X137472057Y-103916076D01*
X137472057Y-103916076D02*
X137567295Y-103868457D01*
X137567295Y-103868457D02*
X137710152Y-103868457D01*
X137710152Y-103868457D02*
X137805390Y-103916076D01*
X137805390Y-103916076D02*
X137853009Y-103963695D01*
X137853009Y-103963695D02*
X137900628Y-104058933D01*
X137900628Y-104058933D02*
X137900628Y-104439885D01*
X138376819Y-102916076D02*
X138376819Y-103487504D01*
X138376819Y-103201790D02*
X137376819Y-103201790D01*
X137376819Y-103201790D02*
X137519676Y-103297028D01*
X137519676Y-103297028D02*
X137614914Y-103392266D01*
X137614914Y-103392266D02*
X137662533Y-103487504D01*
X137376819Y-102058933D02*
X137376819Y-102249409D01*
X137376819Y-102249409D02*
X137424438Y-102344647D01*
X137424438Y-102344647D02*
X137472057Y-102392266D01*
X137472057Y-102392266D02*
X137614914Y-102487504D01*
X137614914Y-102487504D02*
X137805390Y-102535123D01*
X137805390Y-102535123D02*
X138186342Y-102535123D01*
X138186342Y-102535123D02*
X138281580Y-102487504D01*
X138281580Y-102487504D02*
X138329200Y-102439885D01*
X138329200Y-102439885D02*
X138376819Y-102344647D01*
X138376819Y-102344647D02*
X138376819Y-102154171D01*
X138376819Y-102154171D02*
X138329200Y-102058933D01*
X138329200Y-102058933D02*
X138281580Y-102011314D01*
X138281580Y-102011314D02*
X138186342Y-101963695D01*
X138186342Y-101963695D02*
X137948247Y-101963695D01*
X137948247Y-101963695D02*
X137853009Y-102011314D01*
X137853009Y-102011314D02*
X137805390Y-102058933D01*
X137805390Y-102058933D02*
X137757771Y-102154171D01*
X137757771Y-102154171D02*
X137757771Y-102344647D01*
X137757771Y-102344647D02*
X137805390Y-102439885D01*
X137805390Y-102439885D02*
X137853009Y-102487504D01*
X137853009Y-102487504D02*
X137948247Y-102535123D01*
X150537942Y-118267619D02*
X150204609Y-117791428D01*
X149966514Y-118267619D02*
X149966514Y-117267619D01*
X149966514Y-117267619D02*
X150347466Y-117267619D01*
X150347466Y-117267619D02*
X150442704Y-117315238D01*
X150442704Y-117315238D02*
X150490323Y-117362857D01*
X150490323Y-117362857D02*
X150537942Y-117458095D01*
X150537942Y-117458095D02*
X150537942Y-117600952D01*
X150537942Y-117600952D02*
X150490323Y-117696190D01*
X150490323Y-117696190D02*
X150442704Y-117743809D01*
X150442704Y-117743809D02*
X150347466Y-117791428D01*
X150347466Y-117791428D02*
X149966514Y-117791428D01*
X151490323Y-118267619D02*
X150918895Y-118267619D01*
X151204609Y-118267619D02*
X151204609Y-117267619D01*
X151204609Y-117267619D02*
X151109371Y-117410476D01*
X151109371Y-117410476D02*
X151014133Y-117505714D01*
X151014133Y-117505714D02*
X150918895Y-117553333D01*
X152109371Y-117267619D02*
X152204609Y-117267619D01*
X152204609Y-117267619D02*
X152299847Y-117315238D01*
X152299847Y-117315238D02*
X152347466Y-117362857D01*
X152347466Y-117362857D02*
X152395085Y-117458095D01*
X152395085Y-117458095D02*
X152442704Y-117648571D01*
X152442704Y-117648571D02*
X152442704Y-117886666D01*
X152442704Y-117886666D02*
X152395085Y-118077142D01*
X152395085Y-118077142D02*
X152347466Y-118172380D01*
X152347466Y-118172380D02*
X152299847Y-118220000D01*
X152299847Y-118220000D02*
X152204609Y-118267619D01*
X152204609Y-118267619D02*
X152109371Y-118267619D01*
X152109371Y-118267619D02*
X152014133Y-118220000D01*
X152014133Y-118220000D02*
X151966514Y-118172380D01*
X151966514Y-118172380D02*
X151918895Y-118077142D01*
X151918895Y-118077142D02*
X151871276Y-117886666D01*
X151871276Y-117886666D02*
X151871276Y-117648571D01*
X151871276Y-117648571D02*
X151918895Y-117458095D01*
X151918895Y-117458095D02*
X151966514Y-117362857D01*
X151966514Y-117362857D02*
X152014133Y-117315238D01*
X152014133Y-117315238D02*
X152109371Y-117267619D01*
X152976342Y-129944019D02*
X152643009Y-129467828D01*
X152404914Y-129944019D02*
X152404914Y-128944019D01*
X152404914Y-128944019D02*
X152785866Y-128944019D01*
X152785866Y-128944019D02*
X152881104Y-128991638D01*
X152881104Y-128991638D02*
X152928723Y-129039257D01*
X152928723Y-129039257D02*
X152976342Y-129134495D01*
X152976342Y-129134495D02*
X152976342Y-129277352D01*
X152976342Y-129277352D02*
X152928723Y-129372590D01*
X152928723Y-129372590D02*
X152881104Y-129420209D01*
X152881104Y-129420209D02*
X152785866Y-129467828D01*
X152785866Y-129467828D02*
X152404914Y-129467828D01*
X153928723Y-129944019D02*
X153357295Y-129944019D01*
X153643009Y-129944019D02*
X153643009Y-128944019D01*
X153643009Y-128944019D02*
X153547771Y-129086876D01*
X153547771Y-129086876D02*
X153452533Y-129182114D01*
X153452533Y-129182114D02*
X153357295Y-129229733D01*
X154262057Y-128944019D02*
X154881104Y-128944019D01*
X154881104Y-128944019D02*
X154547771Y-129324971D01*
X154547771Y-129324971D02*
X154690628Y-129324971D01*
X154690628Y-129324971D02*
X154785866Y-129372590D01*
X154785866Y-129372590D02*
X154833485Y-129420209D01*
X154833485Y-129420209D02*
X154881104Y-129515447D01*
X154881104Y-129515447D02*
X154881104Y-129753542D01*
X154881104Y-129753542D02*
X154833485Y-129848780D01*
X154833485Y-129848780D02*
X154785866Y-129896400D01*
X154785866Y-129896400D02*
X154690628Y-129944019D01*
X154690628Y-129944019D02*
X154404914Y-129944019D01*
X154404914Y-129944019D02*
X154309676Y-129896400D01*
X154309676Y-129896400D02*
X154262057Y-129848780D01*
X139819142Y-122838380D02*
X139771523Y-122886000D01*
X139771523Y-122886000D02*
X139628666Y-122933619D01*
X139628666Y-122933619D02*
X139533428Y-122933619D01*
X139533428Y-122933619D02*
X139390571Y-122886000D01*
X139390571Y-122886000D02*
X139295333Y-122790761D01*
X139295333Y-122790761D02*
X139247714Y-122695523D01*
X139247714Y-122695523D02*
X139200095Y-122505047D01*
X139200095Y-122505047D02*
X139200095Y-122362190D01*
X139200095Y-122362190D02*
X139247714Y-122171714D01*
X139247714Y-122171714D02*
X139295333Y-122076476D01*
X139295333Y-122076476D02*
X139390571Y-121981238D01*
X139390571Y-121981238D02*
X139533428Y-121933619D01*
X139533428Y-121933619D02*
X139628666Y-121933619D01*
X139628666Y-121933619D02*
X139771523Y-121981238D01*
X139771523Y-121981238D02*
X139819142Y-122028857D01*
X140152476Y-121933619D02*
X140771523Y-121933619D01*
X140771523Y-121933619D02*
X140438190Y-122314571D01*
X140438190Y-122314571D02*
X140581047Y-122314571D01*
X140581047Y-122314571D02*
X140676285Y-122362190D01*
X140676285Y-122362190D02*
X140723904Y-122409809D01*
X140723904Y-122409809D02*
X140771523Y-122505047D01*
X140771523Y-122505047D02*
X140771523Y-122743142D01*
X140771523Y-122743142D02*
X140723904Y-122838380D01*
X140723904Y-122838380D02*
X140676285Y-122886000D01*
X140676285Y-122886000D02*
X140581047Y-122933619D01*
X140581047Y-122933619D02*
X140295333Y-122933619D01*
X140295333Y-122933619D02*
X140200095Y-122886000D01*
X140200095Y-122886000D02*
X140152476Y-122838380D01*
X141247714Y-122933619D02*
X141438190Y-122933619D01*
X141438190Y-122933619D02*
X141533428Y-122886000D01*
X141533428Y-122886000D02*
X141581047Y-122838380D01*
X141581047Y-122838380D02*
X141676285Y-122695523D01*
X141676285Y-122695523D02*
X141723904Y-122505047D01*
X141723904Y-122505047D02*
X141723904Y-122124095D01*
X141723904Y-122124095D02*
X141676285Y-122028857D01*
X141676285Y-122028857D02*
X141628666Y-121981238D01*
X141628666Y-121981238D02*
X141533428Y-121933619D01*
X141533428Y-121933619D02*
X141342952Y-121933619D01*
X141342952Y-121933619D02*
X141247714Y-121981238D01*
X141247714Y-121981238D02*
X141200095Y-122028857D01*
X141200095Y-122028857D02*
X141152476Y-122124095D01*
X141152476Y-122124095D02*
X141152476Y-122362190D01*
X141152476Y-122362190D02*
X141200095Y-122457428D01*
X141200095Y-122457428D02*
X141247714Y-122505047D01*
X141247714Y-122505047D02*
X141342952Y-122552666D01*
X141342952Y-122552666D02*
X141533428Y-122552666D01*
X141533428Y-122552666D02*
X141628666Y-122505047D01*
X141628666Y-122505047D02*
X141676285Y-122457428D01*
X141676285Y-122457428D02*
X141723904Y-122362190D01*
X161923433Y-124592219D02*
X161590100Y-124116028D01*
X161352005Y-124592219D02*
X161352005Y-123592219D01*
X161352005Y-123592219D02*
X161732957Y-123592219D01*
X161732957Y-123592219D02*
X161828195Y-123639838D01*
X161828195Y-123639838D02*
X161875814Y-123687457D01*
X161875814Y-123687457D02*
X161923433Y-123782695D01*
X161923433Y-123782695D02*
X161923433Y-123925552D01*
X161923433Y-123925552D02*
X161875814Y-124020790D01*
X161875814Y-124020790D02*
X161828195Y-124068409D01*
X161828195Y-124068409D02*
X161732957Y-124116028D01*
X161732957Y-124116028D02*
X161352005Y-124116028D01*
X162399624Y-124592219D02*
X162590100Y-124592219D01*
X162590100Y-124592219D02*
X162685338Y-124544600D01*
X162685338Y-124544600D02*
X162732957Y-124496980D01*
X162732957Y-124496980D02*
X162828195Y-124354123D01*
X162828195Y-124354123D02*
X162875814Y-124163647D01*
X162875814Y-124163647D02*
X162875814Y-123782695D01*
X162875814Y-123782695D02*
X162828195Y-123687457D01*
X162828195Y-123687457D02*
X162780576Y-123639838D01*
X162780576Y-123639838D02*
X162685338Y-123592219D01*
X162685338Y-123592219D02*
X162494862Y-123592219D01*
X162494862Y-123592219D02*
X162399624Y-123639838D01*
X162399624Y-123639838D02*
X162352005Y-123687457D01*
X162352005Y-123687457D02*
X162304386Y-123782695D01*
X162304386Y-123782695D02*
X162304386Y-124020790D01*
X162304386Y-124020790D02*
X162352005Y-124116028D01*
X162352005Y-124116028D02*
X162399624Y-124163647D01*
X162399624Y-124163647D02*
X162494862Y-124211266D01*
X162494862Y-124211266D02*
X162685338Y-124211266D01*
X162685338Y-124211266D02*
X162780576Y-124163647D01*
X162780576Y-124163647D02*
X162828195Y-124116028D01*
X162828195Y-124116028D02*
X162875814Y-124020790D01*
X152353180Y-120581657D02*
X152400800Y-120629276D01*
X152400800Y-120629276D02*
X152448419Y-120772133D01*
X152448419Y-120772133D02*
X152448419Y-120867371D01*
X152448419Y-120867371D02*
X152400800Y-121010228D01*
X152400800Y-121010228D02*
X152305561Y-121105466D01*
X152305561Y-121105466D02*
X152210323Y-121153085D01*
X152210323Y-121153085D02*
X152019847Y-121200704D01*
X152019847Y-121200704D02*
X151876990Y-121200704D01*
X151876990Y-121200704D02*
X151686514Y-121153085D01*
X151686514Y-121153085D02*
X151591276Y-121105466D01*
X151591276Y-121105466D02*
X151496038Y-121010228D01*
X151496038Y-121010228D02*
X151448419Y-120867371D01*
X151448419Y-120867371D02*
X151448419Y-120772133D01*
X151448419Y-120772133D02*
X151496038Y-120629276D01*
X151496038Y-120629276D02*
X151543657Y-120581657D01*
X152448419Y-119629276D02*
X152448419Y-120200704D01*
X152448419Y-119914990D02*
X151448419Y-119914990D01*
X151448419Y-119914990D02*
X151591276Y-120010228D01*
X151591276Y-120010228D02*
X151686514Y-120105466D01*
X151686514Y-120105466D02*
X151734133Y-120200704D01*
X151781752Y-118772133D02*
X152448419Y-118772133D01*
X151400800Y-119010228D02*
X152115085Y-119248323D01*
X152115085Y-119248323D02*
X152115085Y-118629276D01*
X168050380Y-119362457D02*
X168098000Y-119410076D01*
X168098000Y-119410076D02*
X168145619Y-119552933D01*
X168145619Y-119552933D02*
X168145619Y-119648171D01*
X168145619Y-119648171D02*
X168098000Y-119791028D01*
X168098000Y-119791028D02*
X168002761Y-119886266D01*
X168002761Y-119886266D02*
X167907523Y-119933885D01*
X167907523Y-119933885D02*
X167717047Y-119981504D01*
X167717047Y-119981504D02*
X167574190Y-119981504D01*
X167574190Y-119981504D02*
X167383714Y-119933885D01*
X167383714Y-119933885D02*
X167288476Y-119886266D01*
X167288476Y-119886266D02*
X167193238Y-119791028D01*
X167193238Y-119791028D02*
X167145619Y-119648171D01*
X167145619Y-119648171D02*
X167145619Y-119552933D01*
X167145619Y-119552933D02*
X167193238Y-119410076D01*
X167193238Y-119410076D02*
X167240857Y-119362457D01*
X168145619Y-118410076D02*
X168145619Y-118981504D01*
X168145619Y-118695790D02*
X167145619Y-118695790D01*
X167145619Y-118695790D02*
X167288476Y-118791028D01*
X167288476Y-118791028D02*
X167383714Y-118886266D01*
X167383714Y-118886266D02*
X167431333Y-118981504D01*
X168145619Y-117457695D02*
X168145619Y-118029123D01*
X168145619Y-117743409D02*
X167145619Y-117743409D01*
X167145619Y-117743409D02*
X167288476Y-117838647D01*
X167288476Y-117838647D02*
X167383714Y-117933885D01*
X167383714Y-117933885D02*
X167431333Y-118029123D01*
X150178419Y-126390304D02*
X150987942Y-126390304D01*
X150987942Y-126390304D02*
X151083180Y-126342685D01*
X151083180Y-126342685D02*
X151130800Y-126295066D01*
X151130800Y-126295066D02*
X151178419Y-126199828D01*
X151178419Y-126199828D02*
X151178419Y-126009352D01*
X151178419Y-126009352D02*
X151130800Y-125914114D01*
X151130800Y-125914114D02*
X151083180Y-125866495D01*
X151083180Y-125866495D02*
X150987942Y-125818876D01*
X150987942Y-125818876D02*
X150178419Y-125818876D01*
X150178419Y-124866495D02*
X150178419Y-125342685D01*
X150178419Y-125342685D02*
X150654609Y-125390304D01*
X150654609Y-125390304D02*
X150606990Y-125342685D01*
X150606990Y-125342685D02*
X150559371Y-125247447D01*
X150559371Y-125247447D02*
X150559371Y-125009352D01*
X150559371Y-125009352D02*
X150606990Y-124914114D01*
X150606990Y-124914114D02*
X150654609Y-124866495D01*
X150654609Y-124866495D02*
X150749847Y-124818876D01*
X150749847Y-124818876D02*
X150987942Y-124818876D01*
X150987942Y-124818876D02*
X151083180Y-124866495D01*
X151083180Y-124866495D02*
X151130800Y-124914114D01*
X151130800Y-124914114D02*
X151178419Y-125009352D01*
X151178419Y-125009352D02*
X151178419Y-125247447D01*
X151178419Y-125247447D02*
X151130800Y-125342685D01*
X151130800Y-125342685D02*
X151083180Y-125390304D01*
X135600895Y-117945619D02*
X135600895Y-118755142D01*
X135600895Y-118755142D02*
X135648514Y-118850380D01*
X135648514Y-118850380D02*
X135696133Y-118898000D01*
X135696133Y-118898000D02*
X135791371Y-118945619D01*
X135791371Y-118945619D02*
X135981847Y-118945619D01*
X135981847Y-118945619D02*
X136077085Y-118898000D01*
X136077085Y-118898000D02*
X136124704Y-118850380D01*
X136124704Y-118850380D02*
X136172323Y-118755142D01*
X136172323Y-118755142D02*
X136172323Y-117945619D01*
X137077085Y-117945619D02*
X136886609Y-117945619D01*
X136886609Y-117945619D02*
X136791371Y-117993238D01*
X136791371Y-117993238D02*
X136743752Y-118040857D01*
X136743752Y-118040857D02*
X136648514Y-118183714D01*
X136648514Y-118183714D02*
X136600895Y-118374190D01*
X136600895Y-118374190D02*
X136600895Y-118755142D01*
X136600895Y-118755142D02*
X136648514Y-118850380D01*
X136648514Y-118850380D02*
X136696133Y-118898000D01*
X136696133Y-118898000D02*
X136791371Y-118945619D01*
X136791371Y-118945619D02*
X136981847Y-118945619D01*
X136981847Y-118945619D02*
X137077085Y-118898000D01*
X137077085Y-118898000D02*
X137124704Y-118850380D01*
X137124704Y-118850380D02*
X137172323Y-118755142D01*
X137172323Y-118755142D02*
X137172323Y-118517047D01*
X137172323Y-118517047D02*
X137124704Y-118421809D01*
X137124704Y-118421809D02*
X137077085Y-118374190D01*
X137077085Y-118374190D02*
X136981847Y-118326571D01*
X136981847Y-118326571D02*
X136791371Y-118326571D01*
X136791371Y-118326571D02*
X136696133Y-118374190D01*
X136696133Y-118374190D02*
X136648514Y-118421809D01*
X136648514Y-118421809D02*
X136600895Y-118517047D01*
D12*
X149735447Y-112137371D02*
X149493542Y-112306705D01*
X149735447Y-112427657D02*
X149227447Y-112427657D01*
X149227447Y-112427657D02*
X149227447Y-112234133D01*
X149227447Y-112234133D02*
X149251637Y-112185752D01*
X149251637Y-112185752D02*
X149275828Y-112161562D01*
X149275828Y-112161562D02*
X149324209Y-112137371D01*
X149324209Y-112137371D02*
X149396780Y-112137371D01*
X149396780Y-112137371D02*
X149445161Y-112161562D01*
X149445161Y-112161562D02*
X149469352Y-112185752D01*
X149469352Y-112185752D02*
X149493542Y-112234133D01*
X149493542Y-112234133D02*
X149493542Y-112427657D01*
X149735447Y-111653562D02*
X149735447Y-111943848D01*
X149735447Y-111798705D02*
X149227447Y-111798705D01*
X149227447Y-111798705D02*
X149300018Y-111847086D01*
X149300018Y-111847086D02*
X149348399Y-111895467D01*
X149348399Y-111895467D02*
X149372590Y-111943848D01*
X149275828Y-111460038D02*
X149251637Y-111435847D01*
X149251637Y-111435847D02*
X149227447Y-111387466D01*
X149227447Y-111387466D02*
X149227447Y-111266514D01*
X149227447Y-111266514D02*
X149251637Y-111218133D01*
X149251637Y-111218133D02*
X149275828Y-111193942D01*
X149275828Y-111193942D02*
X149324209Y-111169752D01*
X149324209Y-111169752D02*
X149372590Y-111169752D01*
X149372590Y-111169752D02*
X149445161Y-111193942D01*
X149445161Y-111193942D02*
X149735447Y-111484228D01*
X149735447Y-111484228D02*
X149735447Y-111169752D01*
D10*
X136415542Y-99100819D02*
X136082209Y-98624628D01*
X135844114Y-99100819D02*
X135844114Y-98100819D01*
X135844114Y-98100819D02*
X136225066Y-98100819D01*
X136225066Y-98100819D02*
X136320304Y-98148438D01*
X136320304Y-98148438D02*
X136367923Y-98196057D01*
X136367923Y-98196057D02*
X136415542Y-98291295D01*
X136415542Y-98291295D02*
X136415542Y-98434152D01*
X136415542Y-98434152D02*
X136367923Y-98529390D01*
X136367923Y-98529390D02*
X136320304Y-98577009D01*
X136320304Y-98577009D02*
X136225066Y-98624628D01*
X136225066Y-98624628D02*
X135844114Y-98624628D01*
X137367923Y-99100819D02*
X136796495Y-99100819D01*
X137082209Y-99100819D02*
X137082209Y-98100819D01*
X137082209Y-98100819D02*
X136986971Y-98243676D01*
X136986971Y-98243676D02*
X136891733Y-98338914D01*
X136891733Y-98338914D02*
X136796495Y-98386533D01*
X137701257Y-98100819D02*
X138367923Y-98100819D01*
X138367923Y-98100819D02*
X137939352Y-99100819D01*
X128446305Y-115084019D02*
X128446305Y-114084019D01*
X128446305Y-114084019D02*
X128684400Y-114084019D01*
X128684400Y-114084019D02*
X128827257Y-114131638D01*
X128827257Y-114131638D02*
X128922495Y-114226876D01*
X128922495Y-114226876D02*
X128970114Y-114322114D01*
X128970114Y-114322114D02*
X129017733Y-114512590D01*
X129017733Y-114512590D02*
X129017733Y-114655447D01*
X129017733Y-114655447D02*
X128970114Y-114845923D01*
X128970114Y-114845923D02*
X128922495Y-114941161D01*
X128922495Y-114941161D02*
X128827257Y-115036400D01*
X128827257Y-115036400D02*
X128684400Y-115084019D01*
X128684400Y-115084019D02*
X128446305Y-115084019D01*
X129922495Y-114084019D02*
X129446305Y-114084019D01*
X129446305Y-114084019D02*
X129398686Y-114560209D01*
X129398686Y-114560209D02*
X129446305Y-114512590D01*
X129446305Y-114512590D02*
X129541543Y-114464971D01*
X129541543Y-114464971D02*
X129779638Y-114464971D01*
X129779638Y-114464971D02*
X129874876Y-114512590D01*
X129874876Y-114512590D02*
X129922495Y-114560209D01*
X129922495Y-114560209D02*
X129970114Y-114655447D01*
X129970114Y-114655447D02*
X129970114Y-114893542D01*
X129970114Y-114893542D02*
X129922495Y-114988780D01*
X129922495Y-114988780D02*
X129874876Y-115036400D01*
X129874876Y-115036400D02*
X129779638Y-115084019D01*
X129779638Y-115084019D02*
X129541543Y-115084019D01*
X129541543Y-115084019D02*
X129446305Y-115036400D01*
X129446305Y-115036400D02*
X129398686Y-114988780D01*
X161747295Y-114059619D02*
X161747295Y-114869142D01*
X161747295Y-114869142D02*
X161794914Y-114964380D01*
X161794914Y-114964380D02*
X161842533Y-115012000D01*
X161842533Y-115012000D02*
X161937771Y-115059619D01*
X161937771Y-115059619D02*
X162128247Y-115059619D01*
X162128247Y-115059619D02*
X162223485Y-115012000D01*
X162223485Y-115012000D02*
X162271104Y-114964380D01*
X162271104Y-114964380D02*
X162318723Y-114869142D01*
X162318723Y-114869142D02*
X162318723Y-114059619D01*
X162747295Y-114154857D02*
X162794914Y-114107238D01*
X162794914Y-114107238D02*
X162890152Y-114059619D01*
X162890152Y-114059619D02*
X163128247Y-114059619D01*
X163128247Y-114059619D02*
X163223485Y-114107238D01*
X163223485Y-114107238D02*
X163271104Y-114154857D01*
X163271104Y-114154857D02*
X163318723Y-114250095D01*
X163318723Y-114250095D02*
X163318723Y-114345333D01*
X163318723Y-114345333D02*
X163271104Y-114488190D01*
X163271104Y-114488190D02*
X162699676Y-115059619D01*
X162699676Y-115059619D02*
X163318723Y-115059619D01*
X133804819Y-132773657D02*
X133328628Y-133106990D01*
X133804819Y-133345085D02*
X132804819Y-133345085D01*
X132804819Y-133345085D02*
X132804819Y-132964133D01*
X132804819Y-132964133D02*
X132852438Y-132868895D01*
X132852438Y-132868895D02*
X132900057Y-132821276D01*
X132900057Y-132821276D02*
X132995295Y-132773657D01*
X132995295Y-132773657D02*
X133138152Y-132773657D01*
X133138152Y-132773657D02*
X133233390Y-132821276D01*
X133233390Y-132821276D02*
X133281009Y-132868895D01*
X133281009Y-132868895D02*
X133328628Y-132964133D01*
X133328628Y-132964133D02*
X133328628Y-133345085D01*
X132900057Y-132392704D02*
X132852438Y-132345085D01*
X132852438Y-132345085D02*
X132804819Y-132249847D01*
X132804819Y-132249847D02*
X132804819Y-132011752D01*
X132804819Y-132011752D02*
X132852438Y-131916514D01*
X132852438Y-131916514D02*
X132900057Y-131868895D01*
X132900057Y-131868895D02*
X132995295Y-131821276D01*
X132995295Y-131821276D02*
X133090533Y-131821276D01*
X133090533Y-131821276D02*
X133233390Y-131868895D01*
X133233390Y-131868895D02*
X133804819Y-132440323D01*
X133804819Y-132440323D02*
X133804819Y-131821276D01*
X133138152Y-130964133D02*
X133804819Y-130964133D01*
X132757200Y-131202228D02*
X133471485Y-131440323D01*
X133471485Y-131440323D02*
X133471485Y-130821276D01*
D12*
X155221847Y-115756266D02*
X154979942Y-115925600D01*
X155221847Y-116046552D02*
X154713847Y-116046552D01*
X154713847Y-116046552D02*
X154713847Y-115853028D01*
X154713847Y-115853028D02*
X154738037Y-115804647D01*
X154738037Y-115804647D02*
X154762228Y-115780457D01*
X154762228Y-115780457D02*
X154810609Y-115756266D01*
X154810609Y-115756266D02*
X154883180Y-115756266D01*
X154883180Y-115756266D02*
X154931561Y-115780457D01*
X154931561Y-115780457D02*
X154955752Y-115804647D01*
X154955752Y-115804647D02*
X154979942Y-115853028D01*
X154979942Y-115853028D02*
X154979942Y-116046552D01*
X154713847Y-115586933D02*
X154713847Y-115248266D01*
X154713847Y-115248266D02*
X155221847Y-115465981D01*
D10*
X125036342Y-114508419D02*
X124703009Y-114032228D01*
X124464914Y-114508419D02*
X124464914Y-113508419D01*
X124464914Y-113508419D02*
X124845866Y-113508419D01*
X124845866Y-113508419D02*
X124941104Y-113556038D01*
X124941104Y-113556038D02*
X124988723Y-113603657D01*
X124988723Y-113603657D02*
X125036342Y-113698895D01*
X125036342Y-113698895D02*
X125036342Y-113841752D01*
X125036342Y-113841752D02*
X124988723Y-113936990D01*
X124988723Y-113936990D02*
X124941104Y-113984609D01*
X124941104Y-113984609D02*
X124845866Y-114032228D01*
X124845866Y-114032228D02*
X124464914Y-114032228D01*
X125417295Y-113603657D02*
X125464914Y-113556038D01*
X125464914Y-113556038D02*
X125560152Y-113508419D01*
X125560152Y-113508419D02*
X125798247Y-113508419D01*
X125798247Y-113508419D02*
X125893485Y-113556038D01*
X125893485Y-113556038D02*
X125941104Y-113603657D01*
X125941104Y-113603657D02*
X125988723Y-113698895D01*
X125988723Y-113698895D02*
X125988723Y-113794133D01*
X125988723Y-113794133D02*
X125941104Y-113936990D01*
X125941104Y-113936990D02*
X125369676Y-114508419D01*
X125369676Y-114508419D02*
X125988723Y-114508419D01*
X126893485Y-113508419D02*
X126417295Y-113508419D01*
X126417295Y-113508419D02*
X126369676Y-113984609D01*
X126369676Y-113984609D02*
X126417295Y-113936990D01*
X126417295Y-113936990D02*
X126512533Y-113889371D01*
X126512533Y-113889371D02*
X126750628Y-113889371D01*
X126750628Y-113889371D02*
X126845866Y-113936990D01*
X126845866Y-113936990D02*
X126893485Y-113984609D01*
X126893485Y-113984609D02*
X126941104Y-114079847D01*
X126941104Y-114079847D02*
X126941104Y-114317942D01*
X126941104Y-114317942D02*
X126893485Y-114413180D01*
X126893485Y-114413180D02*
X126845866Y-114460800D01*
X126845866Y-114460800D02*
X126750628Y-114508419D01*
X126750628Y-114508419D02*
X126512533Y-114508419D01*
X126512533Y-114508419D02*
X126417295Y-114460800D01*
X126417295Y-114460800D02*
X126369676Y-114413180D01*
X135701619Y-129300266D02*
X135701619Y-129776456D01*
X135701619Y-129776456D02*
X134701619Y-129776456D01*
X134796857Y-129014551D02*
X134749238Y-128966932D01*
X134749238Y-128966932D02*
X134701619Y-128871694D01*
X134701619Y-128871694D02*
X134701619Y-128633599D01*
X134701619Y-128633599D02*
X134749238Y-128538361D01*
X134749238Y-128538361D02*
X134796857Y-128490742D01*
X134796857Y-128490742D02*
X134892095Y-128443123D01*
X134892095Y-128443123D02*
X134987333Y-128443123D01*
X134987333Y-128443123D02*
X135130190Y-128490742D01*
X135130190Y-128490742D02*
X135701619Y-129062170D01*
X135701619Y-129062170D02*
X135701619Y-128443123D01*
X140719980Y-113926857D02*
X140767600Y-113974476D01*
X140767600Y-113974476D02*
X140815219Y-114117333D01*
X140815219Y-114117333D02*
X140815219Y-114212571D01*
X140815219Y-114212571D02*
X140767600Y-114355428D01*
X140767600Y-114355428D02*
X140672361Y-114450666D01*
X140672361Y-114450666D02*
X140577123Y-114498285D01*
X140577123Y-114498285D02*
X140386647Y-114545904D01*
X140386647Y-114545904D02*
X140243790Y-114545904D01*
X140243790Y-114545904D02*
X140053314Y-114498285D01*
X140053314Y-114498285D02*
X139958076Y-114450666D01*
X139958076Y-114450666D02*
X139862838Y-114355428D01*
X139862838Y-114355428D02*
X139815219Y-114212571D01*
X139815219Y-114212571D02*
X139815219Y-114117333D01*
X139815219Y-114117333D02*
X139862838Y-113974476D01*
X139862838Y-113974476D02*
X139910457Y-113926857D01*
X139815219Y-113593523D02*
X139815219Y-112974476D01*
X139815219Y-112974476D02*
X140196171Y-113307809D01*
X140196171Y-113307809D02*
X140196171Y-113164952D01*
X140196171Y-113164952D02*
X140243790Y-113069714D01*
X140243790Y-113069714D02*
X140291409Y-113022095D01*
X140291409Y-113022095D02*
X140386647Y-112974476D01*
X140386647Y-112974476D02*
X140624742Y-112974476D01*
X140624742Y-112974476D02*
X140719980Y-113022095D01*
X140719980Y-113022095D02*
X140767600Y-113069714D01*
X140767600Y-113069714D02*
X140815219Y-113164952D01*
X140815219Y-113164952D02*
X140815219Y-113450666D01*
X140815219Y-113450666D02*
X140767600Y-113545904D01*
X140767600Y-113545904D02*
X140719980Y-113593523D01*
X139815219Y-112117333D02*
X139815219Y-112307809D01*
X139815219Y-112307809D02*
X139862838Y-112403047D01*
X139862838Y-112403047D02*
X139910457Y-112450666D01*
X139910457Y-112450666D02*
X140053314Y-112545904D01*
X140053314Y-112545904D02*
X140243790Y-112593523D01*
X140243790Y-112593523D02*
X140624742Y-112593523D01*
X140624742Y-112593523D02*
X140719980Y-112545904D01*
X140719980Y-112545904D02*
X140767600Y-112498285D01*
X140767600Y-112498285D02*
X140815219Y-112403047D01*
X140815219Y-112403047D02*
X140815219Y-112212571D01*
X140815219Y-112212571D02*
X140767600Y-112117333D01*
X140767600Y-112117333D02*
X140719980Y-112069714D01*
X140719980Y-112069714D02*
X140624742Y-112022095D01*
X140624742Y-112022095D02*
X140386647Y-112022095D01*
X140386647Y-112022095D02*
X140291409Y-112069714D01*
X140291409Y-112069714D02*
X140243790Y-112117333D01*
X140243790Y-112117333D02*
X140196171Y-112212571D01*
X140196171Y-112212571D02*
X140196171Y-112403047D01*
X140196171Y-112403047D02*
X140243790Y-112498285D01*
X140243790Y-112498285D02*
X140291409Y-112545904D01*
X140291409Y-112545904D02*
X140386647Y-112593523D01*
D14*
X140378666Y-109247390D02*
X140354857Y-109271200D01*
X140354857Y-109271200D02*
X140283428Y-109295009D01*
X140283428Y-109295009D02*
X140235809Y-109295009D01*
X140235809Y-109295009D02*
X140164381Y-109271200D01*
X140164381Y-109271200D02*
X140116762Y-109223580D01*
X140116762Y-109223580D02*
X140092952Y-109175961D01*
X140092952Y-109175961D02*
X140069143Y-109080723D01*
X140069143Y-109080723D02*
X140069143Y-109009295D01*
X140069143Y-109009295D02*
X140092952Y-108914057D01*
X140092952Y-108914057D02*
X140116762Y-108866438D01*
X140116762Y-108866438D02*
X140164381Y-108818819D01*
X140164381Y-108818819D02*
X140235809Y-108795009D01*
X140235809Y-108795009D02*
X140283428Y-108795009D01*
X140283428Y-108795009D02*
X140354857Y-108818819D01*
X140354857Y-108818819D02*
X140378666Y-108842628D01*
X140807238Y-108961676D02*
X140807238Y-109295009D01*
X140688190Y-108771200D02*
X140569143Y-109128342D01*
X140569143Y-109128342D02*
X140878666Y-109128342D01*
D10*
X132077619Y-111063066D02*
X131601428Y-111396399D01*
X132077619Y-111634494D02*
X131077619Y-111634494D01*
X131077619Y-111634494D02*
X131077619Y-111253542D01*
X131077619Y-111253542D02*
X131125238Y-111158304D01*
X131125238Y-111158304D02*
X131172857Y-111110685D01*
X131172857Y-111110685D02*
X131268095Y-111063066D01*
X131268095Y-111063066D02*
X131410952Y-111063066D01*
X131410952Y-111063066D02*
X131506190Y-111110685D01*
X131506190Y-111110685D02*
X131553809Y-111158304D01*
X131553809Y-111158304D02*
X131601428Y-111253542D01*
X131601428Y-111253542D02*
X131601428Y-111634494D01*
X131077619Y-110729732D02*
X131077619Y-110110685D01*
X131077619Y-110110685D02*
X131458571Y-110444018D01*
X131458571Y-110444018D02*
X131458571Y-110301161D01*
X131458571Y-110301161D02*
X131506190Y-110205923D01*
X131506190Y-110205923D02*
X131553809Y-110158304D01*
X131553809Y-110158304D02*
X131649047Y-110110685D01*
X131649047Y-110110685D02*
X131887142Y-110110685D01*
X131887142Y-110110685D02*
X131982380Y-110158304D01*
X131982380Y-110158304D02*
X132030000Y-110205923D01*
X132030000Y-110205923D02*
X132077619Y-110301161D01*
X132077619Y-110301161D02*
X132077619Y-110586875D01*
X132077619Y-110586875D02*
X132030000Y-110682113D01*
X132030000Y-110682113D02*
X131982380Y-110729732D01*
X164730133Y-121517580D02*
X164682514Y-121565200D01*
X164682514Y-121565200D02*
X164539657Y-121612819D01*
X164539657Y-121612819D02*
X164444419Y-121612819D01*
X164444419Y-121612819D02*
X164301562Y-121565200D01*
X164301562Y-121565200D02*
X164206324Y-121469961D01*
X164206324Y-121469961D02*
X164158705Y-121374723D01*
X164158705Y-121374723D02*
X164111086Y-121184247D01*
X164111086Y-121184247D02*
X164111086Y-121041390D01*
X164111086Y-121041390D02*
X164158705Y-120850914D01*
X164158705Y-120850914D02*
X164206324Y-120755676D01*
X164206324Y-120755676D02*
X164301562Y-120660438D01*
X164301562Y-120660438D02*
X164444419Y-120612819D01*
X164444419Y-120612819D02*
X164539657Y-120612819D01*
X164539657Y-120612819D02*
X164682514Y-120660438D01*
X164682514Y-120660438D02*
X164730133Y-120708057D01*
X165301562Y-121041390D02*
X165206324Y-120993771D01*
X165206324Y-120993771D02*
X165158705Y-120946152D01*
X165158705Y-120946152D02*
X165111086Y-120850914D01*
X165111086Y-120850914D02*
X165111086Y-120803295D01*
X165111086Y-120803295D02*
X165158705Y-120708057D01*
X165158705Y-120708057D02*
X165206324Y-120660438D01*
X165206324Y-120660438D02*
X165301562Y-120612819D01*
X165301562Y-120612819D02*
X165492038Y-120612819D01*
X165492038Y-120612819D02*
X165587276Y-120660438D01*
X165587276Y-120660438D02*
X165634895Y-120708057D01*
X165634895Y-120708057D02*
X165682514Y-120803295D01*
X165682514Y-120803295D02*
X165682514Y-120850914D01*
X165682514Y-120850914D02*
X165634895Y-120946152D01*
X165634895Y-120946152D02*
X165587276Y-120993771D01*
X165587276Y-120993771D02*
X165492038Y-121041390D01*
X165492038Y-121041390D02*
X165301562Y-121041390D01*
X165301562Y-121041390D02*
X165206324Y-121089009D01*
X165206324Y-121089009D02*
X165158705Y-121136628D01*
X165158705Y-121136628D02*
X165111086Y-121231866D01*
X165111086Y-121231866D02*
X165111086Y-121422342D01*
X165111086Y-121422342D02*
X165158705Y-121517580D01*
X165158705Y-121517580D02*
X165206324Y-121565200D01*
X165206324Y-121565200D02*
X165301562Y-121612819D01*
X165301562Y-121612819D02*
X165492038Y-121612819D01*
X165492038Y-121612819D02*
X165587276Y-121565200D01*
X165587276Y-121565200D02*
X165634895Y-121517580D01*
X165634895Y-121517580D02*
X165682514Y-121422342D01*
X165682514Y-121422342D02*
X165682514Y-121231866D01*
X165682514Y-121231866D02*
X165634895Y-121136628D01*
X165634895Y-121136628D02*
X165587276Y-121089009D01*
X165587276Y-121089009D02*
X165492038Y-121041390D01*
X142548780Y-101192157D02*
X142596400Y-101239776D01*
X142596400Y-101239776D02*
X142644019Y-101382633D01*
X142644019Y-101382633D02*
X142644019Y-101477871D01*
X142644019Y-101477871D02*
X142596400Y-101620728D01*
X142596400Y-101620728D02*
X142501161Y-101715966D01*
X142501161Y-101715966D02*
X142405923Y-101763585D01*
X142405923Y-101763585D02*
X142215447Y-101811204D01*
X142215447Y-101811204D02*
X142072590Y-101811204D01*
X142072590Y-101811204D02*
X141882114Y-101763585D01*
X141882114Y-101763585D02*
X141786876Y-101715966D01*
X141786876Y-101715966D02*
X141691638Y-101620728D01*
X141691638Y-101620728D02*
X141644019Y-101477871D01*
X141644019Y-101477871D02*
X141644019Y-101382633D01*
X141644019Y-101382633D02*
X141691638Y-101239776D01*
X141691638Y-101239776D02*
X141739257Y-101192157D01*
X141739257Y-100811204D02*
X141691638Y-100763585D01*
X141691638Y-100763585D02*
X141644019Y-100668347D01*
X141644019Y-100668347D02*
X141644019Y-100430252D01*
X141644019Y-100430252D02*
X141691638Y-100335014D01*
X141691638Y-100335014D02*
X141739257Y-100287395D01*
X141739257Y-100287395D02*
X141834495Y-100239776D01*
X141834495Y-100239776D02*
X141929733Y-100239776D01*
X141929733Y-100239776D02*
X142072590Y-100287395D01*
X142072590Y-100287395D02*
X142644019Y-100858823D01*
X142644019Y-100858823D02*
X142644019Y-100239776D01*
X141644019Y-99906442D02*
X141644019Y-99287395D01*
X141644019Y-99287395D02*
X142024971Y-99620728D01*
X142024971Y-99620728D02*
X142024971Y-99477871D01*
X142024971Y-99477871D02*
X142072590Y-99382633D01*
X142072590Y-99382633D02*
X142120209Y-99335014D01*
X142120209Y-99335014D02*
X142215447Y-99287395D01*
X142215447Y-99287395D02*
X142453542Y-99287395D01*
X142453542Y-99287395D02*
X142548780Y-99335014D01*
X142548780Y-99335014D02*
X142596400Y-99382633D01*
X142596400Y-99382633D02*
X142644019Y-99477871D01*
X142644019Y-99477871D02*
X142644019Y-99763585D01*
X142644019Y-99763585D02*
X142596400Y-99858823D01*
X142596400Y-99858823D02*
X142548780Y-99906442D01*
D14*
X141613771Y-109247390D02*
X141589962Y-109271200D01*
X141589962Y-109271200D02*
X141518533Y-109295009D01*
X141518533Y-109295009D02*
X141470914Y-109295009D01*
X141470914Y-109295009D02*
X141399486Y-109271200D01*
X141399486Y-109271200D02*
X141351867Y-109223580D01*
X141351867Y-109223580D02*
X141328057Y-109175961D01*
X141328057Y-109175961D02*
X141304248Y-109080723D01*
X141304248Y-109080723D02*
X141304248Y-109009295D01*
X141304248Y-109009295D02*
X141328057Y-108914057D01*
X141328057Y-108914057D02*
X141351867Y-108866438D01*
X141351867Y-108866438D02*
X141399486Y-108818819D01*
X141399486Y-108818819D02*
X141470914Y-108795009D01*
X141470914Y-108795009D02*
X141518533Y-108795009D01*
X141518533Y-108795009D02*
X141589962Y-108818819D01*
X141589962Y-108818819D02*
X141613771Y-108842628D01*
X142089962Y-109295009D02*
X141804248Y-109295009D01*
X141947105Y-109295009D02*
X141947105Y-108795009D01*
X141947105Y-108795009D02*
X141899486Y-108866438D01*
X141899486Y-108866438D02*
X141851867Y-108914057D01*
X141851867Y-108914057D02*
X141804248Y-108937866D01*
X142328057Y-109295009D02*
X142423295Y-109295009D01*
X142423295Y-109295009D02*
X142470914Y-109271200D01*
X142470914Y-109271200D02*
X142494723Y-109247390D01*
X142494723Y-109247390D02*
X142542342Y-109175961D01*
X142542342Y-109175961D02*
X142566152Y-109080723D01*
X142566152Y-109080723D02*
X142566152Y-108890247D01*
X142566152Y-108890247D02*
X142542342Y-108842628D01*
X142542342Y-108842628D02*
X142518533Y-108818819D01*
X142518533Y-108818819D02*
X142470914Y-108795009D01*
X142470914Y-108795009D02*
X142375676Y-108795009D01*
X142375676Y-108795009D02*
X142328057Y-108818819D01*
X142328057Y-108818819D02*
X142304247Y-108842628D01*
X142304247Y-108842628D02*
X142280438Y-108890247D01*
X142280438Y-108890247D02*
X142280438Y-109009295D01*
X142280438Y-109009295D02*
X142304247Y-109056914D01*
X142304247Y-109056914D02*
X142328057Y-109080723D01*
X142328057Y-109080723D02*
X142375676Y-109104533D01*
X142375676Y-109104533D02*
X142470914Y-109104533D01*
X142470914Y-109104533D02*
X142518533Y-109080723D01*
X142518533Y-109080723D02*
X142542342Y-109056914D01*
X142542342Y-109056914D02*
X142566152Y-109009295D01*
D10*
X156329142Y-109528780D02*
X156281523Y-109576400D01*
X156281523Y-109576400D02*
X156138666Y-109624019D01*
X156138666Y-109624019D02*
X156043428Y-109624019D01*
X156043428Y-109624019D02*
X155900571Y-109576400D01*
X155900571Y-109576400D02*
X155805333Y-109481161D01*
X155805333Y-109481161D02*
X155757714Y-109385923D01*
X155757714Y-109385923D02*
X155710095Y-109195447D01*
X155710095Y-109195447D02*
X155710095Y-109052590D01*
X155710095Y-109052590D02*
X155757714Y-108862114D01*
X155757714Y-108862114D02*
X155805333Y-108766876D01*
X155805333Y-108766876D02*
X155900571Y-108671638D01*
X155900571Y-108671638D02*
X156043428Y-108624019D01*
X156043428Y-108624019D02*
X156138666Y-108624019D01*
X156138666Y-108624019D02*
X156281523Y-108671638D01*
X156281523Y-108671638D02*
X156329142Y-108719257D01*
X157281523Y-109624019D02*
X156710095Y-109624019D01*
X156995809Y-109624019D02*
X156995809Y-108624019D01*
X156995809Y-108624019D02*
X156900571Y-108766876D01*
X156900571Y-108766876D02*
X156805333Y-108862114D01*
X156805333Y-108862114D02*
X156710095Y-108909733D01*
X157662476Y-108719257D02*
X157710095Y-108671638D01*
X157710095Y-108671638D02*
X157805333Y-108624019D01*
X157805333Y-108624019D02*
X158043428Y-108624019D01*
X158043428Y-108624019D02*
X158138666Y-108671638D01*
X158138666Y-108671638D02*
X158186285Y-108719257D01*
X158186285Y-108719257D02*
X158233904Y-108814495D01*
X158233904Y-108814495D02*
X158233904Y-108909733D01*
X158233904Y-108909733D02*
X158186285Y-109052590D01*
X158186285Y-109052590D02*
X157614857Y-109624019D01*
X157614857Y-109624019D02*
X158233904Y-109624019D01*
X155547219Y-108440457D02*
X155071028Y-108773790D01*
X155547219Y-109011885D02*
X154547219Y-109011885D01*
X154547219Y-109011885D02*
X154547219Y-108630933D01*
X154547219Y-108630933D02*
X154594838Y-108535695D01*
X154594838Y-108535695D02*
X154642457Y-108488076D01*
X154642457Y-108488076D02*
X154737695Y-108440457D01*
X154737695Y-108440457D02*
X154880552Y-108440457D01*
X154880552Y-108440457D02*
X154975790Y-108488076D01*
X154975790Y-108488076D02*
X155023409Y-108535695D01*
X155023409Y-108535695D02*
X155071028Y-108630933D01*
X155071028Y-108630933D02*
X155071028Y-109011885D01*
X155547219Y-107488076D02*
X155547219Y-108059504D01*
X155547219Y-107773790D02*
X154547219Y-107773790D01*
X154547219Y-107773790D02*
X154690076Y-107869028D01*
X154690076Y-107869028D02*
X154785314Y-107964266D01*
X154785314Y-107964266D02*
X154832933Y-108059504D01*
X155547219Y-106535695D02*
X155547219Y-107107123D01*
X155547219Y-106821409D02*
X154547219Y-106821409D01*
X154547219Y-106821409D02*
X154690076Y-106916647D01*
X154690076Y-106916647D02*
X154785314Y-107011885D01*
X154785314Y-107011885D02*
X154832933Y-107107123D01*
X160757912Y-128622300D02*
X160757912Y-128689644D01*
X160757912Y-128689644D02*
X160690568Y-128824331D01*
X160690568Y-128824331D02*
X160623225Y-128891674D01*
X160623225Y-128891674D02*
X160488538Y-128959018D01*
X160488538Y-128959018D02*
X160353851Y-128959018D01*
X160353851Y-128959018D02*
X160252836Y-128925346D01*
X160252836Y-128925346D02*
X160084477Y-128824331D01*
X160084477Y-128824331D02*
X159983462Y-128723316D01*
X159983462Y-128723316D02*
X159882446Y-128554957D01*
X159882446Y-128554957D02*
X159848775Y-128453942D01*
X159848775Y-128453942D02*
X159848775Y-128319255D01*
X159848775Y-128319255D02*
X159916118Y-128184568D01*
X159916118Y-128184568D02*
X159983462Y-128117224D01*
X159983462Y-128117224D02*
X160118149Y-128049881D01*
X160118149Y-128049881D02*
X160185492Y-128049881D01*
X160454866Y-127780507D02*
X160454866Y-127713163D01*
X160454866Y-127713163D02*
X160488538Y-127612148D01*
X160488538Y-127612148D02*
X160656897Y-127443789D01*
X160656897Y-127443789D02*
X160757912Y-127410117D01*
X160757912Y-127410117D02*
X160825255Y-127410117D01*
X160825255Y-127410117D02*
X160926271Y-127443789D01*
X160926271Y-127443789D02*
X160993614Y-127511133D01*
X160993614Y-127511133D02*
X161060958Y-127645820D01*
X161060958Y-127645820D02*
X161060958Y-128453942D01*
X161060958Y-128453942D02*
X161498690Y-128016209D01*
X161431347Y-126669339D02*
X161094629Y-127006056D01*
X161094629Y-127006056D02*
X161397675Y-127376445D01*
X161397675Y-127376445D02*
X161397675Y-127309102D01*
X161397675Y-127309102D02*
X161431347Y-127208087D01*
X161431347Y-127208087D02*
X161599706Y-127039728D01*
X161599706Y-127039728D02*
X161700721Y-127006056D01*
X161700721Y-127006056D02*
X161768065Y-127006056D01*
X161768065Y-127006056D02*
X161869080Y-127039728D01*
X161869080Y-127039728D02*
X162037439Y-127208087D01*
X162037439Y-127208087D02*
X162071110Y-127309102D01*
X162071110Y-127309102D02*
X162071110Y-127376445D01*
X162071110Y-127376445D02*
X162037439Y-127477461D01*
X162037439Y-127477461D02*
X161869080Y-127645819D01*
X161869080Y-127645819D02*
X161768065Y-127679491D01*
X161768065Y-127679491D02*
X161700721Y-127679491D01*
D15*
%TO.C,C5*%
X155399200Y-118573333D02*
X155399200Y-118865867D01*
X154379200Y-118573333D02*
X154379200Y-118865867D01*
D10*
%TO.C,U3*%
X154716600Y-101209400D02*
X159966600Y-101209400D01*
X156057600Y-106324400D02*
X160207600Y-106324400D01*
D16*
X155537402Y-100863400D02*
G75*
G03*
X155537402Y-100863400I-114802J0D01*
G01*
D15*
%TO.C,R4*%
X128574076Y-124547100D02*
X129083524Y-124547100D01*
X128574076Y-125592100D02*
X129083524Y-125592100D01*
%TO.C,R1*%
X145404100Y-116940876D02*
X145404100Y-117450324D01*
X144359100Y-116940876D02*
X144359100Y-117450324D01*
D17*
%TO.C,P1*%
X124386000Y-102210000D02*
X122796000Y-102210000D01*
X118976000Y-102210000D02*
X120356000Y-102210000D01*
X124386000Y-111150000D02*
X122796000Y-111150000D01*
X118976000Y-111150000D02*
X118976000Y-102210000D01*
X118976000Y-111150000D02*
X120356000Y-111150000D01*
D15*
%TO.C,C40*%
X144528000Y-126548933D02*
X144528000Y-126841467D01*
X143508000Y-126548933D02*
X143508000Y-126841467D01*
%TO.C,C16*%
X165292500Y-118573333D02*
X165292500Y-118865867D01*
X164272500Y-118573333D02*
X164272500Y-118865867D01*
%TO.C,R6*%
X151181976Y-114336300D02*
X151691424Y-114336300D01*
X151181976Y-115381300D02*
X151691424Y-115381300D01*
%TO.C,C9*%
X162181000Y-118573333D02*
X162181000Y-118865867D01*
X161161000Y-118573333D02*
X161161000Y-118865867D01*
%TO.C,R20*%
X168604276Y-126274300D02*
X169113724Y-126274300D01*
X168604276Y-127319300D02*
X169113724Y-127319300D01*
D17*
%TO.C,P3*%
X173466000Y-130708000D02*
X175056000Y-130708000D01*
X178876000Y-130708000D02*
X177496000Y-130708000D01*
X173466000Y-121768000D02*
X175056000Y-121768000D01*
X178876000Y-121768000D02*
X178876000Y-130708000D01*
X178876000Y-121768000D02*
X177496000Y-121768000D01*
D15*
%TO.C,C37*%
X141323600Y-116579867D02*
X141323600Y-116287333D01*
X142343600Y-116579867D02*
X142343600Y-116287333D01*
%TO.C,C20*%
X149809148Y-107294000D02*
X151231652Y-107294000D01*
X149809148Y-109114000D02*
X151231652Y-109114000D01*
%TO.C,R18*%
X168604276Y-124699500D02*
X169113724Y-124699500D01*
X168604276Y-125744500D02*
X169113724Y-125744500D01*
%TO.C,D1*%
X127222800Y-109936400D02*
X127222800Y-111856400D01*
X127222800Y-111856400D02*
X130082800Y-111856400D01*
X130082800Y-109936400D02*
X127222800Y-109936400D01*
%TO.C,R22*%
X154090900Y-101698976D02*
X154090900Y-102208424D01*
X153045900Y-101698976D02*
X153045900Y-102208424D01*
%TO.C,C27*%
X148240533Y-122781600D02*
X148533067Y-122781600D01*
X148240533Y-123801600D02*
X148533067Y-123801600D01*
%TO.C,C13*%
X133100400Y-102463652D02*
X133100400Y-101041148D01*
X134920400Y-102463652D02*
X134920400Y-101041148D01*
%TO.C,R21*%
X168717676Y-107376700D02*
X169227124Y-107376700D01*
X168717676Y-108421700D02*
X169227124Y-108421700D01*
%TO.C,C2*%
X145336800Y-102458567D02*
X145336800Y-102166033D01*
X146356800Y-102458567D02*
X146356800Y-102166033D01*
%TO.C,C17*%
X164614800Y-103409533D02*
X164614800Y-103702067D01*
X163594800Y-103409533D02*
X163594800Y-103702067D01*
D17*
%TO.C,P4*%
X173466000Y-111150000D02*
X175056000Y-111150000D01*
X178876000Y-111150000D02*
X177496000Y-111150000D01*
X173466000Y-102210000D02*
X175056000Y-102210000D01*
X178876000Y-102210000D02*
X178876000Y-111150000D01*
X178876000Y-102210000D02*
X177496000Y-102210000D01*
D15*
%TO.C,C32*%
X170385200Y-110191333D02*
X170385200Y-110483867D01*
X169365200Y-110191333D02*
X169365200Y-110483867D01*
%TO.C,Y1*%
X158469577Y-127124676D02*
X160449476Y-125144777D01*
X160449476Y-125144777D02*
X158116023Y-122811324D01*
%TO.C,C22*%
X143006400Y-102209652D02*
X143006400Y-100787148D01*
X144826400Y-102209652D02*
X144826400Y-100787148D01*
%TO.C,R8*%
X151181976Y-112812300D02*
X151691424Y-112812300D01*
X151181976Y-113857300D02*
X151691424Y-113857300D01*
%TO.C,D4*%
X127172000Y-131729600D02*
X127172000Y-133649600D01*
X127172000Y-133649600D02*
X130032000Y-133649600D01*
X130032000Y-131729600D02*
X127172000Y-131729600D01*
%TO.C,R27*%
X133792700Y-120447524D02*
X133792700Y-119938076D01*
X134837700Y-120447524D02*
X134837700Y-119938076D01*
%TO.C,C38*%
X147212267Y-129846800D02*
X146919733Y-129846800D01*
X147212267Y-128826800D02*
X146919733Y-128826800D01*
%TO.C,C10*%
X156902254Y-126184256D02*
X157109107Y-126391109D01*
X156181005Y-126905505D02*
X156387858Y-127112358D01*
%TO.C,C7*%
X160013433Y-112164400D02*
X160305967Y-112164400D01*
X160013433Y-113184400D02*
X160305967Y-113184400D01*
%TO.C,C6*%
X160060100Y-120402133D02*
X160060100Y-120694667D01*
X159040100Y-120402133D02*
X159040100Y-120694667D01*
%TO.C,C35*%
X139248933Y-118362000D02*
X139541467Y-118362000D01*
X139248933Y-119382000D02*
X139541467Y-119382000D01*
%TO.C,C18*%
X163095400Y-103409533D02*
X163095400Y-103702067D01*
X162075400Y-103409533D02*
X162075400Y-103702067D01*
%TO.C,C24*%
X143656267Y-111457200D02*
X143363733Y-111457200D01*
X143656267Y-110437200D02*
X143363733Y-110437200D01*
%TO.C,R14*%
X147166424Y-111418900D02*
X146656976Y-111418900D01*
X147166424Y-110373900D02*
X146656976Y-110373900D01*
D17*
%TO.C,P2*%
X124262000Y-121864000D02*
X122672000Y-121864000D01*
X118852000Y-121864000D02*
X120232000Y-121864000D01*
X124262000Y-130804000D02*
X122672000Y-130804000D01*
X118852000Y-130804000D02*
X118852000Y-121864000D01*
X118852000Y-130804000D02*
X120232000Y-130804000D01*
D15*
%TO.C,R28*%
X147878076Y-130439900D02*
X148387524Y-130439900D01*
X147878076Y-131484900D02*
X148387524Y-131484900D01*
%TO.C,C21*%
X148437548Y-100944000D02*
X149860052Y-100944000D01*
X148437548Y-102764000D02*
X149860052Y-102764000D01*
%TO.C,C33*%
X170410400Y-129520733D02*
X170410400Y-129813267D01*
X169390400Y-129520733D02*
X169390400Y-129813267D01*
%TO.C,R26*%
X133792700Y-123851124D02*
X133792700Y-123341676D01*
X134837700Y-123851124D02*
X134837700Y-123341676D01*
%TO.C,C28*%
X138993200Y-103022452D02*
X138993200Y-101599948D01*
X140813200Y-103022452D02*
X140813200Y-101599948D01*
%TO.C,R19*%
X168717676Y-105801900D02*
X169227124Y-105801900D01*
X168717676Y-106846900D02*
X169227124Y-106846900D01*
%TO.C,C34*%
X169376800Y-103371867D02*
X169376800Y-103079333D01*
X170396800Y-103371867D02*
X170396800Y-103079333D01*
%TO.C,R2*%
X128624876Y-105039900D02*
X129134324Y-105039900D01*
X128624876Y-106084900D02*
X129134324Y-106084900D01*
%TO.C,C1*%
X143867600Y-117049333D02*
X143867600Y-117341867D01*
X142847600Y-117049333D02*
X142847600Y-117341867D01*
%TO.C,C41*%
X146052000Y-126548933D02*
X146052000Y-126841467D01*
X145032000Y-126548933D02*
X145032000Y-126841467D01*
%TO.C,D2*%
X127172000Y-129646800D02*
X127172000Y-131566800D01*
X127172000Y-131566800D02*
X130032000Y-131566800D01*
X130032000Y-129646800D02*
X127172000Y-129646800D01*
%TO.C,C15*%
X156864267Y-112625600D02*
X156571733Y-112625600D01*
X156864267Y-111605600D02*
X156571733Y-111605600D01*
%TO.C,SW1*%
X146244000Y-112258800D02*
X147574000Y-112258800D01*
X146244000Y-113588800D02*
X146244000Y-112258800D01*
X146244000Y-114858800D02*
X146244000Y-119998800D01*
X146244000Y-114858800D02*
X148904000Y-114858800D01*
X146244000Y-119998800D02*
X148904000Y-119998800D01*
X148904000Y-114858800D02*
X148904000Y-119998800D01*
%TO.C,L1*%
X132439200Y-112513600D02*
X133939200Y-112513600D01*
X139239200Y-112513600D02*
X137739200Y-112513600D01*
X139239200Y-112513600D02*
X139239200Y-105113600D01*
X132439200Y-105113600D02*
X132439200Y-112513600D01*
X132439200Y-105113600D02*
X133939200Y-105113600D01*
X139239200Y-105113600D02*
X137739200Y-105113600D01*
%TO.C,C42*%
X135437200Y-123444052D02*
X135437200Y-122021548D01*
X137257200Y-123444052D02*
X137257200Y-122021548D01*
%TO.C,R15*%
X146695900Y-108627224D02*
X146695900Y-108117776D01*
X147740900Y-108627224D02*
X147740900Y-108117776D01*
%TO.C,C26*%
X144723067Y-124716000D02*
X144430533Y-124716000D01*
X144723067Y-123696000D02*
X144430533Y-123696000D01*
D18*
%TO.C,U4*%
X146081115Y-109296200D02*
X146081115Y-106248200D01*
X142982315Y-107010200D02*
X142982315Y-109651800D01*
D19*
X143071215Y-110159800D02*
G75*
G03*
X143071215Y-110159800I-88900J0D01*
G01*
D15*
%TO.C,R5*%
X129083524Y-129351300D02*
X128574076Y-129351300D01*
X129083524Y-128306300D02*
X128574076Y-128306300D01*
%TO.C,J1*%
X147127600Y-106156200D02*
X147127600Y-104826200D01*
X148457600Y-106156200D02*
X147127600Y-106156200D01*
X149727600Y-106156200D02*
X152327600Y-106156200D01*
X149727600Y-106156200D02*
X149727600Y-103496200D01*
X152327600Y-106156200D02*
X152327600Y-103496200D01*
X149727600Y-103496200D02*
X152327600Y-103496200D01*
%TO.C,R23*%
X153045900Y-105613924D02*
X153045900Y-105104476D01*
X154090900Y-105613924D02*
X154090900Y-105104476D01*
%TO.C,C3*%
X144278133Y-104239600D02*
X144570667Y-104239600D01*
X144278133Y-105259600D02*
X144570667Y-105259600D01*
%TO.C,C31*%
X169415800Y-122929867D02*
X169415800Y-122637333D01*
X170435800Y-122929867D02*
X170435800Y-122637333D01*
%TO.C,R16*%
X135773900Y-102819924D02*
X135773900Y-102310476D01*
X136818900Y-102819924D02*
X136818900Y-102310476D01*
%TO.C,R10*%
X151691424Y-116905300D02*
X151181976Y-116905300D01*
X151691424Y-115860300D02*
X151181976Y-115860300D01*
%TO.C,R13*%
X150265676Y-128814300D02*
X150775124Y-128814300D01*
X150265676Y-129859300D02*
X150775124Y-129859300D01*
%TO.C,C39*%
X139502933Y-123340400D02*
X139795467Y-123340400D01*
X139502933Y-124360400D02*
X139795467Y-124360400D01*
%TO.C,R9*%
X162344824Y-123229900D02*
X161835376Y-123229900D01*
X162344824Y-122184900D02*
X161835376Y-122184900D01*
%TO.C,C14*%
X153837100Y-118624133D02*
X153837100Y-118916667D01*
X152817100Y-118624133D02*
X152817100Y-118916667D01*
%TO.C,C11*%
X163768500Y-118573333D02*
X163768500Y-118865867D01*
X162748500Y-118573333D02*
X162748500Y-118865867D01*
D18*
%TO.C,U5*%
X149625685Y-127685800D02*
X149625685Y-124637800D01*
X146526885Y-125399800D02*
X146526885Y-128041400D01*
D19*
X146615785Y-128549400D02*
G75*
G03*
X146615785Y-128549400I-88900J0D01*
G01*
D10*
%TO.C,U6*%
X138037800Y-117565800D02*
X138037800Y-117340800D01*
X138037800Y-117565800D02*
X134687800Y-117565800D01*
X138037800Y-117340800D02*
X139262800Y-117340800D01*
X138037800Y-114215800D02*
X138037800Y-114515800D01*
X138037800Y-114215800D02*
X134687800Y-114215800D01*
X134687800Y-117565800D02*
X134687800Y-117265800D01*
X134687800Y-114215800D02*
X134687800Y-114515800D01*
D15*
%TO.C,R12*%
X151691424Y-112333300D02*
X151181976Y-112333300D01*
X151691424Y-111288300D02*
X151181976Y-111288300D01*
%TO.C,R17*%
X136803676Y-99553500D02*
X137313124Y-99553500D01*
X136803676Y-100598500D02*
X137313124Y-100598500D01*
%TO.C,D5*%
X131044400Y-113939200D02*
X131044400Y-112019200D01*
X131044400Y-112019200D02*
X128184400Y-112019200D01*
X128184400Y-113939200D02*
X131044400Y-113939200D01*
%TO.C,U2*%
D16*
X160312602Y-118084600D02*
G75*
G03*
X160312602Y-118084600I-114802J0D01*
G01*
D15*
%TO.C,R24*%
X131151100Y-132029924D02*
X131151100Y-131520476D01*
X132196100Y-132029924D02*
X132196100Y-131520476D01*
%TO.C,R7*%
X153350700Y-115519924D02*
X153350700Y-115010476D01*
X154395700Y-115519924D02*
X154395700Y-115010476D01*
%TO.C,R25*%
X125933924Y-113146100D02*
X125424476Y-113146100D01*
X125933924Y-112101100D02*
X125424476Y-112101100D01*
%TO.C,L2*%
X136096800Y-132833600D02*
X137596800Y-132833600D01*
X142896800Y-132833600D02*
X141396800Y-132833600D01*
X142896800Y-132833600D02*
X142896800Y-125433600D01*
X136096800Y-125433600D02*
X136096800Y-132833600D01*
X136096800Y-125433600D02*
X137596800Y-125433600D01*
X142896800Y-125433600D02*
X141396800Y-125433600D01*
%TO.C,C36*%
X139799600Y-116579867D02*
X139799600Y-116287333D01*
X140819600Y-116579867D02*
X140819600Y-116287333D01*
%TO.C,C4*%
X140895800Y-106914733D02*
X140895800Y-107207267D01*
X139875800Y-106914733D02*
X139875800Y-107207267D01*
%TO.C,R3*%
X129134324Y-109640900D02*
X128624876Y-109640900D01*
X129134324Y-108595900D02*
X128624876Y-108595900D01*
%TO.C,C8*%
X161943833Y-120648000D02*
X162236367Y-120648000D01*
X161943833Y-121668000D02*
X162236367Y-121668000D01*
%TO.C,C23*%
X141323600Y-103794367D02*
X141323600Y-103501833D01*
X142343600Y-103794367D02*
X142343600Y-103501833D01*
%TO.C,C19*%
X142470600Y-106940133D02*
X142470600Y-107232667D01*
X141450600Y-106940133D02*
X141450600Y-107232667D01*
%TO.C,C12*%
X156864267Y-111101600D02*
X156571733Y-111101600D01*
X156864267Y-110081600D02*
X156571733Y-110081600D01*
%TO.C,R11*%
X153706300Y-111252724D02*
X153706300Y-110743276D01*
X154751300Y-111252724D02*
X154751300Y-110743276D01*
%TO.C,C25*%
X160411107Y-127159505D02*
X160204254Y-127366358D01*
X159689858Y-126438256D02*
X159483005Y-126645109D01*
%TD*%
M02*
