%TF.GenerationSoftware,KiCad,Pcbnew,7.0.7*%
%TF.CreationDate,2023-09-25T17:24:35-05:00*%
%TF.ProjectId,KiVM,4b69564d-2e6b-4696-9361-645f70636258,rev?*%
%TF.SameCoordinates,Original*%
%TF.FileFunction,Drillmap*%
%TF.FilePolarity,Positive*%
%FSLAX45Y45*%
G04 Gerber Fmt 4.5, Leading zero omitted, Abs format (unit mm)*
G04 Created by KiCad (PCBNEW 7.0.7) date 2023-09-25 17:24:35*
%MOMM*%
%LPD*%
G01*
G04 APERTURE LIST*
%ADD10C,0.349999*%
%ADD11C,0.200000*%
%ADD12C,0.065000*%
G04 APERTURE END LIST*
D10*
X11898960Y-13497720D02*
X11898960Y-9797720D01*
X11998960Y-9697720D02*
X17798960Y-9697720D01*
X11998960Y-13597720D02*
X11898960Y-13497720D01*
X11998960Y-9697720D02*
X11898960Y-9797720D01*
X17898960Y-13497720D02*
X17898960Y-9797720D01*
X11998960Y-13597720D02*
X17798960Y-13597720D01*
X17798960Y-13597720D02*
X17898960Y-13497720D01*
X17798960Y-9697720D02*
X17898960Y-9797720D01*
D11*
D12*
X12480700Y-12311900D02*
X12545700Y-12376900D01*
X12545700Y-12311900D02*
X12480700Y-12376900D01*
X12480700Y-12889900D02*
X12545700Y-12954900D01*
X12545700Y-12889900D02*
X12480700Y-12954900D01*
X12493100Y-10346500D02*
X12558100Y-10411500D01*
X12558100Y-10346500D02*
X12493100Y-10411500D01*
X12493100Y-10924500D02*
X12558100Y-10989500D01*
X12558100Y-10924500D02*
X12493100Y-10989500D01*
X17227100Y-10346500D02*
X17292100Y-10411500D01*
X17292100Y-10346500D02*
X17227100Y-10411500D01*
X17227100Y-10924500D02*
X17292100Y-10989500D01*
X17292100Y-10924500D02*
X17227100Y-10989500D01*
X17227100Y-12302300D02*
X17292100Y-12367300D01*
X17292100Y-12302300D02*
X17227100Y-12367300D01*
X17227100Y-12880300D02*
X17292100Y-12945300D01*
X17292100Y-12880300D02*
X17227100Y-12945300D01*
D11*
X12142237Y-13926703D02*
X12142237Y-13726703D01*
X12142237Y-13726703D02*
X12189856Y-13726703D01*
X12189856Y-13726703D02*
X12218427Y-13736227D01*
X12218427Y-13736227D02*
X12237475Y-13755275D01*
X12237475Y-13755275D02*
X12246999Y-13774322D01*
X12246999Y-13774322D02*
X12256523Y-13812418D01*
X12256523Y-13812418D02*
X12256523Y-13840989D01*
X12256523Y-13840989D02*
X12246999Y-13879084D01*
X12246999Y-13879084D02*
X12237475Y-13898132D01*
X12237475Y-13898132D02*
X12218427Y-13917180D01*
X12218427Y-13917180D02*
X12189856Y-13926703D01*
X12189856Y-13926703D02*
X12142237Y-13926703D01*
X12342237Y-13926703D02*
X12342237Y-13793370D01*
X12342237Y-13831465D02*
X12351761Y-13812418D01*
X12351761Y-13812418D02*
X12361284Y-13802894D01*
X12361284Y-13802894D02*
X12380332Y-13793370D01*
X12380332Y-13793370D02*
X12399380Y-13793370D01*
X12466046Y-13926703D02*
X12466046Y-13793370D01*
X12466046Y-13726703D02*
X12456523Y-13736227D01*
X12456523Y-13736227D02*
X12466046Y-13745751D01*
X12466046Y-13745751D02*
X12475570Y-13736227D01*
X12475570Y-13736227D02*
X12466046Y-13726703D01*
X12466046Y-13726703D02*
X12466046Y-13745751D01*
X12589856Y-13926703D02*
X12570808Y-13917180D01*
X12570808Y-13917180D02*
X12561284Y-13898132D01*
X12561284Y-13898132D02*
X12561284Y-13726703D01*
X12694618Y-13926703D02*
X12675570Y-13917180D01*
X12675570Y-13917180D02*
X12666046Y-13898132D01*
X12666046Y-13898132D02*
X12666046Y-13726703D01*
X12923189Y-13926703D02*
X12923189Y-13726703D01*
X12923189Y-13726703D02*
X12989856Y-13869561D01*
X12989856Y-13869561D02*
X13056523Y-13726703D01*
X13056523Y-13726703D02*
X13056523Y-13926703D01*
X13237475Y-13926703D02*
X13237475Y-13821942D01*
X13237475Y-13821942D02*
X13227951Y-13802894D01*
X13227951Y-13802894D02*
X13208904Y-13793370D01*
X13208904Y-13793370D02*
X13170808Y-13793370D01*
X13170808Y-13793370D02*
X13151761Y-13802894D01*
X13237475Y-13917180D02*
X13218427Y-13926703D01*
X13218427Y-13926703D02*
X13170808Y-13926703D01*
X13170808Y-13926703D02*
X13151761Y-13917180D01*
X13151761Y-13917180D02*
X13142237Y-13898132D01*
X13142237Y-13898132D02*
X13142237Y-13879084D01*
X13142237Y-13879084D02*
X13151761Y-13860037D01*
X13151761Y-13860037D02*
X13170808Y-13850513D01*
X13170808Y-13850513D02*
X13218427Y-13850513D01*
X13218427Y-13850513D02*
X13237475Y-13840989D01*
X13332713Y-13793370D02*
X13332713Y-13993370D01*
X13332713Y-13802894D02*
X13351761Y-13793370D01*
X13351761Y-13793370D02*
X13389856Y-13793370D01*
X13389856Y-13793370D02*
X13408904Y-13802894D01*
X13408904Y-13802894D02*
X13418427Y-13812418D01*
X13418427Y-13812418D02*
X13427951Y-13831465D01*
X13427951Y-13831465D02*
X13427951Y-13888608D01*
X13427951Y-13888608D02*
X13418427Y-13907656D01*
X13418427Y-13907656D02*
X13408904Y-13917180D01*
X13408904Y-13917180D02*
X13389856Y-13926703D01*
X13389856Y-13926703D02*
X13351761Y-13926703D01*
X13351761Y-13926703D02*
X13332713Y-13917180D01*
X13513665Y-13907656D02*
X13523189Y-13917180D01*
X13523189Y-13917180D02*
X13513665Y-13926703D01*
X13513665Y-13926703D02*
X13504142Y-13917180D01*
X13504142Y-13917180D02*
X13513665Y-13907656D01*
X13513665Y-13907656D02*
X13513665Y-13926703D01*
X13513665Y-13802894D02*
X13523189Y-13812418D01*
X13523189Y-13812418D02*
X13513665Y-13821942D01*
X13513665Y-13821942D02*
X13504142Y-13812418D01*
X13504142Y-13812418D02*
X13513665Y-13802894D01*
X13513665Y-13802894D02*
X13513665Y-13821942D01*
D12*
X11816460Y-14222720D02*
X11881460Y-14287720D01*
X11881460Y-14222720D02*
X11816460Y-14287720D01*
D11*
X12180332Y-14146703D02*
X12199380Y-14146703D01*
X12199380Y-14146703D02*
X12218427Y-14156227D01*
X12218427Y-14156227D02*
X12227951Y-14165751D01*
X12227951Y-14165751D02*
X12237475Y-14184799D01*
X12237475Y-14184799D02*
X12246999Y-14222894D01*
X12246999Y-14222894D02*
X12246999Y-14270513D01*
X12246999Y-14270513D02*
X12237475Y-14308608D01*
X12237475Y-14308608D02*
X12227951Y-14327656D01*
X12227951Y-14327656D02*
X12218427Y-14337180D01*
X12218427Y-14337180D02*
X12199380Y-14346703D01*
X12199380Y-14346703D02*
X12180332Y-14346703D01*
X12180332Y-14346703D02*
X12161284Y-14337180D01*
X12161284Y-14337180D02*
X12151761Y-14327656D01*
X12151761Y-14327656D02*
X12142237Y-14308608D01*
X12142237Y-14308608D02*
X12132713Y-14270513D01*
X12132713Y-14270513D02*
X12132713Y-14222894D01*
X12132713Y-14222894D02*
X12142237Y-14184799D01*
X12142237Y-14184799D02*
X12151761Y-14165751D01*
X12151761Y-14165751D02*
X12161284Y-14156227D01*
X12161284Y-14156227D02*
X12180332Y-14146703D01*
X12332713Y-14327656D02*
X12342237Y-14337180D01*
X12342237Y-14337180D02*
X12332713Y-14346703D01*
X12332713Y-14346703D02*
X12323189Y-14337180D01*
X12323189Y-14337180D02*
X12332713Y-14327656D01*
X12332713Y-14327656D02*
X12332713Y-14346703D01*
X12513665Y-14146703D02*
X12475570Y-14146703D01*
X12475570Y-14146703D02*
X12456523Y-14156227D01*
X12456523Y-14156227D02*
X12446999Y-14165751D01*
X12446999Y-14165751D02*
X12427951Y-14194322D01*
X12427951Y-14194322D02*
X12418427Y-14232418D01*
X12418427Y-14232418D02*
X12418427Y-14308608D01*
X12418427Y-14308608D02*
X12427951Y-14327656D01*
X12427951Y-14327656D02*
X12437475Y-14337180D01*
X12437475Y-14337180D02*
X12456523Y-14346703D01*
X12456523Y-14346703D02*
X12494618Y-14346703D01*
X12494618Y-14346703D02*
X12513665Y-14337180D01*
X12513665Y-14337180D02*
X12523189Y-14327656D01*
X12523189Y-14327656D02*
X12532713Y-14308608D01*
X12532713Y-14308608D02*
X12532713Y-14260989D01*
X12532713Y-14260989D02*
X12523189Y-14241942D01*
X12523189Y-14241942D02*
X12513665Y-14232418D01*
X12513665Y-14232418D02*
X12494618Y-14222894D01*
X12494618Y-14222894D02*
X12456523Y-14222894D01*
X12456523Y-14222894D02*
X12437475Y-14232418D01*
X12437475Y-14232418D02*
X12427951Y-14241942D01*
X12427951Y-14241942D02*
X12418427Y-14260989D01*
X12713665Y-14146703D02*
X12618427Y-14146703D01*
X12618427Y-14146703D02*
X12608904Y-14241942D01*
X12608904Y-14241942D02*
X12618427Y-14232418D01*
X12618427Y-14232418D02*
X12637475Y-14222894D01*
X12637475Y-14222894D02*
X12685094Y-14222894D01*
X12685094Y-14222894D02*
X12704142Y-14232418D01*
X12704142Y-14232418D02*
X12713665Y-14241942D01*
X12713665Y-14241942D02*
X12723189Y-14260989D01*
X12723189Y-14260989D02*
X12723189Y-14308608D01*
X12723189Y-14308608D02*
X12713665Y-14327656D01*
X12713665Y-14327656D02*
X12704142Y-14337180D01*
X12704142Y-14337180D02*
X12685094Y-14346703D01*
X12685094Y-14346703D02*
X12637475Y-14346703D01*
X12637475Y-14346703D02*
X12618427Y-14337180D01*
X12618427Y-14337180D02*
X12608904Y-14327656D01*
X12846999Y-14146703D02*
X12866046Y-14146703D01*
X12866046Y-14146703D02*
X12885094Y-14156227D01*
X12885094Y-14156227D02*
X12894618Y-14165751D01*
X12894618Y-14165751D02*
X12904142Y-14184799D01*
X12904142Y-14184799D02*
X12913665Y-14222894D01*
X12913665Y-14222894D02*
X12913665Y-14270513D01*
X12913665Y-14270513D02*
X12904142Y-14308608D01*
X12904142Y-14308608D02*
X12894618Y-14327656D01*
X12894618Y-14327656D02*
X12885094Y-14337180D01*
X12885094Y-14337180D02*
X12866046Y-14346703D01*
X12866046Y-14346703D02*
X12846999Y-14346703D01*
X12846999Y-14346703D02*
X12827951Y-14337180D01*
X12827951Y-14337180D02*
X12818427Y-14327656D01*
X12818427Y-14327656D02*
X12808904Y-14308608D01*
X12808904Y-14308608D02*
X12799380Y-14270513D01*
X12799380Y-14270513D02*
X12799380Y-14222894D01*
X12799380Y-14222894D02*
X12808904Y-14184799D01*
X12808904Y-14184799D02*
X12818427Y-14165751D01*
X12818427Y-14165751D02*
X12827951Y-14156227D01*
X12827951Y-14156227D02*
X12846999Y-14146703D01*
X12999380Y-14346703D02*
X12999380Y-14213370D01*
X12999380Y-14232418D02*
X13008904Y-14222894D01*
X13008904Y-14222894D02*
X13027951Y-14213370D01*
X13027951Y-14213370D02*
X13056523Y-14213370D01*
X13056523Y-14213370D02*
X13075570Y-14222894D01*
X13075570Y-14222894D02*
X13085094Y-14241942D01*
X13085094Y-14241942D02*
X13085094Y-14346703D01*
X13085094Y-14241942D02*
X13094618Y-14222894D01*
X13094618Y-14222894D02*
X13113665Y-14213370D01*
X13113665Y-14213370D02*
X13142237Y-14213370D01*
X13142237Y-14213370D02*
X13161285Y-14222894D01*
X13161285Y-14222894D02*
X13170808Y-14241942D01*
X13170808Y-14241942D02*
X13170808Y-14346703D01*
X13266046Y-14346703D02*
X13266046Y-14213370D01*
X13266046Y-14232418D02*
X13275570Y-14222894D01*
X13275570Y-14222894D02*
X13294618Y-14213370D01*
X13294618Y-14213370D02*
X13323189Y-14213370D01*
X13323189Y-14213370D02*
X13342237Y-14222894D01*
X13342237Y-14222894D02*
X13351761Y-14241942D01*
X13351761Y-14241942D02*
X13351761Y-14346703D01*
X13351761Y-14241942D02*
X13361285Y-14222894D01*
X13361285Y-14222894D02*
X13380332Y-14213370D01*
X13380332Y-14213370D02*
X13408904Y-14213370D01*
X13408904Y-14213370D02*
X13427951Y-14222894D01*
X13427951Y-14222894D02*
X13437475Y-14241942D01*
X13437475Y-14241942D02*
X13437475Y-14346703D01*
X13827951Y-14137180D02*
X13656523Y-14394322D01*
X14085094Y-14146703D02*
X14104142Y-14146703D01*
X14104142Y-14146703D02*
X14123189Y-14156227D01*
X14123189Y-14156227D02*
X14132713Y-14165751D01*
X14132713Y-14165751D02*
X14142237Y-14184799D01*
X14142237Y-14184799D02*
X14151761Y-14222894D01*
X14151761Y-14222894D02*
X14151761Y-14270513D01*
X14151761Y-14270513D02*
X14142237Y-14308608D01*
X14142237Y-14308608D02*
X14132713Y-14327656D01*
X14132713Y-14327656D02*
X14123189Y-14337180D01*
X14123189Y-14337180D02*
X14104142Y-14346703D01*
X14104142Y-14346703D02*
X14085094Y-14346703D01*
X14085094Y-14346703D02*
X14066047Y-14337180D01*
X14066047Y-14337180D02*
X14056523Y-14327656D01*
X14056523Y-14327656D02*
X14046999Y-14308608D01*
X14046999Y-14308608D02*
X14037475Y-14270513D01*
X14037475Y-14270513D02*
X14037475Y-14222894D01*
X14037475Y-14222894D02*
X14046999Y-14184799D01*
X14046999Y-14184799D02*
X14056523Y-14165751D01*
X14056523Y-14165751D02*
X14066047Y-14156227D01*
X14066047Y-14156227D02*
X14085094Y-14146703D01*
X14237475Y-14327656D02*
X14246999Y-14337180D01*
X14246999Y-14337180D02*
X14237475Y-14346703D01*
X14237475Y-14346703D02*
X14227951Y-14337180D01*
X14227951Y-14337180D02*
X14237475Y-14327656D01*
X14237475Y-14327656D02*
X14237475Y-14346703D01*
X14370808Y-14146703D02*
X14389856Y-14146703D01*
X14389856Y-14146703D02*
X14408904Y-14156227D01*
X14408904Y-14156227D02*
X14418428Y-14165751D01*
X14418428Y-14165751D02*
X14427951Y-14184799D01*
X14427951Y-14184799D02*
X14437475Y-14222894D01*
X14437475Y-14222894D02*
X14437475Y-14270513D01*
X14437475Y-14270513D02*
X14427951Y-14308608D01*
X14427951Y-14308608D02*
X14418428Y-14327656D01*
X14418428Y-14327656D02*
X14408904Y-14337180D01*
X14408904Y-14337180D02*
X14389856Y-14346703D01*
X14389856Y-14346703D02*
X14370808Y-14346703D01*
X14370808Y-14346703D02*
X14351761Y-14337180D01*
X14351761Y-14337180D02*
X14342237Y-14327656D01*
X14342237Y-14327656D02*
X14332713Y-14308608D01*
X14332713Y-14308608D02*
X14323189Y-14270513D01*
X14323189Y-14270513D02*
X14323189Y-14222894D01*
X14323189Y-14222894D02*
X14332713Y-14184799D01*
X14332713Y-14184799D02*
X14342237Y-14165751D01*
X14342237Y-14165751D02*
X14351761Y-14156227D01*
X14351761Y-14156227D02*
X14370808Y-14146703D01*
X14513666Y-14165751D02*
X14523189Y-14156227D01*
X14523189Y-14156227D02*
X14542237Y-14146703D01*
X14542237Y-14146703D02*
X14589856Y-14146703D01*
X14589856Y-14146703D02*
X14608904Y-14156227D01*
X14608904Y-14156227D02*
X14618428Y-14165751D01*
X14618428Y-14165751D02*
X14627951Y-14184799D01*
X14627951Y-14184799D02*
X14627951Y-14203846D01*
X14627951Y-14203846D02*
X14618428Y-14232418D01*
X14618428Y-14232418D02*
X14504142Y-14346703D01*
X14504142Y-14346703D02*
X14627951Y-14346703D01*
X14808904Y-14146703D02*
X14713666Y-14146703D01*
X14713666Y-14146703D02*
X14704142Y-14241942D01*
X14704142Y-14241942D02*
X14713666Y-14232418D01*
X14713666Y-14232418D02*
X14732713Y-14222894D01*
X14732713Y-14222894D02*
X14780332Y-14222894D01*
X14780332Y-14222894D02*
X14799380Y-14232418D01*
X14799380Y-14232418D02*
X14808904Y-14241942D01*
X14808904Y-14241942D02*
X14818428Y-14260989D01*
X14818428Y-14260989D02*
X14818428Y-14308608D01*
X14818428Y-14308608D02*
X14808904Y-14327656D01*
X14808904Y-14327656D02*
X14799380Y-14337180D01*
X14799380Y-14337180D02*
X14780332Y-14346703D01*
X14780332Y-14346703D02*
X14732713Y-14346703D01*
X14732713Y-14346703D02*
X14713666Y-14337180D01*
X14713666Y-14337180D02*
X14704142Y-14327656D01*
X14989856Y-14146703D02*
X14951761Y-14146703D01*
X14951761Y-14146703D02*
X14932713Y-14156227D01*
X14932713Y-14156227D02*
X14923189Y-14165751D01*
X14923189Y-14165751D02*
X14904142Y-14194322D01*
X14904142Y-14194322D02*
X14894618Y-14232418D01*
X14894618Y-14232418D02*
X14894618Y-14308608D01*
X14894618Y-14308608D02*
X14904142Y-14327656D01*
X14904142Y-14327656D02*
X14913666Y-14337180D01*
X14913666Y-14337180D02*
X14932713Y-14346703D01*
X14932713Y-14346703D02*
X14970809Y-14346703D01*
X14970809Y-14346703D02*
X14989856Y-14337180D01*
X14989856Y-14337180D02*
X14999380Y-14327656D01*
X14999380Y-14327656D02*
X15008904Y-14308608D01*
X15008904Y-14308608D02*
X15008904Y-14260989D01*
X15008904Y-14260989D02*
X14999380Y-14241942D01*
X14999380Y-14241942D02*
X14989856Y-14232418D01*
X14989856Y-14232418D02*
X14970809Y-14222894D01*
X14970809Y-14222894D02*
X14932713Y-14222894D01*
X14932713Y-14222894D02*
X14913666Y-14232418D01*
X14913666Y-14232418D02*
X14904142Y-14241942D01*
X14904142Y-14241942D02*
X14894618Y-14260989D01*
X15085094Y-14146703D02*
X15085094Y-14184799D01*
X15161285Y-14146703D02*
X15161285Y-14184799D01*
X15456523Y-14422894D02*
X15446999Y-14413370D01*
X15446999Y-14413370D02*
X15427951Y-14384799D01*
X15427951Y-14384799D02*
X15418428Y-14365751D01*
X15418428Y-14365751D02*
X15408904Y-14337180D01*
X15408904Y-14337180D02*
X15399380Y-14289561D01*
X15399380Y-14289561D02*
X15399380Y-14251465D01*
X15399380Y-14251465D02*
X15408904Y-14203846D01*
X15408904Y-14203846D02*
X15418428Y-14175275D01*
X15418428Y-14175275D02*
X15427951Y-14156227D01*
X15427951Y-14156227D02*
X15446999Y-14127656D01*
X15446999Y-14127656D02*
X15456523Y-14118132D01*
X15561285Y-14232418D02*
X15542237Y-14222894D01*
X15542237Y-14222894D02*
X15532713Y-14213370D01*
X15532713Y-14213370D02*
X15523190Y-14194322D01*
X15523190Y-14194322D02*
X15523190Y-14184799D01*
X15523190Y-14184799D02*
X15532713Y-14165751D01*
X15532713Y-14165751D02*
X15542237Y-14156227D01*
X15542237Y-14156227D02*
X15561285Y-14146703D01*
X15561285Y-14146703D02*
X15599380Y-14146703D01*
X15599380Y-14146703D02*
X15618428Y-14156227D01*
X15618428Y-14156227D02*
X15627951Y-14165751D01*
X15627951Y-14165751D02*
X15637475Y-14184799D01*
X15637475Y-14184799D02*
X15637475Y-14194322D01*
X15637475Y-14194322D02*
X15627951Y-14213370D01*
X15627951Y-14213370D02*
X15618428Y-14222894D01*
X15618428Y-14222894D02*
X15599380Y-14232418D01*
X15599380Y-14232418D02*
X15561285Y-14232418D01*
X15561285Y-14232418D02*
X15542237Y-14241942D01*
X15542237Y-14241942D02*
X15532713Y-14251465D01*
X15532713Y-14251465D02*
X15523190Y-14270513D01*
X15523190Y-14270513D02*
X15523190Y-14308608D01*
X15523190Y-14308608D02*
X15532713Y-14327656D01*
X15532713Y-14327656D02*
X15542237Y-14337180D01*
X15542237Y-14337180D02*
X15561285Y-14346703D01*
X15561285Y-14346703D02*
X15599380Y-14346703D01*
X15599380Y-14346703D02*
X15618428Y-14337180D01*
X15618428Y-14337180D02*
X15627951Y-14327656D01*
X15627951Y-14327656D02*
X15637475Y-14308608D01*
X15637475Y-14308608D02*
X15637475Y-14270513D01*
X15637475Y-14270513D02*
X15627951Y-14251465D01*
X15627951Y-14251465D02*
X15618428Y-14241942D01*
X15618428Y-14241942D02*
X15599380Y-14232418D01*
X15875571Y-14346703D02*
X15875571Y-14146703D01*
X15961285Y-14346703D02*
X15961285Y-14241942D01*
X15961285Y-14241942D02*
X15951761Y-14222894D01*
X15951761Y-14222894D02*
X15932713Y-14213370D01*
X15932713Y-14213370D02*
X15904142Y-14213370D01*
X15904142Y-14213370D02*
X15885094Y-14222894D01*
X15885094Y-14222894D02*
X15875571Y-14232418D01*
X16085094Y-14346703D02*
X16066047Y-14337180D01*
X16066047Y-14337180D02*
X16056523Y-14327656D01*
X16056523Y-14327656D02*
X16046999Y-14308608D01*
X16046999Y-14308608D02*
X16046999Y-14251465D01*
X16046999Y-14251465D02*
X16056523Y-14232418D01*
X16056523Y-14232418D02*
X16066047Y-14222894D01*
X16066047Y-14222894D02*
X16085094Y-14213370D01*
X16085094Y-14213370D02*
X16113666Y-14213370D01*
X16113666Y-14213370D02*
X16132713Y-14222894D01*
X16132713Y-14222894D02*
X16142237Y-14232418D01*
X16142237Y-14232418D02*
X16151761Y-14251465D01*
X16151761Y-14251465D02*
X16151761Y-14308608D01*
X16151761Y-14308608D02*
X16142237Y-14327656D01*
X16142237Y-14327656D02*
X16132713Y-14337180D01*
X16132713Y-14337180D02*
X16113666Y-14346703D01*
X16113666Y-14346703D02*
X16085094Y-14346703D01*
X16266047Y-14346703D02*
X16246999Y-14337180D01*
X16246999Y-14337180D02*
X16237475Y-14318132D01*
X16237475Y-14318132D02*
X16237475Y-14146703D01*
X16418428Y-14337180D02*
X16399380Y-14346703D01*
X16399380Y-14346703D02*
X16361285Y-14346703D01*
X16361285Y-14346703D02*
X16342237Y-14337180D01*
X16342237Y-14337180D02*
X16332713Y-14318132D01*
X16332713Y-14318132D02*
X16332713Y-14241942D01*
X16332713Y-14241942D02*
X16342237Y-14222894D01*
X16342237Y-14222894D02*
X16361285Y-14213370D01*
X16361285Y-14213370D02*
X16399380Y-14213370D01*
X16399380Y-14213370D02*
X16418428Y-14222894D01*
X16418428Y-14222894D02*
X16427952Y-14241942D01*
X16427952Y-14241942D02*
X16427952Y-14260989D01*
X16427952Y-14260989D02*
X16332713Y-14280037D01*
X16504142Y-14337180D02*
X16523190Y-14346703D01*
X16523190Y-14346703D02*
X16561285Y-14346703D01*
X16561285Y-14346703D02*
X16580333Y-14337180D01*
X16580333Y-14337180D02*
X16589856Y-14318132D01*
X16589856Y-14318132D02*
X16589856Y-14308608D01*
X16589856Y-14308608D02*
X16580333Y-14289561D01*
X16580333Y-14289561D02*
X16561285Y-14280037D01*
X16561285Y-14280037D02*
X16532713Y-14280037D01*
X16532713Y-14280037D02*
X16513666Y-14270513D01*
X16513666Y-14270513D02*
X16504142Y-14251465D01*
X16504142Y-14251465D02*
X16504142Y-14241942D01*
X16504142Y-14241942D02*
X16513666Y-14222894D01*
X16513666Y-14222894D02*
X16532713Y-14213370D01*
X16532713Y-14213370D02*
X16561285Y-14213370D01*
X16561285Y-14213370D02*
X16580333Y-14222894D01*
X16656523Y-14422894D02*
X16666047Y-14413370D01*
X16666047Y-14413370D02*
X16685094Y-14384799D01*
X16685094Y-14384799D02*
X16694618Y-14365751D01*
X16694618Y-14365751D02*
X16704142Y-14337180D01*
X16704142Y-14337180D02*
X16713666Y-14289561D01*
X16713666Y-14289561D02*
X16713666Y-14251465D01*
X16713666Y-14251465D02*
X16704142Y-14203846D01*
X16704142Y-14203846D02*
X16694618Y-14175275D01*
X16694618Y-14175275D02*
X16685094Y-14156227D01*
X16685094Y-14156227D02*
X16666047Y-14127656D01*
X16666047Y-14127656D02*
X16656523Y-14118132D01*
X17018428Y-14422894D02*
X17008904Y-14413370D01*
X17008904Y-14413370D02*
X16989856Y-14384799D01*
X16989856Y-14384799D02*
X16980333Y-14365751D01*
X16980333Y-14365751D02*
X16970809Y-14337180D01*
X16970809Y-14337180D02*
X16961285Y-14289561D01*
X16961285Y-14289561D02*
X16961285Y-14251465D01*
X16961285Y-14251465D02*
X16970809Y-14203846D01*
X16970809Y-14203846D02*
X16980333Y-14175275D01*
X16980333Y-14175275D02*
X16989856Y-14156227D01*
X16989856Y-14156227D02*
X17008904Y-14127656D01*
X17008904Y-14127656D02*
X17018428Y-14118132D01*
X17094618Y-14213370D02*
X17094618Y-14346703D01*
X17094618Y-14232418D02*
X17104142Y-14222894D01*
X17104142Y-14222894D02*
X17123190Y-14213370D01*
X17123190Y-14213370D02*
X17151761Y-14213370D01*
X17151761Y-14213370D02*
X17170809Y-14222894D01*
X17170809Y-14222894D02*
X17180333Y-14241942D01*
X17180333Y-14241942D02*
X17180333Y-14346703D01*
X17304142Y-14346703D02*
X17285095Y-14337180D01*
X17285095Y-14337180D02*
X17275571Y-14327656D01*
X17275571Y-14327656D02*
X17266047Y-14308608D01*
X17266047Y-14308608D02*
X17266047Y-14251465D01*
X17266047Y-14251465D02*
X17275571Y-14232418D01*
X17275571Y-14232418D02*
X17285095Y-14222894D01*
X17285095Y-14222894D02*
X17304142Y-14213370D01*
X17304142Y-14213370D02*
X17332714Y-14213370D01*
X17332714Y-14213370D02*
X17351761Y-14222894D01*
X17351761Y-14222894D02*
X17361285Y-14232418D01*
X17361285Y-14232418D02*
X17370809Y-14251465D01*
X17370809Y-14251465D02*
X17370809Y-14308608D01*
X17370809Y-14308608D02*
X17361285Y-14327656D01*
X17361285Y-14327656D02*
X17351761Y-14337180D01*
X17351761Y-14337180D02*
X17332714Y-14346703D01*
X17332714Y-14346703D02*
X17304142Y-14346703D01*
X17427952Y-14213370D02*
X17504142Y-14213370D01*
X17456523Y-14146703D02*
X17456523Y-14318132D01*
X17456523Y-14318132D02*
X17466047Y-14337180D01*
X17466047Y-14337180D02*
X17485095Y-14346703D01*
X17485095Y-14346703D02*
X17504142Y-14346703D01*
X17723190Y-14213370D02*
X17723190Y-14413370D01*
X17723190Y-14222894D02*
X17742237Y-14213370D01*
X17742237Y-14213370D02*
X17780333Y-14213370D01*
X17780333Y-14213370D02*
X17799380Y-14222894D01*
X17799380Y-14222894D02*
X17808904Y-14232418D01*
X17808904Y-14232418D02*
X17818428Y-14251465D01*
X17818428Y-14251465D02*
X17818428Y-14308608D01*
X17818428Y-14308608D02*
X17808904Y-14327656D01*
X17808904Y-14327656D02*
X17799380Y-14337180D01*
X17799380Y-14337180D02*
X17780333Y-14346703D01*
X17780333Y-14346703D02*
X17742237Y-14346703D01*
X17742237Y-14346703D02*
X17723190Y-14337180D01*
X17932714Y-14346703D02*
X17913666Y-14337180D01*
X17913666Y-14337180D02*
X17904142Y-14318132D01*
X17904142Y-14318132D02*
X17904142Y-14146703D01*
X18094618Y-14346703D02*
X18094618Y-14241942D01*
X18094618Y-14241942D02*
X18085095Y-14222894D01*
X18085095Y-14222894D02*
X18066047Y-14213370D01*
X18066047Y-14213370D02*
X18027952Y-14213370D01*
X18027952Y-14213370D02*
X18008904Y-14222894D01*
X18094618Y-14337180D02*
X18075571Y-14346703D01*
X18075571Y-14346703D02*
X18027952Y-14346703D01*
X18027952Y-14346703D02*
X18008904Y-14337180D01*
X18008904Y-14337180D02*
X17999380Y-14318132D01*
X17999380Y-14318132D02*
X17999380Y-14299084D01*
X17999380Y-14299084D02*
X18008904Y-14280037D01*
X18008904Y-14280037D02*
X18027952Y-14270513D01*
X18027952Y-14270513D02*
X18075571Y-14270513D01*
X18075571Y-14270513D02*
X18094618Y-14260989D01*
X18161285Y-14213370D02*
X18237476Y-14213370D01*
X18189857Y-14146703D02*
X18189857Y-14318132D01*
X18189857Y-14318132D02*
X18199380Y-14337180D01*
X18199380Y-14337180D02*
X18218428Y-14346703D01*
X18218428Y-14346703D02*
X18237476Y-14346703D01*
X18380333Y-14337180D02*
X18361285Y-14346703D01*
X18361285Y-14346703D02*
X18323190Y-14346703D01*
X18323190Y-14346703D02*
X18304142Y-14337180D01*
X18304142Y-14337180D02*
X18294618Y-14318132D01*
X18294618Y-14318132D02*
X18294618Y-14241942D01*
X18294618Y-14241942D02*
X18304142Y-14222894D01*
X18304142Y-14222894D02*
X18323190Y-14213370D01*
X18323190Y-14213370D02*
X18361285Y-14213370D01*
X18361285Y-14213370D02*
X18380333Y-14222894D01*
X18380333Y-14222894D02*
X18389857Y-14241942D01*
X18389857Y-14241942D02*
X18389857Y-14260989D01*
X18389857Y-14260989D02*
X18294618Y-14280037D01*
X18561285Y-14346703D02*
X18561285Y-14146703D01*
X18561285Y-14337180D02*
X18542238Y-14346703D01*
X18542238Y-14346703D02*
X18504142Y-14346703D01*
X18504142Y-14346703D02*
X18485095Y-14337180D01*
X18485095Y-14337180D02*
X18475571Y-14327656D01*
X18475571Y-14327656D02*
X18466047Y-14308608D01*
X18466047Y-14308608D02*
X18466047Y-14251465D01*
X18466047Y-14251465D02*
X18475571Y-14232418D01*
X18475571Y-14232418D02*
X18485095Y-14222894D01*
X18485095Y-14222894D02*
X18504142Y-14213370D01*
X18504142Y-14213370D02*
X18542238Y-14213370D01*
X18542238Y-14213370D02*
X18561285Y-14222894D01*
X18637476Y-14422894D02*
X18646999Y-14413370D01*
X18646999Y-14413370D02*
X18666047Y-14384799D01*
X18666047Y-14384799D02*
X18675571Y-14365751D01*
X18675571Y-14365751D02*
X18685095Y-14337180D01*
X18685095Y-14337180D02*
X18694618Y-14289561D01*
X18694618Y-14289561D02*
X18694618Y-14251465D01*
X18694618Y-14251465D02*
X18685095Y-14203846D01*
X18685095Y-14203846D02*
X18675571Y-14175275D01*
X18675571Y-14175275D02*
X18666047Y-14156227D01*
X18666047Y-14156227D02*
X18646999Y-14127656D01*
X18646999Y-14127656D02*
X18637476Y-14118132D01*
M02*
