<?xml version="1.0"?>
<!DOCTYPE svg PUBLIC "-//W3C//DTD SVG 1.1//EN" "http://www.w3.org/Graphics/SVG/1.1/DTD/svg11.dtd">
<svg width="43.35000000000001mm" height="23.85000000000001mm" viewBox="0 0 43.35000000000001 23.85000000000001" xmlns="http://www.w3.org/2000/svg" version="1.1">
<g id="Part__Feature" transform="translate(21.675000,11.925000) scale(1,-1)">
<path id="Part__Feature_f0000"  d="M 17.5 -9.999999999999998 M 17.5 -9.999999999999998 L 17.75 -9.749999999999998 L 17.75 -9.749999999999998 M 17.75 -9.749999999999998 L 17.5 -9.999999999999998 L 17.5 -9.999999999999998 Z " stroke="#191919" stroke-width="0.35 px" style="stroke-width:0.35;stroke-miterlimit:4;stroke-dasharray:none;stroke-linecap:square;fill:#e5e5e5;fill-opacity:1.0;fill-rule: evenodd"/>
<path id="Part__Feature_f0001"  d="M 17.75 -8.225 L 17.75 -8.225 L 17.75 -9.749999999999998 L 17.75 -9.749999999999998 L 17.75 -8.225 Z " stroke="#191919" stroke-width="0.35 px" style="stroke-width:0.35;stroke-miterlimit:4;stroke-dasharray:none;stroke-linecap:square;fill:#e5e5e5;fill-opacity:1.0;fill-rule: evenodd"/>
<path id="Part__Feature_f0002"  d="M 17.75 9.75 M 17.75 9.75 L 17.5 10.000000000000002 L 17.5 10.000000000000002 M 17.5 10.000000000000002 L 17.75 9.75 L 17.75 9.75 Z " stroke="#191919" stroke-width="0.35 px" style="stroke-width:0.35;stroke-miterlimit:4;stroke-dasharray:none;stroke-linecap:square;fill:#e5e5e5;fill-opacity:1.0;fill-rule: evenodd"/>
<path id="Part__Feature_f0003"  d="M -17.5 9.999999999999998 L -17.5 9.999999999999998 L 17.5 10.000000000000002 L 17.5 10.000000000000002 L -17.5 9.999999999999998 Z " stroke="#191919" stroke-width="0.35 px" style="stroke-width:0.35;stroke-miterlimit:4;stroke-dasharray:none;stroke-linecap:square;fill:#e5e5e5;fill-opacity:1.0;fill-rule: evenodd"/>
<path id="Part__Feature_f0004"  d="M -16.550000000000004 -11.500000000000004 M -16.549999999999983 -11.500000000000004 L -16.249999999999982 -11.200000000000001 L -16.249999999999982 -11.200000000000006 M -16.249999999999982 -11.200000000000001 L -16.549999999999983 -11.500000000000004 L -16.550000000000004 -11.500000000000004 Z " stroke="#191919" stroke-width="0.35 px" style="stroke-width:0.35;stroke-miterlimit:4;stroke-dasharray:none;stroke-linecap:square;fill:#e5e5e5;fill-opacity:1.0;fill-rule: evenodd"/>
<path id="Part__Feature_f0005"  d="M 16.24999999999998 -11.2 M 16.24999999999998 -11.200000000000003 L 16.549999999999976 -11.5 L 16.549999999999997 -11.500000000000002 M 16.549999999999976 -11.5 L 16.24999999999998 -11.200000000000003 L 16.24999999999998 -11.2 Z " stroke="#191919" stroke-width="0.35 px" style="stroke-width:0.35;stroke-miterlimit:4;stroke-dasharray:none;stroke-linecap:square;fill:#e5e5e5;fill-opacity:1.0;fill-rule: evenodd"/>
<path id="Part__Feature_f0006"  d="M -16.249999999999982 -11.200000000000006 L 16.24999999999998 -11.2 L 16.24999999999998 -11.2 L -16.249999999999982 -11.200000000000006 L -16.249999999999982 -11.200000000000006 Z " stroke="#191919" stroke-width="0.35 px" style="stroke-width:0.35;stroke-miterlimit:4;stroke-dasharray:none;stroke-linecap:square;fill:#e5e5e5;fill-opacity:1.0;fill-rule: evenodd"/>
<path id="Part__Feature_f0007"  d="M 21.25 5.100000000000003 M 21.25 5.100000000000004 L 21.25 5.700000000000004 L 21.25 5.700000000000004 M 21.25 5.700000000000004 L 21.25 5.100000000000004 L 21.25 5.100000000000003 Z " stroke="#191919" stroke-width="0.35 px" style="stroke-width:0.35;stroke-miterlimit:4;stroke-dasharray:none;stroke-linecap:square;fill:#e5e5e5;fill-opacity:1.0;fill-rule: evenodd"/>
<path id="Part__Feature_f0008"  d="M 21.250000000000004 -5.700000000000002 M 21.250000000000004 -5.700000000000001 L 21.250000000000004 -5.100000000000001 L 21.250000000000004 -5.100000000000001 M 21.250000000000004 -5.100000000000001 L 21.250000000000004 -5.700000000000001 L 21.250000000000004 -5.700000000000002 Z " stroke="#191919" stroke-width="0.35 px" style="stroke-width:0.35;stroke-miterlimit:4;stroke-dasharray:none;stroke-linecap:square;fill:#e5e5e5;fill-opacity:1.0;fill-rule: evenodd"/>
<path id="Part__Feature_f0009"  d="M -21.250000000000004 2.650000000000004 M -21.250000000000004 2.650000000000004 L -21.250000000000004 2.0500000000000043 L -21.250000000000004 2.050000000000004 M -21.250000000000004 2.0500000000000043 L -21.250000000000004 2.650000000000004 L -21.250000000000004 2.650000000000004 Z " stroke="#191919" stroke-width="0.35 px" style="stroke-width:0.35;stroke-miterlimit:4;stroke-dasharray:none;stroke-linecap:square;fill:#e5e5e5;fill-opacity:1.0;fill-rule: evenodd"/>
<path id="Part__Feature_f0010"  d="M -21.250000000000004 -5.100000000000001 M -21.250000000000004 -5.100000000000001 L -21.250000000000004 -5.700000000000001 L -21.250000000000004 -5.700000000000002 M -21.250000000000004 -5.700000000000001 L -21.250000000000004 -5.100000000000001 L -21.250000000000004 -5.100000000000001 Z " stroke="#191919" stroke-width="0.35 px" style="stroke-width:0.35;stroke-miterlimit:4;stroke-dasharray:none;stroke-linecap:square;fill:#e5e5e5;fill-opacity:1.0;fill-rule: evenodd"/>
<path id="Part__Feature_f0011"  d="M 21.25 -2.650000000000002 M 21.250000000000004 -2.6500000000000017 L 21.250000000000004 -2.050000000000002 L 21.25 -2.050000000000002 M 21.250000000000004 -2.050000000000002 L 21.250000000000004 -2.6500000000000017 L 21.25 -2.650000000000002 Z " stroke="#191919" stroke-width="0.35 px" style="stroke-width:0.35;stroke-miterlimit:4;stroke-dasharray:none;stroke-linecap:square;fill:#e5e5e5;fill-opacity:1.0;fill-rule: evenodd"/>
<path id="Part__Feature_f0012"  d="M -21.250000000000004 -2.050000000000002 M -21.250000000000004 -2.050000000000001 L -21.250000000000004 -2.650000000000001 L -21.250000000000004 -2.650000000000001 M -21.250000000000004 -2.650000000000001 L -21.250000000000004 -2.050000000000001 L -21.250000000000004 -2.050000000000002 Z " stroke="#191919" stroke-width="0.35 px" style="stroke-width:0.35;stroke-miterlimit:4;stroke-dasharray:none;stroke-linecap:square;fill:#e5e5e5;fill-opacity:1.0;fill-rule: evenodd"/>
<path id="Part__Feature_f0013"  d="M -21.250000000000004 5.700000000000004 M -21.250000000000004 5.700000000000004 L -21.250000000000004 5.100000000000004 L -21.250000000000004 5.100000000000003 M -21.250000000000004 5.100000000000004 L -21.250000000000004 5.700000000000004 L -21.250000000000004 5.700000000000004 Z " stroke="#191919" stroke-width="0.35 px" style="stroke-width:0.35;stroke-miterlimit:4;stroke-dasharray:none;stroke-linecap:square;fill:#e5e5e5;fill-opacity:1.0;fill-rule: evenodd"/>
<path id="Part__Feature_f0014"  d="M 21.25 2.050000000000004 M 21.25 2.0500000000000043 L 21.25 2.650000000000004 L 21.25 2.650000000000005 M 21.25 2.650000000000004 L 21.25 2.0500000000000043 L 21.25 2.050000000000004 Z " stroke="#191919" stroke-width="0.35 px" style="stroke-width:0.35;stroke-miterlimit:4;stroke-dasharray:none;stroke-linecap:square;fill:#e5e5e5;fill-opacity:1.0;fill-rule: evenodd"/>
<path id="Part__Feature_f0015"  d="M 16.25 11.200000000000003 L -16.25 11.200000000000003 L -16.25 11.200000000000003 L 16.25 11.200000000000003 L 16.25 11.200000000000003 Z " stroke="#191919" stroke-width="0.35 px" style="stroke-width:0.35;stroke-miterlimit:4;stroke-dasharray:none;stroke-linecap:square;fill:#e5e5e5;fill-opacity:1.0;fill-rule: evenodd"/>
<path id="Part__Feature_f0016"  d="M 16.549999999999997 11.500000000000004 M 16.55 11.500000000000004 L 16.25 11.200000000000001 L 16.25 11.200000000000003 M 16.25 11.200000000000001 L 16.55 11.500000000000004 L 16.549999999999997 11.500000000000004 Z " stroke="#191919" stroke-width="0.35 px" style="stroke-width:0.35;stroke-miterlimit:4;stroke-dasharray:none;stroke-linecap:square;fill:#e5e5e5;fill-opacity:1.0;fill-rule: evenodd"/>
<path id="Part__Feature_f0017"  d="M -16.25 11.200000000000003 M -16.25 11.200000000000001 L -16.55 11.500000000000004 L -16.550000000000004 11.500000000000004 M -16.55 11.500000000000004 L -16.25 11.200000000000001 L -16.25 11.200000000000003 Z " stroke="#191919" stroke-width="0.35 px" style="stroke-width:0.35;stroke-miterlimit:4;stroke-dasharray:none;stroke-linecap:square;fill:#e5e5e5;fill-opacity:1.0;fill-rule: evenodd"/>
<path id="Part__Feature_f0018"  d="M 17.21854614082019 -1.682352938489693 M 17.21854614082019 -1.6823529384896945 L 16.93374091631979 -1.3395535489780992 L 16.93374091631979 -1.339553548978099 M 16.93374091631979 -1.339553548978099 L 17.21854614082019 -1.6823529384896945 L 17.21854614082019 -1.682352938489693 Z " stroke="#191919" stroke-width="0.35 px" style="stroke-width:0.35;stroke-miterlimit:4;stroke-dasharray:none;stroke-linecap:square;fill:#e5e5e5;fill-opacity:1.0;fill-rule: evenodd"/>
<path id="Part__Feature_f0019"  d="M 18.40816275603849 -1.672883158552227 M 18.40816275603849 -1.6728831585522255 L 17.21854614082019 -1.6823529384896934 L 17.21854614082019 -1.682352938489693 M 17.21854614082019 -1.6823529384896934 L 18.40816275603849 -1.6728831585522252 L 18.40816275603849 -1.672883158552227 Z " stroke="#191919" stroke-width="0.35 px" style="stroke-width:0.35;stroke-miterlimit:4;stroke-dasharray:none;stroke-linecap:square;fill:#e5e5e5;fill-opacity:1.0;fill-rule: evenodd"/>
<path id="Part__Feature_f0020"  d="M 18.687474618852058 -1.325593192322477 M 18.687474618852054 -1.3255931923224766 L 18.408162756038486 -1.6728831585522252 L 18.40816275603849 -1.672883158552227 M 18.408162756038486 -1.6728831585522252 L 18.687474618852054 -1.3255931923224766 L 18.687474618852058 -1.325593192322477 Z " stroke="#191919" stroke-width="0.35 px" style="stroke-width:0.35;stroke-miterlimit:4;stroke-dasharray:none;stroke-linecap:square;fill:#e5e5e5;fill-opacity:1.0;fill-rule: evenodd"/>
<path id="Part__Feature_f0021"  d="M 19.125593192322476 -0.887474618852055 M 19.125593192322476 -0.8874746188520554 L 18.687474618852058 -1.3255931923224769 L 18.687474618852058 -1.325593192322477 M 18.687474618852058 -1.325593192322477 L 19.125593192322476 -0.8874746188520554 L 19.125593192322476 -0.887474618852055 Z " stroke="#191919" stroke-width="0.35 px" style="stroke-width:0.35;stroke-miterlimit:4;stroke-dasharray:none;stroke-linecap:square;fill:#e5e5e5;fill-opacity:1.0;fill-rule: evenodd"/>
<path id="Part__Feature_f0022"  d="M 19.47288315855223 -0.608162756038487 M 19.47288315855223 -0.6081627560384866 L 19.12559319232248 -0.8874746188520556 L 19.125593192322476 -0.887474618852055 M 19.125593192322476 -0.8874746188520556 L 19.47288315855223 -0.6081627560384868 L 19.47288315855223 -0.608162756038487 Z " stroke="#191919" stroke-width="0.35 px" style="stroke-width:0.35;stroke-miterlimit:4;stroke-dasharray:none;stroke-linecap:square;fill:#e5e5e5;fill-opacity:1.0;fill-rule: evenodd"/>
<path id="Part__Feature_f0023"  d="M 19.47288315855222 0.608162756038488 M 19.472883158552225 0.6081627560384891 L 19.47288315855223 -0.6081627560384854 L 19.47288315855223 -0.608162756038487 M 19.47288315855223 -0.6081627560384861 L 19.472883158552225 0.6081627560384884 L 19.47288315855222 0.608162756038488 Z " stroke="#191919" stroke-width="0.35 px" style="stroke-width:0.35;stroke-miterlimit:4;stroke-dasharray:none;stroke-linecap:square;fill:#e5e5e5;fill-opacity:1.0;fill-rule: evenodd"/>
<path id="Part__Feature_f0024"  d="M 19.125593192322476 0.887474618852056 M 19.125593192322476 0.8874746188520568 L 19.47288315855223 0.6081627560384888 L 19.47288315855222 0.608162756038488 M 19.47288315855223 0.6081627560384888 L 19.125593192322476 0.8874746188520568 L 19.125593192322476 0.887474618852056 Z " stroke="#191919" stroke-width="0.35 px" style="stroke-width:0.35;stroke-miterlimit:4;stroke-dasharray:none;stroke-linecap:square;fill:#e5e5e5;fill-opacity:1.0;fill-rule: evenodd"/>
<path id="Part__Feature_f0025"  d="M 18.687474618852058 1.325593192322479 M 18.687474618852054 1.3255931923224784 L 19.125593192322476 0.8874746188520549 L 19.125593192322476 0.887474618852056 M 19.125593192322476 0.8874746188520548 L 18.687474618852054 1.3255931923224782 L 18.687474618852058 1.325593192322479 Z " stroke="#191919" stroke-width="0.35 px" style="stroke-width:0.35;stroke-miterlimit:4;stroke-dasharray:none;stroke-linecap:square;fill:#e5e5e5;fill-opacity:1.0;fill-rule: evenodd"/>
<path id="Part__Feature_f0026"  d="M 18.40816275603849 1.672883158552226 M 18.40816275603849 1.6728831585522252 L 18.687474618852054 1.3255931923224786 L 18.687474618852058 1.325593192322479 M 18.687474618852054 1.3255931923224784 L 18.40816275603849 1.6728831585522252 L 18.40816275603849 1.672883158552226 Z " stroke="#191919" stroke-width="0.35 px" style="stroke-width:0.35;stroke-miterlimit:4;stroke-dasharray:none;stroke-linecap:square;fill:#e5e5e5;fill-opacity:1.0;fill-rule: evenodd"/>
<path id="Part__Feature_f0027"  d="M 17.21854614082019 1.682352938489693 M 17.21854614082019 1.6823529384896934 L 18.40816275603849 1.6728831585522252 L 18.40816275603849 1.672883158552226 M 18.40816275603849 1.6728831585522252 L 17.21854614082019 1.6823529384896934 L 17.21854614082019 1.682352938489693 Z " stroke="#191919" stroke-width="0.35 px" style="stroke-width:0.35;stroke-miterlimit:4;stroke-dasharray:none;stroke-linecap:square;fill:#e5e5e5;fill-opacity:1.0;fill-rule: evenodd"/>
<path id="Part__Feature_f0028"  d="M 16.93374091631979 1.339553548978098 M 16.93374091631979 1.3395535489780983 L 17.21854614082019 1.682352938489694 L 17.21854614082019 1.682352938489693 M 17.21854614082019 1.6823529384896942 L 16.93374091631979 1.3395535489780983 L 16.93374091631979 1.339553548978098 Z " stroke="#191919" stroke-width="0.35 px" style="stroke-width:0.35;stroke-miterlimit:4;stroke-dasharray:none;stroke-linecap:square;fill:#e5e5e5;fill-opacity:1.0;fill-rule: evenodd"/>
<path id="Part__Feature_f0029"  d="M 16.34186193207166 0.912560523029298 M 16.34186193207166 0.912560523029295 L 16.93374091631979 1.3395535489780976 L 16.93374091631979 1.339553548978098 M 16.93374091631979 1.3395535489780979 L 16.34186193207166 0.912560523029295 L 16.34186193207166 0.912560523029298 Z " stroke="#191919" stroke-width="0.35 px" style="stroke-width:0.35;stroke-miterlimit:4;stroke-dasharray:none;stroke-linecap:square;fill:#e5e5e5;fill-opacity:1.0;fill-rule: evenodd"/>
<path id="Part__Feature_f0030"  d="M 15.992971366018018 2.293697346200938 M 15.992971366018017 2.293697346200939 L 16.34186193207166 0.9125605230292959 L 16.34186193207166 0.912560523029298 M 16.34186193207166 0.9125605230292959 L 15.992971366018015 2.2936973462009385 L 15.992971366018018 2.293697346200938 Z " stroke="#191919" stroke-width="0.35 px" style="stroke-width:0.35;stroke-miterlimit:4;stroke-dasharray:none;stroke-linecap:square;fill:#e5e5e5;fill-opacity:1.0;fill-rule: evenodd"/>
<path id="Part__Feature_f0031"  d="M 17.79999999999999 2.920000000000101 M 17.8 2.9200000000000137 L 15.992971366018013 2.2936973462009442 L 15.992971366018018 2.293697346200938 M 15.992971366018013 2.2936973462009442 L 17.8 2.9200000000000137 L 17.79999999999999 2.920000000000101 Z " stroke="#191919" stroke-width="0.35 px" style="stroke-width:0.35;stroke-miterlimit:4;stroke-dasharray:none;stroke-linecap:square;fill:#e5e5e5;fill-opacity:1.0;fill-rule: evenodd"/>
<path id="Part__Feature_f0032"  d="M 19.49999999999999 2.920000000000012 L 17.79999999999999 2.920000000000101 L 17.79999999999999 2.920000000000101 L 19.49999999999999 2.920000000000012 L 19.49999999999999 2.920000000000012 Z " stroke="#191919" stroke-width="0.35 px" style="stroke-width:0.35;stroke-miterlimit:4;stroke-dasharray:none;stroke-linecap:square;fill:#e5e5e5;fill-opacity:1.0;fill-rule: evenodd"/>
<path id="Part__Feature_f0033"  d="M 19.75 3.170000000000014 M 19.75 3.170000000000014 L 19.5 2.920000000000013 L 19.49999999999999 2.920000000000012 M 19.5 2.920000000000013 L 19.75 3.170000000000014 L 19.75 3.170000000000014 Z " stroke="#191919" stroke-width="0.35 px" style="stroke-width:0.35;stroke-miterlimit:4;stroke-dasharray:none;stroke-linecap:square;fill:#e5e5e5;fill-opacity:1.0;fill-rule: evenodd"/>
<path id="Part__Feature_f0034"  d="M 19.75 4.470000000000001 L 19.75 3.170000000000014 L 19.75 3.170000000000014 L 19.75 4.470000000000001 L 19.75 4.470000000000001 Z " stroke="#191919" stroke-width="0.35 px" style="stroke-width:0.35;stroke-miterlimit:4;stroke-dasharray:none;stroke-linecap:square;fill:#e5e5e5;fill-opacity:1.0;fill-rule: evenodd"/>
<path id="Part__Feature_f0035"  d="M 19.5 4.720000000000001 M 19.5 4.720000000000002 L 19.75 4.470000000000002 L 19.75 4.470000000000001 M 19.75 4.470000000000002 L 19.5 4.720000000000002 L 19.5 4.720000000000001 Z " stroke="#191919" stroke-width="0.35 px" style="stroke-width:0.35;stroke-miterlimit:4;stroke-dasharray:none;stroke-linecap:square;fill:#e5e5e5;fill-opacity:1.0;fill-rule: evenodd"/>
<path id="Part__Feature_f0036"  d="M 18.0 4.720000000000002 L 19.5 4.720000000000001 L 19.5 4.720000000000001 L 18.0 4.720000000000002 L 18.0 4.720000000000002 Z " stroke="#191919" stroke-width="0.35 px" style="stroke-width:0.35;stroke-miterlimit:4;stroke-dasharray:none;stroke-linecap:square;fill:#e5e5e5;fill-opacity:1.0;fill-rule: evenodd"/>
<path id="Part__Feature_f0037"  d="M 17.75 4.970000000000001 M 17.75 4.970000000000001 L 18.0 4.7200000000000015 L 18.0 4.720000000000002 M 18.0 4.7200000000000015 L 17.75 4.970000000000001 L 17.75 4.970000000000001 Z " stroke="#191919" stroke-width="0.35 px" style="stroke-width:0.35;stroke-miterlimit:4;stroke-dasharray:none;stroke-linecap:square;fill:#e5e5e5;fill-opacity:1.0;fill-rule: evenodd"/>
<path id="Part__Feature_f0038"  d="M 17.75 5.925000000000001 L 17.75 4.970000000000001 L 17.75 4.970000000000001 L 17.75 5.925000000000001 L 17.75 5.925000000000001 Z " stroke="#191919" stroke-width="0.35 px" style="stroke-width:0.35;stroke-miterlimit:4;stroke-dasharray:none;stroke-linecap:square;fill:#e5e5e5;fill-opacity:1.0;fill-rule: evenodd"/>
<path id="Part__Feature_f0039"  d="M 18.0 6.175000000000001 M 18.0 6.175000000000001 L 17.75 5.925000000000001 L 17.75 5.925000000000001 M 17.75 5.925000000000001 L 18.0 6.175000000000001 L 18.0 6.175000000000001 Z " stroke="#191919" stroke-width="0.35 px" style="stroke-width:0.35;stroke-miterlimit:4;stroke-dasharray:none;stroke-linecap:square;fill:#e5e5e5;fill-opacity:1.0;fill-rule: evenodd"/>
<path id="Part__Feature_f0040"  d="M 19.5 6.175000000000001 L 18.0 6.175000000000001 L 18.0 6.175000000000001 L 19.5 6.175000000000001 L 19.5 6.175000000000001 Z " stroke="#191919" stroke-width="0.35 px" style="stroke-width:0.35;stroke-miterlimit:4;stroke-dasharray:none;stroke-linecap:square;fill:#e5e5e5;fill-opacity:1.0;fill-rule: evenodd"/>
<path id="Part__Feature_f0041"  d="M 19.75 6.425000000000001 M 19.75 6.425000000000001 L 19.5 6.175000000000001 L 19.5 6.175000000000001 M 19.5 6.175000000000001 L 19.75 6.425000000000001 L 19.75 6.425000000000001 Z " stroke="#191919" stroke-width="0.35 px" style="stroke-width:0.35;stroke-miterlimit:4;stroke-dasharray:none;stroke-linecap:square;fill:#e5e5e5;fill-opacity:1.0;fill-rule: evenodd"/>
<path id="Part__Feature_f0042"  d="M 19.75 7.725 L 19.75 6.425000000000001 L 19.75 6.425000000000001 L 19.75 7.725 L 19.75 7.725 Z " stroke="#191919" stroke-width="0.35 px" style="stroke-width:0.35;stroke-miterlimit:4;stroke-dasharray:none;stroke-linecap:square;fill:#e5e5e5;fill-opacity:1.0;fill-rule: evenodd"/>
<path id="Part__Feature_f0043"  d="M 19.5 7.975 M 19.5 7.9750000000000005 L 19.75 7.725000000000001 L 19.75 7.725 M 19.75 7.725000000000001 L 19.5 7.9750000000000005 L 19.5 7.975 Z " stroke="#191919" stroke-width="0.35 px" style="stroke-width:0.35;stroke-miterlimit:4;stroke-dasharray:none;stroke-linecap:square;fill:#e5e5e5;fill-opacity:1.0;fill-rule: evenodd"/>
<path id="Part__Feature_f0044"  d="M 18.0 7.975 L 19.5 7.975 L 19.5 7.975 L 18.0 7.975 L 18.0 7.975 Z " stroke="#191919" stroke-width="0.35 px" style="stroke-width:0.35;stroke-miterlimit:4;stroke-dasharray:none;stroke-linecap:square;fill:#e5e5e5;fill-opacity:1.0;fill-rule: evenodd"/>
<path id="Part__Feature_f0045"  d="M 17.75 8.225 M 17.75 8.225 L 18.0 7.9750000000000005 L 18.0 7.975 M 18.0 7.9750000000000005 L 17.75 8.225 L 17.75 8.225 Z " stroke="#191919" stroke-width="0.35 px" style="stroke-width:0.35;stroke-miterlimit:4;stroke-dasharray:none;stroke-linecap:square;fill:#e5e5e5;fill-opacity:1.0;fill-rule: evenodd"/>
<path id="Part__Feature_f0046"  d="M 17.75 8.225 L 17.75 8.225 L 17.75 9.75 L 17.75 9.75 L 17.75 8.225 Z " stroke="#191919" stroke-width="0.35 px" style="stroke-width:0.35;stroke-miterlimit:4;stroke-dasharray:none;stroke-linecap:square;fill:#e5e5e5;fill-opacity:1.0;fill-rule: evenodd"/>
<path id="Part__Feature_f0047"  d="M -17.75 9.749999999999998 M -17.75 9.749999999999998 L -17.500000000000004 9.999999999999998 L -17.5 9.999999999999998 M -17.500000000000004 9.999999999999998 L -17.75 9.749999999999998 L -17.75 9.749999999999998 Z " stroke="#191919" stroke-width="0.35 px" style="stroke-width:0.35;stroke-miterlimit:4;stroke-dasharray:none;stroke-linecap:square;fill:#e5e5e5;fill-opacity:1.0;fill-rule: evenodd"/>
<path id="Part__Feature_f0048"  d="M -17.75 8.225 L -17.75 9.749999999999998 L -17.75 9.749999999999998 L -17.75 8.225 L -17.75 8.225 Z " stroke="#191919" stroke-width="0.35 px" style="stroke-width:0.35;stroke-miterlimit:4;stroke-dasharray:none;stroke-linecap:square;fill:#e5e5e5;fill-opacity:1.0;fill-rule: evenodd"/>
<path id="Part__Feature_f0049"  d="M -18.0 7.975 M -18.0 7.9750000000000005 L -17.75 8.225 L -17.75 8.225 M -17.75 8.225 L -18.0 7.9750000000000005 L -18.0 7.975 Z " stroke="#191919" stroke-width="0.35 px" style="stroke-width:0.35;stroke-miterlimit:4;stroke-dasharray:none;stroke-linecap:square;fill:#e5e5e5;fill-opacity:1.0;fill-rule: evenodd"/>
<path id="Part__Feature_f0050"  d="M -19.5 7.975 L -18.0 7.975 L -18.0 7.975 L -19.5 7.975 L -19.5 7.975 Z " stroke="#191919" stroke-width="0.35 px" style="stroke-width:0.35;stroke-miterlimit:4;stroke-dasharray:none;stroke-linecap:square;fill:#e5e5e5;fill-opacity:1.0;fill-rule: evenodd"/>
<path id="Part__Feature_f0051"  d="M -19.75 7.725 M -19.75 7.725 L -19.5 7.9750000000000005 L -19.5 7.975 M -19.5 7.9750000000000005 L -19.75 7.725 L -19.75 7.725 Z " stroke="#191919" stroke-width="0.35 px" style="stroke-width:0.35;stroke-miterlimit:4;stroke-dasharray:none;stroke-linecap:square;fill:#e5e5e5;fill-opacity:1.0;fill-rule: evenodd"/>
<path id="Part__Feature_f0052"  d="M -19.75 6.425000000000001 L -19.75 7.725 L -19.75 7.725 L -19.75 6.425000000000001 L -19.75 6.425000000000001 Z " stroke="#191919" stroke-width="0.35 px" style="stroke-width:0.35;stroke-miterlimit:4;stroke-dasharray:none;stroke-linecap:square;fill:#e5e5e5;fill-opacity:1.0;fill-rule: evenodd"/>
<path id="Part__Feature_f0053"  d="M -19.5 6.175000000000001 M -19.5 6.175000000000001 L -19.75 6.425 L -19.75 6.425000000000001 M -19.75 6.425 L -19.5 6.175000000000001 L -19.5 6.175000000000001 Z " stroke="#191919" stroke-width="0.35 px" style="stroke-width:0.35;stroke-miterlimit:4;stroke-dasharray:none;stroke-linecap:square;fill:#e5e5e5;fill-opacity:1.0;fill-rule: evenodd"/>
<path id="Part__Feature_f0054"  d="M -18.0 6.175000000000001 L -19.5 6.175000000000001 L -19.5 6.175000000000001 L -18.0 6.175000000000001 L -18.0 6.175000000000001 Z " stroke="#191919" stroke-width="0.35 px" style="stroke-width:0.35;stroke-miterlimit:4;stroke-dasharray:none;stroke-linecap:square;fill:#e5e5e5;fill-opacity:1.0;fill-rule: evenodd"/>
<path id="Part__Feature_f0055"  d="M -17.75 5.925000000000001 M -17.75 5.925000000000002 L -18.0 6.175000000000001 L -18.0 6.175000000000001 M -18.0 6.175000000000001 L -17.75 5.925000000000002 L -17.75 5.925000000000001 Z " stroke="#191919" stroke-width="0.35 px" style="stroke-width:0.35;stroke-miterlimit:4;stroke-dasharray:none;stroke-linecap:square;fill:#e5e5e5;fill-opacity:1.0;fill-rule: evenodd"/>
<path id="Part__Feature_f0056"  d="M -17.75 4.970000000000001 L -17.75 5.925000000000001 L -17.75 5.925000000000001 L -17.75 4.970000000000001 L -17.75 4.970000000000001 Z " stroke="#191919" stroke-width="0.35 px" style="stroke-width:0.35;stroke-miterlimit:4;stroke-dasharray:none;stroke-linecap:square;fill:#e5e5e5;fill-opacity:1.0;fill-rule: evenodd"/>
<path id="Part__Feature_f0057"  d="M -18.0 4.720000000000002 M -18.0 4.7200000000000015 L -17.75 4.970000000000001 L -17.75 4.970000000000001 M -17.75 4.970000000000001 L -18.0 4.7200000000000015 L -18.0 4.720000000000002 Z " stroke="#191919" stroke-width="0.35 px" style="stroke-width:0.35;stroke-miterlimit:4;stroke-dasharray:none;stroke-linecap:square;fill:#e5e5e5;fill-opacity:1.0;fill-rule: evenodd"/>
<path id="Part__Feature_f0058"  d="M -19.5 4.720000000000001 L -18.0 4.720000000000002 L -18.0 4.720000000000002 L -19.5 4.720000000000001 L -19.5 4.720000000000001 Z " stroke="#191919" stroke-width="0.35 px" style="stroke-width:0.35;stroke-miterlimit:4;stroke-dasharray:none;stroke-linecap:square;fill:#e5e5e5;fill-opacity:1.0;fill-rule: evenodd"/>
<path id="Part__Feature_f0059"  d="M -19.75 4.470000000000001 M -19.75 4.470000000000001 L -19.5 4.720000000000002 L -19.5 4.720000000000001 M -19.5 4.720000000000002 L -19.75 4.470000000000001 L -19.75 4.470000000000001 Z " stroke="#191919" stroke-width="0.35 px" style="stroke-width:0.35;stroke-miterlimit:4;stroke-dasharray:none;stroke-linecap:square;fill:#e5e5e5;fill-opacity:1.0;fill-rule: evenodd"/>
<path id="Part__Feature_f0060"  d="M -19.75 3.170000000000002 L -19.75 4.470000000000001 L -19.75 4.470000000000001 L -19.75 3.170000000000002 L -19.75 3.170000000000002 Z " stroke="#191919" stroke-width="0.35 px" style="stroke-width:0.35;stroke-miterlimit:4;stroke-dasharray:none;stroke-linecap:square;fill:#e5e5e5;fill-opacity:1.0;fill-rule: evenodd"/>
<path id="Part__Feature_f0061"  d="M -19.5 2.92 M -19.5 2.920000000000001 L -19.75 3.17 L -19.75 3.170000000000002 M -19.75 3.17 L -19.5 2.920000000000001 L -19.5 2.92 Z " stroke="#191919" stroke-width="0.35 px" style="stroke-width:0.35;stroke-miterlimit:4;stroke-dasharray:none;stroke-linecap:square;fill:#e5e5e5;fill-opacity:1.0;fill-rule: evenodd"/>
<path id="Part__Feature_f0062"  d="M -17.800000000000008 2.920000000000007 L -19.5 2.92 L -19.5 2.92 L -17.800000000000008 2.920000000000007 L -17.800000000000008 2.920000000000007 Z " stroke="#191919" stroke-width="0.35 px" style="stroke-width:0.35;stroke-miterlimit:4;stroke-dasharray:none;stroke-linecap:square;fill:#e5e5e5;fill-opacity:1.0;fill-rule: evenodd"/>
<path id="Part__Feature_f0063"  d="M -15.999925431713136 2.299158878504673 M -15.999925431713137 2.299158878504671 L -17.800000000000008 2.919999999999999 L -17.800000000000008 2.920000000000007 M -17.800000000000008 2.919999999999999 L -15.999925431713137 2.299158878504671 L -15.999925431713136 2.299158878504673 Z " stroke="#191919" stroke-width="0.35 px" style="stroke-width:0.35;stroke-miterlimit:4;stroke-dasharray:none;stroke-linecap:square;fill:#e5e5e5;fill-opacity:1.0;fill-rule: evenodd"/>
<path id="Part__Feature_f0064"  d="M -16.344632035875332 0.916971876522366 M -16.344632035875332 0.9169718765223669 L -15.999925431713137 2.2991588785046715 L -15.999925431713136 2.299158878504673 M -15.999925431713137 2.2991588785046715 L -16.344632035875332 0.9169718765223669 L -16.344632035875332 0.916971876522366 Z " stroke="#191919" stroke-width="0.35 px" style="stroke-width:0.35;stroke-miterlimit:4;stroke-dasharray:none;stroke-linecap:square;fill:#e5e5e5;fill-opacity:1.0;fill-rule: evenodd"/>
<path id="Part__Feature_f0065"  d="M -16.937801327772128 1.342170615177812 M -16.937801327772124 1.3421706151778119 L -16.344632035875332 0.9169718765223661 L -16.344632035875332 0.916971876522366 M -16.344632035875332 0.9169718765223662 L -16.937801327772124 1.3421706151778117 L -16.937801327772128 1.342170615177812 Z " stroke="#191919" stroke-width="0.35 px" style="stroke-width:0.35;stroke-miterlimit:4;stroke-dasharray:none;stroke-linecap:square;fill:#e5e5e5;fill-opacity:1.0;fill-rule: evenodd"/>
<path id="Part__Feature_f0066"  d="M -16.344632035875332 -0.916971876522366 M -16.344632035875332 -0.9169718765223662 L -16.937801327772124 -1.342170615177812 L -16.937801327772128 -1.342170615177812 M -16.937801327772124 -1.3421706151778123 L -16.344632035875332 -0.9169718765223662 L -16.344632035875332 -0.916971876522366 Z " stroke="#191919" stroke-width="0.35 px" style="stroke-width:0.35;stroke-miterlimit:4;stroke-dasharray:none;stroke-linecap:square;fill:#e5e5e5;fill-opacity:1.0;fill-rule: evenodd"/>
<path id="Part__Feature_f0067"  d="M -17.223643312464276 1.684105985005945 M -17.223643312464276 1.6841059850059454 L -16.937801327772128 1.3421706151778126 L -16.937801327772128 1.342170615177812 M -16.937801327772128 1.3421706151778123 L -17.223643312464276 1.6841059850059454 L -17.223643312464276 1.684105985005945 Z " stroke="#191919" stroke-width="0.35 px" style="stroke-width:0.35;stroke-miterlimit:4;stroke-dasharray:none;stroke-linecap:square;fill:#e5e5e5;fill-opacity:1.0;fill-rule: evenodd"/>
<path id="Part__Feature_f0068"  d="M -18.40816275603849 1.672883158552227 M -18.40816275603849 1.6728831585522252 L -17.223643312464276 1.6841059850059459 L -17.223643312464276 1.684105985005945 M -17.223643312464276 1.6841059850059459 L -18.40816275603849 1.6728831585522255 L -18.40816275603849 1.672883158552227 Z " stroke="#191919" stroke-width="0.35 px" style="stroke-width:0.35;stroke-miterlimit:4;stroke-dasharray:none;stroke-linecap:square;fill:#e5e5e5;fill-opacity:1.0;fill-rule: evenodd"/>
<path id="Part__Feature_f0069"  d="M -18.687474618852058 1.325593192322477 M -18.687474618852054 1.3255931923224766 L -18.408162756038486 1.6728831585522252 L -18.40816275603849 1.672883158552227 M -18.408162756038486 1.6728831585522252 L -18.687474618852054 1.3255931923224766 L -18.687474618852058 1.325593192322477 Z " stroke="#191919" stroke-width="0.35 px" style="stroke-width:0.35;stroke-miterlimit:4;stroke-dasharray:none;stroke-linecap:square;fill:#e5e5e5;fill-opacity:1.0;fill-rule: evenodd"/>
<path id="Part__Feature_f0070"  d="M -19.125593192322476 0.887474618852055 M -19.125593192322476 0.8874746188520554 L -18.687474618852058 1.3255931923224769 L -18.687474618852058 1.325593192322477 M -18.687474618852058 1.325593192322477 L -19.125593192322476 0.8874746188520554 L -19.125593192322476 0.887474618852055 Z " stroke="#191919" stroke-width="0.35 px" style="stroke-width:0.35;stroke-miterlimit:4;stroke-dasharray:none;stroke-linecap:square;fill:#e5e5e5;fill-opacity:1.0;fill-rule: evenodd"/>
<path id="Part__Feature_f0071"  d="M -19.47288315855223 0.608162756038486 M -19.47288315855223 0.6081627560384856 L -19.12559319232248 0.8874746188520546 L -19.125593192322476 0.887474618852055 M -19.125593192322476 0.8874746188520546 L -19.47288315855223 0.6081627560384857 L -19.47288315855223 0.608162756038486 Z " stroke="#191919" stroke-width="0.35 px" style="stroke-width:0.35;stroke-miterlimit:4;stroke-dasharray:none;stroke-linecap:square;fill:#e5e5e5;fill-opacity:1.0;fill-rule: evenodd"/>
<path id="Part__Feature_f0072"  d="M -19.47288315855223 -0.608162756038486 M -19.47288315855223 -0.608162756038486 L -19.47288315855223 0.6081627560384856 L -19.47288315855223 0.608162756038486 M -19.47288315855223 0.608162756038486 L -19.47288315855223 -0.6081627560384856 L -19.47288315855223 -0.608162756038486 Z " stroke="#191919" stroke-width="0.35 px" style="stroke-width:0.35;stroke-miterlimit:4;stroke-dasharray:none;stroke-linecap:square;fill:#e5e5e5;fill-opacity:1.0;fill-rule: evenodd"/>
<path id="Part__Feature_f0073"  d="M -19.125593192322476 -0.887474618852055 M -19.125593192322476 -0.8874746188520548 L -19.47288315855223 -0.6081627560384852 L -19.47288315855223 -0.608162756038486 M -19.47288315855223 -0.608162756038485 L -19.125593192322476 -0.8874746188520548 L -19.125593192322476 -0.887474618852055 Z " stroke="#191919" stroke-width="0.35 px" style="stroke-width:0.35;stroke-miterlimit:4;stroke-dasharray:none;stroke-linecap:square;fill:#e5e5e5;fill-opacity:1.0;fill-rule: evenodd"/>
<path id="Part__Feature_f0074"  d="M -18.687474618852058 -1.325593192322477 M -18.687474618852058 -1.3255931923224769 L -19.125593192322476 -0.8874746188520554 L -19.125593192322476 -0.887474618852055 M -19.125593192322476 -0.8874746188520553 L -18.687474618852058 -1.3255931923224769 L -18.687474618852058 -1.325593192322477 Z " stroke="#191919" stroke-width="0.35 px" style="stroke-width:0.35;stroke-miterlimit:4;stroke-dasharray:none;stroke-linecap:square;fill:#e5e5e5;fill-opacity:1.0;fill-rule: evenodd"/>
<path id="Part__Feature_f0075"  d="M -18.40816275603849 -1.672883158552227 M -18.40816275603849 -1.6728831585522244 L -18.687474618852054 -1.3255931923224766 L -18.687474618852058 -1.325593192322477 M -18.687474618852054 -1.3255931923224766 L -18.40816275603849 -1.6728831585522244 L -18.40816275603849 -1.672883158552227 Z " stroke="#191919" stroke-width="0.35 px" style="stroke-width:0.35;stroke-miterlimit:4;stroke-dasharray:none;stroke-linecap:square;fill:#e5e5e5;fill-opacity:1.0;fill-rule: evenodd"/>
<path id="Part__Feature_f0076"  d="M -17.223643312464276 -1.684105985005945 M -17.223643312464276 -1.6841059850059459 L -18.40816275603849 -1.6728831585522255 L -18.40816275603849 -1.672883158552227 M -18.40816275603849 -1.6728831585522252 L -17.223643312464276 -1.6841059850059459 L -17.223643312464276 -1.684105985005945 Z " stroke="#191919" stroke-width="0.35 px" style="stroke-width:0.35;stroke-miterlimit:4;stroke-dasharray:none;stroke-linecap:square;fill:#e5e5e5;fill-opacity:1.0;fill-rule: evenodd"/>
<path id="Part__Feature_f0077"  d="M -16.937801327772128 -1.342170615177812 M -16.937801327772128 -1.342170615177812 L -17.223643312464276 -1.6841059850059452 L -17.223643312464276 -1.684105985005945 M -17.223643312464276 -1.6841059850059454 L -16.937801327772128 -1.3421706151778123 L -16.937801327772128 -1.342170615177812 Z " stroke="#191919" stroke-width="0.35 px" style="stroke-width:0.35;stroke-miterlimit:4;stroke-dasharray:none;stroke-linecap:square;fill:#e5e5e5;fill-opacity:1.0;fill-rule: evenodd"/>
<path id="Part__Feature_f0078"  d="M -15.999925431713136 -2.299158878504673 M -15.999925431713137 -2.299158878504673 L -16.344632035875332 -0.9169718765223671 L -16.344632035875332 -0.916971876522366 M -16.344632035875332 -0.9169718765223671 L -15.999925431713137 -2.2991588785046724 L -15.999925431713136 -2.299158878504673 Z " stroke="#191919" stroke-width="0.35 px" style="stroke-width:0.35;stroke-miterlimit:4;stroke-dasharray:none;stroke-linecap:square;fill:#e5e5e5;fill-opacity:1.0;fill-rule: evenodd"/>
<path id="Part__Feature_f0079"  d="M -17.800000000000008 -2.920000000000007 M -17.8 -2.92 L -15.999925431713137 -2.2991588785046715 L -15.999925431713136 -2.299158878504673 M -15.999925431713136 -2.299158878504671 L -17.8 -2.92 L -17.800000000000008 -2.920000000000007 Z " stroke="#191919" stroke-width="0.35 px" style="stroke-width:0.35;stroke-miterlimit:4;stroke-dasharray:none;stroke-linecap:square;fill:#e5e5e5;fill-opacity:1.0;fill-rule: evenodd"/>
<path id="Part__Feature_f0080"  d="M -19.5 -2.920000000000002 L -17.800000000000008 -2.920000000000007 L -17.800000000000008 -2.920000000000007 L -19.5 -2.920000000000002 L -19.5 -2.920000000000002 Z " stroke="#191919" stroke-width="0.35 px" style="stroke-width:0.35;stroke-miterlimit:4;stroke-dasharray:none;stroke-linecap:square;fill:#e5e5e5;fill-opacity:1.0;fill-rule: evenodd"/>
<path id="Part__Feature_f0081"  d="M -19.75 -3.170000000000002 M -19.749999999999996 -3.170000000000002 L -19.5 -2.9200000000000017 L -19.5 -2.920000000000002 M -19.5 -2.9200000000000017 L -19.749999999999996 -3.170000000000002 L -19.75 -3.170000000000002 Z " stroke="#191919" stroke-width="0.35 px" style="stroke-width:0.35;stroke-miterlimit:4;stroke-dasharray:none;stroke-linecap:square;fill:#e5e5e5;fill-opacity:1.0;fill-rule: evenodd"/>
<path id="Part__Feature_f0082"  d="M -19.75 -4.470000000000001 L -19.75 -3.170000000000002 L -19.75 -3.170000000000002 L -19.75 -4.470000000000001 L -19.75 -4.470000000000001 Z " stroke="#191919" stroke-width="0.35 px" style="stroke-width:0.35;stroke-miterlimit:4;stroke-dasharray:none;stroke-linecap:square;fill:#e5e5e5;fill-opacity:1.0;fill-rule: evenodd"/>
<path id="Part__Feature_f0083"  d="M -19.5 -4.720000000000001 M -19.5 -4.7200000000000015 L -19.75 -4.470000000000002 L -19.75 -4.470000000000001 M -19.75 -4.470000000000002 L -19.5 -4.7200000000000015 L -19.5 -4.720000000000001 Z " stroke="#191919" stroke-width="0.35 px" style="stroke-width:0.35;stroke-miterlimit:4;stroke-dasharray:none;stroke-linecap:square;fill:#e5e5e5;fill-opacity:1.0;fill-rule: evenodd"/>
<path id="Part__Feature_f0084"  d="M -18.0 -4.720000000000001 L -19.5 -4.720000000000001 L -19.5 -4.720000000000001 L -18.0 -4.720000000000001 L -18.0 -4.720000000000001 Z " stroke="#191919" stroke-width="0.35 px" style="stroke-width:0.35;stroke-miterlimit:4;stroke-dasharray:none;stroke-linecap:square;fill:#e5e5e5;fill-opacity:1.0;fill-rule: evenodd"/>
<path id="Part__Feature_f0085"  d="M -17.75 -4.970000000000001 M -17.75 -4.970000000000001 L -18.0 -4.720000000000001 L -18.0 -4.720000000000001 M -18.0 -4.720000000000001 L -17.75 -4.970000000000001 L -17.75 -4.970000000000001 Z " stroke="#191919" stroke-width="0.35 px" style="stroke-width:0.35;stroke-miterlimit:4;stroke-dasharray:none;stroke-linecap:square;fill:#e5e5e5;fill-opacity:1.0;fill-rule: evenodd"/>
<path id="Part__Feature_f0086"  d="M -17.75 -5.925000000000001 L -17.75 -4.970000000000001 L -17.75 -4.970000000000001 L -17.75 -5.925000000000001 L -17.75 -5.925000000000001 Z " stroke="#191919" stroke-width="0.35 px" style="stroke-width:0.35;stroke-miterlimit:4;stroke-dasharray:none;stroke-linecap:square;fill:#e5e5e5;fill-opacity:1.0;fill-rule: evenodd"/>
<path id="Part__Feature_f0087"  d="M -18.0 -6.175000000000001 M -18.0 -6.175000000000001 L -17.75 -5.925000000000001 L -17.75 -5.925000000000001 M -17.75 -5.925000000000001 L -18.0 -6.175000000000001 L -18.0 -6.175000000000001 Z " stroke="#191919" stroke-width="0.35 px" style="stroke-width:0.35;stroke-miterlimit:4;stroke-dasharray:none;stroke-linecap:square;fill:#e5e5e5;fill-opacity:1.0;fill-rule: evenodd"/>
<path id="Part__Feature_f0088"  d="M -19.5 -6.175000000000001 L -18.0 -6.175000000000001 L -18.0 -6.175000000000001 L -19.5 -6.175000000000001 L -19.5 -6.175000000000001 Z " stroke="#191919" stroke-width="0.35 px" style="stroke-width:0.35;stroke-miterlimit:4;stroke-dasharray:none;stroke-linecap:square;fill:#e5e5e5;fill-opacity:1.0;fill-rule: evenodd"/>
<path id="Part__Feature_f0089"  d="M -19.75 -6.425000000000001 M -19.75 -6.425000000000001 L -19.5 -6.175000000000001 L -19.5 -6.175000000000001 M -19.5 -6.175000000000001 L -19.75 -6.425000000000001 L -19.75 -6.425000000000001 Z " stroke="#191919" stroke-width="0.35 px" style="stroke-width:0.35;stroke-miterlimit:4;stroke-dasharray:none;stroke-linecap:square;fill:#e5e5e5;fill-opacity:1.0;fill-rule: evenodd"/>
<path id="Part__Feature_f0090"  d="M -19.75 -7.725 L -19.75 -6.425000000000001 L -19.75 -6.425000000000001 L -19.75 -7.725 L -19.75 -7.725 Z " stroke="#191919" stroke-width="0.35 px" style="stroke-width:0.35;stroke-miterlimit:4;stroke-dasharray:none;stroke-linecap:square;fill:#e5e5e5;fill-opacity:1.0;fill-rule: evenodd"/>
<path id="Part__Feature_f0091"  d="M -19.5 -7.975 M -19.5 -7.9750000000000005 L -19.75 -7.725000000000001 L -19.75 -7.725 M -19.75 -7.725000000000001 L -19.5 -7.9750000000000005 L -19.5 -7.975 Z " stroke="#191919" stroke-width="0.35 px" style="stroke-width:0.35;stroke-miterlimit:4;stroke-dasharray:none;stroke-linecap:square;fill:#e5e5e5;fill-opacity:1.0;fill-rule: evenodd"/>
<path id="Part__Feature_f0092"  d="M -18.0 -7.975 L -19.5 -7.975 L -19.5 -7.975 L -18.0 -7.975 L -18.0 -7.975 Z " stroke="#191919" stroke-width="0.35 px" style="stroke-width:0.35;stroke-miterlimit:4;stroke-dasharray:none;stroke-linecap:square;fill:#e5e5e5;fill-opacity:1.0;fill-rule: evenodd"/>
<path id="Part__Feature_f0093"  d="M -17.75 -8.225 M -17.75 -8.225 L -18.0 -7.9750000000000005 L -18.0 -7.975 M -18.0 -7.9750000000000005 L -17.75 -8.225 L -17.75 -8.225 Z " stroke="#191919" stroke-width="0.35 px" style="stroke-width:0.35;stroke-miterlimit:4;stroke-dasharray:none;stroke-linecap:square;fill:#e5e5e5;fill-opacity:1.0;fill-rule: evenodd"/>
<path id="Part__Feature_f0094"  d="M -17.75 -9.749999999999998 L -17.75 -8.225 L -17.75 -8.225 L -17.75 -9.749999999999998 L -17.75 -9.749999999999998 Z " stroke="#191919" stroke-width="0.35 px" style="stroke-width:0.35;stroke-miterlimit:4;stroke-dasharray:none;stroke-linecap:square;fill:#e5e5e5;fill-opacity:1.0;fill-rule: evenodd"/>
<path id="Part__Feature_f0095"  d="M -17.5 -9.999999999999996 M -17.5 -9.999999999999996 L -17.75 -9.75 L -17.75 -9.749999999999998 M -17.75 -9.75 L -17.5 -9.999999999999996 L -17.5 -9.999999999999996 Z " stroke="#191919" stroke-width="0.35 px" style="stroke-width:0.35;stroke-miterlimit:4;stroke-dasharray:none;stroke-linecap:square;fill:#e5e5e5;fill-opacity:1.0;fill-rule: evenodd"/>
<path id="Part__Feature_f0096"  d="M -17.5 -9.999999999999996 L -17.5 -9.999999999999996 L 17.5 -9.999999999999998 L 17.5 -9.999999999999998 L -17.5 -9.999999999999996 Z " stroke="#191919" stroke-width="0.35 px" style="stroke-width:0.35;stroke-miterlimit:4;stroke-dasharray:none;stroke-linecap:square;fill:#e5e5e5;fill-opacity:1.0;fill-rule: evenodd"/>
<path id="Part__Feature_f0097"  d="M 18.0 -7.975 M 18.0 -7.9750000000000005 L 17.75 -8.225 L 17.75 -8.225 M 17.75 -8.225 L 18.0 -7.9750000000000005 L 18.0 -7.975 Z " stroke="#191919" stroke-width="0.35 px" style="stroke-width:0.35;stroke-miterlimit:4;stroke-dasharray:none;stroke-linecap:square;fill:#e5e5e5;fill-opacity:1.0;fill-rule: evenodd"/>
<path id="Part__Feature_f0098"  d="M 19.5 -7.975 L 18.0 -7.975 L 18.0 -7.975 L 19.5 -7.975 L 19.5 -7.975 Z " stroke="#191919" stroke-width="0.35 px" style="stroke-width:0.35;stroke-miterlimit:4;stroke-dasharray:none;stroke-linecap:square;fill:#e5e5e5;fill-opacity:1.0;fill-rule: evenodd"/>
<path id="Part__Feature_f0099"  d="M 19.75 -7.725 M 19.75 -7.725 L 19.5 -7.9750000000000005 L 19.5 -7.975 M 19.5 -7.9750000000000005 L 19.75 -7.725 L 19.75 -7.725 Z " stroke="#191919" stroke-width="0.35 px" style="stroke-width:0.35;stroke-miterlimit:4;stroke-dasharray:none;stroke-linecap:square;fill:#e5e5e5;fill-opacity:1.0;fill-rule: evenodd"/>
<path id="Part__Feature_f0100"  d="M 19.75 -6.425000000000001 L 19.75 -7.725 L 19.75 -7.725 L 19.75 -6.425000000000001 L 19.75 -6.425000000000001 Z " stroke="#191919" stroke-width="0.35 px" style="stroke-width:0.35;stroke-miterlimit:4;stroke-dasharray:none;stroke-linecap:square;fill:#e5e5e5;fill-opacity:1.0;fill-rule: evenodd"/>
<path id="Part__Feature_f0101"  d="M 19.5 -6.175000000000001 M 19.5 -6.175000000000001 L 19.75 -6.425 L 19.75 -6.425000000000001 M 19.75 -6.425 L 19.5 -6.175000000000001 L 19.5 -6.175000000000001 Z " stroke="#191919" stroke-width="0.35 px" style="stroke-width:0.35;stroke-miterlimit:4;stroke-dasharray:none;stroke-linecap:square;fill:#e5e5e5;fill-opacity:1.0;fill-rule: evenodd"/>
<path id="Part__Feature_f0102"  d="M 18.0 -6.175000000000001 L 19.5 -6.175000000000001 L 19.5 -6.175000000000001 L 18.0 -6.175000000000001 L 18.0 -6.175000000000001 Z " stroke="#191919" stroke-width="0.35 px" style="stroke-width:0.35;stroke-miterlimit:4;stroke-dasharray:none;stroke-linecap:square;fill:#e5e5e5;fill-opacity:1.0;fill-rule: evenodd"/>
<path id="Part__Feature_f0103"  d="M 17.75 -5.925000000000001 M 17.75 -5.925000000000002 L 18.0 -6.175000000000001 L 18.0 -6.175000000000001 M 18.0 -6.175000000000001 L 17.75 -5.925000000000002 L 17.75 -5.925000000000001 Z " stroke="#191919" stroke-width="0.35 px" style="stroke-width:0.35;stroke-miterlimit:4;stroke-dasharray:none;stroke-linecap:square;fill:#e5e5e5;fill-opacity:1.0;fill-rule: evenodd"/>
<path id="Part__Feature_f0104"  d="M 17.75 -4.970000000000001 L 17.75 -5.925000000000001 L 17.75 -5.925000000000001 L 17.75 -4.970000000000001 L 17.75 -4.970000000000001 Z " stroke="#191919" stroke-width="0.35 px" style="stroke-width:0.35;stroke-miterlimit:4;stroke-dasharray:none;stroke-linecap:square;fill:#e5e5e5;fill-opacity:1.0;fill-rule: evenodd"/>
<path id="Part__Feature_f0105"  d="M 18.0 -4.720000000000002 M 18.0 -4.7200000000000015 L 17.75 -4.970000000000001 L 17.75 -4.970000000000001 M 17.75 -4.970000000000001 L 18.0 -4.7200000000000015 L 18.0 -4.720000000000002 Z " stroke="#191919" stroke-width="0.35 px" style="stroke-width:0.35;stroke-miterlimit:4;stroke-dasharray:none;stroke-linecap:square;fill:#e5e5e5;fill-opacity:1.0;fill-rule: evenodd"/>
<path id="Part__Feature_f0106"  d="M 19.5 -4.720000000000001 L 18.0 -4.720000000000002 L 18.0 -4.720000000000002 L 19.5 -4.720000000000001 L 19.5 -4.720000000000001 Z " stroke="#191919" stroke-width="0.35 px" style="stroke-width:0.35;stroke-miterlimit:4;stroke-dasharray:none;stroke-linecap:square;fill:#e5e5e5;fill-opacity:1.0;fill-rule: evenodd"/>
<path id="Part__Feature_f0107"  d="M 19.75 -4.470000000000001 M 19.75 -4.470000000000001 L 19.5 -4.7200000000000015 L 19.5 -4.720000000000001 M 19.5 -4.7200000000000015 L 19.75 -4.470000000000001 L 19.75 -4.470000000000001 Z " stroke="#191919" stroke-width="0.35 px" style="stroke-width:0.35;stroke-miterlimit:4;stroke-dasharray:none;stroke-linecap:square;fill:#e5e5e5;fill-opacity:1.0;fill-rule: evenodd"/>
<path id="Part__Feature_f0108"  d="M 19.75 -3.169999999999989 L 19.75 -4.470000000000001 L 19.75 -4.470000000000001 L 19.75 -3.169999999999989 L 19.75 -3.169999999999989 Z " stroke="#191919" stroke-width="0.35 px" style="stroke-width:0.35;stroke-miterlimit:4;stroke-dasharray:none;stroke-linecap:square;fill:#e5e5e5;fill-opacity:1.0;fill-rule: evenodd"/>
<path id="Part__Feature_f0109"  d="M 19.500000000000014 -2.919999999999989 M 19.500000000000014 -2.9199999999999893 L 19.749999999999996 -3.169999999999987 L 19.75 -3.169999999999989 M 19.749999999999996 -3.169999999999987 L 19.500000000000014 -2.9199999999999893 L 19.500000000000014 -2.919999999999989 Z " stroke="#191919" stroke-width="0.35 px" style="stroke-width:0.35;stroke-miterlimit:4;stroke-dasharray:none;stroke-linecap:square;fill:#e5e5e5;fill-opacity:1.0;fill-rule: evenodd"/>
<path id="Part__Feature_f0110"  d="M 17.800000000000008 -2.919999999999905 L 19.500000000000014 -2.919999999999989 L 19.500000000000014 -2.919999999999989 L 17.800000000000008 -2.919999999999905 L 17.800000000000008 -2.919999999999905 Z " stroke="#191919" stroke-width="0.35 px" style="stroke-width:0.35;stroke-miterlimit:4;stroke-dasharray:none;stroke-linecap:square;fill:#e5e5e5;fill-opacity:1.0;fill-rule: evenodd"/>
<path id="Part__Feature_f0111"  d="M 15.992971366018027 -2.293697346200938 M 15.99297136601803 -2.2936973462009314 L 17.800000000000008 -2.9199999999999866 L 17.800000000000008 -2.919999999999905 M 17.800000000000008 -2.9199999999999866 L 15.99297136601803 -2.2936973462009314 L 15.992971366018027 -2.293697346200938 Z " stroke="#191919" stroke-width="0.35 px" style="stroke-width:0.35;stroke-miterlimit:4;stroke-dasharray:none;stroke-linecap:square;fill:#e5e5e5;fill-opacity:1.0;fill-rule: evenodd"/>
<path id="Part__Feature_f0112"  d="M 16.34186193207164 -0.9125605230293 M 16.34186193207164 -0.9125605230292987 L 15.992971366018027 -2.293697346200937 L 15.992971366018027 -2.293697346200938 M 15.992971366018027 -2.2936973462009376 L 16.34186193207164 -0.9125605230292987 L 16.34186193207164 -0.9125605230293 Z " stroke="#191919" stroke-width="0.35 px" style="stroke-width:0.35;stroke-miterlimit:4;stroke-dasharray:none;stroke-linecap:square;fill:#e5e5e5;fill-opacity:1.0;fill-rule: evenodd"/>
<path id="Part__Feature_f0113"  d="M 16.93374091631979 -1.339553548978099 M 16.93374091631979 -1.3395535489780985 L 16.34186193207164 -0.9125605230292984 L 16.34186193207164 -0.9125605230293 M 16.34186193207164 -0.9125605230292984 L 16.93374091631979 -1.3395535489780985 L 16.93374091631979 -1.339553548978099 Z " stroke="#191919" stroke-width="0.35 px" style="stroke-width:0.35;stroke-miterlimit:4;stroke-dasharray:none;stroke-linecap:square;fill:#e5e5e5;fill-opacity:1.0;fill-rule: evenodd"/>
<path id="Part__Feature_f0114"  d="M 16.549999999999997 -11.500000000000002 L 16.549999999999997 -11.500000000000002 L 17.25 -11.500000000000002 L 17.25 -11.500000000000002 L 16.549999999999997 -11.500000000000002 Z " stroke="#191919" stroke-width="0.35 px" style="stroke-width:0.35;stroke-miterlimit:4;stroke-dasharray:none;stroke-linecap:square;fill:#e5e5e5;fill-opacity:1.0;fill-rule: evenodd"/>
<path id="Part__Feature_f0115"  d="M -16.550000000000004 -11.500000000000004 L -16.550000000000004 -11.500000000000004 L -17.25 -11.500000000000002 L -17.25 -11.500000000000002 L -16.550000000000004 -11.500000000000004 Z " stroke="#191919" stroke-width="0.35 px" style="stroke-width:0.35;stroke-miterlimit:4;stroke-dasharray:none;stroke-linecap:square;fill:#e5e5e5;fill-opacity:1.0;fill-rule: evenodd"/>
<path id="Part__Feature_f0116"  d="M -21.250000000000004 -5.700000000000002 L -21.250000000000004 -5.700000000000002 L -21.250000000000004 -7.500000000000004 L -21.250000000000004 -7.500000000000004 L -21.250000000000004 -5.700000000000002 Z " stroke="#191919" stroke-width="0.35 px" style="stroke-width:0.35;stroke-miterlimit:4;stroke-dasharray:none;stroke-linecap:square;fill:#e5e5e5;fill-opacity:1.0;fill-rule: evenodd"/>
<path id="Part__Feature_f0117"  d="M -21.250000000000004 5.700000000000004 L -21.250000000000004 5.700000000000004 L -21.250000000000004 7.5 L -21.250000000000004 7.5 L -21.250000000000004 5.700000000000004 Z " stroke="#191919" stroke-width="0.35 px" style="stroke-width:0.35;stroke-miterlimit:4;stroke-dasharray:none;stroke-linecap:square;fill:#e5e5e5;fill-opacity:1.0;fill-rule: evenodd"/>
<path id="Part__Feature_f0118"  d="M -21.250000000000004 2.050000000000004 L -21.250000000000004 2.050000000000004 L -21.250000000000004 -2.050000000000002 L -21.250000000000004 -2.050000000000002 L -21.250000000000004 2.050000000000004 Z " stroke="#191919" stroke-width="0.35 px" style="stroke-width:0.35;stroke-miterlimit:4;stroke-dasharray:none;stroke-linecap:square;fill:#e5e5e5;fill-opacity:1.0;fill-rule: evenodd"/>
<path id="Part__Feature_f0119"  d="M -21.250000000000004 -5.100000000000001 L -21.250000000000004 -5.100000000000001 L -21.250000000000004 -2.650000000000001 L -21.250000000000004 -2.650000000000001 L -21.250000000000004 -5.100000000000001 Z " stroke="#191919" stroke-width="0.35 px" style="stroke-width:0.35;stroke-miterlimit:4;stroke-dasharray:none;stroke-linecap:square;fill:#e5e5e5;fill-opacity:1.0;fill-rule: evenodd"/>
<path id="Part__Feature_f0120"  d="M 21.25 -2.050000000000002 L 21.25 -2.050000000000002 L 21.25 2.050000000000004 L 21.25 2.050000000000004 L 21.25 -2.050000000000002 Z " stroke="#191919" stroke-width="0.35 px" style="stroke-width:0.35;stroke-miterlimit:4;stroke-dasharray:none;stroke-linecap:square;fill:#e5e5e5;fill-opacity:1.0;fill-rule: evenodd"/>
<path id="Part__Feature_f0121"  d="M 21.250000000000004 -5.100000000000001 L 21.250000000000004 -5.100000000000001 L 21.25 -2.650000000000002 L 21.25 -2.650000000000002 L 21.250000000000004 -5.100000000000001 Z " stroke="#191919" stroke-width="0.35 px" style="stroke-width:0.35;stroke-miterlimit:4;stroke-dasharray:none;stroke-linecap:square;fill:#e5e5e5;fill-opacity:1.0;fill-rule: evenodd"/>
<path id="Part__Feature_f0122"  d="M 21.250000000000004 -5.700000000000002 L 21.250000000000004 -5.700000000000002 L 21.250000000000004 -7.499999999999999 L 21.250000000000004 -7.499999999999999 L 21.250000000000004 -5.700000000000002 Z " stroke="#191919" stroke-width="0.35 px" style="stroke-width:0.35;stroke-miterlimit:4;stroke-dasharray:none;stroke-linecap:square;fill:#e5e5e5;fill-opacity:1.0;fill-rule: evenodd"/>
<path id="Part__Feature_f0123"  d="M 21.25 5.700000000000004 L 21.25 5.700000000000004 L 21.25 7.500000000000001 L 21.25 7.500000000000001 L 21.25 5.700000000000004 Z " stroke="#191919" stroke-width="0.35 px" style="stroke-width:0.35;stroke-miterlimit:4;stroke-dasharray:none;stroke-linecap:square;fill:#e5e5e5;fill-opacity:1.0;fill-rule: evenodd"/>
<path id="Part__Feature_f0124"  d="M 21.25 5.100000000000003 L 21.25 5.100000000000003 L 21.25 2.650000000000005 L 21.25 2.650000000000005 L 21.25 5.100000000000003 Z " stroke="#191919" stroke-width="0.35 px" style="stroke-width:0.35;stroke-miterlimit:4;stroke-dasharray:none;stroke-linecap:square;fill:#e5e5e5;fill-opacity:1.0;fill-rule: evenodd"/>
<path id="Part__Feature_f0125"  d="M 16.549999999999997 11.500000000000004 L 16.549999999999997 11.500000000000004 L 17.25 11.500000000000004 L 17.25 11.500000000000004 L 16.549999999999997 11.500000000000004 Z " stroke="#191919" stroke-width="0.35 px" style="stroke-width:0.35;stroke-miterlimit:4;stroke-dasharray:none;stroke-linecap:square;fill:#e5e5e5;fill-opacity:1.0;fill-rule: evenodd"/>
<path id="Part__Feature_f0126"  d="M -16.550000000000004 -11.500000000000004 M -16.549999999999983 -11.500000000000004 L -16.249999999999982 -11.200000000000001 L 16.24999999999998 -11.2 M 16.24999999999998 -11.200000000000003 L 16.549999999999976 -11.5 L 17.25 -11.500000000000002 M 17.25 -11.5 L 21.25 -7.499999999999999 L 21.250000000000004 -5.700000000000002 M 21.250000000000004 -5.700000000000001 L 21.250000000000004 -5.100000000000001 L 21.250000000000004 -2.650000000000002 M 21.250000000000004 -2.6500000000000017 L 21.250000000000004 -2.050000000000002 L 21.25 2.050000000000004 M 21.25 2.0500000000000043 L 21.25 2.650000000000004 L 21.25 5.100000000000003 M 21.25 5.100000000000004 L 21.25 5.700000000000004 L 21.25 7.500000000000001 M 21.249999999999996 7.500000000000001 L 17.25 11.499999999999996 L 16.549999999999997 11.500000000000004 M 16.55 11.500000000000004 L 16.25 11.200000000000001 L -16.25 11.200000000000003 M -16.25 11.200000000000001 L -16.55 11.500000000000004 L -17.250000000000004 11.500000000000004 M -17.250000000000004 11.5 L -21.250000000000004 7.500000000000001 L -21.250000000000004 5.700000000000004 M -21.250000000000004 5.700000000000004 L -21.250000000000004 5.100000000000004 L -21.250000000000004 2.650000000000004 M -21.250000000000004 2.650000000000004 L -21.250000000000004 2.0500000000000043 L -21.250000000000004 -2.050000000000002 M -21.250000000000004 -2.050000000000001 L -21.250000000000004 -2.650000000000001 L -21.250000000000004 -5.100000000000001 M -21.250000000000004 -5.100000000000001 L -21.250000000000004 -5.700000000000001 L -21.250000000000004 -7.500000000000004 M -21.25 -7.500000000000004 L -17.25 -11.500000000000007 L -16.550000000000004 -11.500000000000002 Z M -17.223643312464276 1.6841059850059452 M -17.223643312464276 1.684105985005945 L -18.40816275603849 1.672883158552227 M -18.40816275603849 1.6728831585522268 L -18.687474618852058 1.325593192322477 M -18.687474618852058 1.3255931923224773 L -19.125593192322476 0.8874746188520536 M -19.125593192322476 0.887474618852055 L -19.47288315855223 0.608162756038486 M -19.47288315855223 0.6081627560384861 L -19.47288315855223 -0.6081627560384861 M -19.47288315855223 -0.6081627560384859 L -19.125593192322476 -0.8874746188520556 M -19.125593192322476 -0.8874746188520538 L -18.687474618852058 -1.3255931923224773 M -18.687474618852058 -1.325593192322477 L -18.40816275603849 -1.672883158552227 M -18.40816275603849 -1.6728831585522268 L -17.223643312464276 -1.6841059850059448 M -17.223643312464276 -1.6841059850059457 L -16.937801327772128 -1.342170615177812 M -16.937801327772128 -1.342170615177812 L -16.344632035875332 -0.9169718765223662 M -16.344632035875332 -0.9169718765223657 L -15.999925431713136 -2.299158878504673 M -15.999925431713136 -2.2991588785046737 L -17.800000000000008 -2.920000000000007 L -19.5 -2.920000000000003 M -19.5 -2.920000000000004 L -19.75 -3.170000000000002 L -19.75 -4.470000000000001 M -19.75 -4.470000000000001 L -19.5 -4.72 L -18.0 -4.720000000000001 M -18.0 -4.7200000000000015 L -17.75 -4.970000000000001 L -17.75 -5.925000000000001 M -17.75 -5.925000000000001 L -18.0 -6.175 L -19.5 -6.175000000000001 M -19.5 -6.175000000000002 L -19.75 -6.425000000000001 L -19.75 -7.725 M -19.75 -7.725 L -19.5 -7.974999999999999 L -18.0 -7.975 M -18.0 -7.9750000000000005 L -17.75 -8.225 L -17.75 -9.749999999999998 M -17.75 -9.749999999999998 L -17.5 -9.999999999999996 L 17.5 -9.999999999999996 M 17.5 -9.999999999999996 L 17.75 -9.749999999999998 L 17.75 -8.225 M 17.75 -8.225 L 18.0 -7.9750000000000005 L 19.5 -7.975 M 19.5 -7.975 L 19.75 -7.725 L 19.75 -6.425000000000001 M 19.75 -6.425000000000001 L 19.5 -6.1750000000000025 L 18.0 -6.175 M 18.0 -6.174999999999999 L 17.75 -5.925000000000001 L 17.75 -4.970000000000001 M 17.75 -4.970000000000001 L 18.0 -4.720000000000003 L 19.5 -4.720000000000001 M 19.5 -4.720000000000001 L 19.75 -4.470000000000001 L 19.75 -3.169999999999989 M 19.75 -3.169999999999989 L 19.500000000000014 -2.9199999999999884 L 17.800000000000008 -2.919999999999905 M 17.800000000000008 -2.919999999999905 L 15.992971366018027 -2.2936973462009385 M 15.992971366018027 -2.2936973462009385 L 16.34186193207164 -0.9125605230292998 M 16.34186193207164 -0.9125605230293008 L 16.93374091631979 -1.339553548978099 M 16.93374091631979 -1.339553548978099 L 17.21854614082019 -1.6823529384896934 M 17.21854614082019 -1.6823529384896925 L 18.40816275603849 -1.6728831585522268 M 18.40816275603849 -1.6728831585522268 L 18.687474618852058 -1.325593192322477 M 18.687474618852058 -1.3255931923224773 L 19.125593192322476 -0.8874746188520536 M 19.125593192322476 -0.8874746188520546 L 19.47288315855223 -0.6081627560384872 M 19.47288315855223 -0.608162756038487 L 19.47288315855222 0.6081627560384882 M 19.47288315855222 0.6081627560384878 L 19.125593192322476 0.8874746188520567 M 19.125593192322476 0.8874746188520558 L 18.687474618852058 1.325593192322479 M 18.687474618852058 1.325593192322479 L 18.40816275603849 1.6728831585522257 M 18.40816275603849 1.6728831585522264 L 17.21854614082019 1.6823529384896923 M 17.21854614082019 1.6823529384896927 L 16.93374091631979 1.339553548978098 M 16.93374091631979 1.3395535489780979 L 16.34186193207166 0.912560523029299 M 16.34186193207166 0.9125605230292997 L 15.992971366018018 2.2936973462009385 M 15.992971366018018 2.293697346200937 L 17.79999999999999 2.920000000000102 L 19.49999999999999 2.9200000000000115 M 19.49999999999999 2.9200000000000106 L 19.75 3.170000000000014 L 19.75 4.470000000000001 M 19.75 4.470000000000001 L 19.5 4.7200000000000015 L 18.0 4.720000000000002 M 18.0 4.720000000000003 L 17.75 4.970000000000001 L 17.75 5.925000000000001 M 17.75 5.925000000000001 L 18.0 6.175 L 19.5 6.175000000000001 M 19.5 6.175000000000002 L 19.75 6.425000000000001 L 19.75 7.725 M 19.75 7.725 L 19.5 7.974999999999999 L 18.0 7.975 M 18.0 7.9750000000000005 L 17.75 8.225 L 17.75 9.75 M 17.75 9.75 L 17.5 10.0 L -17.5 9.999999999999996 M -17.5 9.999999999999996 L -17.75 9.749999999999998 L -17.75 8.225 M -17.75 8.225 L -18.0 7.9750000000000005 L -19.5 7.975 M -19.5 7.975 L -19.75 7.725 L -19.75 6.425000000000001 M -19.75 6.425000000000001 L -19.5 6.1750000000000025 L -18.0 6.175 M -18.0 6.174999999999999 L -17.75 5.925000000000001 L -17.75 4.970000000000001 M -17.75 4.970000000000001 L -18.0 4.720000000000003 L -19.5 4.720000000000001 M -19.5 4.7200000000000015 L -19.75 4.470000000000001 L -19.75 3.170000000000002 M -19.75 3.170000000000002 L -19.5 2.920000000000001 L -17.800000000000008 2.920000000000007 M -17.800000000000008 2.920000000000007 L -15.999925431713136 2.2991588785046733 M -15.999925431713136 2.2991588785046733 L -16.344632035875332 0.9169718765223671 M -16.344632035875332 0.9169718765223663 L -16.937801327772128 1.342170615177812 M -16.937801327772128 1.342170615177812 L -17.223643312464276 1.6841059850059454 Z " stroke="#191919" stroke-width="0.35 px" style="stroke-width:0.35;stroke-miterlimit:4;stroke-dasharray:none;stroke-linecap:square;fill:#e5e5e5;fill-opacity:1.0;fill-rule: evenodd"/>
<path id="Part__Feature_f0127"  d="M -16.249999999999982 -11.200000000000006 M -16.249999999999982 -11.200000000000001 L -16.549999999999983 -11.500000000000004 L -17.25 -11.500000000000002 M -17.25 -11.500000000000007 L -21.25 -7.500000000000005 L -21.250000000000004 -5.700000000000002 M -21.250000000000004 -5.700000000000001 L -21.250000000000004 -5.100000000000001 L -21.250000000000004 -2.650000000000001 M -21.250000000000004 -2.650000000000001 L -21.250000000000004 -2.050000000000001 L -21.250000000000004 2.050000000000004 M -21.250000000000004 2.0500000000000043 L -21.250000000000004 2.650000000000004 L -21.250000000000004 5.100000000000003 M -21.250000000000004 5.100000000000004 L -21.250000000000004 5.700000000000004 L -21.250000000000004 7.5 M -21.250000000000004 7.5 L -17.250000000000004 11.5 L -16.550000000000004 11.500000000000004 M -16.55 11.500000000000004 L -16.25 11.200000000000001 L 16.25 11.200000000000003 M 16.25 11.200000000000001 L 16.55 11.500000000000004 L 17.25 11.500000000000004 M 17.25 11.499999999999996 L 21.249999999999996 7.500000000000002 L 21.25 5.700000000000004 M 21.25 5.700000000000004 L 21.25 5.100000000000004 L 21.25 2.650000000000005 M 21.25 2.650000000000004 L 21.25 2.0500000000000043 L 21.250000000000004 -2.050000000000002 M 21.250000000000004 -2.050000000000002 L 21.250000000000004 -2.6500000000000017 L 21.250000000000004 -5.100000000000001 M 21.250000000000004 -5.100000000000001 L 21.250000000000004 -5.700000000000001 L 21.250000000000004 -7.499999999999999 M 21.25 -7.499999999999998 L 17.25 -11.5 L 16.549999999999997 -11.500000000000002 M 16.549999999999976 -11.5 L 16.24999999999998 -11.200000000000003 L -16.249999999999982 -11.200000000000006 Z M -16.937801327772128 1.342170615177812 M -16.937801327772128 1.342170615177812 L -16.344632035875332 0.9169718765223662 M -16.344632035875332 0.9169718765223672 L -15.999925431713136 2.299158878504673 M -15.999925431713136 2.2991588785046733 L -17.800000000000008 2.920000000000006 L -19.5 2.9200000000000004 M -19.5 2.920000000000001 L -19.75 3.170000000000002 L -19.75 4.470000000000001 M -19.75 4.470000000000001 L -19.5 4.7200000000000015 L -18.0 4.720000000000002 M -18.0 4.720000000000003 L -17.75 4.970000000000001 L -17.75 5.925000000000001 M -17.75 5.925000000000001 L -18.0 6.174999999999999 L -19.5 6.175000000000002 M -19.5 6.1750000000000025 L -19.75 6.425000000000001 L -19.75 7.725 M -19.75 7.725 L -19.5 7.975 L -18.0 7.975 M -18.0 7.9750000000000005 L -17.75 8.225 L -17.75 9.749999999999998 M -17.75 9.749999999999998 L -17.5 9.999999999999996 L 17.5 10.0 M 17.5 10.0 L 17.75 9.75 L 17.75 8.225 M 17.75 8.225 L 18.0 7.9750000000000005 L 19.5 7.975 M 19.5 7.974999999999999 L 19.75 7.725 L 19.75 6.425000000000001 M 19.75 6.425000000000001 L 19.5 6.175000000000002 L 18.0 6.175000000000001 M 18.0 6.175 L 17.75 5.925000000000001 L 17.75 4.970000000000001 M 17.75 4.970000000000001 L 18.0 4.720000000000003 L 19.5 4.720000000000001 M 19.5 4.7200000000000015 L 19.75 4.470000000000001 L 19.75 3.170000000000014 M 19.75 3.170000000000014 L 19.49999999999999 2.9200000000000106 L 17.79999999999999 2.9200000000001007 M 17.79999999999999 2.9200000000001003 L 15.992971366018018 2.293697346200938 M 15.992971366018018 2.2936973462009385 L 16.34186193207166 0.9125605230292999 M 16.34186193207166 0.9125605230292991 L 16.93374091631979 1.3395535489780979 M 16.93374091631979 1.339553548978098 L 17.21854614082019 1.6823529384896927 M 17.21854614082019 1.6823529384896925 L 18.40816275603849 1.6728831585522266 M 18.40816275603849 1.6728831585522257 L 18.687474618852058 1.325593192322479 M 18.687474618852058 1.325593192322479 L 19.125593192322476 0.8874746188520555 M 19.125593192322476 0.8874746188520564 L 19.47288315855222 0.608162756038488 M 19.47288315855222 0.608162756038488 L 19.47288315855223 -0.6081627560384874 M 19.47288315855223 -0.6081627560384871 L 19.125593192322476 -0.8874746188520546 M 19.125593192322476 -0.8874746188520538 L 18.687474618852058 -1.3255931923224773 M 18.687474618852058 -1.325593192322477 L 18.40816275603849 -1.672883158552227 M 18.40816275603849 -1.6728831585522275 L 17.21854614082019 -1.682352938489693 M 17.21854614082019 -1.6823529384896934 L 16.93374091631979 -1.339553548978099 M 16.93374091631979 -1.339553548978099 L 16.34186193207164 -0.9125605230293006 M 16.34186193207164 -0.9125605230292996 L 15.992971366018027 -2.293697346200938 M 15.992971366018029 -2.293697346200937 L 17.800000000000008 -2.919999999999906 L 19.500000000000014 -2.9199999999999884 M 19.500000000000014 -2.9199999999999884 L 19.75 -3.169999999999989 L 19.75 -4.470000000000001 M 19.75 -4.470000000000001 L 19.5 -4.720000000000001 L 18.0 -4.720000000000002 M 18.0 -4.720000000000003 L 17.75 -4.970000000000001 L 17.75 -5.925000000000001 M 17.75 -5.925000000000001 L 18.0 -6.174999999999999 L 19.5 -6.175000000000002 M 19.5 -6.1750000000000025 L 19.75 -6.425000000000001 L 19.75 -7.725 M 19.75 -7.725 L 19.5 -7.975 L 18.0 -7.975 M 18.0 -7.9750000000000005 L 17.75 -8.225 L 17.75 -9.749999999999998 M 17.75 -9.749999999999998 L 17.5 -9.999999999999996 L -17.5 -9.999999999999996 M -17.5 -9.999999999999996 L -17.75 -9.749999999999998 L -17.75 -8.225 M -17.75 -8.225 L -18.0 -7.9750000000000005 L -19.5 -7.975 M -19.5 -7.974999999999999 L -19.75 -7.725 L -19.75 -6.425000000000001 M -19.75 -6.425000000000001 L -19.5 -6.175000000000002 L -18.0 -6.175000000000001 M -18.0 -6.175 L -17.75 -5.925000000000001 L -17.75 -4.970000000000001 M -17.75 -4.970000000000001 L -18.0 -4.7200000000000015 L -19.5 -4.720000000000001 M -19.5 -4.72 L -19.75 -4.470000000000001 L -19.75 -3.170000000000002 M -19.75 -3.170000000000002 L -19.5 -2.920000000000004 L -17.800000000000008 -2.920000000000007 M -17.800000000000008 -2.920000000000007 L -15.999925431713136 -2.2991588785046733 M -15.999925431713136 -2.299158878504673 L -16.344632035875332 -0.9169718765223656 M -16.344632035875332 -0.9169718765223663 L -16.937801327772128 -1.342170615177812 M -16.937801327772128 -1.342170615177812 L -17.223643312464276 -1.684105985005945 M -17.223643312464276 -1.684105985005945 L -18.40816275603849 -1.672883158552227 M -18.40816275603849 -1.672883158552227 L -18.687474618852058 -1.325593192322477 M -18.687474618852058 -1.3255931923224773 L -19.125593192322476 -0.8874746188520536 M -19.125593192322476 -0.8874746188520554 L -19.47288315855223 -0.6081627560384859 M -19.47288315855223 -0.6081627560384861 L -19.47288315855223 0.6081627560384861 M -19.47288315855223 0.6081627560384861 L -19.125593192322476 0.887474618852055 M -19.125593192322476 0.8874746188520538 L -18.687474618852058 1.3255931923224773 M -18.687474618852058 1.325593192322477 L -18.40816275603849 1.672883158552227 M -18.40816275603849 1.6728831585522268 L -17.223643312464276 1.6841059850059448 M -17.223643312464276 1.684105985005945 L -16.937801327772128 1.342170615177812 Z " stroke="#191919" stroke-width="0.35 px" style="stroke-width:0.35;stroke-miterlimit:4;stroke-dasharray:none;stroke-linecap:square;fill:#e5e5e5;fill-opacity:1.0;fill-rule: evenodd"/>
<path id="Part__Feature_f0128"  d="M -16.550000000000004 11.500000000000004 L -16.550000000000004 11.500000000000004 L -17.250000000000004 11.500000000000004 L -17.250000000000004 11.500000000000004 L -16.550000000000004 11.500000000000004 Z " stroke="#191919" stroke-width="0.35 px" style="stroke-width:0.35;stroke-miterlimit:4;stroke-dasharray:none;stroke-linecap:square;fill:#e5e5e5;fill-opacity:1.0;fill-rule: evenodd"/>
<path id="Part__Feature_f0129"  d="M 17.25 11.500000000000004 M 17.25 11.499999999999996 L 21.249999999999996 7.500000000000002 L 21.25 7.500000000000001 M 21.249999999999996 7.500000000000001 L 17.25 11.499999999999996 L 17.25 11.500000000000004 Z " stroke="#191919" stroke-width="0.35 px" style="stroke-width:0.35;stroke-miterlimit:4;stroke-dasharray:none;stroke-linecap:square;fill:#e5e5e5;fill-opacity:1.0;fill-rule: evenodd"/>
<path id="Part__Feature_f0130"  d="M 21.250000000000004 -7.499999999999999 M 21.25 -7.499999999999998 L 17.25 -11.5 L 17.25 -11.500000000000002 M 17.25 -11.5 L 21.25 -7.499999999999999 L 21.250000000000004 -7.499999999999999 Z " stroke="#191919" stroke-width="0.35 px" style="stroke-width:0.35;stroke-miterlimit:4;stroke-dasharray:none;stroke-linecap:square;fill:#e5e5e5;fill-opacity:1.0;fill-rule: evenodd"/>
<path id="Part__Feature_f0131"  d="M -17.25 -11.500000000000002 M -17.25 -11.500000000000007 L -21.25 -7.500000000000005 L -21.250000000000004 -7.500000000000004 M -21.25 -7.500000000000004 L -17.25 -11.500000000000007 L -17.25 -11.500000000000002 Z " stroke="#191919" stroke-width="0.35 px" style="stroke-width:0.35;stroke-miterlimit:4;stroke-dasharray:none;stroke-linecap:square;fill:#e5e5e5;fill-opacity:1.0;fill-rule: evenodd"/>
<path id="Part__Feature_f0132"  d="M -21.250000000000004 2.650000000000004 L -21.250000000000004 2.650000000000004 L -21.250000000000004 5.100000000000003 L -21.250000000000004 5.100000000000003 L -21.250000000000004 2.650000000000004 Z " stroke="#191919" stroke-width="0.35 px" style="stroke-width:0.35;stroke-miterlimit:4;stroke-dasharray:none;stroke-linecap:square;fill:#e5e5e5;fill-opacity:1.0;fill-rule: evenodd"/>
<path id="Part__Feature_f0133"  d="M -21.250000000000004 7.5 M -21.250000000000004 7.5 L -17.250000000000004 11.5 L -17.250000000000004 11.500000000000004 M -17.250000000000004 11.5 L -21.250000000000004 7.5 L -21.250000000000004 7.5 Z " stroke="#191919" stroke-width="0.35 px" style="stroke-width:0.35;stroke-miterlimit:4;stroke-dasharray:none;stroke-linecap:square;fill:#e5e5e5;fill-opacity:1.0;fill-rule: evenodd"/>
<title>b'Extrusion Tube w. Inlay 60mm'</title>
</g>
</svg>